<?xml version="1.0" encoding="utf-8"?>
<!-- Generator: Adobe Illustrator 27.7.0, SVG Export Plug-In . SVG Version: 6.00 Build 0)  -->
<svg version="1.1" id="Layer_1" xmlns="http://www.w3.org/2000/svg" xmlns:xlink="http://www.w3.org/1999/xlink" x="0px" y="0px"
	 viewBox="0 0 467.9 493.8" style="enable-background:new 0 0 467.9 493.8;" xml:space="preserve">
<style type="text/css">
	.st0{fill:#479DD1;}
</style>
<path class="st0" d="M435.8,0c-49.1,0-98.3,0-147.4,0H234h-56.1c-49,0-98.1,0-147.1,0C13,0,0,13,0,30.9C0,142.9,0,255,0,367
	c0,17.8,12.9,30.9,30.7,31c32.5,0.3,65.6,0.5,97.5,0.7l18.6,0.1c31,0.2,63.1,0.4,94.6,0.5c0.7,0,1.1,0.1,1.2,0.1
	c0.1,0.1,0.2,0.5,0.4,1.2c3.7,15.1,13.6,49.8,16.5,60.6c5.6,20.6,16.9,32.5,38.3,32.5c14.1,0,27.3,0,39.9,0s25.2,0,37,0
	c26.3,0,42.7-17.7,42.9-43.9c0-8.9,1.4-41.6,1.2-50.9l0,0c3.4,0,6.7-0.2,10-0.5c2.6-0.2,5.3-0.3,7.9-0.4c19-0.5,31.2-13,31.2-31.9
	c0-111.4,0-222.8,0-334.3C467.9,12.5,455.3,0,435.8,0L435.8,0z M448.9,330.2V365c0,10.1-3.8,13.9-14,14.2c-5,0.1-10.3,0.4-16.1,0.9
	c0.2-5.5,0.1-11,0-16.3v-0.7c-0.1-8.2-4-15.5-10.7-20c-6.6-4.4-14.7-5.3-22.2-2.4c-0.4,0.2-0.7,0.2-0.9,0.3
	c-0.1-0.1-0.3-0.4-0.6-0.7c-6.5-9.2-17.6-12.4-28.3-8.2c-0.1,0-0.1,0.1-0.2,0.1c-0.1-0.1-0.2-0.2-0.3-0.4
	c-5.8-8.4-14.6-11.9-24.2-9.5c0,0-0.1,0-0.1,0c0,0,0-0.1,0-0.1v-0.4c0.1-27.2,0.1-49.2,0-69.3c-0.1-13.8-8.2-23.8-21.3-26.1
	c-7.5-1.3-15.2,0.7-21,5.5c-5.7,4.8-9,11.8-9,19.2c-0.1,22.1-0.1,44.5-0.1,66.2c0,8.9,0,17.8,0,26.7v10.3
	c-5.7-5.6-11.8-9.4-18.6-11.9c-5.3-1.9-10.9-3-16.8-3.2c-5.8-0.2-10.8,2.2-13.8,6.5c-3,4.3-3.4,9.8-1.2,15c2.6,6.3,5.4,13.1,7.8,20
	c-41-0.3-82.7-0.6-123-0.9c-27.9-0.2-55.9-0.4-83.8-0.6c-7,0-11.6-4.6-11.6-11.7c0-33.4,0-66.8,0-100.1c0-54.9,0-109.9-0.1-164.8
	c0-0.1,0-0.1,0-0.2c0.7,0.1,1.3,0,1.8,0c0.2,0,0.4,0,0.6,0h72.1c117.7,0,235.4,0,353.2,0c0.7,0,1.4,0,2,0c0.1,0,0.3,0,0.5,0
	c0,0,0,0.1,0,0.1c0,0.7,0,1.5,0,2.4C448.9,179.9,448.9,255.1,448.9,330.2L448.9,330.2z M270.4,371.7l0.1,0.1
	c0.1,0.2,0.4,0.6,0.7,0.9c7.6,8.5,10.5,17.5,8.9,27.3c-0.2,1.5-0.2,3-0.1,4.3c0,0.4,0,0.8,0,1.1c0.1,5.2,3.6,8.9,8.9,9.2
	c4.7,0.3,8.5-2.6,9.7-7.5c0.4-1.7,0.4-3.3,0.4-4.7c0-0.3,0-0.6,0-0.9c0-20.2,0-40.5,0-60.8v-13.3c0-7.6,0-15.3,0-23
	c0-17.2,0-35,0-52.5c0-2.9,1.3-5.4,3.5-6.7c2-1.1,4.5-1,6.7,0.3c1.6,0.9,3.2,2.5,3.2,6.7v2.5c0,17.3-0.1,35.1,0,52.7
	c0.1,18.1,0.2,36.5,0.4,54.3l0.1,12.7c0.1,9.4,5.1,11.4,9.4,11.4h0c2.9,0,9.5-1.1,9.5-11.4c0-4.6,0-9.2,0-13.8c0-4.8,0-9.7,0-14.5
	c0-5.7,3-5.8,4.3-5.8c1.4,0,2.5,0.3,3.3,1c1,0.9,1.5,2.5,1.5,4.7c0,6.4-0.1,12.9-0.2,19.2c-0.1,3.1-0.1,6.3-0.1,9.4
	c-0.1,5.4,2,9,6.3,10.5c3,1.1,6.2,0.8,8.6-0.8c2.6-1.8,4.2-4.9,4.4-8.6c0.1-4.4,0.1-8.9,0.1-13.1c0-2.4,0-4.8,0-7.2
	c0-1.9,0.5-6.4,4.9-6.5c1.4,0,2.7,0.5,3.6,1.5c1.1,1.1,1.7,2.7,1.7,4.6c0.1,5.3,0.1,10.7,0.1,15.9c0,3.2,0,6.3,0,9.5c0,4.1,1,7,3,9
	c1.1,1.1,3.2,2.5,6.5,2.4c2.2,0,9.3-1,9.4-11.5c0-2.4,0-4.7,0-7.1c0-3.1,0-6.3,0-9.4c0.1-3,1.5-6.2,5.2-6.2h0.1
	c3.1,0,5.3,2.6,5.3,6.2l0,7.8c0,18.5-1.2,61-1.3,79.8c-0.1,13.1-8.4,23-21.4,23.2c-24,0.3-49.9,0.3-81.5,0c-11-0.1-15-7.1-18.1-18.9
	c-1.6-6.2-10.1-35.7-11.6-41.8c-3.4-13.7-6.8-27.8-11.3-41.5c-1.8-5.3-3.5-9.9-5.3-14.1C257.7,360.1,264.7,364.4,270.4,371.7
	L270.4,371.7z M19,47.5c0-5.4,0-10.8,0-16.1c0-8,4.4-12.4,12.2-12.4c135.1,0,270.3,0,405.4,0c7.9,0,12.3,4.4,12.4,12.3
	c0,5.6,0,11.3,0,16.9c0,11.3-0.1,23,0.1,34.5c0,0.2,0,0.4,0,0.6c-0.4,0-1,0-1.4,0h-0.1c-58.4-0.1-117.8-0.1-175.2-0.1h-34.6h-42.7
	c-57.2,0-116.4,0-174.6,0.1c-0.7,0-1.3,0-1.6-0.1c0-0.3-0.1-0.7-0.1-1.4C19,70.4,19,58.8,19,47.5L19,47.5z"/>
<path class="st0" d="M413.2,191.5c-2.3-1.1-4.5-1-6.2-1c-0.3,0-0.6,0-0.9,0l0,0c-71.3,0-142.6,0-213.9,0l0,0c-0.3,0-0.6,0-0.9,0
	c-1.8,0-3.9-0.1-6.2,1c-4.3,2-6.3,5.7-5.6,10.1c0.7,4.3,3.8,7.2,8,7.7c1.4,0.2,2.8,0.1,4.1,0.1c0.4,0,0.7,0,1,0c30,0,60.1,0,90.1,0
	h32.8c30,0,60.1,0,90.1,0c0.4,0,0.7,0,1,0c0.4,0,0.8,0,1.1,0c1,0,1.9,0,2.9-0.1c4.3-0.5,7.4-3.5,8-7.7
	C419.4,197.2,417.4,193.5,413.2,191.5L413.2,191.5z"/>
<path class="st0" d="M188.8,162.6c1.1,0.1,2.2,0.1,3.2,0.1c0.3,0,0.5,0,0.8,0h124.3c29.3,0,58.5,0,87.8,0h0.7c1.6,0,3.2,0,5-0.2
	c5-0.6,8.1-4.1,8.2-9.1c0.1-5-3-8.5-7.9-9.3c-2.1-0.3-4.1-0.3-6-0.3h-0.2c-70.4,0-140.8,0-211.2,0h-0.9c-1.4,0-2.8,0-4.2,0.1
	c-5.7,0.6-9.1,4.3-9,9.6C179.4,158.9,183.1,162.4,188.8,162.6L188.8,162.6z"/>
<path class="st0" d="M69,216.5c6.1,0.1,12.2,0,18.2,0c2.6,0,5.2,0,7.7,0l0,0c2.7,0,5.4,0,8.1,0c2.5,0,5,0,7.6,0c3.6,0,7.2,0,10.8,0
	c7.2-0.1,11.2-4.1,11.4-11.4c0.1-2.9,0-5.9,0-8.8c0-2.6,0-5.2,0-7.7c0.1-5.3-2.7-8.6-7.5-8.9c-3-0.2-4.8,0.9-5.9,1.9
	c-1.7,1.5-2.6,3.8-2.7,6.7c-0.1,3.3-0.2,7.2,0,11.1c0,0.5,0,0.9,0,1c-0.2,0-0.6,0.1-1.3,0.1c-12.7-0.1-25.9-0.1-40.6,0
	c-0.8,0-1.2-0.1-1.4-0.1c0-0.1-0.1-0.5-0.1-1.1c0.2-13.7,0.2-27.4,0-40.6c0-1,0.1-1.3,0.1-1.4c0.1,0,0.4-0.2,1.6-0.1
	c3.6,0.1,7.2,0.1,10.7,0.1c2.7,0,5.4,0,8.2,0c5.7,0.1,9.1-2.9,9.2-7.8c0-2.3-0.7-4.3-2.1-5.7c-1.6-1.6-4-2.5-6.8-2.5l-3.2,0
	c-7.3-0.1-14.9-0.1-22.3,0.1c-6.9,0.1-11.2,4.4-11.3,11.2c-0.2,17.2-0.2,34.9,0,52.8C57.4,212.4,61.7,216.5,69,216.5L69,216.5z"/>
<path class="st0" d="M130.4,301.8c-1-1-2.8-2.2-5.7-2.1c-4.9,0.1-8,3.5-8,9.1c0,0.8,0,1.6,0,2.4c-0.1,2.7-0.1,5.4,0.1,8.1
	c0,0.6,0,0.9,0,1c-0.2,0-0.6,0.1-1.3,0.1c-13-0.1-26.6-0.1-40.6,0c-0.8,0-1.2-0.1-1.3-0.1c0-0.1-0.1-0.5-0.1-1.2
	c0.1-13.5,0.1-27.1,0-40.6c0-0.7,0.1-1.1,0.1-1.2c0.1,0,0.5-0.1,1.3-0.1c5.6,0.1,11.6,0.1,18.9,0c3.3,0,6.1-1.1,7.7-3
	c1.3-1.5,1.9-3.3,1.7-5.3c-0.5-4.9-3.9-7.7-9.2-7.7c-2.2,0-4.3,0-6.4,0c-6.1,0-12.4-0.1-18.6,0.1c-7.4,0.2-11.5,4.4-11.5,12
	c-0.1,17.5-0.1,34.8,0,51.4c0,7.7,4.2,11.8,12,11.9c3.4,0,6.9,0,10.4,0c2.6,0,5.2,0,7.8,0c2.6,0,5.2,0,7.8,0l0,0c2.8,0,5.5,0,8.3,0
	c5.8,0,11.8,0,17.7,0c7.3-0.1,11.3-4,11.4-11.3c0.1-2.8,0-5.7,0-8.4c0-2.7,0-5.4,0-8.1C132.8,305.8,131.9,303.4,130.4,301.8
	L130.4,301.8z"/>
<path class="st0" d="M258.4,263.9c-7.9,0-15.9,0-23.9,0l-45.4,0c-5.7,0-9.5,3.4-9.8,8.8c-0.3,5.2,2.9,8.9,8.5,10
	c1,0.2,2,0.2,2.7,0.2h0.3h13.8c7.4,0,14.9,0,22.4,0c10.4,0,20.8,0,31.3,0c8.4,0,11.5-4.9,11.5-9.5c0-3.2-1.3-5.3-2.4-6.4
	C265.4,264.9,262.4,263.9,258.4,263.9L258.4,263.9z"/>
<path class="st0" d="M136.6,138.8c-3.8-3.1-8.3-2.6-11.7,1.4c-4.2,5-8.4,10.1-12.6,15.1c-2.4,2.9-4.9,5.8-7.3,8.8
	c-0.7,0.9-1.3,1.8-2,2.7c-1,1.4-2.3,3.4-3.2,3.6c-0.8,0.2-2.3-1.3-3.4-2.5c-0.9-0.9-1.8-1.8-2.8-2.5c-6.1-4.5-10.1-1.4-12,0.8
	c-3.1,3.8-2.5,8.1,1.7,11.5c3.3,2.8,6.8,5.6,10.3,8.3c1.9,1.5,4,2.3,6.1,2.3c0.2,0,0.3,0,0.5,0c5.1,0.1,8.1-2.8,9.9-5.1
	c6.8-8.2,13.6-16.4,20.4-24.6l6-7.2c0.1-0.1,0.1-0.1,0.2-0.2c0.2-0.2,0.4-0.4,0.5-0.6C140.5,146.2,140.2,141.8,136.6,138.8
	L136.6,138.8z"/>
<path class="st0" d="M131.4,256.8c-2.5,0.1-5,1.5-7.1,4c-3.6,4.3-7.2,8.6-10.8,13c-2.7,3.3-5.4,6.5-8.2,9.8c-0.7,0.9-1.4,1.9-2,2.8
	c-1.2,1.7-2.5,3.6-3.6,3.9c-0.7,0.2-2.2-1.4-3.2-2.4c-0.9-0.9-1.8-1.9-2.9-2.6l-0.2-0.2c-0.2-0.1-0.4-0.3-0.6-0.4
	c-4.1-2.7-8.2-2.2-11.1,1.4c-3,3.7-2.5,8,1.3,11.2c3.3,2.8,6.8,5.6,11.1,9c1.6,1.3,3.6,1.9,5.7,1.9c0.2,0,0.4,0,0.7,0
	c3.6,0.2,6.7-1.3,9.5-4.7l7.3-8.8c6.6-7.9,13.2-15.9,19.8-23.8c3.5-4.1,3.4-8.5-0.1-12C135.2,257.4,133.4,256.7,131.4,256.8
	L131.4,256.8z"/>
<path class="st0" d="M408.3,263.9c0,0-0.1,0-0.2,0c-5.1,0-10.3,0-15.3,0c-2.1,0-4.2,0-6.4,0l0,0c-2.1,0-4.2,0-6.4,0
	c-5.2,0-10.5,0-15.7,0c-6.1-0.1-10.1,3.3-10.3,8.9c-0.1,2.8,0.7,5.2,2.4,7c1.9,1.9,4.5,3,7.7,3c7.4,0,14.8,0.1,22.2,0.1
	s14.8,0,22.2-0.1c3.3,0,6-1,7.8-3c1.2-1.2,2.5-3.4,2.4-6.9C418.6,267.2,414.7,263.9,408.3,263.9L408.3,263.9z"/>
<path class="st0" d="M209.6,310.9c-7.1-0.9-14.6-0.9-22.4-0.1c-2.5,0.3-4.7,1.4-6.1,3.2c-1.5,1.9-2.1,4.4-1.8,7.1
	c0.6,4.9,4.1,8.1,9.1,8.1c2.3,0,4.7,0,6.9,0c1,0,2,0,3,0h0c1.1,0,2.1,0,3.2,0c0.9,0,1.8,0,2.7,0c1.4,0,2.7,0,4.1-0.1
	c5.1-0.2,8.4-3.4,8.9-8.5C217.6,315.5,214.6,311.5,209.6,310.9L209.6,310.9z"/>
<path class="st0" d="M248.9,58.6c1.6,0.2,3.1,0.2,4.6,0.2h0.5c24.1,0,48.3,0,72.4,0h34.2c6.3,0,12.6,0,18.9,0c15.2,0,30.3,0,45.5,0
	h1.5c2.5,0,5,0,7.6-0.1c5.3-0.2,8.8-3.8,9-9c0.2-4.7-2.7-8.4-7.7-9.5c-1.6-0.4-3-0.3-4.4-0.3h-0.7c-59.1,0-118.1,0-177.2,0
	c-1.9,0-4.1,0.1-6.2,0.7c-4.5,1.3-7,5.2-6.5,9.9C241.2,55,244.3,58.1,248.9,58.6L248.9,58.6z"/>
<path class="st0" d="M50.8,73.4c0.1,0,0.1,0,0.2,0c6.3,0,12.2-2.3,16.5-6.6c4.3-4.3,6.7-10.1,6.7-16.4c0-12.7-10.3-23-22.9-23l0,0
	c-6.2,0-12.1,2.5-16.5,7c-4.4,4.5-6.8,10.3-6.7,16.4C28.1,63.1,38.4,73.3,50.8,73.4L50.8,73.4z M57.5,56.7c-1.6,1.6-3.9,2.5-6.5,2.5
	c-4.8-0.1-8.8-4.1-8.8-8.7c0-2.3,1-4.5,2.7-6.2c1.7-1.7,4-2.7,6.3-2.7c0,0,0.1,0,0.1,0c4.9,0.1,8.6,3.9,8.6,8.8
	C60,52.9,59.1,55.1,57.5,56.7L57.5,56.7z"/>
<path class="st0" d="M165,73.4c0.1,0,0.2,0,0.3,0c6.3,0,12.1-2.3,16.4-6.5c4.3-4.2,6.7-10,6.7-16.3c0.1-12.9-9.9-23.1-22.7-23.2
	c-6.2-0.1-12,2.3-16.4,6.6c-4.4,4.4-6.9,10.3-6.9,16.6C142.4,63,152.6,73.2,165,73.4L165,73.4z M172,56.6c-1.6,1.7-3.8,2.6-6.3,2.6
	c-5,0.1-8.8-3.5-9-8.4c-0.1-2.4,0.8-4.7,2.4-6.5c1.6-1.7,3.9-2.7,6.3-2.8c0.1,0,0.2,0,0.2,0c4.7,0,8.5,3.7,8.7,8.5
	C174.4,52.6,173.6,54.9,172,56.6L172,56.6z"/>
<path class="st0" d="M108.2,73.4L108.2,73.4c12.8,0,23.2-10.3,23.3-22.8c0.1-6.1-2.5-12.1-6.9-16.5c-4.4-4.4-10.5-6.9-16.5-6.8
	c-12.8,0.2-22.8,10.4-22.8,23.2c0,6.2,2.4,12,6.7,16.2C96.3,71,102.1,73.4,108.2,73.4L108.2,73.4z M108.4,41.6c2.3,0,4.6,1,6.3,2.7
	c1.7,1.7,2.7,4,2.7,6.3c-0.1,4.7-4.1,8.6-8.9,8.7c0,0-0.1,0-0.1,0c-5,0-8.7-3.5-8.8-8.5c-0.1-2.5,0.8-4.8,2.4-6.5
	c1.6-1.7,3.8-2.6,6.3-2.7C108.3,41.6,108.3,41.6,108.4,41.6L108.4,41.6z"/>
</svg>
