<?xml version="1.0" encoding="utf-8"?>
<!-- Generator: Adobe Illustrator 27.7.0, SVG Export Plug-In . SVG Version: 6.00 Build 0)  -->
<svg version="1.1" id="Layer_1" xmlns="http://www.w3.org/2000/svg" xmlns:xlink="http://www.w3.org/1999/xlink" x="0px" y="0px"
	 viewBox="0 0 448.9 451.2" style="enable-background:new 0 0 448.9 451.2;" xml:space="preserve">
<style type="text/css">
	.st0{fill:#479DD1;}
</style>
<path class="st0" d="M448.9,15.4c0-4.5-1.5-8.5-4.2-11.3c-2.7-2.7-6.5-4.1-11-4.1C380.4,0.2,326.3,0.1,274,0.1
	c-16.6,0-33.1,0-49.7,0H16c-0.3,0-0.7,0-1,0c-0.8,0-1.7,0-2.6,0C7.1,0.5,3.2,3.3,1,8.2c-1,2.4-1,4.9-1,7v0.6v317.6v0.6
	c0,0.6,0,1.3,0,2c0.3,7.9,5.6,13.1,13.6,13.3l1.6,0c4.1,0.1,8.3,0.1,12.5-0.1c1.8-0.1,2.2,0.1,2.3,0.2c0,0,0.3,0.4,0.3,2
	c0,7.1,4.8,11.8,12.2,12l1,0c1.5,0.1,3,0.1,4.5-0.1c1.6-0.2,2.1,0.1,3,2.2c0.8,1.9,0.5,2.6-0.8,3.7c-1.8,1.5-3.3,3.2-4.4,4.5
	c-4.3,5-4.2,11.7,0.2,16.3c4,4.3,8.4,8.7,12.9,12.9c4.7,4.4,11.4,4.5,16.3,0.1c1.5-1.3,2.8-2.7,4.2-4c0.5-0.5,0.9-1,1.4-1.4
	c0.4-0.4,0.5-0.4,0.5-0.4c0,0,0.1,0,0.3,0c1.6,0.5,3.1,0.9,3.5,1.4c0.4,0.5,0.4,2,0.4,3.6v1.1c0,0.9,0,1.8,0,2.8
	c0.2,7.8,4.9,12.6,12.6,12.8c5.7,0.2,11.3,0.2,16.5,0c7.4-0.3,12.2-5.1,12.5-12.6c0-0.3,0-0.7,0.1-1c0.1-1.6,0.2-3.3-0.1-5
	c-0.3-1.5,0-1.8,2.2-2.5c0.6-0.2,1.1-0.4,1.7-0.6c0,0,0.1,0,0.1,0c0.1,0.2,0.3,0.5,0.4,0.8c0.2,0.4,0.4,0.9,0.7,1.3
	c22.6,34.5,53.3,51.9,91.2,51.9c4.1,0,8.3-0.2,12.6-0.6c33.6-3.2,60.6-20.2,80.1-50.5l0.2-0.3c0.6-1,1.3-2,1.6-2.3
	c0.4,0,1.6,0.5,2.7,1l0.2,0.1c0.9,0.4,0.9,0.5,0.9,1.2c-0.1,2.3-0.1,4.6,0,6.8c0.2,7.2,4.9,12.1,11.9,12.4c6.1,0.3,12.2,0.3,18,0
	c6.9-0.4,11.4-5,11.6-12.1v-0.3c0.1-1.9,0.2-3.9,0-5.9c-0.1-1.1,0-1.6,1.8-2.5c2.1-1,3.1-0.8,4.4,0.9c0.9,1.2,2,2.2,3,3.1l0.6,0.6
	c5.1,4.8,11.9,4.8,16.9,0.1c4.5-4.2,8.7-8.5,12.7-12.7c4.5-4.8,4.6-11.5,0.2-16.6c-1.1-1.3-2.4-2.8-4-4c-1.6-1.2-2-2.1-1-4.5
	c0.7-1.6,1.3-1.8,3.5-1.7c0.7,0,1.4,0,2.1,0c0.3,0,0.5,0,0.8,0c9.6,0,13.6-3.8,14.3-13.4c0-0.4,0.1-0.6,0.1-0.7c0.1,0,0.3,0,0.5,0
	c3.7,0.1,7.4,0.1,11,0h3.4c10.1,0,15.2-5.2,15.2-15.3v-68.8C448.8,183.4,448.8,98.7,448.9,15.4L448.9,15.4z M383.8,353.6
	c-0.9,3.4-2.3,6.8-4.5,10.9c-2.3,4.5-1.9,7.7,1.6,11.5c0.3,0.3,0.6,0.6,0.9,0.9l0.4,0.4c2.3,2.3,4.4,4.4,4.4,5.1
	c0,0.7-2.4,2.7-4.9,4.7l-0.1,0.1c0,0-0.1,0-0.1,0.1c0,0,0,0,0,0c-1.9-2-3.9-4-6-6c-3.6-3.4-7-3.9-11.2-1.6c-3.6,2-7.3,3.5-11.2,4.7
	c-4.7,1.4-6.8,4.2-7,9.3c0,0.4,0,0.9,0,1.3c0,0.6,0,1.1,0,1.6c-0.1,1,0,2.1,0.1,3.1c0.1,0.7,0.2,1.7,0.1,2.1c-1.6,0.6-3.8,0.5-6,0.3
	c-0.6,0-1.2-0.1-1.8-0.1c0,0,0-0.1,0-0.1v-0.4c0-2.4-0.1-5.2,0-8c0.1-4.7-2.2-7.9-6.8-9.1c-0.6-0.2-1.4-0.3-2-0.5
	c-1.9-0.4-4-0.9-4.7-1.9c-0.3-0.5,0.2-1.6,0.9-3.1c0.5-1.1,1.1-2.2,1.3-3.4c0.1-0.4,0.1-0.7,0.2-1.1c0.2-1.2,0.6-3.3,1.1-3.8
	c0.3,0,1.2,0.5,1.8,0.9c0.8,0.4,1.5,0.9,2.4,1.2c8.1,2.6,17.2,1.6,24.9-2.7c7.5-4.2,12.9-11.3,14.8-19.3c2.1-8.9,0.4-18.2-4.6-25.5
	c-4.8-7.1-12.1-11.8-20.6-13.1c-6.7-1-12.8-0.1-18.5,2.8c-0.1,0-0.2,0.1-0.2,0.1c0-0.1,0-0.1-0.1-0.2c-0.8-3.2-1.9-6.6-3.5-10.8
	c0-0.1-0.1-0.2-0.1-0.3c0,0,0.1,0,0.1,0c1.1-0.4,2.1-0.7,3.2-1.1c1.2-0.4,2.5-0.9,3.7-1.3c5.3-1.8,6.5-5.6,6.5-8.5
	c0-0.7,0-1.4,0-2.1c0-1.8,0.1-3.6-0.1-5.4c-0.1-1.1,0.1-1.4,0.1-1.4c0,0,0.4-0.2,1.5,0c0.6,0.1,1.2,0.1,1.8,0c0.2,0,0.4,0,0.6,0
	c0.9,0,1.6,0,2.3,0c0.5,0,1,0,1.4,0c0,0.4,0,1.1,0,1.7c0,0.6,0,1.3,0,2.1c0,0.7,0,1.3,0,2c0,1,0,2,0,3c0.1,4.5,2.6,7.6,6.8,8.8
	c3.5,0.9,7.1,2.4,11.1,4.6c4.6,2.5,7.7,2,11.5-1.6l0.8-0.7c1.5-1.5,3.2-3,4.6-4.7c0.3-0.3,0.4-0.5,0.5-0.5c0.1,0.1,0.4,0.3,0.9,0.8
	l0.2,0.2c1.9,1.9,3.7,3.8,3.7,4.4c0,0.7-1.9,2.5-3.9,4.5c-5.3,5.3-5.7,7.8-2.2,14.3c1.5,2.8,2.6,5.7,3.5,8.6c1.7,6.1,4.2,7.9,10.7,8
	h1.1c2.7,0,5.5,0,5.9,0.5c0.4,0.5,0.3,3.2,0.3,5.9v0.2c0,0.5-0.1,0.8-0.1,0.9c-0.1,0-0.3,0-0.6,0c-2.5-0.1-5.1-0.1-7.5,0
	C388.1,346.5,385.2,348.8,383.8,353.6L383.8,353.6z M332.2,344.6v-0.4h0.1v-2c0-0.5,0-1.1,0.1-1.6c0.1-1.4,0.1-2.9-0.2-4.3
	c-0.5-2.5,0.3-4,3.2-5.8c6.2-3.7,13.9-2.1,18.3,3.7c4.4,5.7,3.6,14-1.7,18.9c-5.2,4.8-13.4,4.9-18.7,0.2c-1-0.9-1.3-1.6-1.2-2.9
	C332.2,348.5,332.2,346.5,332.2,344.6L332.2,344.6z M401.2,321.8c-1.9,0.3-2.8,0-3.8-2.8c-0.5-1.4-0.3-1.7,0.5-2.4
	c1.5-1.4,3.1-3,4.9-4.9c4.4-5,4.4-11.5,0.1-16.3c-4.1-4.4-8.5-8.9-13.2-13.2c-4.6-4.3-11-4.3-16-0.1c-1.4,1.1-2.9,2.4-4,4
	c-1.5,2-2.6,2.2-4.8,1c-1.5-0.8-1.6-1.1-1.5-2.1c0.1-2.5,0.1-5.1-0.1-7.6c-0.5-6.2-5.2-10.8-11.3-10.9c-6.1-0.2-12.4-0.2-18.6,0
	s-11,4.8-11.5,11.2c-0.2,2.8-0.1,5.5-0.1,7.6c0,0.8,0,1-1.4,1.8c-2,1.2-2.4,1.1-4.3-1.8c-23-35.2-55.1-52.3-95.3-51.1
	c-37.6,1.2-67.4,18.7-88.7,52.1c-0.2,0.4-0.4,0.7-0.6,1.1c-0.1,0.2-0.2,0.4-0.3,0.6l0,0c-0.6-0.3-1.3-0.5-2-0.8
	c-2.1-0.6-2.2-0.8-2-2.1c0.3-2.3,0.1-4.6,0-6.7c-0.5-7.3-5.3-11.9-12.6-12c-6.3-0.1-11.8-0.1-16.8,0c-7.1,0.1-11.9,4.9-12.2,12
	c0,0.3,0,0.7-0.1,1c-0.1,1.4-0.1,2.8,0.1,4.2c0.3,2,0,3-2.8,3.8c-1.6,0.5-1.8,0.4-2.4-0.3c-1.5-1.7-3.2-3.4-5.2-5.1
	c-4.9-4.3-11.3-4.3-16,0c-4.6,4.2-9.1,8.8-13.4,13.5c-4.2,4.6-4.2,11.2,0.1,16c1.3,1.5,2.8,3.1,4.4,4.5c1.3,1,1.5,1.7,0.7,3.7
	c-0.9,2-1.4,2.2-2.7,2c-2.1-0.2-4.3-0.1-6.3,0c-6,0.4-10.3,4-11.5,9.6c-0.1,0.5-0.2,0.7-0.2,0.7c0,0-0.2,0.1-0.8,0.1
	c-3.5-0.1-7.7-0.2-11.7,0c-0.4,0-0.7,0-0.8,0c0-0.1,0-0.4,0-0.8c0.1-0.5,0-1,0-1.5c0-0.2,0-0.3,0-0.5V19.8c0-1,0-2,0.1-2.5
	c0.5-0.1,1.5-0.1,2.4-0.1h153.6h256c1,0,2,0,2.5,0.1c0.1,0.5,0.1,1.4,0.1,2.3v40.8c0,89.7,0,179.5,0,269.2c0,0.6,0,1.1,0,1.6
	c0,0.3,0,0.7,0,1c-0.3,0-0.7,0-1,0c-0.4,0-0.9,0-1.4,0c-1.4,0-2.7,0-4.1,0c-2,0-4,0-6.1,0c0,0-0.1,0-0.1,0c-0.3,0-0.5,0-0.5,0
	c0,0-0.1-0.2-0.2-0.6c-1.4-6-5.5-9.4-11.7-9.8l-0.7,0C404.3,321.6,402.8,321.5,401.2,321.8L401.2,321.8z M160.3,277.7
	c17.2-17.2,39.9-26.7,64-26.7h0c24.2,0,47.1,9.5,64.3,26.9c17.2,17.4,26.8,40.4,26.8,64.8c0,50.4-40.7,91.5-90.8,91.6h-0.2
	c-50.1,0-90.9-41-91-91.5C133.4,318.2,142.9,295.1,160.3,277.7L160.3,277.7z M110,392.8v6.6c0,0.9,0,1.9-0.1,2.4
	c-0.5,0.1-1.5,0.1-2.5,0.1h-1.4c-0.3,0-0.5,0-0.8,0c-0.7,0-1.4,0-2.2,0c-0.2,0-0.4,0-0.4,0c0-0.1,0-0.3,0-0.6c0.1-2.9,0-5.7,0-8.1
	c-0.1-4.7-2.5-7.9-6.9-9c-3.7-1-7.5-2.6-11.4-4.8c-3.8-2.1-7.6-1.6-10.7,1.4c-2.5,2.5-4.4,4.4-6.2,6.2c0,0-0.1,0.1-0.1,0.1
	c-0.1,0-0.1-0.1-0.2-0.2l-0.1-0.1c-2.3-2.1-4.5-4-4.5-4.8c0-0.7,2-2.8,4.3-5.1c4.9-4.9,5.3-7.6,2.1-13.7c-1.8-3.5-3-6.6-3.8-9.6
	c-1.3-4.9-4.3-7.2-9.4-7.4c-2.7-0.1-5.4-0.1-8,0h-0.2c0,0-0.1,0-0.1,0c0-0.2,0-0.4,0-0.5c-0.2-2.9-0.5-5.9-0.1-6.4
	c0.5-0.5,3.5-0.5,6.5-0.5c7.6,0,9.5-1.4,11.7-8.8c1-3.3,2.6-6.5,4-9.2c2.3-4.5,1.9-7.7-1.6-11.5c-2.2-2.3-3.9-4-5.6-5.5
	c-0.2-0.1-0.2-0.2-0.3-0.3c0.1-0.1,0.2-0.3,0.5-0.6l0.1-0.1c2-2.1,3.9-4.1,4.5-4.1l0,0c0.7,0,2.6,2,4.7,4c5.3,5.3,7.7,5.6,14.2,2.2
	c2.9-1.5,6-2.8,9.3-3.7c4.9-1.4,7.1-4.2,7.3-9.4c0.1-2.8,0.1-5.4,0-7.8c0-0.1,0-0.2,0-0.3c0.1,0,0.3,0,0.5-0.1h0.2
	c3-0.2,5.8-0.3,6.3,0.1c0.5,0.5,0.5,3.3,0.5,6.3c0,7.5,1.4,9.4,8.5,11.6c2.2,0.7,4.4,1.4,4.7,1.8c0.1,0.5-0.6,2.5-1.2,4.6
	c-0.3,1-0.6,2.1-0.8,3.2c-0.3,1.4-0.7,3.4-1.3,3.8c-0.3,0.2-2-0.7-2.7-1.1c-1.1-0.6-2.3-1.2-3.6-1.6c-12.9-3.1-26.9,2.7-33.9,14.1
	c-7.1,11.5-5.8,26.7,3,36.8c9.1,10.4,23.4,13.7,35.7,8.2c1-0.4,1.4-0.5,1.7-0.6c0.1,0.2,0.2,0.6,0.4,1.4c0.7,3.2,1.8,6.3,2.9,8.9
	c0.2,0.4,0.2,0.6,0.2,0.8c-0.1,0-0.2,0.1-0.5,0.2c-1.4,0.4-2.7,0.9-4,1.4c-1,0.4-2,0.7-3,1C112.2,385.7,110,388.6,110,392.8
	L110,392.8z M116.4,340.7l0,2c0,0.5,0,1,0,1.5c0,1.1,0,2.3,0,3.4c0.2,5.4-1.5,7.5-6.9,8.8c-6.2,1.5-12.8-1.6-15.7-7.3
	c-3-5.8-1.6-13,3.4-17.2c2.6-2.2,5.8-3.4,9-3.4c2.8,0,5.7,0.9,8.2,2.7c2,1.4,2.5,2.5,2.2,4.5C116.3,337.4,116.4,339,116.4,340.7
	L116.4,340.7z"/>
<path class="st0" d="M266.5,126.2V111c0-13.1,0-26.7,0-40c0-6.6-3.7-10.2-10.3-10.3c-9.5-0.1-17.4-0.1-24.8,0
	c-5.5,0.1-9.4,3.7-9.8,9.4c-0.1,0.9-0.1,1.9-0.1,2.8v0.8c0,4.2,0,8.5,0,12.7c0,12.6,0,25.6,0.1,38.3c0,1.5-0.2,2.4-0.7,2.9
	c-0.5,0.4-1.3,0.6-2.7,0.4c-2.3-0.2-4.5-0.2-6.7,0c-1.1,0.1-1.8,0-2.3-0.4c-0.5-0.4-0.6-1.2-0.6-2.7c0.1-8.1,0.1-16.3,0.1-24.3v-5.1
	c0-3.2-0.8-5.6-2.4-7.2c-1.2-1.2-2.8-1.8-4.8-1.8c-4.4,0.1-6.9,3.2-6.9,8.8v6.4c0,7.7-0.1,15.6,0.1,23.3c0,1.3-0.1,2.1-0.6,2.5
	c-0.4,0.4-1.1,0.5-2.2,0.4c-4.1-0.3-7.7-0.2-10.9,0c-1.3,0.1-2.1,0-2.6-0.5c-0.5-0.5-0.7-1.3-0.7-3c0.1-16.1,0.1-32.5,0.1-48.4V60.9
	c0-3.9,0-6,0.9-6.9c0.9-0.8,2.8-0.9,6.8-0.8c0.9,0,1.9-0.1,2.9-0.2c2.3-0.3,4.5-0.5,5.8,0.8c1.1,1.2,0.9,3.2,0.6,5.4
	c-0.1,1-0.2,2.1-0.2,3.1c0.2,4.7,2.7,7.6,6.8,7.7c1.9,0,3.6-0.6,4.9-1.8c1.5-1.4,2.3-3.5,2.3-6c0.1-4.2,0.1-8.4,0-12.6
	c-0.1-6.8-4-10.5-10.9-10.5c-5.9,0-11.8,0-17.6,0h-4.4c-8.7,0-12,3.3-12,12.1c0,9.2,0,18.3,0,27.5v12c0,3.1,0,6.1,0,9.2
	c0,8.3,0,17,0.1,25.5c0,1.2-0.2,1.9-0.6,2.3c-0.4,0.3-1.1,0.5-2.1,0.4c-2.8-0.2-5.2-0.2-7.4,0c-1.1,0.1-1.9,0-2.3-0.4
	c-0.4-0.4-0.6-1.2-0.6-2.6c0.1-15.4,0.1-30.5,0-41.9c0-7.2-3.9-11.1-11.1-11.1c-6.4-0.1-12.9,0-19.2,0h-2.8c-8.6,0-12,3.4-12,12.2
	c0,8.5,0,17,0,25.5v10.8c0,3.7,0,5.8-0.9,6.7c-0.9,0.9-2.9,0.8-6.7,0.8c-0.8,0-1.6,0-2.2,0c-1.6,0-2.5,0-2.8-0.3
	c-0.3-0.3-0.3-1.4-0.3-3.3c0-0.5,0-1,0-1.7c0-14.9,0-29.8,0-44.7c0-8.6,0-17.2,0-25.8c0-10-3.1-13.1-13.2-13.1h-3.4
	c-5.4,0-10.8,0-16.2,0c-8.8,0-12.2,3.4-12.2,12c0,27,0,54,0,81.1c0,7.8,2.2,10,10,10h71.8h123.6h0.9c0.3,0,0.6,0,0.9,0
	c0.6,0,1.1,0,1.7-0.1c5.8-0.4,9.5-4.2,9.6-9.9c0-1.4,0-2.9,0-4.3L266.5,126.2L266.5,126.2z M235.7,76.9c0-0.8,0.1-1.4,0.4-1.7
	c0.3-0.3,0.8-0.4,1.7-0.4l0.9,0c3.6,0.1,7.4,0.2,11-0.1c1.1-0.1,1.8,0.1,2.1,0.4c0.4,0.4,0.6,1.1,0.5,2.5
	c-0.1,5.7-0.1,11.5-0.1,17.2c0,2.2,0,4.4,0,6.6s0,4.4,0,6.6c0,5.6,0,11.4,0.1,17.1c0,1.2-0.1,1.9-0.6,2.3c-0.4,0.4-1.1,0.5-2.3,0.5
	c-1.8-0.1-3.6-0.1-5.4-0.1c-2.2,0-4.2,0.1-6.1,0.1c-1,0-1.6-0.1-1.9-0.4c-0.3-0.3-0.5-0.9-0.5-1.8
	C235.7,110.1,235.7,94.1,235.7,76.9L235.7,76.9z M136.7,101.8c0,1.7,0,3.4,0,5.2s0,3.5,0,5.2c0,4.4,0,8.9,0.1,13.3
	c0,1-0.1,1.7-0.5,2c-0.4,0.3-1,0.5-2,0.4c-1.9-0.1-3.8-0.1-5.8-0.1s-4,0-6.1,0.1c-1.1,0-1.7-0.1-2.1-0.5c-0.3-0.3-0.5-1-0.5-1.9
	c0.1-11.9,0.1-24.3,0-37c0-1,0.2-1.7,0.5-2c0.4-0.3,1-0.5,2-0.5c4.6,0.2,8.4,0.2,11.9,0c1-0.1,1.7,0.1,2,0.5
	c0.4,0.4,0.6,1.1,0.5,2.3C136.7,93.2,136.7,97.6,136.7,101.8L136.7,101.8z M78.7,104.5v15.4c0,4,0,6.2-0.9,7.2
	c-0.9,0.9-3,0.9-7.1,0.9c-4.5,0-6.7,0-7.7-1c-1-1-1-3.2-1-7.7v-29c0-3.1,0-6.2,0-9.3c0-8.1,0-16.4-0.1-24.6c0-1.4,0.2-2.3,0.7-2.8
	c0.5-0.5,1.3-0.6,2.8-0.5c3.3,0.2,6.7,0.2,10.2,0c1.3-0.1,2.1,0.1,2.5,0.5c0.5,0.5,0.7,1.3,0.7,2.7C78.7,72.4,78.7,88.8,78.7,104.5
	L78.7,104.5z"/>
<path class="st0" d="M350.1,40.2L350.1,40.2c-28,0-50.7,22.8-50.7,50.7c0,28,22.6,50.9,50.5,50.9h0.1c13.5,0,26.2-5.3,35.8-14.9
	c9.7-9.7,15-22.5,15-36.1c0-13.5-5.3-26.3-14.9-35.8C376.4,45.4,363.6,40.2,350.1,40.2L350.1,40.2z M343,69.2c0,1.6,0,3.1,0,4.7v4.9
	c0,3.4,0,6.7,0,10.1c0,6.7,2.3,9,9.1,9c2.5,0,4.9,0,7.4,0c7.8,0,15.8,0,23.7-0.1c1.2,0,1.9,0.1,2.2,0.5c0.3,0.3,0.2,1.1-0.1,2.3
	c-4.7,17.2-20.7,28.3-38.9,26.8c-16.9-1.3-31.3-15.9-32.8-33.2c-1.6-17.7,9.6-34,26.5-38.8c0.7-0.2,1.2-0.3,1.6-0.3
	c0.4,0,0.6,0.1,0.8,0.2c0.4,0.3,0.5,1.1,0.5,2.5C343,61.7,343,65.5,343,69.2L343,69.2z M358.9,83.9c-0.6,0-1.1-0.1-1.3-0.3
	c-0.3-0.3-0.4-0.9-0.4-1.8c0-3,0-6.1,0-9v-3.6c0-1.2,0-2.4,0-3.6c0-2.8,0-5.8,0-8.7c0-0.9,0.1-1.4,0.4-1.6c0.1-0.1,0.4-0.2,0.7-0.2
	c0.3,0,0.6,0,0.9,0.1c11.7,2.3,24.3,15,26.4,26.8c0.1,0.8,0.1,1.3-0.1,1.5c-0.2,0.2-0.6,0.3-1.2,0.3
	C376.2,83.9,367.5,83.8,358.9,83.9L358.9,83.9z"/>
<path class="st0" d="M258.2,187.8c-11.7,0-23.4,0-35,0h-12.8h-9.9c-8.9,0-17.8,0-26.7,0c-4.7,0-7.8,2.5-8.2,6.4
	c-0.2,2,0.4,3.8,1.6,5.2c1.4,1.6,3.7,2.5,6.4,2.5c10.1,0,20.2,0,30.3,0h11.9h12.7c3.7,0,7.4,0,11.2,0c6.4,0,12.7,0,19.1,0
	c2.6,0,4.8-0.9,6.2-2.5c1.3-1.5,1.8-3.5,1.5-5.7C265.9,190,262.8,187.8,258.2,187.8L258.2,187.8z"/>
<path class="st0" d="M260,212.6c-0.9-0.1-1.7-0.1-2.6-0.1h-1.7c-27,0-54,0-81.1,0c-1.4,0-2.9,0-4.3,0.4c-2.1,0.6-3.8,2.2-4.5,4.3
	c-0.8,2.1-0.4,4.5,0.9,6.4c1.9,2.7,4.6,2.9,7.1,2.9h0.1c10.3,0,20.6,0,30.9,0h12.8c4.8,0,9.5,0,14.3,0c2.5,0,5,0,7.5,0
	c6.6,0,13.4,0,20.1-0.1c3.9-0.1,6.7-2.7,6.9-6.5C266.6,216,264.1,213.2,260,212.6L260,212.6z"/>
<path class="st0" d="M173.7,177.2c14,0,28.5,0,43.3,0c13.5,0,27.3,0,41.3,0c5.2,0,8.2-2.6,8.2-7.1c0-4.5-2.9-6.9-8.3-6.9
	c-10,0-20,0-30,0h-11.9h-12.8c-10,0-19.9,0-29.9,0c-5,0-8,2.5-8.1,6.8c-0.1,1.9,0.6,3.6,1.8,4.9C168.8,176.4,171,177.2,173.7,177.2
	L173.7,177.2z"/>
<path class="st0" d="M142.5,212.7c-1-0.1-2-0.1-3-0.1h-0.6c-27,0-54,0-81,0h-0.3c-1.4,0-2.9,0-4.3,0.3c-2.2,0.5-3.9,1.9-4.8,3.9
	c-0.9,2-0.8,4.2,0.3,6.1c1.8,3.2,4.7,3.7,7.5,3.7h0.1c10.4,0,20.9,0,31.1,0h11.1c4.1,0,8.2,0,12.2,0c2.8,0,5.7,0,8.5,0
	c7.4,0,15,0,22.5-0.1c4.1,0,6.9-2.8,7-6.8C149,216.1,146.3,213.1,142.5,212.7L142.5,212.7z"/>
<path class="st0" d="M141.4,163.2c-10.1-0.1-20.5,0-30.5,0c-4,0-8.1,0-12.1,0c-7.9,0-15.8,0-23.7,0c-1.9,0-3.8,0-5.7,0
	c-4.7,0-9.5,0-14.2,0c-4.1,0.1-7,2.8-7.2,6.6c-0.2,3.8,2.6,6.8,6.6,7.3c1,0.1,2.1,0.1,3.1,0.1h0.8c25.4,0,50.7,0,76.1,0h1.5
	c0.5,0,1,0,1.5,0c1.4,0,2.9,0,4.3-0.1c2.9-0.1,5.1-1.5,6.3-4c1.1-2.2,1-4.7-0.3-6.6C146.6,164.5,144.2,163.3,141.4,163.2
	L141.4,163.2z"/>
<path class="st0" d="M140.9,187.8c-4.3,0-8.7,0-12.9,0c-1.8,0-3.7,0-5.6,0c-1.9,0-3.8,0-5.7,0c-4.3,0-8.7,0-13.1,0
	c-4.4,0.1-7.6,2.9-7.7,7c0,1.9,0.6,3.6,1.9,4.9c1.4,1.4,3.5,2.2,5.9,2.3c6.2,0,12.5,0,18.8,0s12.4,0,18.5,0c2.5,0,4.6-0.8,6-2.2
	c1.2-1.3,1.9-3,1.9-4.9C148.9,190.7,145.6,187.9,140.9,187.8L140.9,187.8z"/>
<path class="st0" d="M55.1,201.9c1,0,2.1,0.1,3.1,0.1c0.8,0,1.7,0,2.5,0c0.7,0,1.3,0,2,0h7.9c0.2,0,0.4,0,0.6,0
	c4.3-0.2,7.2-3,7.3-6.9c0.1-4-2.9-7.1-7.1-7.2c-5.6-0.1-11.1-0.1-16.4,0c-3.9,0.1-6.9,3.1-7,6.9C47.9,198.7,50.9,201.7,55.1,201.9
	L55.1,201.9z"/>
<path class="st0" d="M224.4,425.1h0.1c13.6,0,28-3.8,39.4-10.3c30.2-17.3,46.1-49.4,41.5-83.8c-1.4-10.2-4.6-19.8-9.7-28.7
	c-2.5-4.4-7.4-5.9-11.6-3.6c-4,2.2-5.4,6.8-3.5,11.3c0.3,0.6,0.6,1.2,0.8,1.7l0.1,0.3c7.2,14,9.3,29.1,6.1,44.8
	c-6,30-35.5,52.9-65.7,51.2c-20.3-1.2-38.6-11.1-50.1-27.3c-11.6-16.2-15.1-36.8-9.5-56.4c8.8-31.2,40.7-51.5,72.7-46.1
	c9.1,1.5,17.6,4.9,25.3,10.1c1.7,1.1,4.6,3.1,8.2,2.1c3.5-1,5.8-3.5,6.4-6.9c0.9-5.5-3.3-8.3-4.7-9.2c-20-13.2-41.8-17.1-64.9-11.7
	c-19.3,4.5-36.3,16.2-47.8,32.9c-11.5,16.7-16.5,36.8-14.2,56.8C147.9,393.8,182.9,425.1,224.4,425.1L224.4,425.1z"/>
<path class="st0" d="M245,334.6c7-6.1,13.6-12.3,21.4-19.7c2.5-2.4,3.6-5.5,3.1-8.6c-0.5-2.7-2.4-4.9-5-6c-3.5-1.4-6.9-0.6-10.1,2.3
	c-3.8,3.5-7.6,7-11.4,10.5c-3.6,3.3-7.1,6.6-10.6,9.9c-1.2,1.1-1.6,1.2-2.6,0.8c-3.3-1.2-6.8-1.3-10.2-0.2c-0.9,0.3-1.2,0.2-2.2-0.8
	c-4.4-4.5-9.1-9.1-13.1-13.1c-4.1-4.1-9.5-4.4-13-0.9c-3.6,3.6-3.2,8.8,0.9,13l1.9,2c3.5,3.5,7.1,7.2,10.7,10.6
	c0.9,0.9,1.1,1.4,0.8,2.9c-1.5,6.1-0.3,12.3,3.4,17.1c3.6,4.7,9.2,7.5,15.3,7.5c0.1,0,0.1,0,0.2,0c5.8,0,11.3-2.5,15-7
	c3.7-4.4,5.2-10.2,4.2-15.9C243.1,337,243.4,336,245,334.6L245,334.6z M225.9,344.5c-0.4,0.4-1,0.6-1.4,0.6
	c-1.6-0.1-2.4-0.9-2.5-2.4c-0.1-0.7,0.3-1.2,0.5-1.5c0.5-0.5,1.1-0.8,1.8-0.8h0.1c0.7,0,1.3,0.2,1.7,0.7c0.4,0.4,0.7,1,0.7,1.6
	C226.8,343.3,226.4,344,225.9,344.5L225.9,344.5z"/>
<path class="st0" d="M217.3,389.2c-0.1,3.7,3,6.7,6.9,6.8c3.9,0.1,7.2-2.8,7.3-6.5c0.1-3.8-2.9-6.6-6.9-6.7
	C220.4,382.8,217.4,385.5,217.3,389.2L217.3,389.2z"/>
<path class="st0" d="M224.2,302.2c4,0,7.1-2.8,7.2-6.5c0.1-3.8-2.9-6.6-7-6.6c-4.1,0-7.1,2.7-7.2,6.4
	C217.2,299.2,220.3,302.2,224.2,302.2z"/>
<path class="st0" d="M171.9,342.6c0,4.1,2.6,7.1,6.4,7.1c3.8,0,6.6-2.9,6.6-7c0-4.1-2.7-7.1-6.5-7.1
	C174.7,335.6,171.9,338.5,171.9,342.6L171.9,342.6z"/>
<path class="st0" d="M268.6,342.5c-0.1,4.2,2.4,7.1,6.2,7.3c3.8,0.1,6.6-2.8,6.8-6.8s-2.6-7.1-6.3-7.2
	C271.5,335.5,268.7,338.4,268.6,342.5L268.6,342.5z"/>
<path class="st0" d="M366.2,177.7l-5-5c-4.1-4.1-8.1-8.1-12.2-12.2c-1.6-1.6-3.6-2.3-5.5-2.1c-2,0.3-3.7,1.5-4.8,3.6
	c-0.3,0.5-0.6,1.1-0.9,1.6L335,169c-5.1,9.6-10.1,19.1-15.2,28.7c-0.1,0.2-0.3,0.5-0.6,0.7c-3.2,3.2-6.5,6.4-9.7,9.7
	c-3.8,3.8-5.3,8.6-4.4,13.8c-1.5,2.3-2.3,4.9-2.5,8.1v0.1c0,1.3,0.2,2.5,0.4,3.4c1.1,5.1,4.5,9.1,9.2,11c4.6,1.9,9.8,1.4,14.2-1.3
	c2.8,0.6,5.6,0.3,8.3-0.8c2.1,2.1,4.1,4.1,6.6,6.5c1.9,1.8,4.3,2.9,7,3c0.2,0,0.3,0,0.5,0c4.2,0,8.2-2.5,9.9-6.4
	c1.8-4.1,1-8.9-2.2-12.1c-1.7-1.8-3.5-3.5-5.2-5.2c0.2-0.1,0.5-0.2,0.7-0.4l8.8-4.6c8.5-4.5,16.9-9,25.4-13.4
	c2.1-1.1,3.5-2.9,3.8-4.8c0.3-2-0.5-4-2.2-5.7C380.5,192,373.3,184.8,366.2,177.7L366.2,177.7z M335.9,225.4c-1.5,1.5-3,3.1-4.6,4.6
	c-1.5,1.4-3.1,1.4-4.5-0.1c-1.9-1.9-3.7-3.7-5.6-5.6c-1-1-1.9-1.9-2.9-2.9c-0.7-0.7-1-1.3-1-2.2v0c0-0.9,0.3-1.5,0.9-2.1
	c1.1-1.1,2.3-2.3,3.4-3.4c1-1,2-2.1,3.1-3.1c4.3,4.3,8.7,8.7,13,13C337.1,224.2,336.5,224.8,335.9,225.4L335.9,225.4z M367,205.7
	c-6.4,3.4-12.9,6.8-19.3,10.2c-5.1-5.1-10.2-10.2-15.3-15.3c3.2-6,6.4-12.1,9.6-18.1l4-7.5c1.4,1.4,2.8,2.8,4.2,4.2
	c5.3,5.3,10.5,10.5,15.8,15.8l7.4,7.4L367,205.7L367,205.7z"/>
<path class="st0" d="M378.3,174.3c1.7,0,3.3-0.7,4.6-1.9c1.3-1.3,2.6-2.6,3.9-3.9l2.1-2.1c1.2-1.2,1.9-2.7,2-4.2v-0.1V162
	c0-2.7-1.5-5-3.9-5.9c-2.4-1-4.9-0.4-6.8,1.4c-2.2,2.2-4.2,4.1-6,6c-2.5,2.6-2.6,6.4-0.1,8.8C375,173.6,376.6,174.3,378.3,174.3
	C378.2,174.3,378.2,174.3,378.3,174.3L378.3,174.3z"/>
<path class="st0" d="M357.6,158.9c0.1,3.4,2.8,6.2,6.2,6.2l0,0c3.4,0,6.2-2.7,6.2-6.2c0-2.1,0-4.2,0-6.3c-0.1-3.5-2.8-6.2-6.2-6.2
	l0,0c-3.4,0-6.1,2.7-6.2,6.1c0,0.7,0,1.4,0,2.2v0.9v1C357.6,157.3,357.6,158.1,357.6,158.9L357.6,158.9z"/>
<path class="st0" d="M393.8,177.4c-0.7,0-1.5,0-2.2,0h-0.9h-0.9c-0.7,0-1.5,0-2.2,0c-3.5,0.1-6.1,2.8-6.2,6.2c0,3.4,2.7,6.2,6.2,6.2
	c1,0,2.1,0,3.1,0s2.1,0,3.1,0c3.5-0.1,6.2-2.8,6.2-6.2C400,180.3,397.3,177.5,393.8,177.4L393.8,177.4z"/>
</svg>
