<?xml version="1.0" encoding="utf-8"?>
<!-- Generator: Adobe Illustrator 27.7.0, SVG Export Plug-In . SVG Version: 6.00 Build 0)  -->
<svg version="1.1" id="Layer_1" xmlns="http://www.w3.org/2000/svg" xmlns:xlink="http://www.w3.org/1999/xlink" x="0px" y="0px"
	 viewBox="0 0 495.2 495.2" style="enable-background:new 0 0 495.2 495.2;" xml:space="preserve">
<style type="text/css">
	.st0{fill:#479DD1;}
</style>
<path class="st0" d="M481.5,318.2c-5.2,0.3-10.5-0.3-15.7,0.4c-6.9,0.9-11.3-1.2-12.6-8.4c-0.2-0.9-0.7-1.8-1.2-2.6
	c-1.1-2-0.8-3.5,0.9-5.1c5.3-5,10.4-10.2,15.6-15.3c5.1-5,5.4-9.5,1.1-15.3c-9.7-13.4-21.1-24.9-34.5-34.6
	c-6.5-4.7-11.1-4.4-16.6,1.4c-4.8,5.1-9.9,10-14.8,15c-1.3,1.3-2.8,2.1-4.4,1c-3.6-2.7-9.3-1.7-11.6-6.7c-0.2-0.4,0-0.8,0-1.2
	c0-7-0.1-14,0.1-21c0.2-7.5-3.2-11.6-10.6-12.6c-16.2-2.3-32.3-2.2-48.5,0c-7.1,1-10.8,5.2-10.6,12.2c0.1,4.9-0.3,10,0.3,14.8
	c0.9,7.2-1,11.9-8.7,13.2c-0.4,0.1-0.8,0.3-1.1,0.5c-2.7,1.8-4.8,1.4-7.1-1.1c-4.7-5.2-9.8-10-14.7-15c-4.5-4.6-9.3-5.1-14.4-1.4
	c-14.1,10.1-26.2,22.1-36.3,36.3c-3.5,5-3.1,9.8,1.2,14.1c3.3,3.3,6.4,7,10.1,9.7c7.1,5.2,9,11.1,3.7,18.5c-0.1,0.1-0.1,0.2-0.1,0.4
	c-0.6,2.3-2,3.3-4.5,3.2c-7-0.2-14-0.1-21-0.2c-7.2-0.2-11.7,3.3-12.4,10.3c-0.9,7.6-2.2,15.3-1.8,23c0.2,4-1.1,5-5.1,5
	c-58-0.1-116.1-0.1-174.1-0.1c-8.9,0-12.4-3.5-12.4-12.5c0-32.3,0-64.7,0-97c0-31.5,0-134.9,0-141.3c0-4.4,2.1-6.6,6.5-6.6
	c111.9,0,223.9,0,335.8,0c1.8,0,3.6,0.1,5.4-0.1c4.3-0.4,8-3.9,8.7-8.2c0.8-4.2-1.6-8.5-5.6-10.6c-2.5-1.3-5.1-1-7.7-1
	c-112.2,0-224.4,0-336.7,0c-1.1,0-2.2-0.1-3.3,0c-2.6,0.3-3.2-0.9-3.2-3.3c0.1-15.3,0-30.5,0.1-45.8c0-6.2,4.1-10.1,10.5-10.3
	c0.8,0,1.7,0,2.5,0c143.2,0,286.3,0,429.5,0c0.8,0,1.6,0,2.5,0c6.5,0.2,10.5,4.1,10.6,10.6c0.1,15.1,0,30.3,0.1,45.4
	c0,2.8-1,3.5-3.6,3.4c-8.4-0.1-16.8-0.1-25.2,0c-6.5,0.1-10.9,4.1-10.9,9.9c0,5.8,4.4,9.9,10.8,9.9c8,0.1,16,0.3,23.9-0.1
	c4.1-0.2,4.9,1.2,4.9,5.1c-0.1,57.1-0.1,114.1-0.1,171.2c0,1.5-0.1,3,0.1,4.5c0.4,5.1,4.6,8.9,9.6,9c5.1,0.1,9.4-3.5,10-8.5
	c0.2-1.5,0.1-3,0.1-4.5c0-81.6,0-163.1,0-244.6c0-18.3-12.8-31.1-31.2-31.1C391.8,0,319.6,0,247.4,0C174.8,0,102.2,0,29.6,0
	C13.5,0,0.1,13.3,0,29.4c0,24.2,0,118.7,0,179.4c0,0,0,0.1,0,0.1c0,23.2,0,46.5,0,69.7c0,22.1,0,44.3,0,66.4
	c0,18.6,12.7,31.3,31.4,31.3c59,0,118,0,177-0.1c3,0,4.6,0.5,5.4,3.8c1.4,5.7,5.1,8.1,10.9,8c4.4-0.1,8.9,0.4,13.2-0.3
	c9.1-1.5,14.4,1.6,16.5,10.8c0.6,2.5,0.7,4-1.2,5.8c-5.2,4.9-10.2,10-15.3,15c-4.7,4.6-5.2,9.5-1.5,14.7c10,14,22,26,36,36
	c5.2,3.7,9.9,3.4,14.4-1.1c3.2-3.2,6.8-6.2,9.4-9.8c5.2-7,10.9-9.3,18.9-4.1c2.2,1.5,3.6,2.4,3.5,5.1c-0.2,7.1-0.1,14.3-0.2,21.5
	c-0.1,6.5,3.2,10.1,9.5,11.2c17,3.1,33.9,3,50.9,0c6-1.1,9.4-4.8,9.3-11c-0.1-5.5,0.3-11-0.3-16.5c-0.8-6.6,1.3-10.7,8.1-12
	c1-0.2,2.1-0.8,3-1.3c2.2-1.3,3.7-0.7,5.3,1c5,5.3,10.2,10.4,15.3,15.6c4.9,4.9,9.4,5.2,15,1.1c13.6-9.9,25.3-21.5,35.1-35.1
	c4.2-5.8,4-10.3-1.1-15.3c-3.1-3.1-6-6.6-9.5-9.2c-7.2-5.2-9-11-4-18.9c1.4-2.2,2.4-3.6,5.1-3.5c7.1,0.2,14.3,0.1,21.5,0.2
	c5.9,0.1,10.2-3.2,11.1-8.3c3.1-17.2,3.1-34.4,0.3-51.7C492.1,322.2,486.9,317.9,481.5,318.2L481.5,318.2z M474.9,364.6
	c-0.2,2.6-1.5,3.5-4,3.4c-6.6-0.2-13.2-0.1-19.8-0.2c-6.5-0.1-10,2.2-11.8,8.5c-2.2,7.6-5,14.8-9,21.6c-3.1,5.2-2.3,9.4,2.1,13.7
	c4.9,4.8,9.7,9.7,14.7,14.4c1.9,1.8,2,3.1,0.3,5.1c-5,5.8-10.2,11.1-16,16.1c-2.2,1.9-3.5,1.7-5.5-0.3c-4.5-4.8-9.3-9.4-13.9-14.1
	c-4.8-5-8.8-5.8-14.6-2.3c-6.7,4-13.8,6.7-21.2,8.8c-6,1.7-8.4,5.3-8.3,11.5c0.1,6.7,0,13.5,0.2,20.2c0.1,2.4-0.8,3.5-3.2,3.8
	c-7.7,0.8-15.4,0.8-23.1,0c-2.5-0.2-3.6-1.3-3.5-4c0.2-6.6,0-13.2,0.2-19.8c0.2-6.6-2.1-10.1-8.4-11.9c-7.6-2.1-14.8-5-21.6-9
	c-5.3-3.1-9.2-2.3-13.6,2.2c-4.9,5-9.9,9.9-14.7,15c-1.6,1.7-2.8,1.6-4.5,0.2c-5.9-5-11.3-10.4-16.4-16.3c-1.8-2.1-1.9-3.5,0.2-5.4
	c4.8-4.5,9.4-9.3,14.1-13.9c5.1-4.9,5.7-9,2.2-15c-3.9-6.5-6.8-13.5-8.5-20.9c-1.1-4.9-5.3-8.2-10.5-8.2c-3.6,0-7.1,0-10.7,0
	c0,0.1,0,0.1,0,0.2c-3.6,0-7.1-0.1-10.7,0c-2.4,0.1-3.5-0.8-3.7-3.3c-0.7-7.8-0.6-15.7,0-23.5c0.2-2.7,1.8-3,4-3
	c6.7,0.1,13.5,0,20.2,0.2c6.4,0.1,10.1-2.9,11.7-9.2c1.7-7,4.5-13.5,8.2-19.7c3.7-6.2,3-10.4-2.2-15.4c-4.8-4.6-9.3-9.4-14.1-13.9
	c-2-1.9-1.9-3.2-0.2-5.1c5-5.7,10.3-11,16-16c2.1-1.9,3.5-1.7,5.4,0.3c4.6,4.9,9.4,9.6,14.1,14.4c4.5,4.6,8.8,5.2,14.4,2
	c6.7-3.9,13.7-6.9,21.3-8.6c5.3-1.2,8.2-5.6,8.1-11.4c-0.1-6.7,0-13.5-0.2-20.2c-0.1-2.8,0.9-4,3.7-4.1c7.4-0.4,14.8-0.4,22.3,0
	c2.8,0.2,3.9,1.2,3.8,4c-0.2,6.6-0.1,13.2-0.2,19.8c-0.1,6.9,2.8,10.5,9.6,12.2c6.5,1.6,12.8,4.2,18.6,7.6
	c7.1,4.2,10.7,3.8,16.3-2.1c4.5-4.6,9.2-9.1,13.6-13.8c1.9-2,3.2-1.9,5.1-0.2c5.9,5,11.3,10.5,16.3,16.3c1.6,1.9,1.5,3.1-0.2,4.8
	c-4.9,4.6-9.5,9.5-14.4,14.2c-5.1,5-5.8,8.6-2.3,14.6c3.9,6.7,6.7,13.8,8.8,21.2c1.6,5.9,5.2,8.3,11.2,8.2c6.7-0.1,13.5,0,20.2-0.2
	c2.8-0.1,4,1,4.2,3.7C475.5,349.6,475.5,357.1,474.9,364.6L474.9,364.6z"/>
<path class="st0" d="M198.1,265.3c0-19.1,0-38.2,0-57.3s0-38.2,0-57.3c0-8.3-3.7-12-12.1-12c-38.2,0-76.4,0-114.7,0
	c-8.1,0-11.9,3.7-11.9,11.8c0,38.4,0,76.7,0,115.1c0,8.1,3.8,11.8,11.9,11.8c38.2,0,76.4,0,114.7,0
	C194.4,277.3,198.1,273.6,198.1,265.3L198.1,265.3z M178.3,253.9c0,3-0.9,3.7-3.8,3.7c-15.4-0.1-30.8-0.1-46.2-0.1
	c-15.1,0-30.3-0.1-45.4,0.1c-2.8,0-3.8-0.7-3.8-3.7c0.1-30.5,0.1-61.1,0-91.6c0-3.2,1-3.9,4-3.9c30.4,0.1,60.8,0.1,91.2,0
	c3,0,4,0.7,4,3.9C178.2,192.8,178.2,223.3,178.3,253.9L178.3,253.9z"/>
<path class="st0" d="M247,178.3c-4.9,0.3-8.9,4.2-9.3,8.9c-0.4,4.8,2.7,9.4,7.5,10.5c1.8,0.4,3.8,0.3,5.7,0.3
	c57.2,0,114.4,0,171.5,0c1.4,0,2.8,0.1,4.1-0.1c3.4-0.3,6-1.9,7.7-4.9c4.1-7-0.9-14.9-9.5-14.9c-29.3-0.1-58.6,0-87.8,0
	c-26.9,0-53.9,0-80.8,0C253.1,178.3,250.1,178.1,247,178.3L247,178.3z"/>
<path class="st0" d="M286.3,39.6c-24.3,0-48.6,0-73,0c-21.2,0-42.3,0-63.5,0c-3.8,0-7.1,1.1-9.3,4.3c-2.2,3.2-2.6,6.6-0.7,10.1
	c2,3.8,5.2,5.5,9.4,5.5c22.8,0,45.6,0,68.4,0c22.7,0,45.4,0,68,0c3.8,0,7.1-1,9.4-4.1c2.3-3.1,2.8-6.5,0.9-10.1
	C294,41.3,290.7,39.6,286.3,39.6L286.3,39.6z"/>
<path class="st0" d="M279,138.7c-1.5,0-3.1,0-4.5,0.4c-4.7,1.4-7.7,6-7,10.8c0.7,5,4.8,8.6,10.5,8.6c19.5,0.1,39,0,58.5,0
	c19.4,0,38.8,0,58.1,0c6.9,0,11.3-3.9,11.4-9.8c0.1-6.1-4.5-10-11.6-10C356,138.6,317.5,138.7,279,138.7L279,138.7z"/>
<path class="st0" d="M99.4,297.1c-9.5,0-19,0-28.4,0c-7.1,0-11.6,4-11.5,10.1c0.1,5.9,4.5,9.7,11.4,9.7c18.8,0,37.6,0,56.5,0
	c6.8,0,11.3-4,11.3-9.9c0-5.9-4.4-9.9-11.2-9.9C118.1,297.1,108.7,297.1,99.4,297.1L99.4,297.1z"/>
<path class="st0" d="M59.5,49.2c-0.1,5.4,4.3,10.1,9.7,10.2c5.4,0.1,10-4.4,10.1-9.8c0.1-5.3-4.2-9.7-9.5-9.9
	C64.2,39.5,59.6,43.8,59.5,49.2L59.5,49.2z"/>
<path class="st0" d="M99.1,49.5c0,5.4,4.5,9.9,10,9.9c5.3-0.1,9.9-4.7,9.8-10.1c-0.1-5.3-4.5-9.5-9.8-9.6
	C103.5,39.7,99.1,44.1,99.1,49.5L99.1,49.5z"/>
<path class="st0" d="M415.9,89c-0.1-5.3-4.4-9.6-9.8-9.6c-5.5-0.1-10,4.3-10,9.8c0,5.4,4.5,9.9,10,9.9C411.5,99,416,94.4,415.9,89z"
	/>
<path class="st0" d="M352.9,293.8c-31.9,0.2-59.1,27.5-59.1,59.4c0,32.1,27.4,59.5,59.5,59.4c32.3-0.1,59.4-27.2,59.2-59.5
	C412.4,320.8,385.1,293.6,352.9,293.8z M353.1,392.7c-21.4-0.1-39.4-18.1-39.4-39.5c0-21.3,18.1-39.5,39.3-39.6
	c21.5-0.1,39.7,18,39.8,39.5C392.8,374.8,374.7,392.8,353.1,392.7L353.1,392.7z"/>
</svg>
