<?xml version="1.0" encoding="utf-8"?>
<!-- Generator: Adobe Illustrator 27.7.0, SVG Export Plug-In . SVG Version: 6.00 Build 0)  -->
<svg version="1.1" id="Layer_1" xmlns="http://www.w3.org/2000/svg" xmlns:xlink="http://www.w3.org/1999/xlink" x="0px" y="0px"
	 viewBox="0 0 455.7 455.2" style="enable-background:new 0 0 455.7 455.2;" xml:space="preserve">
<style type="text/css">
	.st0{fill:#479DD1;}
</style>
<path class="st0" d="M73.3,290.2c2.8-0.4,5.3-1.1,8-1.9c0.9-0.2,1.8-0.5,2.7-0.8l0.1,89.6v1c0,0.9,0,1.8,0,2.7
	c0.2,4.3,2.9,7,6.9,6.9c3.9-0.1,6.4-2.7,6.6-6.8c0-1.5,0-3,0-4.5l0-18.6c0-24.5-0.1-49.8-0.2-74.6c0-2.2,0.6-3.5,2.3-5
	c11-9.3,17-21.2,17.9-35.2c0.1-1.4,0.3-1.7,0.3-1.7c0,0,0.3-0.2,1.9-0.2c13,0.1,26.2,0.1,39,0.1c4.7,0,9.3,0,14,0
	c-4.8,3.8-9.3,6.7-14,9.1c-3.5,1.8-7.1,3.4-10.6,5.1c-3.8,1.8-7.8,3.6-11.6,5.6c-13.9,7.1-21.2,23-17.5,37.8
	c2.5,10,8.8,17.9,17.7,22.3c9.1,4.5,20,4.5,29.9,0.2c3-1.3,6-2.8,8.9-4.1c7.2-3.4,14.6-6.9,22.4-9c24.4-6.3,44.4-5,62.9,4.1
	c8.3,4.1,17,7.7,25.4,11.1c3.6,1.5,7.4,3.1,11.1,4.6c5.7,2.5,10.6,2.6,14.6,0.6c4-2.1,6.7-6.3,7.9-12.4c1.9-9,1.3-17.9,0.5-25.3
	c-1.6-15.4-5.6-31.5-12.2-49.1c-0.1-0.2-0.1-0.4-0.2-0.5c0.1,0,0.3,0,0.5,0l2.5,0c8.6,0.1,17.6,0.2,26.4-0.1
	c1.8-0.1,2.3,0.2,2.3,0.3c0.1,0.1,0.4,0.6,0.4,2.7c-0.1,37.1-0.1,74.8-0.1,111.3v21.2c0,1.9,0,3.7,0.2,5.6c0.4,3.1,2.6,5.2,5.9,5.5
	c0.2,0,0.5,0,0.8,0c3,0,5.4-1.8,6.3-4.8c0.4-1.3,0.4-2.7,0.4-3.9v-0.2c0-47.4,0-94.8,0-142.3c0-6.6-2.5-9.1-9-9.1
	c-5.3,0-10.6,0-15.9,0c-4.6,0-9.2,0-13.8,0c-1.4,0-2.9,0.1-4.3,0.2c-3,0.2-6.2,0.5-7.9-0.6c-1.6-1-2.8-3.9-3.8-6.6
	c-0.5-1.4-1.1-2.9-1.8-4.2c0-0.1,0-0.1-0.1-0.2c-0.1-0.2-0.2-0.5-0.4-0.8c0,0,0-0.1,0-0.1c0.1,0,0.2,0,0.3,0c9.4,0,18.8,0,28.2,0
	c10.7,0,21.8,0,32.7,0.1c5,0,7,2.1,7.1,7.5c0.1,7,0.1,14,0,20.7c0,1.8,0.2,4.4,2,6.1c1.2,1.2,2.8,1.8,4.9,1.7
	c3.1-0.1,6.7-1.5,6.6-8.1c0-4.1,0-8.2,0-12.2c0-2.9,0-5.7,0-8.6c0-13.1-7.9-20.9-20.9-20.9h-8.3c-18.7,0-38.1-0.1-57.1,0.1
	c-2.3,0-3.2-0.5-4.3-2.4c-10.1-17.2-20.7-30.9-32.4-41.9c-6.1-5.7-12.8-11.5-21.7-13.6c-6.5-1.5-12.1,1.1-15,7
	c-0.9,1.8-1.5,3.7-2,5.6l-2.6,8.5c-3.4,11.2-6.9,22.8-10.2,34.2c-0.6,2.2-1,2.5-3.2,2.5c-32.4-0.1-65.3-0.1-96.3-0.1h0
	c-1.8,0-3.1-0.4-4.4-1.6C87.4,189.5,73,185.6,57,188.2c-13.1,2.1-25.2,9.8-33.1,20.9c-8.1,11.4-11.3,25.4-8.9,39.2
	c4.2,24.3,26.8,42.4,51.3,42.4C68.5,290.7,70.9,290.5,73.3,290.2L73.3,290.2z M67.3,277c-20.6,1.3-38-14.8-39.6-36.7
	c-0.7-9.2,2.5-18.4,9-25.8c6.9-8,16.9-12.9,27.4-13.6c0.8-0.1,1.5-0.1,2.3-0.1c8.9,0,17.5,3.4,24.6,9.6c7.7,6.8,12.5,16.4,13.1,26.4
	C105.4,257.9,89.2,275.6,67.3,277L67.3,277z M307.5,302.5c0.2,4.2-0.3,8.3-1.4,12.4c-0.4,1.3-0.7,1.6-0.7,1.6c0,0-0.6,0.1-2.1-1
	c-6.6-4.4-11.6-10.6-15.8-16.1c-9.5-12.3-17.2-25.8-22.9-36.2c-0.2-0.3-0.3-0.5-0.3-0.7c0.1-0.1,0.3-0.1,0.5-0.2
	c2.3-0.8,4.4-1.9,6.3-3c10.1-5.6,14.2-18.1,9.2-28.5c-4.9-10.2-16.6-14.9-27.3-11c-0.1,0-0.1,0.1-0.3,0.1c-1.4,0.4-2.8,1.2-3.9,1.9
	c-0.9,0.6-2.4,1.5-2.8,1.3c-0.9-0.6-1.6-2.9-2.1-4.7c-0.3-0.9-0.6-1.9-0.9-2.8c-5.1-13.5-10.5-29.6-12.7-46.6
	c-0.5-4.2-0.5-7.6,0.1-10.7c0.2-1.1,0.5-1.3,0.5-1.3c0,0,0.4-0.1,1.5,0.4c3.7,1.6,7.3,4,11.1,7.4c15.8,14.3,28.9,32.3,41.3,56.9
	c10.9,21.6,18.2,43.8,21.6,66c0.8,5.4,1.5,9.9,1.2,14.5v0.1L307.5,302.5L307.5,302.5z M257.8,249c1.9-0.8,3.2-2.1,3.8-3.8
	c0.6-1.7,0.5-3.7-0.4-5.6c-0.9-1.8-2.1-2.9-3.8-3.5c-1.7-0.6-3.7-0.3-5.6,0.7c-0.1-0.2-0.2-0.4-0.3-0.6l-0.2-0.3
	c-0.1-0.1-0.1-0.3-0.2-0.4c0.1-0.1,0.3-0.2,0.5-0.3c2.9-1.4,6.5-3.1,8.9-3.1h0.1c3.6,0,6.7,2.2,7.8,5.6c1.1,3.5-0.3,7.2-3.5,9.2
	c-1.5,0.9-3.2,1.7-5,2.6l-1,0.5c-0.2,0.1-0.4,0.2-0.6,0.3c-0.1,0-0.1,0.1-0.2,0.1c-0.1-0.2-0.2-0.5-0.3-0.7
	c-0.1-0.2-0.2-0.4-0.3-0.6C257.5,249.1,257.6,249.1,257.8,249L257.8,249z M271.4,301.9c-2-0.8-4.1-1.7-6.1-2.6
	c-7.6-3.3-15.5-6.7-24.3-7.8c-4.9-0.6-9.9-1-14.8-1c-7.8,0-15.6,0.8-23.2,2.4c-2.1,0.4-2.7,0.1-3.9-1.6
	c-8.4-11.2-14.2-23.7-17.4-37.2c-0.5-2.1-0.1-2.8,1.5-4c8.5-6.7,16.2-14.8,22.9-24c7.2-10.1,10.7-21.7,14-33l0.6-2.1
	c11.3,40.1,28.4,76.6,52.3,111.4C272.4,302.4,271.9,302.1,271.4,301.9L271.4,301.9z M186.6,297.5l-2.7,1.1c-3.8,1.6-7.8,3.2-11.6,5
	c-0.1,0-0.2,0.1-0.2,0.1c0,0,0,0-0.1-0.1c-8-10.6-13.8-22.9-17.1-36.4c0,0,0-0.1,0-0.1c0.1,0,0.1-0.1,0.2-0.1
	c3.9-1.9,8.9-4.4,14-7.1C172.5,273.5,178.4,286.1,186.6,297.5L186.6,297.5z M196.4,216c-4.6,8.8-10.4,12.2-20.1,11.6
	c-8-0.5-16-0.7-24-0.7c-6.8,0-13.6,0.1-20.2,0.2c-4.4,0.1-8.8,0.1-13.2,0.2c-2.3,0-2.7-0.4-3-2.3c-0.6-3.3-2-6.7-3.9-10l0,0
	c0,0,0.1,0,0.1,0c10.5,0.1,21.1,0.1,31.4,0h19.9c10.6,0,21.6,0,32.5,0c0.4,0,0.8,0,1.2-0.1C196.8,215.3,196.6,215.7,196.4,216z
	 M159.4,309.3C159.4,309.3,159.4,309.4,159.4,309.3c0,0.1-0.1,0.1-0.2,0.2c-2.6,0.9-5.6,1.9-7.9,1.6h-0.2c-9.5,0-17-6.5-19.1-16.6
	c-1.6-7.7,3.4-18.1,10.4-21.6C145.7,286.1,151.4,298.4,159.4,309.3L159.4,309.3z"/>
<path class="st0" d="M389.9,401.2c-0.7,0-1.4,0-2.1-0.1c-2.2-0.1-4.4-0.2-6.7,0.1c-2,0.3-2.4-0.1-2.5-0.1c-0.1-0.1-0.5-0.7-0.4-3.1
	c0.2-3.7,0.2-7.4,0.1-11c0-2.4,0-4.8,0-7.2c0-2.3-0.4-4-1.2-5.4c-0.8-1.2-2.4-2.8-5.4-2.8c-2,0-3.7,0.5-4.9,1.8
	c-1.4,1.4-2.1,3.6-2,6.6c0,2.4,0,4.9,0,7.3c0,3.7-0.1,7.6,0.1,11.4c0.1,1.8-0.2,2.2-0.2,2.2c-0.1,0.1-0.5,0.4-2.6,0.4h-0.1
	c-37.9-0.1-76.4-0.1-113.6-0.1h-29.5c-10.3,0-20.6,0-30.9,0c-36.9,0-75.2,0-112.7,0.1c-2.1,0-2.5-0.3-2.6-0.4
	c-0.1-0.1-0.4-0.6-0.4-2.7c0.1-22.2,0.1-44.9,0.1-66.7c0-6,0-12.1,0-18.1c0-3.5-0.9-6.2-2.7-7.8c-1.3-1.1-2.9-1.6-4.6-1.4
	c-6.5,0.8-6.3,6.7-6.3,9.2c0,0.7,0,1.4,0,2v80.1c0,2.4,0,5-0.3,5.4c-0.5,0.4-3.3,0.3-5.2,0.2c-7-0.2-10.7,0.1-12.8,2.6
	c-2.3,2.8-1.6,7,0,14.1c4.7,22.3,23.6,37.3,47.1,37.3c40.9,0,81.7,0,122.6,0c46.5,0,92.9,0,139.4,0h0c3,0,6.2-0.3,10-0.9
	c21.1-3.5,38.3-23.7,38.3-45.1C397.9,403.5,395.7,401.3,389.9,401.2L389.9,401.2z M88.2,441.6c-16.5,0-29.5-9.2-34-24
	c-0.3-1.1-0.6-2.1-0.8-2.9c0.7,0,1.7,0,2.8,0h189.6c45.2,0,90.3,0,135.5,0c0.6,0,1.7,0,2.4,0c-0.1,0.7-0.4,1.6-0.6,2.2
	c-4.4,15.5-17.4,24.7-34.7,24.7c-39,0-77.9,0-116.9,0h-44.8c-9.7,0-19.4,0-29.1,0C134.9,441.6,111.3,441.7,88.2,441.6L88.2,441.6z"
	/>
<path class="st0" d="M455.7,112.7c0-7.9-2.3-10.2-10.3-10.2h-23.6c-36.4,0-74.1,0-111.1,0.1h0c-1.5,0-1.9-0.2-2-0.2
	c0,0-0.2-0.3-0.2-1.8c0.2-20.7,0.2-41.1,0-65.4c0-0.9,0.1-1.3,0.1-1.4c0.1,0,0.5-0.2,1.2-0.1c42.3,0.1,86.3,0.1,130.8,0
	c0.8,0,1.2,0.1,1.3,0.1c0,0.1,0.1,0.5,0.1,1.3c-0.1,7.6-0.1,15.2-0.1,22.7c0,4.1,0,8.2,0,12.2c0,2.4,0,8.8,6.8,8.9
	c2.1,0.1,3.7-0.6,4.9-1.7c1.8-1.8,2.1-4.4,2.1-7V59.3c0-9.9,0-19.8,0-29.7c0-7.1-2.2-9.2-9.2-9.2c-47.4,0-94.8,0-142.2,0
	c-7.4,0-9.3,1.9-9.3,9c0,37.8-0.1,75.7-0.1,113.5c0,7.4,1.9,9.3,9.5,9.3c17.2,0,34.4,0,51.6,0h19.1H395c6,0,12,0,18,0
	c11.2,0,22.5,0,33.7,0c6.8,0,9-2.2,9-9C455.8,132.5,455.7,121.8,455.7,112.7L455.7,112.7z M308.9,138.3c-0.4-0.4-0.4-3.3-0.4-5.9
	c0-1.4,0-2.9,0-4.3c0-3.4,0.1-6.9-0.1-10.4c-0.1-1.3,0.1-1.6,0.1-1.6c0,0,0.4-0.2,1.8-0.2c16.4,0.1,33.1,0.1,49.2,0.1
	c10.7,0,21.4,0,32.1,0c15.9,0,32.4,0,48.5-0.1c0,0,0.1,0,0.1,0c1.3,0,1.6,0.2,1.6,0.2c0,0,0.2,0.4,0.1,1.7c-0.3,6.7-0.3,12.8,0,18.7
	c0.1,1.7-0.2,2-0.2,2s-0.3,0.3-2.2,0.3c-24-0.1-48.4-0.1-72.3-0.1c-8.8,0-17.5,0-26.2,0h-26.5C312.1,138.7,309.2,138.7,308.9,138.3
	L308.9,138.3z"/>
<path class="st0" d="M55.8,61.4c3.7,1.8,7.3,0.5,9.5-3.6c2.5-4.6,4.8-9.5,7.1-14.9c3-7.3,5.3-14.9,7.7-22.8c3.7,5.8,5.8,11.6,6.6,18
	c1,8.1-1.6,15.4-4.4,23.1c-0.3,0.8-0.6,1.6-0.8,2.4c-2,5.6-0.8,9,0.6,11c1.3,1.9,4.2,4.2,10.1,4.2c6.8,0,13.5,0,20.3,0
	c3.4,0,6.8,0,10.2,0c2.4,0,4.8,0,7.2,0c6.2,0,12.6,0,18.8,0.1c3,0.1,5.1,1.8,5.1,4.5c0.1,2.5-1.9,4.4-5,4.6
	c-0.8,0.1-1.6,0.1-2.4,0.1h-0.9h-5.4c-5.2,0-10.5,0-15.7,0c-5.9-0.1-8.9,2.2-9,6.8c0,2,0.6,3.7,1.8,4.9c2,1.9,5,2.1,7.1,2.1
	c5.5-0.1,11-0.1,17.6,0c1.9,0,3.6,0.6,4.6,1.7c0.8,0.8,1.1,1.8,1.1,3c-0.1,3.8-4,4.3-5.7,4.3c-3.2,0-6.4,0-9.6,0
	c-3.4,0-6.8,0-10.3,0c-2.8,0-4.8,0.7-6.2,2.2c-1.2,1.2-1.8,2.9-1.7,4.9c0.1,2.1,0.9,6.8,8,6.8c1.4,0,2.7,0,4.1,0c3,0,6.1,0,9.2,0
	c2.1,0,3.6,0.5,4.6,1.5c0.7,0.7,1.1,1.8,1.1,3.1c0,1.8-0.6,4.3-5.5,4.3c-3,0-5.9,0-8.9,0c-2.9,0-5.8,0-8.8,0c-2.6,0-4.6,0.8-6,2.2
	c-0.8,0.9-1.8,2.4-1.8,5c0.1,4.1,3.1,6.6,7.7,6.7c1.8,0,3.7,0,5.6,0c1.7,0,3.4,0,5.1,0c6.2,0.1,6.2,3.2,6.2,4.5c0,1.2,0,4.4-6.2,4.4
	c-18.4,0-36.8,0-55.2,0h0c-2.9,0-5,0.7-6.5,2.1c-1.2,1.2-1.8,2.9-1.8,4.9c0,2.5,1.1,6.6,8.2,6.6h0c5.9,0,11.8,0,17.8,0
	c5.1,0,10.3,0,15.5,0c7.9,0,15.8,0,23.7-0.1c6.3-0.1,11.8-2.8,15.1-7.5c3.3-4.8,4-11.1,1.8-17.3c-0.2-0.5-0.3-0.8-0.3-1
	c0.1-0.1,0.2-0.2,0.5-0.5c7.5-6,9.3-12.5,6.1-21.6c-0.1-0.2-0.2-0.6-0.2-0.8c0.1-0.1,0.2-0.2,0.3-0.3c7.6-5.6,9.7-13.3,6.3-22.1
	c-0.1-0.2-0.1-0.3-0.1-0.4c0.1-0.1,0.2-0.2,0.3-0.3c7.4-6.3,9.6-13.4,6.6-21.2c-3-7.8-9.3-11.8-18.8-11.8c-12.2,0-24.4-0.1-36.6-0.1
	H98.3c-1,0-2.2,0-3-0.1c0.3-0.8,0.7-2,1-2.8c7.9-20,4.6-39.2-10.1-56.9c-1.5-1.9-3-3.1-4.7-4c-3.1-1.6-5.8-1.9-7.9-0.9
	c-2.2,1-3.7,3.2-4.4,6.5c-4.3,18.2-9.4,32.3-16,44.4c-1.2,2.2-1.5,4.3-0.9,6.1C52.6,58.7,53.5,60.3,55.8,61.4L55.8,61.4z"/>
<path class="st0" d="M40.2,167.9c5.7,0,8.3-2.7,8.3-8.5c0-28.2,0-57.3,0-86.6c0-6-2.5-8.4-8.7-8.4c-11.4,0-21.6,0-31.4,0
	C2.3,64.5,0,66.8,0,73c0,10.2,0,20.5,0,30.7v12.1V128c0,10.4,0,20.7,0,31.1c0,6.1,2.5,8.8,8.4,8.8c5.3,0,10.7,0.1,15.9,0.1
	S35,167.9,40.2,167.9L40.2,167.9z M34.8,153c0,0.7-0.1,1-0.1,1.1c-0.1,0-0.5,0.1-1.2,0.1c-5.3-0.1-11.5-0.2-17.8,0
	c-1.6,0.1-1.9-0.2-1.9-0.2c0,0-0.3-0.3-0.3-1.9c0.2-8.6,0.1-17.4,0.1-25.9c0-3.3,0-6.6,0-9.9s0-6.6,0-9.8c0-8.8,0-17.9-0.1-26.9
	c0-1.3,0.2-1.7,0.1-1.6c0,0,0.3-0.2,1.4-0.1c6.3,0.2,12.7,0.2,18.7,0c0.5,0,0.8,0,1,0.1c0,0.1,0.1,0.4,0.1,0.9
	C34.7,105.2,34.7,129.4,34.8,153z"/>
<path class="st0" d="M398.4,280.8L398.4,280.8c-11.9,0-23.1,4.6-31.4,12.9c-8.3,8.3-12.9,19.5-12.8,31.4c0.1,24.2,19.8,44.1,44,44.2
	c0.1,0,0.2,0,0.3,0c11.6,0,22.6-4.6,31-13c8.5-8.5,13.2-19.6,13.3-31.3c0-11.8-4.5-22.8-12.9-31.2
	C421.5,285.5,410.3,280.8,398.4,280.8L398.4,280.8z M429,324.9c0,17-13.3,30.5-30.5,30.7c-0.1,0-0.2,0-0.2,0
	c-8.1,0-15.7-3.1-21.5-8.9c-5.8-5.8-9-13.4-9.1-21.5c0-8.3,3.1-16.1,8.9-21.9c5.8-5.8,13.5-9,21.8-9l0,0
	C415.2,294.4,428.9,308.1,429,324.9L429,324.9z"/>
<path class="st0" d="M224.3,106.7c0.1,0,0.3,0,0.4,0c24.2-0.2,44-20.1,44-44.2c0-24.5-19.8-44.5-44.2-44.5h-0.1
	c-11.6,0-22.7,4.6-31.1,12.9c-8.4,8.4-13.1,19.4-13.1,31c0,12.1,4.7,23.4,13.3,32C201.9,102.2,212.8,106.7,224.3,106.7L224.3,106.7z
	 M193.8,62.2c0.2-17.1,13.8-30.3,31-30.3c0.1,0,0.2,0,0.3,0c16.7,0.1,30.2,13.9,30.2,30.5c0,8.2-3.2,15.8-9,21.6
	c-5.9,5.8-13.7,9-22.1,9c-8.2-0.1-15.9-3.3-21.7-9.2C196.8,77.8,193.7,70.2,193.8,62.2L193.8,62.2z"/>
<path class="st0" d="M213.4,374.2c0,0-0.4-0.2-1.1-1.5c-6.3-11.4-12.9-22.9-19.2-34.1c-2-3.5-4-7-6-10.5l-0.4-0.6
	c-0.6-1-1.1-2.1-2-3c-2-2.3-4.9-3-7.8-1.7c-2.6,1.1-4.1,3.4-3.9,6.3c-0.1,1.9,0.7,3.3,1.4,4.4l0.2,0.4c2.9,5.2,5.9,10.4,8.9,15.7
	c6.6,11.7,13.5,23.8,20.2,35.8c1.7,3.1,3.9,4.6,6.5,4.6c1.4,0,2.9-0.4,4.7-1.2c6.3-3,12.8-6,19-8.9c3.6-1.7,7.3-3.4,10.9-5.1
	c2.6-1.2,5.2-2.7,5.9-5.3c0.7-2.5-0.7-5.1-2.3-7.5c-5.6-8.4-11.3-16.8-16.9-25.2l-7.4-11.1c-0.7-1-1.4-2.1-2.1-3.1
	c-1.4-2-2.7-4-4.1-6c-2.6-3.7-6-4.6-9.4-2.5c-1.8,1.1-2.9,2.6-3.3,4.3c-0.4,1.8,0,3.7,1.3,5.6c0.5,0.8,1,1.5,1.5,2.2l0.8,1.1
	c2.1,3.2,4.3,6.4,6.4,9.5c6,8.9,12.1,18.1,18.3,27c0.3,0.5,0.5,0.8,0.6,1c-0.2,0.1-0.4,0.2-0.9,0.4c-6.9,2.9-12.8,5.6-18.1,8.4
	C213.9,374.2,213.5,374.2,213.4,374.2L213.4,374.2L213.4,374.2z"/>
<path class="st0" d="M397.4,52.3c-0.4-3.9-2.1-6.9-4.8-8.4c-2.7-1.5-6-1.4-9.3,0.3c-9.6,4.9-19.5,10.1-29.6,15.6
	c-3.2,1.8-5.1,4.8-5.1,8.2c0,3.4,1.9,6.4,5,8.1c10.5,5.7,20.1,10.8,29.6,15.6c2,1,3.9,1.5,5.6,1.5c1.5,0,2.9-0.4,4.1-1.1
	c2.7-1.6,4.2-4.7,4.4-8.7c0.1-3.5,0.1-7.1,0.1-10.5c0-1.5,0-3.1,0-4.6c0-5,0-10,0-15C397.4,53.1,397.4,52.7,397.4,52.3z M383.4,59.6
	v16.9l-16.1-8.4L383.4,59.6z"/>
<path class="st0" d="M371.9,257.5c-3.4-0.2-6,2.3-6.2,5.5c-0.1,3.1,2.7,6,5.8,6c3.1,0,6.1-2.8,5.9-5.9
	C377.2,259.9,375.5,257.7,371.9,257.5L371.9,257.5z"/>
<path class="st0" d="M449.1,85.2c-3.4-0.2-5.9,2.2-6,5.6c0,3.3,2.5,6,5.7,6c3,0,6-2.9,5.8-6C454.4,87.4,452.6,85.4,449.1,85.2z"/>
<path class="st0" d="M219.2,364L219.2,364L219.2,364c3.7-0.2,5.8-2.2,5.7-5.5c0-1.6-0.5-3-1.5-4c-1-1-2.4-1.5-3.9-1.5h-0.1
	c-3.4,0-5.4,2.1-5.4,5.5C214,361.8,215.8,363.7,219.2,364L219.2,364z"/>
<path class="st0" d="M85.8,233.7c-4.6-1.1-8.7,0-11.4,3.8c-4.2,5.7-4.3,12.1-1.7,18.4c1.7,4.2,5.1,6.4,9.6,6.6
	c3.6,0.1,6.7-1.2,8.8-4.1c2.4-3.2,3.3-6.8,3.1-10.4C94.2,239.9,91.1,235,85.8,233.7L85.8,233.7z M82.5,255.5
	c-3.8-0.1-3.5-4.4-3.5-7.4c0-3.1-0.4-7.7,3.7-7.7c4.3,0,3.3,4.6,3.7,7.6C86,251.1,86.8,255.6,82.5,255.5L82.5,255.5z"/>
<path class="st0" d="M61.1,230.3c0-9.1-4.5-14.6-11.8-14.4c-6.3,0.1-10.9,5.3-11.5,13.3c-0.7,8.5,4,15.5,11,15.9
	C55.7,245.5,61,239.1,61.1,230.3z M53.1,230.8c0,2.8,0.3,7.3-3.8,7.1c-3.9-0.1-3.3-4.4-3.8-7.2c0.5-3.2,0-7.9,3.9-7.9
	C53.8,222.8,53.2,227.7,53.1,230.8L53.1,230.8z"/>
<path class="st0" d="M82.1,216.2c-1.5-1.1-4.1-0.9-5.9,0.1c-0.9,0.4-1.4,1.8-2,2.8c-7.5,13.3-15.1,26.6-22.6,39.9
	c-0.6,1.1-1.7,2.1-1.5,3.5c4.5,1.4,7.1,0,9.4-4.2c6.9-12.8,14.3-25.3,21.4-38C81.6,219,83.7,217.4,82.1,216.2L82.1,216.2z"/>
<path class="st0" d="M161.1,276.1c3.4,0.4,9.7-4.1,9.6-6.8c-0.2-2.6-1.7-4.2-4-4.5c-4.1-0.1-9.7,3.9-9.7,6.5
	C156.9,274.1,158.4,275.8,161.1,276.1L161.1,276.1z"/>
<path class="st0" d="M162.5,281.9c-0.8,2.2-0.7,4.4,1.5,5.9c2.9,2.1,5.2-0.2,7.7-1.1c2.1-0.8,4-2,4-4.4c0.1-2.5-1.2-4.3-3.2-4.9
	C170.3,276.7,163.2,279.8,162.5,281.9L162.5,281.9z"/>
<path class="st0" d="M169.2,296.6c-0.1,1.7,1.2,3.2,3.3,4c2.1,0.7,8.9-2.5,9.8-4.5c0.9-2,0.7-4-1.1-5.6c-2.2-1.8-4.4-1-6.5,0.1
	C172.4,291.9,169.3,292.4,169.2,296.6L169.2,296.6z"/>
<path class="st0" d="M205.1,435.1c3.1,0,6.3,0,9.4,0h4.3c3.7,0,7.3,0,11,0h3.1l0,0c2.6,0,4.5-0.7,5.8-2c1.2-1.2,1.7-2.8,1.7-4.8
	c-0.1-4.2-2.9-6.8-7.5-6.8h0c-7.4,0-14.8,0-22.2,0h-5.6c-4.4,0-7.1,2.4-7.3,6.5c-0.1,2.1,0.5,3.8,1.7,5
	C200.7,434.4,202.6,435,205.1,435.1L205.1,435.1z"/>
<path class="st0" d="M348,132c0.6,0,1.3,0,1.9,0c0.5,0,1.1,0,1.6,0c0,0,0.1,0,0.1,0c3,0,5.9,0,8.6,2.2c0.9,0.8,2.1,1.1,3.3,1.1
	c1.4,0,2.8-0.5,3.9-1.4c2.3-1.9,4.8-2.1,7.7-2c3.3,0,6.7,0,9.9,0c1.4,0,2.8,0,4.2,0l0.1,0c1.7,0,3.4,0,5.1,0c3.9,0,8,0.1,12-0.1
	c2.4-0.1,4.3-1,5.2-2.4c0.7-1.2,0.7-2.7,0-4.2c-1.3-2.7-3.6-2.9-6-2.9h0c-3.9,0-7.7,0-11.6,0c-6.6,0-13.4,0-20.1,0
	c-2.4,0-4.3-0.3-6-1.8c-2.3-1.9-5.6-2.2-7.6-0.6c-3,2.4-6.2,2.3-9.5,2.3c-0.7,0-1.4,0-2.1,0c-0.7,0-1.4,0-2.1,0c-1.5,0-3,0-4.5,0.2
	c-2.5,0.4-4.1,2.2-4,4.7c0.1,2.4,1.5,4.1,3.9,4.3C343.9,132,345.9,132,348,132L348,132z"/>
<path class="st0" d="M428.3,136.5C428.3,136.5,428.3,136.5,428.3,136.5c2.4,0,9.2-6.4,9.4-8.9c0.1-1.1-0.9-2.9-2.7-5
	c-1.9-2.2-4.7-4.5-6.3-4.6c0,0,0,0-0.1,0c-2.4,0-9.1,6.4-9.3,8.9c-0.1,1.1,1,3.1,2.9,5.3C424.1,134.2,426.7,136.4,428.3,136.5
	L428.3,136.5z"/>
<path class="st0" d="M327.8,122.8c-4-0.7-7.9-0.7-11.4,0.1c-2.2,0.4-3.5,2.2-3.3,4.7c0.1,2.2,1.3,3.7,3.5,4.1
	c1.3,0.3,2.6,0.4,3.9,0.4c0.5,0,1,0.1,1.5,0.1l0,0l0,0c0.6-0.1,1.3-0.1,1.9-0.1c1.3-0.1,2.5-0.1,3.7-0.3c2.4-0.4,3.7-2,3.8-4.3
	C331.3,124.9,330,123.2,327.8,122.8L327.8,122.8z"/>
<path class="st0" d="M24.1,131.4c-3.5,0.1-6.2,3.1-6.1,6.7c0.1,3.4,2.8,6.1,6.2,6.1c3.6,0,6.4-2.8,6.4-6.4
	C30.5,134.2,27.5,131.3,24.1,131.4L24.1,131.4z"/>
<path class="st0" d="M404,321.6c-1.2-0.7-2.4-1.2-3.6-1.8c-0.9-0.4-1.8-0.9-2.7-1.4c-1.4-0.7-1.4-1.6-1.3-2.3
	c0.2-1.1,0.9-1.6,2.4-1.9c1.1-0.2,2.3,0,3.8,0.6l0.2,0.1c1.2,0.5,2.5,1.1,3.7,0.6c0.9-0.4,1.5-1.2,2-2.6c0.5-1.4,0.5-2.6,0-3.5
	c-0.7-1.2-2-1.7-3.3-2c-2.1-0.5-2.8-0.9-2.5-2.7c0.1-1,0-1.7-0.5-2.2c-0.7-0.8-1.8-0.8-2.6-0.8c-0.2,0-0.4,0-0.6,0
	c-1,0-2.2,0-2.9,0.8c-0.5,0.5-0.6,1.3-0.5,2.3c0.3,1.8-0.5,2.4-2.4,3.5l-0.3,0.2c-3.2,1.9-5.1,4.9-5.2,8.2c-0.1,3.3,1.7,6.4,4.8,8.5
	c1.2,0.8,2.5,1.4,3.8,2c0.7,0.3,1.5,0.7,2.2,1.1c2.5,1.4,3.7,2.2,2.9,4.1c-0.8,1.9-2.4,2.4-5.4,1.8c-0.8-0.2-1.9-0.4-2.5-0.9
	c-1.4-1-2.6-1.4-3.5-1c-1.4,0.5-1.8,2.1-2.1,3.5l-0.1,0.5c-0.3,1.1-0.2,2,0.2,2.7c0.7,1.2,2.2,1.6,3.4,1.9l0.5,0.1
	c2.5,0.7,3.3,1,3,3.1c-0.1,1,0,1.7,0.5,2.2c0.7,0.9,1.9,0.9,2.9,0.9h0.4c0.1,0,0.2,0,0.3,0c1.2,0,2.1-0.3,2.7-0.9
	c0.5-0.6,0.8-1.5,0.6-2.5c-0.2-1.9,0.6-2.7,2.6-3.6c3.4-1.6,5.3-4.8,5.3-9.1C410.1,327.2,408,324,404,321.6L404,321.6z"/>
<path class="st0" d="M221.1,71.9l-0.1,0c-0.9-0.1-1.6-0.4-2.1-0.7c-0.8-0.6-1.9-1.3-3.1-1c-1.3,0.3-1.9,1.8-2.4,3.1
	c-0.6,1.4-0.6,2.6-0.2,3.5c0.7,1.4,2.3,1.8,3.5,2.1c0.2,0.1,0.5,0.1,0.7,0.2l0.1,0c2.3,0.7,3,1,2.8,2.9c-0.1,1.1,0.1,2,0.7,2.6
	c0.6,0.7,1.6,0.9,2.9,0.8c0.2,0,0.5,0,0.7,0c1,0,1.8-0.3,2.3-0.8c0.6-0.6,0.8-1.5,0.6-2.6c-0.2-1.7,0.3-2.6,2.4-3.7
	c3.4-1.8,5.6-5.1,5.8-8.7c0.2-3.7-1.7-7.2-5.1-9.4c-1.4-1-3-1.7-4.5-2.4c-0.7-0.3-1.5-0.7-2.2-1.1c-1.8-0.9-2.3-1.7-1.9-3
	c0.4-1.2,1.4-1.7,3.4-1.5c1.3,0.1,2.3,0.3,3,0.7c0.9,0.5,2.1,1,3.2,0.7c1.1-0.4,1.8-1.6,2.2-2.7c0.6-1.4,0.6-2.5,0.2-3.3
	c-0.5-1.1-1.7-1.6-2.9-1.9l-0.5-0.2c-1.9-0.5-2.7-0.8-2.4-2.7c0.2-0.9,0-1.7-0.4-2.2c-0.7-0.8-1.9-0.9-2.8-0.9c-0.2,0-0.4,0-0.6,0
	c-0.9,0-2.2,0-3.1,0.9c-0.6,0.6-0.8,1.4-0.7,2.5c0.2,1.7-0.6,2.3-2.4,3.5c-3.3,2-5.2,5.2-5.2,8.5c0,3.5,2.1,6.6,5.6,8.6
	c1.3,0.7,2.6,1.4,3.9,2l0.9,0.4c2.9,1.3,4,2.3,3.2,4.4C225.9,72.5,224,72.3,221.1,71.9L221.1,71.9z"/>
</svg>
