<?xml version="1.0" encoding="utf-8"?>
<!-- Generator: Adobe Illustrator 27.9.0, SVG Export Plug-In . SVG Version: 6.00 Build 0)  -->
<svg version="1.1" id="a" xmlns="http://www.w3.org/2000/svg" xmlns:xlink="http://www.w3.org/1999/xlink" x="0px" y="0px"
	 viewBox="0 0 50 50" style="enable-background:new 0 0 50 50;" xml:space="preserve">
<style type="text/css">
	.st0{fill:#FFFFFF;}
</style>
<path class="st0" d="M44.5,25.1c0,6.8,0,13.6,0,20.4c0,1.2-0.1,1.4-1.3,1.4c-12.1,0-24.1,0-36.2,0c-1.2,0-1.4-0.2-1.4-1.4
	c0-13.6,0-27.1,0-40.7c0-1.5,0-1.5,1.5-1.5c12,0,24.1,0,36.1,0c1.4,0,1.4,0,1.4,1.4C44.5,11.4,44.5,18.2,44.5,25.1z M33.3,23.2
	c4.8,0,8.5-3.8,8.6-8.5c0-4.7-3.8-8.6-8.5-8.6c-4.7,0-8.6,3.8-8.6,8.5C24.8,19.4,28.6,23.2,33.3,23.2L33.3,23.2z M19.5,19.7
	c0-1.5,0-2.9,0-4.2c0-1.3-0.8-2-1.9-2.4C17.4,13,17.2,13,17,12.9c1.6-1.9,1.8-3.7,0.4-5.1c-1.1-1.3-3.2-1.5-4.5-0.5
	c-1.8,1.3-1.8,3-0.3,5.7c-0.3,0.1-0.5,0.2-0.8,0.3c-0.9,0.4-1.6,0.9-1.6,1.9c-0.1,1.3-0.1,2.7-0.1,4.1c0,0.2,0.4,0.5,0.5,0.5
	C13.6,19.7,16.6,19.7,19.5,19.7L19.5,19.7z M25.5,30.4c4.7,0,9.5,0,14.2,0c0.5,0,1.4,0.2,1.4-0.6c0-0.8-0.8-0.7-1.4-0.7
	c-9.4,0-18.9,0-28.3,0c-0.3,0-0.6,0-0.8,0.1c-0.2,0.1-0.5,0.4-0.5,0.6c0,0.2,0.3,0.5,0.6,0.6c0.2,0.1,0.6,0,0.8,0
	C16.1,30.4,20.8,30.4,25.5,30.4L25.5,30.4z M25.6,26.3c-4.9,0-9.7,0-14.6,0c-0.4,0-1-0.1-1,0.6c0,0.7,0.5,0.7,1,0.7
	c0.1,0,0.2,0,0.4,0c9.4,0,18.9,0,28.3,0c0.5,0,1.4,0.3,1.4-0.6c0-0.9-0.9-0.6-1.4-0.6C35,26.3,30.3,26.3,25.6,26.3L25.6,26.3z
	 M29.3,43.6c2.9,0,5.9,0,8.8,0c0.8,0,1.6,0,2.4,0c0.3,0,0.5-0.4,0.8-0.6c-0.3-0.2-0.5-0.4-0.8-0.6c-0.1-0.1-0.2,0-0.4,0
	c-7.2,0-14.4,0-21.6,0c-0.5,0-1-0.1-1.1,0.6c0,0.7,0.6,0.6,1,0.6C22.1,43.6,25.7,43.6,29.3,43.6L29.3,43.6z M29.3,36.8
	c3.5,0,7,0,10.5,0c0.3,0,0.6,0.1,0.8,0c0.2-0.1,0.6-0.4,0.6-0.6c0-0.2-0.3-0.5-0.6-0.6c-0.2-0.1-0.5,0-0.8,0c-6.5,0-13.1,0-19.6,0
	c-0.8,0-1.5,0-2.3,0.1c-0.2,0-0.5,0.3-0.5,0.5c0,0.2,0.2,0.5,0.5,0.6c0.2,0.1,0.6,0.1,0.8,0.1C22.3,36.8,25.8,36.8,29.3,36.8
	L29.3,36.8z M16,39.4c-0.6-0.2-0.9-0.5-1.3-0.5c-1.3,0-2.5,0-3.8,0c-0.6,0-0.9,0.2-0.9,0.8c0,1.3,0,2.6,0,3.9c0,0.7,0.3,0.9,0.9,0.9
	c1.2,0,2.5,0,3.7,0c0.7,0,1.1-0.3,1-1c-0.3-1.6,0.4-2.7,1.7-3.5c0.2-0.1,0.4-0.2,0.4-0.4c0.1-0.3,0.1-0.7,0.2-1c-0.3,0-0.7,0-1,0.1
	C16.5,38.9,16.2,39.2,16,39.4L16,39.4z M10,34.4c0,0.6,0,1.3,0,1.9c0,0.7,0.3,1,0.9,1c1.3,0,2.5,0,3.8,0c0.6,0,1-0.3,1-1
	c0-1.2,0-2.4,0-3.6c0-0.7-0.2-1.1-1-1c-0.6,0-1.3,0-1.9,0C10.9,31.7,10,32.6,10,34.4L10,34.4z M15.2,23.7c-1.4,0-2.8,0-4.2,0
	c-0.3,0-0.6,0.4-1,0.6c0.3,0.2,0.6,0.6,1,0.6c2.8,0,5.7,0,8.5,0c0.5,0,1.1,0,1-0.7c0-0.2-0.6-0.5-1-0.6
	C18.1,23.7,16.7,23.7,15.2,23.7z M15.2,22.7c1.5,0,3,0,4.5,0c0.3,0,0.5-0.4,0.8-0.6c-0.2-0.2-0.5-0.5-0.8-0.5c-3,0-5.9,0-8.9,0.1
	c-0.3,0-0.6,0.4-0.9,0.6c0.3,0.2,0.6,0.4,0.9,0.5C12.3,22.8,13.8,22.7,15.2,22.7L15.2,22.7z"/>
<path class="st0" d="M40.4,14.7c0,4-3.1,7.1-7,7.1c-4,0-7.2-3.2-7.2-7.1c0-4,3.5-7.2,7.2-7.1C37.4,7.7,40.4,10.7,40.4,14.7
	L40.4,14.7z M30.9,17c0,1,0.5,1.7,1.3,2.2c0.3,0.2,0.5,0.5,0.6,0.9c0,0.5,0.2,0.7,0.7,0.7c0.5,0,0.8-0.1,0.7-0.6
	c-0.1-0.6,0.3-0.8,0.7-1.1c1.4-0.9,1.7-2.9,0.4-3.9c-0.5-0.5-1.4-0.5-2-0.9c-0.4-0.2-0.9-0.7-1-1.1c0-0.4,0.4-1.1,0.7-1.2
	c0.4-0.1,1.2,0.1,1.4,0.4c0.4,0.7,0.9,0.6,1.5,0.5c0-0.9-0.4-1.6-1.2-2.1c-0.2-0.2-0.6-0.4-0.6-0.6c0-1.2-0.6-1-1.4-0.8
	c0.1,0.8-0.2,1.3-0.9,1.7c-1,0.6-1.3,2-0.8,3c0.5,1,1.3,1.4,2.3,1.5c0.7,0.1,1.2,0.5,1.2,1.2c0,0.4-0.5,1-0.8,1.2
	c-0.6,0.3-1.2,0.1-1.5-0.6C32,16.7,31.5,16.9,30.9,17L30.9,17z"/>
<path class="st0" d="M11.4,18.4c0-1,0-1.9,0-2.8c0.1-0.9,0.6-1.3,1.4-1.4c1.4,0,2.7,0,4.1,0c0.9,0,1.4,0.6,1.4,1.4
	c0,0.7,0,1.5,0,2.2c0,0.2-0.3,0.5-0.5,0.5C15.7,18.5,13.6,18.4,11.4,18.4z"/>
<path class="st0" d="M15,12.1c-1.3,0-2.1-0.9-2.1-2.1c0-1.1,0.9-2,2-2.1c1.2,0,2.2,1,2.2,2.1C17.1,11.3,16.2,12.1,15,12.1L15,12.1z"
	/>
<path class="st0" d="M11.6,40.3c-0.4,1.4,0.8,1.8,1.4,2.5c0.2,0.2,0.8,0.1,1.1,0.1c-0.1,0.3-1.1,0.4-2.8,0.2
	C11.3,42.2,11.2,41.3,11.6,40.3z"/>
<path class="st0" d="M13.6,41.7c-0.4-0.5-0.7-0.9-1-1.2c0-0.1,0.1-0.2,0.1-0.3c0.5,0.1,1.1,0.2,1.6,0.3
	C14.1,40.8,13.8,41.2,13.6,41.7L13.6,41.7z"/>
<path class="st0" d="M11.3,35.9c0-0.4,0-0.6,0-0.9c0-2.3,0-2.4,2.4-2.1c0.2,0,0.5,0.3,0.6,0.5c0.1,0.8,0,1.6,0,2.4
	C14.3,35.9,11.3,35.9,11.3,35.9z"/>
</svg>
