<?xml version="1.0" encoding="utf-8"?>
<!-- Generator: Adobe Illustrator 26.5.0, SVG Export Plug-In . SVG Version: 6.00 Build 0)  -->
<svg version="1.1" id="a" xmlns="http://www.w3.org/2000/svg" xmlns:xlink="http://www.w3.org/1999/xlink" x="0px" y="0px"
	 viewBox="0 0 4250.3 1916" style="enable-background:new 0 0 4250.3 1916;" xml:space="preserve">
<style type="text/css">
	.st0{enable-background:new    ;}
	.st1{fill:#1A457D;}
	.st2{fill:none;stroke:#010101;stroke-linecap:round;stroke-linejoin:round;}
	.st3{fill:none;stroke:#010101;stroke-linecap:round;stroke-linejoin:round;stroke-dasharray:0,0,0,4;}
	.st4{fill:#FFFFFF;}
	.st5{fill:#D2D2D2;}
	.st6{fill:#F6F6F4;}
	.st7{fill:#E5E5E5;}
	.st8{fill:#79BCD3;}
	.st9{fill:#649DB6;}
	.st10{fill:#5588A3;}
	.st11{fill:#135374;}
	.st12{fill:#02334E;}
	.st13{fill:#1C75BC;}
	.st14{fill:#2FC2DE;}
</style>
<g>
	<g class="st0">
		<path class="st1" d="M3650.7,1313.7h7.1v38.3h17.1v6h-24.2L3650.7,1313.7L3650.7,1313.7z"/>
		<path class="st1" d="M3678.9,1313.2h6.7v6.7h-6.7V1313.2z M3678.9,1324.7h6.7v33.4h-6.7V1324.7z"/>
		<path class="st1" d="M3689.5,1324.7h7.2l5.8,26.3h0.1l5.3-26.3h7.1l-8.8,33.4h-7.8L3689.5,1324.7z"/>
		<path class="st1" d="M3724.5,1342.2v1.9c0,4.5,0.6,10.2,5.6,10.2c4.8,0,5.3-5.5,5.3-7.4h6.3c0,7.4-4.5,12-11.7,12
			c-5.5,0-12.2-1.6-12.2-17c0-8.7,1.9-18,12.3-18c9.3,0,11.8,5.6,11.8,14.9v3.5L3724.5,1342.2L3724.5,1342.2z M3735.2,1337.6v-1.8
			c0-4.2-1.4-7.4-5.1-7.4c-4.3,0-5.6,4.2-5.6,8.6v0.7L3735.2,1337.6L3735.2,1337.6z"/>
		<path class="st1" d="M3762.7,1313.7h15.6c6.2,0,11.2,3.1,11.2,11.4c0,5.7-2.5,10.1-7.4,10.8v0.1c4.4,0.4,6.7,2.9,6.9,9.1
			c0.1,2.9,0.1,6.3,0.2,9c0.1,2.2,1.2,3.2,2.1,3.8h-8c-0.7-0.8-1-2.2-1.2-3.9c-0.2-2.7-0.2-5.1-0.3-8.4c-0.1-4.8-1.6-6.9-6.4-6.9
			h-5.8v19.2h-7.1v-44.2H3762.7z M3775.5,1333.5c4.5,0,7.1-2.7,7.1-7.2c0-4.7-2-7.2-6.7-7.2h-6v14.4L3775.5,1333.5L3775.5,1333.5z"
			/>
		<path class="st1" d="M3812.7,1354.1h-0.2c-1.7,3-4.8,4.8-8.6,4.8c-5,0-8.3-2.3-8.3-10.9v-23.3h6.7v23.9c0,3.7,1.7,5,4.5,5
			s5.5-1.9,5.5-5.6v-23.3h6.7v33.4h-6.3L3812.7,1354.1L3812.7,1354.1z"/>
		<path class="st1" d="M3825.4,1324.7h6.3v3.9h0.2c1.7-3,4.8-4.8,8.6-4.8c5.1,0,8.3,2.3,8.3,9.1v25.2h-6.7v-22.9c0-4.3-1.3-6-4.7-6
			c-2.7,0-5.3,2.2-5.3,6.5v22.4h-6.7L3825.4,1324.7L3825.4,1324.7z"/>
		<path class="st1" d="M3870.6,1313.7h14c8.5,0,12.2,5.3,12.2,12.9c0,7.9-4.6,13.1-13,13.1h-6.2v18.3h-7.1v-44.3H3870.6z
			 M3877.6,1334.4h5c3.8,0,7.1-2,7.1-7.6c0-4.8-1.9-7.7-7.6-7.7h-4.5V1334.4z"/>
		<path class="st1" d="M3901.1,1313.7h6.7v14.5l0.2,0.1c1.9-2.9,4.8-4.6,8.2-4.6c5.1,0,8.3,2.3,8.3,9.1v25.2h-6.7v-22.9
			c0-4.3-1.3-6-4.6-6c-2.7,0-5.3,2.2-5.3,6.5v22.4h-6.7L3901.1,1313.7L3901.1,1313.7z"/>
		<path class="st1" d="M3952.8,1351.1c0,1.2,0.7,2.4,1.7,2.4c0.4,0,0.9-0.1,1.1-0.2v4.3c-0.8,0.4-2,0.8-3.3,0.8
			c-3,0-5.5-1.2-5.6-4.4h-0.1c-1.8,3.3-4.4,4.9-8.3,4.9c-5.3,0-8.7-3-8.7-9.4c0-7.4,3.2-9,7.7-10.5l5.2-1.4c2.4-0.7,3.9-1.4,3.9-4.3
			c0-3-1.1-5-4.6-5c-4.5,0-5.1,3.2-5.1,6.4h-6.3c0-7.1,2.9-11,11.7-11c5.9,0,10.6,2.3,10.6,8.2v19.2H3952.8z M3946.5,1340.4
			c-1.7,1.4-5.5,2.2-7.4,3.1s-2.7,2.9-2.7,5.4c0,2.8,1.4,5,4.2,5c4,0,6-3,6-7.9v-5.6H3946.5z"/>
		<path class="st1" d="M3974,1334.4v-0.9c0-2.7-0.9-5.1-4.4-5.1c-2.7,0-4.8,1.2-4.8,4.3c0,2.6,1.2,3.7,4.7,4.9l4.3,1.5
			c5,1.7,7.3,4.3,7.3,9.6c0,7.1-5.2,10.2-12,10.2c-8.4,0-11-3.9-11-10.4v-1.2h6v1.1c0,3.8,1.4,6,5.2,6c3.7,0,5.5-1.9,5.5-4.9
			c0-2.5-1.3-4.1-3.7-4.9l-5.5-1.9c-5-1.7-7.1-4.3-7.1-9.6c0-6.3,4.5-9.2,11.4-9.2c8.5,0,10.4,5,10.4,9.1v1.5L3974,1334.4
			L3974,1334.4z"/>
		<path class="st1" d="M3991.8,1342.2v1.9c0,4.5,0.6,10.2,5.6,10.2c4.8,0,5.3-5.5,5.3-7.4h6.3c0,7.4-4.5,12-11.7,12
			c-5.5,0-12.2-1.6-12.2-17c0-8.7,1.9-18,12.3-18c9.3,0,11.8,5.6,11.8,14.9v3.5L3991.8,1342.2L3991.8,1342.2z M4002.6,1337.6v-1.8
			c0-4.2-1.4-7.4-5.1-7.4c-4.3,0-5.6,4.2-5.6,8.6v0.7L4002.6,1337.6L4002.6,1337.6z"/>
	</g>
	<g class="st0">
		<path class="st1" d="M3651.5,1393.7h11l7.8,32.8h0.1l7.7-32.8h10.8v44.3h-6.7v-36.8h-0.1l-8.9,36.8h-6l-8.9-36.8h-0.1v36.8h-6.7
			L3651.5,1393.7L3651.5,1393.7z"/>
		<path class="st1" d="M3717.7,1431.1c0,1.2,0.7,2.4,1.7,2.4c0.4,0,0.9-0.1,1.1-0.2v4.3c-0.8,0.4-2,0.8-3.3,0.8
			c-3,0-5.5-1.2-5.6-4.4h-0.1c-1.8,3.3-4.4,4.9-8.3,4.9c-5.3,0-8.7-3-8.7-9.4c0-7.4,3.2-9,7.7-10.5l5.2-1.4c2.4-0.7,3.9-1.4,3.9-4.3
			c0-3-1.1-5-4.6-5c-4.5,0-5.1,3.2-5.1,6.4h-6.3c0-7.1,2.9-11,11.7-11c5.9,0,10.6,2.3,10.6,8.2v19.2H3717.7z M3711.3,1420.4
			c-1.7,1.4-5.5,2.2-7.4,3.1s-2.7,2.9-2.7,5.4c0,2.8,1.4,5,4.2,5c4,0,6-3,6-7.9v-5.6H3711.3z"/>
		<path class="st1" d="M3724.8,1393.2h6.7v6.7h-6.7V1393.2z M3724.8,1404.7h6.7v33.4h-6.7V1404.7z"/>
		<path class="st1" d="M3738.3,1404.7h6.3v3.9h0.2c1.7-3,4.8-4.8,8.6-4.8c5.1,0,8.3,2.3,8.3,9.1v25.2h-6.7v-22.9c0-4.3-1.3-6-4.6-6
			c-2.7,0-5.3,2.2-5.3,6.5v22.4h-6.7v-33.4L3738.3,1404.7L3738.3,1404.7z"/>
		<path class="st1" d="M3765.1,1404.7h4.6v-9.5h6.7v9.5h5.5v5h-5.5v19.9c0,2.6,0.7,3.5,3,3.5c1,0,1.8-0.1,2.4-0.2v5
			c-1.4,0.4-3.3,0.6-5.4,0.6c-4.5,0-6.8-1.2-6.8-8.1v-20.7h-4.6v-5L3765.1,1404.7L3765.1,1404.7z"/>
		<path class="st1" d="M3791.1,1422.2v1.9c0,4.5,0.6,10.2,5.6,10.2c4.8,0,5.3-5.5,5.3-7.4h6.3c0,7.4-4.5,12-11.7,12
			c-5.5,0-12.2-1.6-12.2-17c0-8.7,1.9-18,12.3-18c9.3,0,11.8,5.6,11.8,14.9v3.5L3791.1,1422.2L3791.1,1422.2z M3801.8,1417.6v-1.8
			c0-4.2-1.4-7.4-5.1-7.4c-4.3,0-5.6,4.2-5.6,8.6v0.7L3801.8,1417.6L3801.8,1417.6z"/>
		<path class="st1" d="M3814,1404.7h6.3v3.9h0.2c1.7-3,4.8-4.8,8.6-4.8c5.1,0,8.3,2.3,8.3,9.1v25.2h-6.7v-22.9c0-4.3-1.3-6-4.7-6
			c-2.7,0-5.3,2.2-5.3,6.5v22.4h-6.7L3814,1404.7L3814,1404.7z"/>
		<path class="st1" d="M3865.7,1431.1c0,1.2,0.7,2.4,1.7,2.4c0.4,0,0.9-0.1,1.1-0.2v4.3c-0.8,0.4-2,0.8-3.3,0.8
			c-3,0-5.5-1.2-5.6-4.4h-0.1c-1.8,3.3-4.4,4.9-8.3,4.9c-5.3,0-8.7-3-8.7-9.4c0-7.4,3.2-9,7.8-10.5l5.2-1.4c2.4-0.7,3.9-1.4,3.9-4.3
			c0-3-1.1-5-4.6-5c-4.5,0-5.1,3.2-5.1,6.4h-6.3c0-7.1,2.9-11,11.7-11c5.9,0,10.6,2.3,10.6,8.2L3865.7,1431.1L3865.7,1431.1z
			 M3859.4,1420.4c-1.7,1.4-5.5,2.2-7.4,3.1s-2.7,2.9-2.7,5.4c0,2.8,1.4,5,4.2,5c4,0,6-3,6-7.9v-5.6H3859.4z"/>
		<path class="st1" d="M3872.5,1404.7h6.3v3.9h0.2c1.7-3,4.8-4.8,8.6-4.8c5.1,0,8.3,2.3,8.3,9.1v25.2h-6.7v-22.9c0-4.3-1.3-6-4.6-6
			c-2.7,0-5.3,2.2-5.3,6.5v22.4h-6.7v-33.4L3872.5,1404.7L3872.5,1404.7z"/>
		<path class="st1" d="M3924.9,1425.9c-0.4,8-3.2,13-11.4,13c-9.7,0-12.4-7.2-12.4-17.5s2.7-17.5,12.4-17.5c10-0.1,11.5,7.8,11.5,12
			h-6.7c0-3.1-0.9-7.1-4.8-7c-4.8,0-5.7,5.2-5.7,12.6s0.9,12.6,5.7,12.6c3.7,0.1,5.1-3,5.1-8.1L3924.9,1425.9L3924.9,1425.9z"/>
		<path class="st1" d="M3935.7,1422.2v1.9c0,4.5,0.6,10.2,5.6,10.2c4.8,0,5.3-5.5,5.3-7.4h6.3c0,7.4-4.5,12-11.7,12
			c-5.5,0-12.2-1.6-12.2-17c0-8.7,1.9-18,12.3-18c9.3,0,11.8,5.6,11.8,14.9v3.5L3935.7,1422.2L3935.7,1422.2z M3946.4,1417.6v-1.8
			c0-4.2-1.4-7.4-5.1-7.4c-4.3,0-5.6,4.2-5.6,8.6v0.7L3946.4,1417.6L3946.4,1417.6z"/>
		<path class="st1" d="M3995.4,1431.1c0,1.2,0.7,2.4,1.7,2.4c0.4,0,0.9-0.1,1.1-0.2v4.3c-0.8,0.4-2,0.8-3.3,0.8
			c-3,0-5.5-1.2-5.6-4.4h-0.1c-1.8,3.3-4.4,4.9-8.3,4.9c-5.3,0-8.7-3-8.7-9.4c0-7.4,3.2-9,7.8-10.5l5.2-1.4c2.4-0.7,3.9-1.4,3.9-4.3
			c0-3-1.1-5-4.6-5c-4.5,0-5.1,3.2-5.1,6.4h-6.3c0-7.1,2.9-11,11.7-11c5.9,0,10.6,2.3,10.6,8.2L3995.4,1431.1L3995.4,1431.1z
			 M3989,1420.4c-1.7,1.4-5.5,2.2-7.4,3.1s-2.7,2.9-2.7,5.4c0,2.8,1.4,5,4.2,5c4,0,6-3,6-7.9v-5.6H3989z"/>
		<path class="st1" d="M4002.2,1404.7h6.3v3.9h0.2c1.7-3,4.8-4.8,8.6-4.8c5.1,0,8.3,2.3,8.3,9.1v25.2h-6.7v-22.9c0-4.3-1.3-6-4.6-6
			c-2.7,0-5.3,2.2-5.3,6.5v22.4h-6.7v-33.4L4002.2,1404.7L4002.2,1404.7z"/>
		<path class="st1" d="M4049.1,1433.9h-0.1c-0.9,2.2-2.5,5-7.3,5c-7.8,0-10.9-6.5-10.9-18c0-14.8,5.2-17.1,10.3-17.1
			c3.6,0,6.3,1.8,7.6,4.8h0.1v-14.8h6.7v44.3h-6.3v-4.2L4049.1,1433.9L4049.1,1433.9z M4043,1409.1c-3.8,0-5.2,3.1-5.2,12.1
			c0,7.6,1,12.3,5.6,12.3s5.6-4.7,5.6-11.8C4049.1,1413.7,4048.1,1409.1,4043,1409.1z"/>
	</g>
	<g class="st0">
		<path class="st1" d="M3648.2,1473.7h7.1l5.8,34.4h0.1l5.8-34.4h7.4l6,34.6h0.1l5.8-34.6h7l-8.8,44.3h-8.2l-5.7-33.4h-0.1
			l-5.6,33.4h-8.2L3648.2,1473.7z"/>
	</g>
	<g class="st0">
		<path class="st1" d="M3717.7,1511.1c0,1.2,0.7,2.4,1.7,2.4c0.4,0,0.9-0.1,1.1-0.2v4.3c-0.8,0.4-2,0.8-3.3,0.8
			c-3,0-5.5-1.2-5.6-4.4h-0.1c-1.8,3.3-4.4,4.9-8.3,4.9c-5.3,0-8.7-3-8.7-9.4c0-7.4,3.2-9,7.8-10.5l5.2-1.4c2.4-0.7,3.9-1.4,3.9-4.3
			c0-3-1.1-5-4.6-5c-4.5,0-5.1,3.2-5.1,6.4h-6.3c0-7.1,2.9-11,11.7-11c5.9,0,10.6,2.3,10.6,8.2L3717.7,1511.1L3717.7,1511.1z
			 M3711.4,1500.4c-1.7,1.4-5.5,2.2-7.4,3.1s-2.7,2.9-2.7,5.4c0,2.8,1.4,5,4.2,5c4,0,6-3,6-7.9v-5.6H3711.4z"/>
		<path class="st1" d="M3724.6,1484.7h6.7v5.2h0.1c1.5-3.7,4-6.1,7.7-6.1c0.7,0,1.2,0.1,1.6,0.2v6.8c-0.5-0.1-1.7-0.4-2.8-0.4
			c-3,0-6.7,1.4-6.7,7.6v20h-6.7L3724.6,1484.7L3724.6,1484.7z"/>
	</g>
	<g class="st0">
		<path class="st1" d="M3744.1,1484.7h6.7v5.2h0.1c1.5-3.7,4-6.1,7.8-6.1c0.7,0,1.2,0.1,1.6,0.2v6.8c-0.5-0.1-1.7-0.4-2.8-0.4
			c-3,0-6.7,1.4-6.7,7.6v20h-6.7L3744.1,1484.7L3744.1,1484.7z"/>
	</g>
	<g class="st0">
		<path class="st1" d="M3785.1,1511.1c0,1.2,0.7,2.4,1.7,2.4c0.4,0,0.9-0.1,1.1-0.2v4.3c-0.8,0.4-2,0.8-3.3,0.8
			c-3,0-5.5-1.2-5.6-4.4h-0.1c-1.8,3.3-4.4,4.9-8.3,4.9c-5.3,0-8.7-3-8.7-9.4c0-7.4,3.2-9,7.8-10.5l5.2-1.4c2.4-0.7,3.9-1.4,3.9-4.3
			c0-3-1.1-5-4.6-5c-4.5,0-5.1,3.2-5.1,6.4h-6.3c0-7.1,2.9-11,11.7-11c5.9,0,10.6,2.3,10.6,8.2L3785.1,1511.1L3785.1,1511.1z
			 M3778.8,1500.4c-1.7,1.4-5.5,2.2-7.4,3.1s-2.7,2.9-2.7,5.4c0,2.8,1.4,5,4.2,5c4,0,6-3,6-7.9v-5.6H3778.8z"/>
		<path class="st1" d="M3791.9,1484.7h6.3v3.9h0.2c1.7-3,4.8-4.8,8.6-4.8c5.1,0,8.3,2.3,8.3,9.1v25.2h-6.7v-22.9c0-4.3-1.3-6-4.7-6
			c-2.7,0-5.3,2.2-5.3,6.5v22.4h-6.7L3791.9,1484.7L3791.9,1484.7z"/>
		<path class="st1" d="M3818.8,1484.7h4.6v-9.5h6.7v9.5h5.5v5h-5.5v19.9c0,2.6,0.7,3.5,3,3.5c1,0,1.8-0.1,2.4-0.2v5
			c-1.4,0.4-3.3,0.6-5.4,0.6c-4.5,0-6.8-1.2-6.8-8.1v-20.7h-4.6v-5L3818.8,1484.7L3818.8,1484.7z"/>
		<path class="st1" d="M3843.5,1484.7l5.8,25h0.1l5.3-25h7l-9.2,34.6c-2.6,9.1-4.8,10.3-11.7,10.2c-0.9,0-1.8-0.1-2.7-0.2v-5.3
			c0.7,0.1,1.4,0.2,2.2,0.2c2.3,0,3.8-0.5,4.5-2.6l0.9-2.7l-9.5-34.1L3843.5,1484.7L3843.5,1484.7z"/>
		<path class="st1" d="M3886.2,1504.3v1.1c0,5.4,2.4,8.1,7.3,8.1c4.5,0,6.7-3.2,6.7-6.4c0-4.7-2.4-6.7-6.3-7.9l-4.8-1.7
			c-6.4-2.5-9.2-5.8-9.2-12.2c0-8.1,5.5-12.5,13.8-12.5c11.3,0,12.5,7.1,12.5,11.7v1h-7.1v-0.9c0-4-1.8-6.4-6.2-6.4
			c-3,0-6,1.7-6,6.4c0,3.8,1.9,5.7,6.6,7.5l4.8,1.7c6.3,2.2,9,5.6,9,11.7c0,9.4-5.7,13.3-14.6,13.3c-11,0-13.5-7.3-13.5-13.5v-1.1h7
			V1504.3z"/>
		<path class="st1" d="M3909.5,1484.7h4.6v-9.5h6.7v9.5h5.5v5h-5.5v19.9c0,2.6,0.7,3.5,3,3.5c1,0,1.8-0.1,2.4-0.2v5
			c-1.4,0.4-3.3,0.6-5.4,0.6c-4.5,0-6.8-1.2-6.8-8.1v-20.7h-4.6v-5L3909.5,1484.7L3909.5,1484.7z"/>
		<path class="st1" d="M3951.6,1511.1c0,1.2,0.7,2.4,1.7,2.4c0.4,0,0.9-0.1,1.1-0.2v4.3c-0.8,0.4-2,0.8-3.3,0.8
			c-3,0-5.5-1.2-5.6-4.4h-0.1c-1.8,3.3-4.4,4.9-8.3,4.9c-5.3,0-8.7-3-8.7-9.4c0-7.4,3.2-9,7.7-10.5l5.2-1.4c2.4-0.7,3.9-1.4,3.9-4.3
			c0-3-1.1-5-4.6-5c-4.5,0-5.1,3.2-5.1,6.4h-6.3c0-7.1,2.9-11,11.7-11c5.9,0,10.6,2.3,10.6,8.2v19.2H3951.6z M3945.3,1500.4
			c-1.7,1.4-5.5,2.2-7.4,3.1s-2.7,2.9-2.7,5.4c0,2.8,1.4,5,4.2,5c4,0,6-3,6-7.9v-5.6H3945.3z"/>
		<path class="st1" d="M3958.4,1484.7h6.7v5.2h0.1c1.5-3.7,4-6.1,7.7-6.1c0.7,0,1.2,0.1,1.6,0.2v6.8c-0.5-0.1-1.7-0.4-2.8-0.4
			c-3,0-6.7,1.4-6.7,7.6v20h-6.7L3958.4,1484.7L3958.4,1484.7z"/>
		<path class="st1" d="M3975,1484.7h4.6v-9.5h6.7v9.5h5.5v5h-5.5v19.9c0,2.6,0.7,3.5,3,3.5c1,0,1.8-0.1,2.4-0.2v5
			c-1.4,0.4-3.3,0.6-5.4,0.6c-4.5,0-6.8-1.2-6.8-8.1v-20.7h-4.6v-5L3975,1484.7L3975,1484.7z"/>
	</g>
	<g class="st0">
		<path class="st1" d="M2795.5,1319.7H2785v-6h28v6h-10.4v38.3h-7.1V1319.7z"/>
	</g>
	<g class="st0">
		<path class="st1" d="M2811.9,1324.7h6.7v5.2h0.1c1.5-3.7,4-6.1,7.7-6.1c0.7,0,1.2,0.1,1.6,0.2v6.8c-0.5-0.1-1.7-0.4-2.8-0.4
			c-3,0-6.7,1.4-6.7,7.6v20h-6.7L2811.9,1324.7L2811.9,1324.7z"/>
		<path class="st1" d="M2831.7,1313.2h6.7v6.7h-6.7V1313.2z M2831.7,1324.7h6.7v33.4h-6.7V1324.7z"/>
		<path class="st1" d="M2867.1,1351.1c0,1.2,0.7,2.4,1.7,2.4c0.4,0,0.9-0.1,1.1-0.2v4.3c-0.8,0.4-2,0.8-3.3,0.8
			c-3,0-5.5-1.2-5.6-4.4h-0.1c-1.8,3.3-4.4,4.9-8.3,4.9c-5.3,0-8.7-3-8.7-9.4c0-7.4,3.2-9,7.8-10.5l5.2-1.4c2.4-0.7,3.9-1.4,3.9-4.3
			c0-3-1.1-5-4.6-5c-4.5,0-5.1,3.2-5.1,6.4h-6.3c0-7.1,2.9-11,11.7-11c5.9,0,10.6,2.3,10.6,8.2L2867.1,1351.1L2867.1,1351.1z
			 M2860.8,1340.4c-1.7,1.4-5.5,2.2-7.4,3.1s-2.7,2.9-2.7,5.4c0,2.8,1.4,5,4.2,5c4,0,6-3,6-7.9v-5.6H2860.8z"/>
		<path class="st1" d="M2874.2,1313.7h6.7v44.3h-6.7V1313.7z"/>
		<path class="st1" d="M2903,1313.7h15.6c6.2,0,11.2,3.1,11.2,11.4c0,5.7-2.5,10.1-7.4,10.8v0.1c4.4,0.4,6.7,2.9,6.9,9.1
			c0.1,2.9,0.1,6.3,0.2,9c0.1,2.2,1.2,3.2,2.1,3.8h-8c-0.7-0.8-1-2.2-1.2-3.9c-0.2-2.7-0.2-5.1-0.3-8.4c-0.1-4.8-1.6-6.9-6.4-6.9
			h-5.8v19.2h-7.1v-44.2H2903z M2915.7,1333.5c4.5,0,7.1-2.7,7.1-7.2c0-4.7-2-7.2-6.7-7.2h-6v14.4L2915.7,1333.5L2915.7,1333.5z"/>
		<path class="st1" d="M2952.9,1354.1h-0.2c-1.7,3-4.8,4.8-8.6,4.8c-5,0-8.3-2.3-8.3-10.9v-23.3h6.7v23.9c0,3.7,1.7,5,4.5,5
			s5.5-1.9,5.5-5.6v-23.3h6.7v33.4h-6.3L2952.9,1354.1L2952.9,1354.1z"/>
		<path class="st1" d="M2965.7,1324.7h6.3v3.9h0.2c1.7-3,4.8-4.8,8.6-4.8c5.1,0,8.3,2.3,8.3,9.1v25.2h-6.7v-22.9c0-4.3-1.3-6-4.7-6
			c-2.7,0-5.3,2.2-5.3,6.5v22.4h-6.7L2965.7,1324.7L2965.7,1324.7z"/>
	</g>
	<g class="st0">
		<path class="st1" d="M241.7,1314.3h11.8l8.4,35.1h0.1l8.2-35.1h11.5v47.3h-7.2v-39.4h-0.1l-9.5,39.4h-6.4l-9.5-39.4h-0.1v39.4
			h-7.2V1314.3z"/>
		<path class="st1" d="M301,1325c10.4,0,13.3,7.7,13.3,18.8c0,11.1-3.4,18.8-13.3,18.8s-13.3-7.7-13.3-18.8S290.7,1325,301,1325z
			 M301,1357.2c5.2,0,6.2-4.4,6.2-13.5c0-7.9-0.9-13.5-6.2-13.5c-5.2,0-6.1,5.6-6.1,13.5C294.9,1352.8,295.8,1357.2,301,1357.2z"/>
		<path class="st1" d="M319.8,1314.3h7.2v15.8h0.1c1.3-3.2,4.2-5.1,8.1-5.1c5.4,0,11,2.5,11,18.3c0,12.3-3.3,19.2-11.7,19.2
			c-5.1,0-6.9-3-7.8-5.3h-0.1v4.4h-6.8L319.8,1314.3L319.8,1314.3z M332.6,1356.8c5,0,6-5.1,6-13.2c0-9.6-1.5-12.9-5.6-12.9
			c-5.5,0-6.5,4.9-6.5,13.5C326.6,1351.8,327.7,1356.8,332.6,1356.8z"/>
		<path class="st1" d="M352,1313.7h7.2v7.2H352V1313.7z M352,1325.9h7.2v35.7H352V1325.9z"/>
		<path class="st1" d="M366.8,1314.3h7.2v47.3h-7.2V1314.3z"/>
		<path class="st1" d="M381.5,1313.7h7.2v7.2h-7.2V1313.7z M381.5,1325.9h7.2v35.7h-7.2V1325.9z"/>
		<path class="st1" d="M394.1,1356l15.6-24.1H395v-6h22.7v5.9l-15,23.7h15v6H394v-5.5H394.1z"/>
		<path class="st1" d="M446.2,1354.2c0,1.3,0.8,2.5,1.9,2.5c0.5,0,0.9-0.1,1.2-0.2v4.6c-0.9,0.4-2.1,0.9-3.5,0.9
			c-3.2,0-5.8-1.3-6-4.7h-0.1c-1.9,3.5-4.7,5.2-8.9,5.2c-5.7,0-9.3-3.2-9.3-10c0-8,3.4-9.6,8.3-11.2l5.6-1.5
			c2.6-0.7,4.2-1.5,4.2-4.6c0-3.2-1.1-5.3-4.9-5.3c-4.8,0-5.4,3.4-5.4,6.8h-6.8c0-7.6,3.1-11.7,12.5-11.7c6.3,0,11.3,2.5,11.3,8.7
			v20.5L446.2,1354.2L446.2,1354.2z M439.5,1342.8c-1.9,1.5-5.8,2.3-8,3.3c-2.1,1-2.9,3.1-2.9,5.8c0,3,1.5,5.4,4.4,5.4
			c4.3,0,6.4-3.2,6.4-8.5v-6L439.5,1342.8L439.5,1342.8z"/>
		<path class="st1" d="M450.4,1325.9h4.9v-10.1h7.2v10.1h5.8v5.3h-5.8v21.3c0,2.8,0.8,3.8,3.2,3.8c1.1,0,1.9-0.1,2.6-0.2v5.3
			c-1.5,0.4-3.5,0.6-5.8,0.6c-4.8,0-7.2-1.3-7.2-8.6v-22.1h-4.9L450.4,1325.9L450.4,1325.9z"/>
		<path class="st1" d="M472.3,1313.7h7.2v7.2h-7.2V1313.7z M472.3,1325.9h7.2v35.7h-7.2V1325.9z"/>
		<path class="st1" d="M498.5,1325c10.4,0,13.3,7.7,13.3,18.8c0,11.1-3.4,18.8-13.3,18.8s-13.3-7.7-13.3-18.8
			C485.3,1332.7,488.2,1325,498.5,1325z M498.5,1357.2c5.2,0,6.2-4.4,6.2-13.5c0-7.9-0.9-13.5-6.2-13.5c-5.2,0-6.1,5.6-6.1,13.5
			C492.4,1352.8,493.4,1357.2,498.5,1357.2z"/>
		<path class="st1" d="M517.4,1325.9h6.8v4.2h0.2c1.8-3.2,5.2-5.1,9.1-5.1c5.4,0,8.9,2.5,8.9,9.7v26.9h-7.2v-24.5
			c0-4.6-1.4-6.4-5-6.4c-2.9,0-5.7,2.3-5.7,7v23.9h-7.2v-35.7H517.4z"/>
	</g>
	<g class="st0">
		<path class="st1" d="M241.7,1399.8h13.5c14.8,0,16.7,9.7,16.7,23.7s-1.9,23.7-16.7,23.7h-13.5V1399.8z M249.3,1441.4h6.2
			c6.2,0,8.8-4.1,8.8-18c0-13.3-2.3-18-8.8-18h-6.2L249.3,1441.4L249.3,1441.4z"/>
		<path class="st1" d="M284.3,1430.2v2.1c0,4.8,0.6,10.9,6,10.9c5.1,0,5.7-5.8,5.7-8h6.8c0,7.9-4.8,12.9-12.5,12.9
			c-5.8,0-13.1-1.7-13.1-18.2c0-9.3,2-19.3,13.2-19.3c9.9,0,12.6,6,12.6,15.9v3.8h-18.7V1430.2z M295.8,1425.3v-1.9
			c0-4.5-1.5-8-5.5-8c-4.6,0-6,4.5-6,9.1v0.7h11.5V1425.3z"/>
		<path class="st1" d="M305.6,1411.5h4.9v-10.1h7.2v10.1h5.8v5.3h-5.8v21.3c0,2.8,0.8,3.8,3.2,3.8c1.1,0,1.9-0.1,2.6-0.2v5.3
			c-1.5,0.4-3.5,0.6-5.8,0.6c-4.8,0-7.2-1.3-7.2-8.6v-22.1h-4.9L305.6,1411.5L305.6,1411.5z"/>
		<path class="st1" d="M350.7,1439.7c0,1.3,0.8,2.5,1.9,2.5c0.5,0,0.9-0.1,1.2-0.2v4.6c-0.9,0.4-2.1,0.9-3.5,0.9
			c-3.2,0-5.8-1.3-6-4.7H344c-1.9,3.5-4.7,5.2-8.9,5.2c-5.7,0-9.3-3.2-9.3-10c0-8,3.4-9.6,8.3-11.2l5.6-1.5c2.6-0.7,4.2-1.5,4.2-4.6
			c0-3.2-1.1-5.3-4.9-5.3c-4.8,0-5.4,3.4-5.4,6.8h-6.8c0-7.6,3.1-11.7,12.5-11.7c6.3,0,11.3,2.5,11.3,8.7L350.7,1439.7L350.7,1439.7
			z M343.9,1428.3c-1.9,1.5-5.8,2.3-8,3.3c-2.1,1-2.9,3.1-2.9,5.8c0,3,1.5,5.4,4.4,5.4c4.3,0,6.4-3.2,6.4-8.5v-6L343.9,1428.3
			L343.9,1428.3z"/>
		<path class="st1" d="M358.3,1399.3h7.2v7.2h-7.2V1399.3z M358.3,1411.5h7.2v35.7h-7.2V1411.5z"/>
		<path class="st1" d="M373,1399.8h7.2v47.3H373V1399.8z"/>
		<path class="st1" d="M409.6,1432.5v1.2c0,5.8,2.5,8.7,7.8,8.7c4.8,0,7.2-3.4,7.2-6.9c0-5-2.5-7.2-6.8-8.4l-5.2-1.8
			c-6.9-2.7-9.9-6.2-9.9-13c0-8.6,5.8-13.4,14.7-13.4c12.1,0,13.4,7.6,13.4,12.5v1.1h-7.6v-1c0-4.3-1.9-6.8-6.6-6.8
			c-3.2,0-6.4,1.8-6.4,6.8c0,4,2.1,6.1,7.1,8l5.1,1.9c6.7,2.4,9.6,6,9.6,12.5c0,10.1-6.1,14.3-15.6,14.3c-11.7,0-14.4-7.8-14.4-14.4
			v-1.1h7.6L409.6,1432.5L409.6,1432.5z"/>
		<path class="st1" d="M442.5,1411.5l6.2,26.8h0.1l5.7-26.8h7.5l-9.8,37c-2.8,9.7-5.1,11-12.5,10.9c-0.9,0-1.9-0.1-2.9-0.3v-5.7
			c0.8,0.1,1.5,0.3,2.3,0.3c2.5,0,4-0.5,4.8-2.8l0.9-2.9l-10.1-36.5H442.5z"/>
		<path class="st1" d="M481.3,1421.9v-0.9c0-2.8-1-5.5-4.7-5.5c-2.9,0-5.1,1.3-5.1,4.6c0,2.8,1.3,3.9,5,5.2l4.6,1.6
			c5.3,1.8,7.8,4.6,7.8,10.3c0,7.6-5.6,10.9-12.8,10.9c-9,0-11.7-4.2-11.7-11.1v-1.3h6.4v1.1c0,4.1,1.5,6.4,5.6,6.4
			c3.9,0,5.8-2,5.8-5.2c0-2.7-1.4-4.4-3.9-5.2l-5.8-2.1c-5.4-1.9-7.6-4.6-7.6-10.3c0-6.7,4.8-9.8,12.2-9.8c9.1,0,11.1,5.3,11.1,9.7
			v1.6L481.3,1421.9L481.3,1421.9z"/>
		<path class="st1" d="M491,1411.5h4.9v-10.1h7.2v10.1h5.8v5.3h-5.8v21.3c0,2.8,0.8,3.8,3.2,3.8c1.1,0,1.9-0.1,2.6-0.2v5.3
			c-1.5,0.4-3.5,0.6-5.8,0.6c-4.8,0-7.2-1.3-7.2-8.6v-22.1H491V1411.5z"/>
		<path class="st1" d="M518.8,1430.2v2.1c0,4.8,0.6,10.9,6,10.9c5.1,0,5.7-5.8,5.7-8h6.8c0,7.9-4.8,12.9-12.5,12.9
			c-5.8,0-13.1-1.7-13.1-18.2c0-9.3,2-19.3,13.2-19.3c9.9,0,12.6,6,12.6,15.9v3.8h-18.7L518.8,1430.2L518.8,1430.2z M530.2,1425.3
			v-1.9c0-4.5-1.5-8-5.5-8c-4.6,0-6,4.5-6,9.1v0.7h11.5V1425.3z"/>
		<path class="st1" d="M543.6,1411.5h6.8v4.2h0.2c1.8-3.2,5.2-5.1,8.6-5.1c5.1,0,7.2,2.5,8.3,5.4c2.1-3.4,4.7-5.4,9-5.4
			c5,0,8.7,2.6,8.7,9.5v27.1H578v-24.5c0-4.6-1.4-6.4-4.3-6.4c-2.9,0-5.7,2.3-5.7,7v23.9h-7.2v-24.5c0-4.6-1.4-6.4-4.4-6.4
			c-2.8,0-5.6,2.3-5.6,7v23.9h-7.2V1411.5z"/>
		<path class="st1" d="M614.5,1432.5v1.2c0,5.8,2.5,8.7,7.8,8.7c4.8,0,7.2-3.4,7.2-6.9c0-5-2.5-7.2-6.8-8.4l-5.2-1.8
			c-6.9-2.7-9.9-6.2-9.9-13c0-8.6,5.8-13.4,14.7-13.4c12.1,0,13.4,7.6,13.4,12.5v1.1h-7.6v-1c0-4.3-1.9-6.8-6.6-6.8
			c-3.2,0-6.4,1.8-6.4,6.8c0,4,2.1,6.1,7.1,8l5.1,1.9c6.7,2.4,9.6,6,9.6,12.5c0,10.1-6.1,14.3-15.6,14.3c-11.7,0-14.4-7.8-14.4-14.4
			v-1.1h7.6L614.5,1432.5L614.5,1432.5z"/>
		<path class="st1" d="M639.5,1411.5h4.9v-10.1h7.2v10.1h5.8v5.3h-5.8v21.3c0,2.8,0.8,3.8,3.2,3.8c1.1,0,1.9-0.1,2.6-0.2v5.3
			c-1.5,0.4-3.5,0.6-5.8,0.6c-4.8,0-7.2-1.3-7.2-8.6v-22.1h-4.9V1411.5z"/>
		<path class="st1" d="M679.3,1442.9h-0.2c-1.8,3.2-5.2,5.1-9.1,5.1c-5.3,0-8.9-2.5-8.9-11.7v-24.9h7.2v25.6c0,4,1.8,5.3,4.8,5.3
			s5.8-2,5.8-6v-24.9h7.2v35.7h-6.8V1442.9z"/>
	</g>
	<g class="st0">
		<path class="st1" d="M711.2,1442.7L711.2,1442.7c-1,2.3-2.8,5.3-7.9,5.3c-8.4,0-11.7-7-11.7-19.2c0-15.8,5.6-18.3,11-18.3
			c3.8,0,6.8,1.9,8.1,5.1h0.1v-15.8h7.2v47.3h-6.8L711.2,1442.7L711.2,1442.7z M704.7,1416.2c-4.1,0-5.6,3.3-5.6,12.9
			c0,8.1,1.1,13.2,6,13.2s6-5,6-12.7C711.2,1421.1,710.2,1416.2,704.7,1416.2z"/>
	</g>
	<g class="st0">
		<path class="st1" d="M729.2,1411.5l6.2,26.8h0.1l5.7-26.8h7.5l-9.8,37c-2.8,9.7-5.1,11-12.5,10.9c-0.9,0-1.9-0.1-2.9-0.3v-5.7
			c0.8,0.1,1.5,0.3,2.3,0.3c2.5,0,4-0.5,4.8-2.8l0.9-2.9l-10.1-36.5H729.2z"/>
		<path class="st1" d="M763.7,1398.9h5.9l-15,49.2h-5.9L763.7,1398.9z"/>
	</g>
	<g class="st0">
		<path class="st1" d="M241.7,1479.3h16.7c6.6,0,12,3.3,12,12.2c0,6.1-2.7,10.8-7.9,11.6v0.1c4.7,0.5,7.2,3,7.4,9.7
			c0.1,3,0.1,6.8,0.3,9.6c0.1,2.3,1.3,3.4,2.3,4.1h-8.6c-0.7-0.9-1.1-2.3-1.3-4.2c-0.3-2.9-0.2-5.5-0.3-8.9
			c-0.1-5.2-1.7-7.4-6.9-7.4h-6.2v20.5h-7.6v-47.3L241.7,1479.3L241.7,1479.3z M255.3,1500.4c4.8,0,7.6-2.9,7.6-7.7
			c0-5-2.2-7.7-7.2-7.7h-6.4v15.4L255.3,1500.4L255.3,1500.4z"/>
		<path class="st1" d="M283,1509.8v2.1c0,4.8,0.6,10.9,6,10.9c5.1,0,5.7-5.8,5.7-8h6.8c0,7.9-4.8,12.9-12.5,12.9
			c-5.8,0-13.1-1.7-13.1-18.2c0-9.3,2-19.3,13.2-19.3c9.9,0,12.6,6,12.6,15.9v3.8H283V1509.8z M294.5,1504.9v-1.9c0-4.5-1.5-8-5.5-8
			c-4.6,0-6,4.5-6,9.1v0.7h11.5V1504.9z"/>
		<path class="st1" d="M331,1519.2c0,1.3,0.8,2.5,1.9,2.5c0.5,0,0.9-0.1,1.2-0.2v4.6c-0.9,0.4-2.1,0.9-3.5,0.9c-3.2,0-5.8-1.3-6-4.7
			h-0.1c-1.9,3.5-4.7,5.2-8.9,5.2c-5.7,0-9.3-3.2-9.3-10c0-8,3.4-9.6,8.3-11.2l5.6-1.5c2.6-0.7,4.2-1.5,4.2-4.6
			c0-3.2-1.1-5.3-4.9-5.3c-4.8,0-5.4,3.4-5.4,6.8h-6.8c0-7.6,3.1-11.7,12.5-11.7c6.3,0,11.3,2.5,11.3,8.7v20.5L331,1519.2
			L331,1519.2z M324.2,1507.8c-1.9,1.5-5.8,2.3-8,3.3c-2.1,1-2.9,3.1-2.9,5.8c0,3,1.5,5.4,4.4,5.4c4.3,0,6.4-3.2,6.4-8.5v-6
			L324.2,1507.8L324.2,1507.8z"/>
		<path class="st1" d="M338.6,1479.3h7.2v47.3h-7.2V1479.3z"/>
		<path class="st1" d="M353.3,1478.8h7.2v7.2h-7.2V1478.8z M353.3,1491h7.2v35.7h-7.2V1491z"/>
		<path class="st1" d="M365.9,1521.1l15.6-24.1h-14.6v-6h22.7v5.9l-15,23.7h15v6h-23.7V1521.1z"/>
		<path class="st1" d="M418.1,1519.2c0,1.3,0.8,2.5,1.9,2.5c0.5,0,0.9-0.1,1.2-0.2v4.6c-0.9,0.4-2.1,0.9-3.5,0.9
			c-3.2,0-5.8-1.3-6-4.7h-0.1c-1.9,3.5-4.7,5.2-8.9,5.2c-5.7,0-9.3-3.2-9.3-10c0-8,3.4-9.6,8.3-11.2l5.6-1.5
			c2.6-0.7,4.2-1.5,4.2-4.6c0-3.2-1.1-5.3-4.9-5.3c-4.8,0-5.4,3.4-5.4,6.8h-6.8c0-7.6,3.1-11.7,12.5-11.7c6.3,0,11.3,2.5,11.3,8.7
			v20.5L418.1,1519.2L418.1,1519.2z M411.3,1507.8c-1.9,1.5-5.8,2.3-8,3.3c-2.1,1-2.9,3.1-2.9,5.8c0,3,1.5,5.4,4.4,5.4
			c4.3,0,6.4-3.2,6.4-8.5v-6L411.3,1507.8L411.3,1507.8z"/>
		<path class="st1" d="M422.2,1491h4.9v-10.1h7.2v10.1h5.8v5.3h-5.8v21.3c0,2.8,0.8,3.8,3.2,3.8c1.1,0,1.9-0.1,2.6-0.2v5.3
			c-1.5,0.4-3.5,0.6-5.8,0.6c-4.8,0-7.2-1.3-7.2-8.6v-22.1h-4.9L422.2,1491L422.2,1491z"/>
		<path class="st1" d="M444.1,1478.8h7.2v7.2h-7.2V1478.8z M444.1,1491h7.2v35.7h-7.2V1491z"/>
		<path class="st1" d="M470.4,1490.1c10.4,0,13.3,7.7,13.3,18.8c0,11.1-3.4,18.8-13.3,18.8s-13.3-7.7-13.3-18.8
			C457.1,1497.8,460,1490.1,470.4,1490.1z M470.4,1522.3c5.2,0,6.2-4.4,6.2-13.5c0-7.9-0.9-13.5-6.2-13.5c-5.2,0-6.1,5.6-6.1,13.5
			C464.3,1517.9,465.2,1522.3,470.4,1522.3z"/>
		<path class="st1" d="M489.2,1491h6.8v4.2h0.2c1.8-3.2,5.2-5.1,9.1-5.1c5.4,0,8.9,2.5,8.9,9.7v26.9H507v-24.5c0-4.6-1.4-6.4-5-6.4
			c-2.9,0-5.7,2.3-5.7,7v23.9h-7.2V1491H489.2z"/>
	</g>
	<g class="st0">
		<path class="st1" d="M270.8,1612.4v1c0,8.6-3.4,16.9-14.6,16.9c-11.9,0-15.6-7.7-15.6-24.6s3.7-24.6,15.7-24.6
			c13.5,0,14.3,9.9,14.3,14.8v0.9H263v-0.8c0-4.4-1.3-9.4-6.8-9.2c-5.6,0-8.1,3.4-8.1,18.7s2.5,19.1,8.1,19.1c6.3,0,7-7,7-11.4v-0.8
			H270.8z"/>
		<path class="st1" d="M293.9,1625.1h-0.2c-1.8,3.2-5.2,5.1-9.1,5.1c-5.3,0-8.9-2.5-8.9-11.7v-24.9h7.2v25.6c0,4,1.8,5.3,4.8,5.3
			s5.8-2,5.8-6v-24.9h7.2v35.7h-6.8V1625.1z"/>
		<path class="st1" d="M322.9,1604.1v-0.9c0-2.8-1-5.5-4.7-5.5c-2.9,0-5.1,1.3-5.1,4.6c0,2.8,1.3,3.9,5,5.2l4.6,1.6
			c5.3,1.8,7.8,4.6,7.8,10.3c0,7.6-5.6,10.9-12.8,10.9c-9,0-11.7-4.2-11.7-11.1v-1.3h6.4v1.1c0,4.1,1.5,6.4,5.6,6.4
			c3.9,0,5.8-2,5.8-5.2c0-2.7-1.4-4.4-3.9-5.2l-5.8-2.1c-5.4-1.9-7.6-4.6-7.6-10.3c0-6.7,4.8-9.8,12.2-9.8c9.1,0,11.1,5.3,11.1,9.7
			v1.6L322.9,1604.1L322.9,1604.1z"/>
		<path class="st1" d="M332.6,1593.7h4.9v-10.1h7.2v10.1h5.8v5.3h-5.8v21.3c0,2.8,0.8,3.8,3.2,3.8c1.1,0,1.9-0.1,2.6-0.2v5.3
			c-1.5,0.4-3.5,0.6-5.8,0.6c-4.8,0-7.2-1.3-7.2-8.6V1599h-4.9L332.6,1593.7L332.6,1593.7z"/>
		<path class="st1" d="M366.1,1592.7c10.4,0,13.3,7.7,13.3,18.8c0,11.1-3.4,18.8-13.3,18.8s-13.3-7.7-13.3-18.8
			C352.8,1600.4,355.8,1592.7,366.1,1592.7z M366.1,1624.9c5.2,0,6.2-4.4,6.2-13.5c0-7.9-0.9-13.5-6.2-13.5c-5.2,0-6.1,5.6-6.1,13.5
			C360,1620.6,360.9,1624.9,366.1,1624.9z"/>
		<path class="st1" d="M385.3,1593.7h6.8v4.2h0.2c1.8-3.2,5.2-5.1,8.6-5.1c5.1,0,7.2,2.5,8.3,5.4c2.1-3.4,4.7-5.4,9-5.4
			c5,0,8.7,2.6,8.7,9.5v27.1h-7.2v-24.5c0-4.6-1.4-6.4-4.3-6.4s-5.7,2.3-5.7,7v23.9h-7.2v-24.5c0-4.6-1.4-6.4-4.4-6.4
			c-2.9,0-5.6,2.3-5.6,7v23.9h-7.2L385.3,1593.7L385.3,1593.7z"/>
		<path class="st1" d="M434.3,1581.5h7.2v7.2h-7.2V1581.5z M434.3,1593.7h7.2v35.7h-7.2V1593.7z"/>
		<path class="st1" d="M446.9,1623.8l15.6-24.1h-14.6v-6h22.7v5.9l-15,23.7h15v6h-23.7V1623.8z"/>
		<path class="st1" d="M499.1,1621.9c0,1.3,0.8,2.5,1.9,2.5c0.5,0,0.9-0.1,1.2-0.2v4.6c-0.9,0.4-2.1,0.9-3.5,0.9
			c-3.2,0-5.8-1.3-6-4.7h-0.1c-1.9,3.5-4.7,5.2-8.9,5.2c-5.7,0-9.3-3.2-9.3-10c0-8,3.4-9.6,8.3-11.2l5.6-1.5
			c2.6-0.7,4.2-1.5,4.2-4.6c0-3.2-1.1-5.3-4.9-5.3c-4.8,0-5.4,3.4-5.4,6.8h-6.8c0-7.6,3.1-11.7,12.5-11.7c6.3,0,11.3,2.5,11.3,8.7
			v20.5L499.1,1621.9L499.1,1621.9z M492.3,1610.5c-1.9,1.5-5.8,2.3-8,3.3c-2.1,1-2.9,3.1-2.9,5.8c0,3,1.5,5.4,4.4,5.4
			c4.3,0,6.4-3.2,6.4-8.5v-6L492.3,1610.5L492.3,1610.5z"/>
		<path class="st1" d="M503.2,1593.7h4.9v-10.1h7.2v10.1h5.8v5.3h-5.8v21.3c0,2.8,0.8,3.8,3.2,3.8c1.1,0,1.9-0.1,2.6-0.2v5.3
			c-1.5,0.4-3.5,0.6-5.8,0.6c-4.8,0-7.2-1.3-7.2-8.6V1599h-4.9L503.2,1593.7L503.2,1593.7z"/>
		<path class="st1" d="M525.1,1581.5h7.2v7.2h-7.2V1581.5z M525.1,1593.7h7.2v35.7h-7.2V1593.7z"/>
		<path class="st1" d="M551.4,1592.7c10.4,0,13.3,7.7,13.3,18.8c0,11.1-3.4,18.8-13.3,18.8c-9.9,0-13.3-7.7-13.3-18.8
			C538.1,1600.4,541,1592.7,551.4,1592.7z M551.4,1624.9c5.2,0,6.2-4.4,6.2-13.5c0-7.9-0.9-13.5-6.2-13.5c-5.2,0-6.1,5.6-6.1,13.5
			C545.3,1620.6,546.2,1624.9,551.4,1624.9z"/>
		<path class="st1" d="M570.2,1593.7h6.8v4.2h0.2c1.8-3.2,5.2-5.1,9.1-5.1c5.4,0,8.9,2.5,8.9,9.7v26.9H588v-24.5
			c0-4.6-1.4-6.4-5-6.4c-2.9,0-5.7,2.3-5.7,7v23.9h-7.2v-35.7H570.2z"/>
		<path class="st1" d="M642.5,1615c1.1-1.9,1.9-4.7,1.9-7.2v-0.9h6v0.6c0,2.5-0.8,8.3-4,12.9l6.4,9h-8l-2.8-4c-3,2.8-6.6,5-11.9,5
			c-10.9,0-13.9-8.1-13.9-13.1c0-5.2,2.6-9.3,6.6-12.4l3-2.3l-1.8-2.7c-1.7-2.6-3-5.2-3-7.8c0-6.8,5-10.1,11.3-10.1
			c3.5,0,10.4,1.7,10.4,9.6c0,4.4-2.4,7.4-5.8,9.9l-2.5,1.8L642.5,1615z M627.5,1608.2c-2.7,2.2-4.4,4.9-4.4,8.4
			c0,4.2,3.6,7.6,8,7.6c3.2,0,5.6-1.7,7.4-3.6l-9.6-13.5L627.5,1608.2z M632.6,1597.4c1.7-1.6,3.4-3.5,3.4-6.1
			c0-2.8-1.7-4.4-4.5-4.4c-1.9,0-4.4,1-4.4,4.1c0,2.4,1.5,4.8,2.8,6.6l1.1,1.4L632.6,1597.4z"/>
	</g>
	<g class="st0">
		<path class="st1" d="M241.7,1661.5h13.5c14.8,0,16.7,9.7,16.7,23.7s-1.9,23.7-16.7,23.7h-13.5V1661.5z M249.3,1703.2h6.2
			c6.2,0,8.8-4.1,8.8-18c0-13.3-2.3-18-8.8-18h-6.2L249.3,1703.2L249.3,1703.2z"/>
		<path class="st1" d="M284.3,1692v2.1c0,4.8,0.6,10.9,6,10.9c5.1,0,5.7-5.8,5.7-8h6.8c0,7.9-4.8,12.9-12.5,12.9
			c-5.8,0-13.1-1.7-13.1-18.2c0-9.3,2-19.3,13.2-19.3c9.9,0,12.6,6,12.6,15.9v3.8h-18.7V1692z M295.8,1687.1v-1.9c0-4.5-1.5-8-5.5-8
			c-4.6,0-6,4.5-6,9.1v0.7h11.5V1687.1z"/>
		<path class="st1" d="M324.2,1683.6v-0.9c0-2.8-1-5.5-4.7-5.5c-2.9,0-5.1,1.3-5.1,4.6c0,2.8,1.3,3.9,5,5.2l4.6,1.6
			c5.3,1.8,7.8,4.6,7.8,10.3c0,7.6-5.6,10.9-12.8,10.9c-9,0-11.7-4.2-11.7-11.1v-1.3h6.4v1.1c0,4.1,1.5,6.4,5.6,6.4
			c3.9,0,5.8-2,5.8-5.2c0-2.7-1.4-4.4-3.9-5.2l-5.8-2.1c-5.4-1.9-7.6-4.6-7.6-10.3c0-6.7,4.8-9.8,12.2-9.8c9.1,0,11.1,5.3,11.1,9.7
			v1.6L324.2,1683.6L324.2,1683.6z"/>
		<path class="st1" d="M337.4,1661h7.2v7.2h-7.2V1661z M337.4,1673.2h7.2v35.7h-7.2V1673.2z"/>
		<path class="st1" d="M358.9,1711.9c0,2.2,2,4.2,5.2,4.2c3.7,0,6-2.6,6-6.7v-5.8H370c-1.3,3.1-4.6,4.9-8.1,4.9
			c-8.4,0-10.7-8.2-10.7-18c0-7.8,1.2-18.4,11.3-18.4c4.2,0,7.2,2.7,7.8,5.3h0.1v-4.4h6.8v33.9c0,8.7-3.7,13.9-13.3,13.9
			c-10.6,0-11.8-6.2-11.8-9.1h6.8L358.9,1711.9L358.9,1711.9z M364,1702.9c5.6,0,6.2-7,6.2-12.7c0-5.8-0.7-12.3-5.7-12.3
			c-5.2,0-6,5.3-6,11.9C358.4,1696,358.7,1702.9,364,1702.9z"/>
		<path class="st1" d="M383.7,1673.2h6.8v4.2h0.2c1.8-3.2,5.2-5.1,9.1-5.1c5.4,0,8.9,2.5,8.9,9.7v26.9h-7.2v-24.5
			c0-4.6-1.4-6.4-5-6.4c-2.9,0-5.7,2.3-5.7,7v23.9h-7.2v-35.7H383.7z"/>
	</g>
	<g class="st0">
		<path class="st1" d="M1083.2,1313.7h15.6c6.2,0,11.2,3.1,11.2,11.4c0,5.7-2.5,10.1-7.4,10.8v0.1c4.4,0.4,6.7,2.9,6.9,9.1
			c0.1,2.9,0.1,6.3,0.2,9c0.1,2.2,1.2,3.2,2.1,3.8h-8c-0.7-0.8-1-2.2-1.2-3.9c-0.2-2.7-0.2-5.1-0.3-8.4c-0.1-4.8-1.6-6.9-6.4-6.9
			h-5.8v19.2h-7.1v-44.2H1083.2z M1095.9,1333.5c4.5,0,7.1-2.7,7.1-7.2c0-4.7-2-7.2-6.7-7.2h-6v14.4L1095.9,1333.5L1095.9,1333.5z"
			/>
		<path class="st1" d="M1121.8,1342.2v1.9c0,4.5,0.6,10.2,5.6,10.2c4.8,0,5.3-5.5,5.3-7.4h6.3c0,7.4-4.5,12-11.7,12
			c-5.5,0-12.2-1.6-12.2-17c0-8.7,1.9-18,12.3-18c9.3,0,11.8,5.6,11.8,14.9v3.5L1121.8,1342.2L1121.8,1342.2z M1132.6,1337.6v-1.8
			c0-4.2-1.4-7.4-5.1-7.4c-4.3,0-5.6,4.2-5.6,8.6v0.7L1132.6,1337.6L1132.6,1337.6z"/>
		<path class="st1" d="M1145.1,1313.7h6.7v44.3h-6.7V1313.7z"/>
		<path class="st1" d="M1164.3,1342.2v1.9c0,4.5,0.6,10.2,5.6,10.2c4.8,0,5.3-5.5,5.3-7.4h6.3c0,7.4-4.5,12-11.7,12
			c-5.5,0-12.2-1.6-12.2-17c0-8.7,1.9-18,12.3-18c9.3,0,11.8,5.6,11.8,14.9v3.5L1164.3,1342.2L1164.3,1342.2z M1175,1337.6v-1.8
			c0-4.2-1.4-7.4-5.1-7.4c-4.3,0-5.6,4.2-5.6,8.6v0.7L1175,1337.6L1175,1337.6z"/>
		<path class="st1" d="M1209.1,1351.1c0,1.2,0.7,2.4,1.7,2.4c0.4,0,0.9-0.1,1.1-0.2v4.3c-0.8,0.4-2,0.8-3.3,0.8
			c-3,0-5.5-1.2-5.6-4.4h-0.1c-1.8,3.3-4.4,4.9-8.3,4.9c-5.3,0-8.7-3-8.7-9.4c0-7.4,3.2-9,7.7-10.5l5.2-1.4c2.4-0.7,3.9-1.4,3.9-4.3
			c0-3-1.1-5-4.6-5c-4.5,0-5.1,3.2-5.1,6.4h-6.3c0-7.1,2.9-11,11.7-11c5.9,0,10.6,2.3,10.6,8.2v19.2H1209.1z M1202.8,1340.4
			c-1.7,1.4-5.5,2.2-7.4,3.1s-2.7,2.9-2.7,5.4c0,2.8,1.4,5,4.2,5c4,0,6-3,6-7.9L1202.8,1340.4L1202.8,1340.4z"/>
		<path class="st1" d="M1230.3,1334.4v-0.9c0-2.7-0.9-5.1-4.4-5.1c-2.7,0-4.8,1.2-4.8,4.3c0,2.6,1.2,3.7,4.7,4.9l4.3,1.5
			c5,1.7,7.3,4.3,7.3,9.6c0,7.1-5.2,10.2-12,10.2c-8.4,0-11-3.9-11-10.4v-1.2h6v1.1c0,3.8,1.4,6,5.2,6c3.7,0,5.5-1.9,5.5-4.9
			c0-2.5-1.3-4.1-3.7-4.9l-5.5-1.9c-5-1.7-7.1-4.3-7.1-9.6c0-6.3,4.5-9.2,11.4-9.2c8.5,0,10.4,5,10.4,9.1v1.5L1230.3,1334.4
			L1230.3,1334.4z"/>
		<path class="st1" d="M1248.1,1342.2v1.9c0,4.5,0.6,10.2,5.6,10.2c4.8,0,5.3-5.5,5.3-7.4h6.3c0,7.4-4.5,12-11.7,12
			c-5.5,0-12.2-1.6-12.2-17c0-8.7,1.9-18,12.3-18c9.3,0,11.8,5.6,11.8,14.9v3.5L1248.1,1342.2L1248.1,1342.2z M1258.9,1337.6v-1.8
			c0-4.2-1.4-7.4-5.1-7.4c-4.3,0-5.6,4.2-5.6,8.6v0.7L1258.9,1337.6L1258.9,1337.6z"/>
	</g>
	<g class="st0">
		<path class="st1" d="M1090.1,1409.7h-10.5v-6h28v6h-10.4v38.3h-7.1V1409.7z"/>
	</g>
	<g class="st0">
		<path class="st1" d="M1106.6,1414.7h6.7v5.2h0.1c1.5-3.7,4-6.1,7.7-6.1c0.7,0,1.2,0.1,1.6,0.2v6.8c-0.5-0.1-1.7-0.4-2.8-0.4
			c-3,0-6.7,1.4-6.7,7.6v20h-6.7v-33.3L1106.6,1414.7L1106.6,1414.7z"/>
	</g>
	<g class="st0">
		<path class="st1" d="M1147.6,1441.1c0,1.2,0.7,2.4,1.7,2.4c0.4,0,0.9-0.1,1.1-0.2v4.3c-0.8,0.4-2,0.8-3.3,0.8
			c-3,0-5.5-1.2-5.6-4.4h-0.1c-1.8,3.3-4.4,4.9-8.3,4.9c-5.3,0-8.7-3-8.7-9.4c0-7.4,3.2-9,7.7-10.5l5.2-1.4c2.4-0.7,3.9-1.4,3.9-4.3
			c0-3-1.1-5-4.6-5c-4.5,0-5.1,3.2-5.1,6.4h-6.3c0-7.1,2.9-11,11.7-11c5.9,0,10.6,2.3,10.6,8.2v19.2H1147.6z M1141.3,1430.4
			c-1.7,1.4-5.5,2.2-7.4,3.1s-2.7,2.9-2.7,5.4c0,2.8,1.4,5,4.2,5c4,0,6-3,6-7.9L1141.3,1430.4L1141.3,1430.4z"/>
		<path class="st1" d="M1154.7,1403.2h6.7v6.7h-6.7V1403.2z M1154.7,1414.7h6.7v33.4h-6.7V1414.7z"/>
		<path class="st1" d="M1168.2,1414.7h6.3v3.9h0.2c1.7-3,4.8-4.8,8.6-4.8c5.1,0,8.3,2.3,8.3,9.1v25.2h-6.7v-22.9c0-4.3-1.3-6-4.6-6
			c-2.7,0-5.3,2.2-5.3,6.5v22.4h-6.7v-33.4L1168.2,1414.7L1168.2,1414.7z"/>
		<path class="st1" d="M1198.3,1403.2h6.7v6.7h-6.7V1403.2z M1198.3,1414.7h6.7v33.4h-6.7V1414.7z"/>
		<path class="st1" d="M1211.8,1414.7h6.3v3.9h0.2c1.7-3,4.8-4.8,8.6-4.8c5.1,0,8.3,2.3,8.3,9.1v25.2h-6.7v-22.9c0-4.3-1.3-6-4.6-6
			c-2.7,0-5.3,2.2-5.3,6.5v22.4h-6.7v-33.4L1211.8,1414.7L1211.8,1414.7z"/>
		<path class="st1" d="M1248.3,1450.9c0,2,1.9,4,4.8,4c3.5,0,5.6-2.4,5.6-6.3v-5.4h-0.1c-1.2,2.9-4.3,4.6-7.6,4.6
			c-7.8,0-10-7.7-10-16.8c0-7.3,1.1-17.2,10.6-17.2c3.9,0,6.7,2.5,7.3,5h0.1v-4.1h6.3v31.7c0,8.1-3.5,13-12.5,13
			c-9.9,0-11-5.8-11-8.6h6.5L1248.3,1450.9L1248.3,1450.9z M1253,1442.4c5.2,0,5.8-6.6,5.8-11.8c0-5.5-0.7-11.5-5.3-11.5
			c-4.8,0-5.6,5-5.6,11.2C1247.8,1436,1248,1442.4,1253,1442.4z"/>
	</g>
	<g class="st0">
		<path class="st1" d="M1944.1,1319.7h-10.5v-6h28v6h-10.4v38.3h-7.1V1319.7z"/>
	</g>
	<g class="st0">
		<path class="st1" d="M1966.3,1342.2v1.9c0,4.5,0.6,10.2,5.6,10.2c4.8,0,5.3-5.5,5.3-7.4h6.3c0,7.4-4.5,12-11.7,12
			c-5.5,0-12.2-1.6-12.2-17c0-8.7,1.9-18,12.3-18c9.3,0,11.8,5.6,11.8,14.9v3.5L1966.3,1342.2L1966.3,1342.2z M1977,1337.6v-1.8
			c0-4.2-1.4-7.4-5.1-7.4c-4.3,0-5.6,4.2-5.6,8.6v0.7L1977,1337.6L1977,1337.6z"/>
		<path class="st1" d="M2003.6,1334.4v-0.9c0-2.7-0.9-5.1-4.4-5.1c-2.7,0-4.8,1.2-4.8,4.3c0,2.6,1.2,3.7,4.7,4.9l4.3,1.5
			c5,1.7,7.3,4.3,7.3,9.6c0,7.1-5.2,10.2-12,10.2c-8.4,0-11-3.9-11-10.4v-1.2h6v1.1c0,3.8,1.4,6,5.2,6c3.7,0,5.5-1.9,5.5-4.9
			c0-2.5-1.3-4.1-3.7-4.9l-5.5-1.9c-5-1.7-7.1-4.3-7.1-9.6c0-6.3,4.5-9.2,11.4-9.2c8.5,0,10.4,5,10.4,9.1v1.5L2003.6,1334.4
			L2003.6,1334.4z"/>
		<path class="st1" d="M2012.6,1324.7h4.6v-9.5h6.7v9.5h5.5v5h-5.5v19.9c0,2.6,0.7,3.5,3,3.5c1,0,1.8-0.1,2.4-0.2v5
			c-1.4,0.4-3.3,0.6-5.4,0.6c-4.5,0-6.8-1.2-6.8-8.1v-20.7h-4.6v-5L2012.6,1324.7L2012.6,1324.7z"/>
		<path class="st1" d="M2048.2,1313.7h15.6c6.2,0,11.2,3.1,11.2,11.4c0,5.7-2.5,10.1-7.4,10.8v0.1c4.4,0.4,6.7,2.9,6.9,9.1
			c0.1,2.9,0.1,6.3,0.2,9c0.1,2.2,1.2,3.2,2.1,3.8h-8c-0.7-0.8-1-2.2-1.2-3.9c-0.2-2.7-0.2-5.1-0.3-8.4c-0.1-4.8-1.6-6.9-6.4-6.9
			h-5.8v19.2h-7.1v-44.2H2048.2z M2060.9,1333.5c4.5,0,7.1-2.7,7.1-7.2c0-4.7-2-7.2-6.7-7.2h-6v14.4L2060.9,1333.5L2060.9,1333.5z"
			/>
		<path class="st1" d="M2098.1,1354.1h-0.2c-1.7,3-4.8,4.8-8.6,4.8c-5,0-8.3-2.3-8.3-10.9v-23.3h6.7v23.9c0,3.7,1.7,5,4.5,5
			c2.9,0,5.5-1.9,5.5-5.6v-23.3h6.7v33.4h-6.3L2098.1,1354.1L2098.1,1354.1z"/>
		<path class="st1" d="M2110.8,1324.7h6.3v3.9h0.2c1.7-3,4.8-4.8,8.6-4.8c5.1,0,8.3,2.3,8.3,9.1v25.2h-6.7v-22.9c0-4.3-1.3-6-4.6-6
			c-2.7,0-5.3,2.2-5.3,6.5v22.4h-6.7v-33.4L2110.8,1324.7L2110.8,1324.7z"/>
		<path class="st1" d="M2156,1313.7h14c8.5,0,12.2,5.3,12.2,12.9c0,7.9-4.6,13.1-13,13.1h-6.2v18.3h-7.1v-44.3H2156z M2163,1334.4h5
			c3.8,0,7.1-2,7.1-7.6c0-4.8-1.9-7.7-7.6-7.7h-4.5V1334.4z"/>
		<path class="st1" d="M2186.5,1313.7h6.7v14.5l0.2,0.1c1.9-2.9,4.8-4.6,8.2-4.6c5.1,0,8.3,2.3,8.3,9.1v25.2h-6.7v-22.9
			c0-4.3-1.3-6-4.7-6c-2.7,0-5.3,2.2-5.3,6.5v22.4h-6.7V1313.7z"/>
		<path class="st1" d="M2238.2,1351.1c0,1.2,0.7,2.4,1.7,2.4c0.4,0,0.9-0.1,1.1-0.2v4.3c-0.8,0.4-2,0.8-3.3,0.8
			c-3,0-5.5-1.2-5.6-4.4h-0.1c-1.8,3.3-4.4,4.9-8.3,4.9c-5.3,0-8.7-3-8.7-9.4c0-7.4,3.2-9,7.8-10.5l5.2-1.4c2.4-0.7,3.9-1.4,3.9-4.3
			c0-3-1.1-5-4.6-5c-4.5,0-5.1,3.2-5.1,6.4h-6.3c0-7.1,2.9-11,11.7-11c5.9,0,10.6,2.3,10.6,8.2L2238.2,1351.1L2238.2,1351.1z
			 M2231.9,1340.4c-1.7,1.4-5.5,2.2-7.4,3.1s-2.7,2.9-2.7,5.4c0,2.8,1.4,5,4.2,5c4,0,6-3,6-7.9v-5.6H2231.9z"/>
		<path class="st1" d="M2259.5,1334.4v-0.9c0-2.7-0.9-5.1-4.4-5.1c-2.7,0-4.8,1.2-4.8,4.3c0,2.6,1.2,3.7,4.7,4.9l4.3,1.5
			c5,1.7,7.3,4.3,7.3,9.6c0,7.1-5.2,10.2-12,10.2c-8.4,0-11-3.9-11-10.4v-1.2h6v1.1c0,3.8,1.4,6,5.2,6c3.7,0,5.5-1.9,5.5-4.9
			c0-2.5-1.3-4.1-3.7-4.9l-5.5-1.9c-5-1.7-7.1-4.3-7.1-9.6c0-6.3,4.5-9.2,11.4-9.2c8.5,0,10.4,5,10.4,9.1v1.5L2259.5,1334.4
			L2259.5,1334.4z"/>
		<path class="st1" d="M2277.2,1342.2v1.9c0,4.5,0.6,10.2,5.6,10.2c4.8,0,5.3-5.5,5.3-7.4h6.3c0,7.4-4.5,12-11.7,12
			c-5.5,0-12.2-1.6-12.2-17c0-8.7,1.9-18,12.3-18c9.3,0,11.8,5.6,11.8,14.9v3.5L2277.2,1342.2L2277.2,1342.2z M2288,1337.6v-1.8
			c0-4.2-1.4-7.4-5.1-7.4c-4.3,0-5.6,4.2-5.6,8.6v0.7L2288,1337.6L2288,1337.6z"/>
	</g>
</g>
<g>
	<g>
		<line class="st2" x1="619.8" y1="498.6" x2="619.8" y2="498.6"/>
		<line class="st3" x1="623.8" y1="498.6" x2="3668.6" y2="498.6"/>
		<line class="st2" x1="3670.6" y1="498.6" x2="3670.6" y2="498.6"/>
	</g>
	<circle class="st4" cx="3664" cy="974.3" r="13"/>
	<rect x="1208.9" y="765.6" class="st5" width="9.5" height="146"/>
	<rect x="2917.7" y="765.6" class="st5" width="9.5" height="146"/>
	<rect x="3769.6" y="769.6" class="st5" width="9.5" height="142"/>
	<g>
		<path class="st5" d="M684.1,452.9C678.6,626.2,536.6,765,362,765S45.3,626.2,39.9,452.9h-9.2C36.1,631.2,182.3,774.2,362,774.2
			s325.9-142.9,331.3-321.3H684.1z"/>
		<path class="st5" d="M1537.6,452.9C1532.1,626.2,1390,765,1215.5,765S898.8,626.1,893.3,452.9h-9.2
			c5.5,178.4,151.7,321.3,331.3,321.3s325.9-142.9,331.3-321.3H1537.6z"/>
		<path class="st5" d="M2391,452.9c-5.4,173.3-147.5,312.1-322.1,312.1s-316.7-138.8-322.1-312.1h-9.2
			c5.4,178.4,151.7,321.3,331.3,321.3s325.9-142.9,331.3-321.3H2391L2391,452.9z"/>
		<path class="st5" d="M3244.5,452.9C3239.1,626.2,3097,765,2922.4,765s-316.7-138.8-322.1-312.1h-9.2
			c5.4,178.4,151.6,321.3,331.3,321.3s325.9-142.9,331.3-321.3H3244.5L3244.5,452.9z"/>
		<path class="st5" d="M4098,452.9c-5.4,173.3-147.5,312.1-322.1,312.1s-316.7-138.8-322.1-312.1h-9.2
			c5.4,178.4,151.6,321.3,331.3,321.3s325.9-142.9,331.3-321.3H4098z"/>
		<path class="st5" d="M693.3,452.9c0-52.7,42.7-95.4,95.4-95.4s95.4,42.7,95.4,95.4h9.2c0-57.8-46.8-104.6-104.6-104.6
			s-104.6,46.8-104.6,104.6H693.3L693.3,452.9z"/>
		<path class="st5" d="M1546.8,452.9c0-52.7,42.7-95.4,95.4-95.4s95.4,42.7,95.4,95.4h9.2c0-57.8-46.8-104.6-104.6-104.6
			s-104.6,46.8-104.6,104.6H1546.8L1546.8,452.9z"/>
		<path class="st5" d="M2400.3,452.9c0-52.7,42.7-95.4,95.4-95.4s95.4,42.7,95.4,95.4h9.2c0-57.8-46.8-104.6-104.6-104.6
			s-104.6,46.8-104.6,104.6H2400.3L2400.3,452.9z"/>
		<path class="st5" d="M3253.7,452.9c0-52.7,42.7-95.4,95.4-95.4s95.4,42.7,95.4,95.4h9.2c0-57.8-46.8-104.6-104.6-104.6
			s-104.6,46.8-104.6,104.6H3253.7L3253.7,452.9z"/>
	</g>
	<rect x="357.1" y="765.6" class="st5" width="9.5" height="146"/>
	<rect x="2064.2" y="765.6" class="st5" width="9.5" height="146"/>
	<circle class="st5" cx="35.2" cy="452.9" r="11"/>
	<circle class="st5" cx="4051.5" cy="452.9" r="11"/>
	<g>
		<ellipse class="st6" cx="362" cy="442.6" rx="291.6" ry="291.6"/>
		<circle class="st7" cx="362" cy="442.6" r="243.1"/>
		<g class="st0">
			<path class="st1" d="M53.9,220.8c0-23.4,11.2-37.8,29.4-37.8s29.3,14.3,29.3,37.8c0,23.4-11.1,38.1-29.3,38.1
				C65,258.9,53.9,244.3,53.9,220.8z M97.2,220.8c0-16.4-5.3-25.6-13.9-25.6c-8.5,0-13.9,9.3-13.9,25.6c0,16.5,5.3,25.9,13.9,25.9
				S97.2,237.4,97.2,220.8z"/>
		</g>
		<g class="st0">
			<path class="st1" d="M139.6,198.6h-0.3l-18.5,12.8v-13.7l18.8-13h15.1v72.6h-15v-58.7L139.6,198.6L139.6,198.6z"/>
		</g>
		<g class="st0">
			<path class="st1" d="M170.7,249.8c0-4.5,3.6-8.1,8.1-8.1s8.1,3.6,8.1,8.1s-3.6,8.1-8.1,8.1S170.7,254.2,170.7,249.8z"/>
		</g>
	</g>
	<g>
		<g>
			<ellipse class="st6" cx="1215.5" cy="442.6" rx="291.6" ry="291.6"/>
			<circle class="st7" cx="1215.5" cy="442.6" r="243.1"/>
		</g>
		<g class="st0">
			<path class="st1" d="M876.7,220.8c0-23.4,11.2-37.8,29.4-37.8s29.3,14.3,29.3,37.8c0,23.4-11.1,38.1-29.3,38.1
				S876.7,244.3,876.7,220.8z M920,220.8c0-16.4-5.3-25.6-13.9-25.6c-8.5,0-13.9,9.3-13.9,25.6c0,16.5,5.3,25.9,13.9,25.9
				S920,237.4,920,220.8z"/>
		</g>
		<g class="st0">
			<path class="st1" d="M970.2,183.1c15.3,0,25.8,8.9,25.8,21c0,9.1-6,15.8-14,23.8l-17.7,17v0.3H997v12.1h-52.8V247l27.4-26.4
				c7.3-7.3,9.6-11,9.6-16c0-5.4-4.8-9.8-11.5-9.8c-7,0-12.2,4.9-12.2,11.6v0.3h-14.1v-0.3C943.4,192.8,954.3,183.1,970.2,183.1z"/>
			<path class="st1" d="M1007.4,249.8c0-4.5,3.6-8.1,8.1-8.1s8.1,3.6,8.1,8.1s-3.6,8.1-8.1,8.1S1007.4,254.2,1007.4,249.8z"/>
		</g>
	</g>
	<g>
		<g>
			
				<ellipse transform="matrix(0.7071 -0.7071 0.7071 0.7071 293.0118 1592.5463)" class="st6" cx="2068.9" cy="442.6" rx="291.6" ry="291.6"/>
			
				<ellipse transform="matrix(0.7071 -0.7071 0.7071 0.7071 293.0118 1592.5463)" class="st7" cx="2068.9" cy="442.6" rx="243.1" ry="243.1"/>
		</g>
		<g class="st0">
			<path class="st1" d="M1732.4,220.8c0-23.4,11.2-37.8,29.4-37.8s29.3,14.3,29.3,37.8c0,23.4-11.1,38.1-29.3,38.1
				S1732.4,244.3,1732.4,220.8z M1775.6,220.8c0-16.4-5.3-25.6-13.9-25.6c-8.5,0-13.9,9.3-13.9,25.6c0,16.5,5.3,25.9,13.9,25.9
				S1775.6,237.4,1775.6,220.8z"/>
		</g>
		<g class="st0">
			<path class="st1" d="M1818,214.6h8.8c6.9,0,11.6-4.1,11.6-10.1c0-5.9-4.2-9.8-11.7-9.8c-7,0-11.7,4.2-12.1,10.5h-14
				c0.6-13.4,11-22.2,26.8-22.2c15.1,0,25.4,7.7,25.4,19.4c0,8.9-6.1,15.3-15,16.9v0.3c10.8,0.9,17.8,7.4,17.8,17.5
				c0,13-11.8,21.7-28.6,21.7c-16.4,0-27.1-9-27.8-22.4h14.5c0.5,6.1,5.5,10.2,13.5,10.2c7.6,0,12.9-4.3,12.9-10.4
				c0-6.6-5-10.7-13.2-10.7h-9L1818,214.6L1818,214.6z"/>
		</g>
		<g class="st0">
			<path class="st1" d="M1865.6,249.8c0-4.5,3.6-8.1,8.1-8.1s8.1,3.6,8.1,8.1s-3.6,8.1-8.1,8.1S1865.6,254.2,1865.6,249.8z"/>
		</g>
	</g>
	<g>
		<g>
			
				<ellipse transform="matrix(0.7071 -0.7071 0.7071 0.7071 542.9867 2196.0579)" class="st6" cx="2922.4" cy="442.6" rx="291.6" ry="291.6"/>
			
				<ellipse transform="matrix(0.7071 -0.7071 0.7071 0.7071 542.9867 2196.0579)" class="st7" cx="2922.4" cy="442.6" rx="243.1" ry="243.1"/>
		</g>
		<g class="st0">
			<path class="st1" d="M2566.9,220.8c0-23.4,11.2-37.8,29.4-37.8s29.3,14.3,29.3,37.8c0,23.4-11.1,38.1-29.3,38.1
				C2578,258.9,2566.9,244.3,2566.9,220.8z M2610.1,220.8c0-16.4-5.3-25.6-13.9-25.6c-8.5,0-13.9,9.3-13.9,25.6
				c0,16.5,5.3,25.9,13.9,25.9S2610.1,237.4,2610.1,220.8z"/>
			<path class="st1" d="M2669.5,244.3h-36.1v-12.9c6.3-12.1,14.2-24.8,29.1-46.7h21.4v47.5h9.5v12.2h-9.5v12.9h-14.4V244.3z
				 M2646.7,232.6h23.1v-37.2h-0.3c-10.6,15.5-16.9,25.4-22.8,36.8V232.6z"/>
			<path class="st1" d="M2702.7,249.8c0-4.5,3.6-8.1,8.1-8.1s8.1,3.6,8.1,8.1s-3.6,8.1-8.1,8.1S2702.7,254.2,2702.7,249.8z"/>
		</g>
	</g>
	<g>
		<g>
			
				<ellipse transform="matrix(0.7071 -0.7071 0.7071 0.7071 792.9651 2799.5708)" class="st6" cx="3775.9" cy="442.6" rx="291.6" ry="291.6"/>
			
				<ellipse transform="matrix(0.7071 -0.7071 0.7071 0.7071 792.9651 2799.5708)" class="st7" cx="3775.9" cy="442.6" rx="243.1" ry="243.1"/>
		</g>
		<g class="st0">
			<path class="st1" d="M3422.5,220.8c0-23.4,11.2-37.8,29.4-37.8s29.3,14.3,29.3,37.8c0,23.4-11.1,38.1-29.3,38.1
				C3433.6,258.9,3422.5,244.3,3422.5,220.8z M3465.7,220.8c0-16.4-5.3-25.6-13.9-25.6c-8.5,0-13.9,9.3-13.9,25.6
				c0,16.5,5.3,25.9,13.9,25.9S3465.7,237.4,3465.7,220.8z"/>
			<path class="st1" d="M3490.6,236.5h14c0.9,6.1,6.3,10.4,13.3,10.4c7.9,0,13.4-5.5,13.4-13.4c0-8-5.5-13.7-13.3-13.7
				c-5.5,0-10.2,2.5-12.7,6.7h-13.6l3.6-41.7h46.2v12.1h-34.2l-1.7,19.9h0.3c3-4.9,8.8-7.9,16.1-7.9c13.9,0,23.8,10.2,23.8,24.3
				c0,15.4-11.4,25.9-28,25.9C3502.3,258.9,3491.1,249.6,3490.6,236.5z"/>
		</g>
		<g class="st0">
			<path class="st1" d="M3554.9,249.8c0-4.5,3.6-8.1,8.1-8.1s8.1,3.6,8.1,8.1s-3.6,8.1-8.1,8.1S3554.9,254.2,3554.9,249.8z"/>
		</g>
	</g>
	<path class="st7" d="M4221.9,974.2c0,17.3-7,32.9-18.4,44.3c-11.3,11.3-27,18.4-44.3,18.4H74.8c-34.6,0-62.7-28.1-62.7-62.7
		c0-17.3,7-32.9,18.4-44.3c11.3-11.3,27-18.4,44.3-18.4h4084.5C4193.9,911.6,4221.9,939.7,4221.9,974.2L4221.9,974.2z"/>
	<g>
		<path class="st8" d="M788.8,911.6v125.3h-714c-34.6,0-62.7-28.1-62.7-62.7c0-17.3,7-32.9,18.4-44.3c11.3-11.3,27-18.4,44.3-18.4
			L788.8,911.6L788.8,911.6z"/>
		<rect x="207.1" y="1261.6" class="st8" width="581.6" height="7.6"/>
		<g class="st0">
			<path class="st4" d="M236.6,971.4c0,7.7-5.8,12.6-15.1,12.6h-7v9.6h-8v-34.8h15C230.8,958.8,236.6,963.6,236.6,971.4z
				 M228.5,971.4c0-3.8-2.5-6.1-7.4-6.1h-6.6v12.1h6.6C226,977.4,228.5,975.2,228.5,971.4z"/>
		</g>
		<g class="st0">
			<path class="st4" d="M284.1,958.8v34.8h-8v-14.2h-15.8v14.2h-8v-34.8h8v13.7h15.8v-13.7H284.1z"/>
			<path class="st4" d="M325.2,986.1H309l-3.1,7.4h-8.2l15.5-34.8h7.9l15.5,34.8h-8.4L325.2,986.1z M322.6,980l-5.5-13.3l-5.5,13.3
				H322.6z"/>
			<path class="st4" d="M347.5,990.2l2.7-6.1c2.9,2.1,7.3,3.6,11.5,3.6c4.8,0,6.7-1.6,6.7-3.7c0-6.5-20.2-2-20.2-14.9
				c0-5.9,4.8-10.8,14.6-10.8c4.4,0,8.8,1,12.1,3.1l-2.5,6.1c-3.2-1.8-6.6-2.7-9.6-2.7c-4.8,0-6.6,1.8-6.6,4c0,6.4,20.2,2,20.2,14.7
				c0,5.8-4.8,10.8-14.7,10.8C356.2,994.2,350.6,992.5,347.5,990.2z"/>
			<path class="st4" d="M418.8,987.1v6.5h-26.9v-34.8h26.3v6.5h-18.3v7.5H416v6.3h-16.1v8H418.8z"/>
		</g>
		<g class="st0">
			<path class="st4" d="M456.9,976.2c0-11.5,6.4-18,14.9-18c8.6,0,14.9,6.5,14.9,18s-6.3,18-14.9,18
				C463.3,994.2,456.9,987.7,456.9,976.2z M478.6,976.2c0-7.9-2.8-11.2-6.8-11.2s-6.8,3.3-6.8,11.2s2.8,11.2,6.8,11.2
				C475.8,987.4,478.6,984.1,478.6,976.2z"/>
		</g>
		<g class="st0">
			<path class="st4" d="M513.6,958.8v34.8h-8v-28.3h-7v-6.5H513.6z"/>
		</g>
	</g>
	<g>
		<rect x="788.8" y="911.6" class="st9" width="853.4" height="125.3"/>
		<rect x="1045.4" y="1261.6" class="st9" width="596.8" height="7.6"/>
		<g class="st0">
			<path class="st4" d="M1076.2,971.4c0,7.7-5.8,12.6-15.1,12.6h-7v9.6h-8v-34.8h15C1070.4,958.8,1076.2,963.6,1076.2,971.4z
				 M1068.1,971.4c0-3.8-2.5-6.1-7.4-6.1h-6.6v12.1h6.6C1065.6,977.4,1068.1,975.2,1068.1,971.4z"/>
		</g>
		<g class="st0">
			<path class="st4" d="M1123.7,958.8v34.8h-8v-14.2h-15.8v14.2h-8v-34.8h8v13.7h15.8v-13.7H1123.7z"/>
			<path class="st4" d="M1164.8,986.1h-16.1l-3.1,7.4h-8.2l15.5-34.8h7.9l15.5,34.8h-8.4L1164.8,986.1z M1162.3,980l-5.5-13.3
				l-5.5,13.3H1162.3z"/>
			<path class="st4" d="M1187.1,990.2l2.7-6.1c2.9,2.1,7.3,3.6,11.5,3.6c4.8,0,6.7-1.6,6.7-3.7c0-6.5-20.2-2-20.2-14.9
				c0-5.9,4.8-10.8,14.6-10.8c4.4,0,8.8,1,12.1,3.1l-2.5,6.1c-3.2-1.8-6.6-2.7-9.6-2.7c-4.8,0-6.6,1.8-6.6,4c0,6.4,20.2,2,20.2,14.7
				c0,5.8-4.8,10.8-14.7,10.8C1195.8,994.2,1190.2,992.5,1187.1,990.2z"/>
			<path class="st4" d="M1258.4,987.1v6.5h-26.9v-34.8h26.3v6.5h-18.3v7.5h16.1v6.3h-16.1v8H1258.4z"/>
		</g>
		<g class="st0">
			<path class="st4" d="M1296.5,976.2c0-11.5,6.4-18,14.9-18c8.6,0,14.9,6.5,14.9,18s-6.3,18-14.9,18
				C1302.9,994.2,1296.5,987.7,1296.5,976.2z M1318.2,976.2c0-7.9-2.8-11.2-6.8-11.2s-6.8,3.3-6.8,11.2s2.8,11.2,6.8,11.2
				C1315.4,987.4,1318.2,984.1,1318.2,976.2z"/>
		</g>
		<g class="st0">
			<path class="st4" d="M1365.8,987v6.6h-26.3v-5.2l13.4-12.7c3.1-2.9,3.6-4.7,3.6-6.4c0-2.7-1.9-4.3-5.6-4.3c-3,0-5.5,1.1-7.2,3.5
				l-5.9-3.8c2.7-3.9,7.5-6.5,13.8-6.5c7.7,0,12.9,4,12.9,10.3c0,3.4-0.9,6.5-5.8,11l-8,7.5H1365.8z"/>
		</g>
	</g>
	<g>
		<rect x="1642.2" y="911.6" class="st10" width="853.5" height="125.3"/>
		<rect x="1900.9" y="1261.6" class="st10" width="594.8" height="7.6"/>
		<g class="st0">
			<path class="st4" d="M1931.5,971.4c0,7.7-5.8,12.6-15.1,12.6h-7v9.6h-8v-34.8h15C1925.7,958.8,1931.5,963.6,1931.5,971.4z
				 M1923.3,971.4c0-3.8-2.5-6.1-7.4-6.1h-6.6v12.1h6.6C1920.8,977.4,1923.3,975.2,1923.3,971.4z"/>
		</g>
		<g class="st0">
			<path class="st4" d="M1979,958.8v34.8h-8v-14.2h-15.8v14.2h-8v-34.8h8v13.7h15.8v-13.7H1979z"/>
			<path class="st4" d="M2020,986.1h-16.1l-3.1,7.4h-8.2l15.5-34.8h7.9l15.5,34.8h-8.4L2020,986.1z M2017.5,980l-5.5-13.3l-5.5,13.3
				H2017.5z"/>
			<path class="st4" d="M2042.4,990.1l2.7-6.1c2.9,2.1,7.3,3.6,11.5,3.6c4.8,0,6.7-1.6,6.7-3.7c0-6.5-20.2-2-20.2-14.9
				c0-5.9,4.8-10.8,14.6-10.8c4.4,0,8.8,1,12.1,3.1l-2.5,6.1c-3.2-1.8-6.6-2.7-9.6-2.7c-4.8,0-6.6,1.8-6.6,4c0,6.4,20.2,2,20.2,14.7
				c0,5.8-4.8,10.8-14.7,10.8C2051,994.1,2045.5,992.5,2042.4,990.1z"/>
			<path class="st4" d="M2113.6,987.1v6.5h-26.9v-34.8h26.3v6.5h-18.3v7.5h16.1v6.3h-16.1v8H2113.6z"/>
		</g>
		<g class="st0">
			<path class="st4" d="M2151.8,976.2c0-11.5,6.4-18,14.9-18c8.6,0,14.9,6.5,14.9,18s-6.3,18-14.9,18
				C2158.1,994.1,2151.8,987.6,2151.8,976.2z M2173.5,976.2c0-7.9-2.8-11.2-6.8-11.2s-6.8,3.3-6.8,11.2s2.8,11.2,6.8,11.2
				C2170.7,987.3,2173.5,984.1,2173.5,976.2z"/>
		</g>
		<g class="st0">
			<path class="st4" d="M2220.6,982.9c0,5.9-4.5,11.2-14.4,11.2c-4.9,0-9.9-1.3-13.3-3.7l3.1-6.2c2.6,2,6.3,3.1,9.9,3.1
				c4,0,6.5-1.6,6.5-4.5c0-2.6-1.9-4.3-6.5-4.3h-3.7v-5.3l7.1-8.1h-14.8v-6.5h24.3v5.2l-7.8,8.9
				C2217.4,973.9,2220.6,977.8,2220.6,982.9z"/>
		</g>
	</g>
	<g>
		<rect x="2495.7" y="911.6" class="st11" width="853.5" height="125.3"/>
		<rect x="2752.6" y="1261.6" class="st11" width="596.6" height="7.6"/>
		<g class="st0">
			<path class="st4" d="M2783.1,971.4c0,7.7-5.8,12.6-15.1,12.6h-7v9.6h-8v-34.8h15C2777.3,958.8,2783.1,963.6,2783.1,971.4z
				 M2775,971.4c0-3.8-2.5-6.1-7.4-6.1h-6.6v12.1h6.6C2772.5,977.4,2775,975.2,2775,971.4z"/>
		</g>
		<g class="st0">
			<path class="st4" d="M2830.6,958.8v34.8h-8v-14.2h-15.8v14.2h-8v-34.8h8v13.7h15.8v-13.7H2830.6z"/>
			<path class="st4" d="M2871.7,986.1h-16.1l-3.1,7.4h-8.2l15.5-34.8h7.9l15.5,34.8h-8.4L2871.7,986.1z M2869.2,980l-5.5-13.3
				l-5.5,13.3H2869.2z"/>
			<path class="st4" d="M2894,990.1l2.7-6.1c2.9,2.1,7.3,3.6,11.5,3.6c4.8,0,6.7-1.6,6.7-3.7c0-6.5-20.2-2-20.2-14.9
				c0-5.9,4.8-10.8,14.6-10.8c4.4,0,8.8,1,12.1,3.1l-2.5,6.1c-3.2-1.8-6.6-2.7-9.6-2.7c-4.8,0-6.6,1.8-6.6,4c0,6.4,20.2,2,20.2,14.7
				c0,5.8-4.8,10.8-14.7,10.8C2902.7,994.1,2897.1,992.5,2894,990.1z"/>
			<path class="st4" d="M2965.3,987.1v6.5h-26.9v-34.8h26.3v6.5h-18.3v7.5h16.1v6.3h-16.1v8H2965.3z"/>
			<path class="st4" d="M3003.4,976.2c0-11.5,6.4-18,14.9-18c8.6,0,14.9,6.5,14.9,18s-6.3,18-14.9,18
				C3009.8,994.1,3003.4,987.6,3003.4,976.2z M3025.1,976.2c0-7.9-2.8-11.2-6.8-11.2s-6.8,3.3-6.8,11.2s2.8,11.2,6.8,11.2
				C3022.3,987.3,3025.1,984.1,3025.1,976.2z"/>
			<path class="st4" d="M3078.9,986.2h-5.7v7.3h-7.8v-7.3h-18.7v-5.4l16.4-22h8.4l-15.2,20.9h9.3v-6.5h7.6v6.5h5.7V986.2z"/>
		</g>
	</g>
	<g>
		<path class="st12" d="M4221.9,974.2c0,17.3-7,32.9-18.4,44.3c-11.3,11.3-27,18.4-44.3,18.4h-810.1V911.6h810.1
			C4193.9,911.6,4221.9,939.7,4221.9,974.2L4221.9,974.2z"/>
		<rect x="3611.4" y="1270.6" class="st12" width="610.5" height="7.6"/>
		<g class="st0">
			<path class="st13" d="M1062.3,1146.7h-12.1V1089h23.9c13.3,0,20.9,7,20.9,18.4c0,7.4-3.8,13.8-10.5,16.4l12.2,22.9H1083
				l-10.8-21.1h-9.9L1062.3,1146.7L1062.3,1146.7z M1062.3,1116.8h10.6c6.1,0,9.6-3.5,9.6-9.2c0-5.6-3.8-9.2-9.8-9.2h-10.5v18.4
				L1062.3,1116.8L1062.3,1116.8z"/>
		</g>
		<g class="st0">
			<path class="st13" d="M1141.6,1133.3c-1.3,8.5-9.2,14.2-20,14.2c-13.4,0-21.6-8.6-21.6-22.6s8.2-23,21.2-23
				c12.7,0,20.8,8.5,20.8,21.9v3.6h-30.4v0.7c0,6.4,4.1,10.7,10.3,10.7c4.4,0,7.9-2.1,9-5.5L1141.6,1133.3L1141.6,1133.3z
				 M1111.7,1120.2h19c-0.2-5.8-4-9.5-9.4-9.5C1116,1110.6,1112.1,1114.5,1111.7,1120.2z"/>
			<path class="st13" d="M1148.6,1086.2h11.7v60.5h-11.7V1086.2z"/>
			<path class="st13" d="M1208.5,1133.3c-1.3,8.5-9.2,14.2-20,14.2c-13.4,0-21.6-8.6-21.6-22.6s8.2-23,21.2-23
				c12.7,0,20.8,8.5,20.8,21.9v3.6h-30.4v0.7c0,6.4,4.1,10.7,10.3,10.7c4.4,0,7.9-2.1,9-5.5L1208.5,1133.3L1208.5,1133.3z
				 M1178.5,1120.2h19c-0.2-5.8-4-9.5-9.4-9.5C1182.8,1110.6,1178.9,1114.5,1178.5,1120.2z"/>
			<path class="st13" d="M1213.3,1134c0-8,6.1-12.5,17.4-13.2l11-0.7v-2.9c0-4.2-2.9-6.6-7.7-6.6c-4.2,0-7.2,2.2-7.8,5.4h-10.7
				c0.3-8.4,7.9-14.2,18.9-14.2c11.3,0,18.7,5.8,18.7,14.6v30.2h-11.3v-6.8h-0.2c-2.4,4.6-7.8,7.3-13.5,7.3
				C1219.7,1147.3,1213.3,1141.9,1213.3,1134z M1241.7,1130.6v-3.2l-9.2,0.6c-4.9,0.3-7.5,2.2-7.5,5.5s2.8,5.3,7,5.3
				C1237.4,1138.7,1241.7,1135.4,1241.7,1130.6z"/>
			<path class="st13" d="M1278.7,1101.9c10.9,0,18.1,5.6,18.3,14h-10.8c-0.2-3.5-3.2-5.7-7.6-5.7c-4.2,0-7,1.9-7,4.7
				c0,2.2,1.9,3.7,5.9,4.6l8.3,1.8c8.8,2,12.4,5.4,12.4,12c0,8.6-7.9,14.2-19.4,14.2c-11.6,0-18.9-5.6-19.5-14.1h11.4
				c0.6,3.7,3.6,5.8,8.4,5.8c4.6,0,7.5-1.8,7.5-4.7c0-2.3-1.5-3.5-5.5-4.4l-8.1-1.8c-8.3-1.9-12.6-6.2-12.6-12.6
				C1260.3,1107.3,1267.6,1101.9,1278.7,1101.9z"/>
			<path class="st13" d="M1344.2,1133.3c-1.3,8.5-9.2,14.2-20,14.2c-13.4,0-21.6-8.6-21.6-22.6s8.2-23,21.2-23
				c12.7,0,20.8,8.5,20.8,21.9v3.6h-30.4v0.7c0,6.4,4.1,10.7,10.3,10.7c4.4,0,7.9-2.1,9-5.5L1344.2,1133.3L1344.2,1133.3z
				 M1314.2,1120.2h19c-0.2-5.8-4-9.5-9.4-9.5C1318.5,1110.6,1314.6,1114.5,1314.2,1120.2z"/>
			<path class="st13" d="M1366.6,1134c0-8,6.1-12.5,17.4-13.2l11-0.7v-2.9c0-4.2-2.9-6.6-7.7-6.6c-4.2,0-7.2,2.2-7.8,5.4h-10.7
				c0.3-8.4,7.9-14.2,18.9-14.2c11.3,0,18.7,5.8,18.7,14.6v30.2h-11.3v-6.8h-0.2c-2.4,4.6-7.8,7.3-13.5,7.3
				C1373,1147.3,1366.6,1141.9,1366.6,1134z M1395,1130.6v-3.2l-9.2,0.6c-4.9,0.3-7.5,2.2-7.5,5.5s2.8,5.3,7,5.3
				C1390.7,1138.7,1395,1135.4,1395,1130.6z"/>
			<path class="st13" d="M1414.3,1102.7h11.3v7.9h0.2c2.5-5.6,7-8.5,13.8-8.5c9.8,0,15.3,6.2,15.3,16.5v28.3h-11.7v-25.8
				c0-5.8-2.7-9.2-8.2-9.2c-5.6,0-9,4-9,9.8v25.1h-11.7L1414.3,1102.7L1414.3,1102.7z"/>
			<path class="st13" d="M1461,1124.6c0-13.8,7.1-22.5,18.1-22.5c6.4,0,11.3,3.2,13.5,8h0.2v-24h11.7v60.5H1493v-7.5h-0.2
				c-2.2,4.8-7.2,8-13.7,8C1468.1,1147.3,1461,1138.5,1461,1124.6z M1473,1124.7c0,8.1,3.9,13.1,10,13.1c6,0,10-5.1,10-13.1
				s-3.9-13.1-10-13.1S1473,1116.7,1473,1124.7z"/>
		</g>
		<g class="st0">
			<path class="st13" d="M1064.2,1236.7v-47.8h-16.9v-10h45.9v10h-16.9v47.8H1064.2z"/>
		</g>
		<g class="st0">
			<path class="st13" d="M1095.7,1192.7h11.3v7.9h0.2c1.5-5.4,5.3-8.4,10.5-8.4c1.4,0,2.6,0.2,3.4,0.4v10.3c-1-0.4-2.6-0.7-4.3-0.7
				c-5.9,0-9.4,3.7-9.4,9.8v24.7h-11.7V1192.7z"/>
		</g>
		<g class="st0">
			<path class="st13" d="M1123.3,1224c0-8,6.1-12.5,17.4-13.2l11-0.7v-2.9c0-4.2-2.9-6.6-7.7-6.6c-4.2,0-7.2,2.2-7.8,5.4h-10.7
				c0.3-8.4,7.9-14.2,18.9-14.2c11.3,0,18.7,5.8,18.7,14.6v30.2h-11.3v-6.8h-0.2c-2.4,4.6-7.8,7.3-13.5,7.3
				C1129.7,1237.3,1123.3,1231.9,1123.3,1224z M1151.7,1220.6v-3.2l-9.2,0.6c-4.9,0.3-7.5,2.2-7.5,5.5s2.8,5.3,7,5.3
				C1147.4,1228.7,1151.7,1225.4,1151.7,1220.6z"/>
			<path class="st13" d="M1170.8,1181.7c0-3.5,2.8-6.1,6.3-6.1s6.3,2.6,6.3,6.1s-2.8,6.1-6.3,6.1
				C1173.6,1187.9,1170.8,1185.2,1170.8,1181.7z M1171.2,1192.7h11.7v44.1h-11.7V1192.7z"/>
			<path class="st13" d="M1191,1192.7h11.3v7.9h0.2c2.5-5.6,7-8.5,13.8-8.5c9.8,0,15.3,6.2,15.3,16.5v28.3h-11.7v-25.8
				c0-5.8-2.7-9.2-8.2-9.2c-5.6,0-9,4-9,9.8v25.1H1191V1192.7z"/>
			<path class="st13" d="M1239.1,1181.7c0-3.5,2.8-6.1,6.3-6.1s6.3,2.6,6.3,6.1s-2.8,6.1-6.3,6.1
				C1242,1187.9,1239.1,1185.2,1239.1,1181.7z M1239.6,1192.7h11.7v44.1h-11.7V1192.7z"/>
			<path class="st13" d="M1259.4,1192.7h11.3v7.9h0.2c2.5-5.6,7-8.5,13.8-8.5c9.8,0,15.3,6.2,15.3,16.5v28.3h-11.7v-25.8
				c0-5.8-2.7-9.2-8.2-9.2c-5.6,0-9,4-9,9.8v25.1h-11.7L1259.4,1192.7L1259.4,1192.7z"/>
			<path class="st13" d="M1307.5,1239.9h11.5c0.8,2.9,4.4,4.8,9,4.8c5.9,0,9.8-3,9.8-8v-7.9h-0.2c-2.1,4.7-7.3,7.7-13.7,7.7
				c-10.7,0-17.9-8.3-17.9-21.9c0-13.8,7-22.4,18.1-22.4c6.3,0,11.3,3.2,13.7,8h0.2v-7.5h11.5v43.1c0,10.5-8.5,17.1-21.8,17.1
				C1316.2,1252.9,1308.1,1247.8,1307.5,1239.9z M1337.9,1214.6c0-7.9-3.9-13.1-10-13.1c-6,0-9.9,5-9.9,13s3.8,12.8,9.9,12.8
				S1337.9,1222.5,1337.9,1214.6z"/>
		</g>
		<g class="st0">
			<path class="st13" d="M1904.5,1206.8V1159h-16.9v-10h45.9v10h-16.9v47.8H1904.5z"/>
		</g>
		<g class="st0">
			<path class="st13" d="M1971.5,1193.3c-1.3,8.5-9.2,14.2-20,14.2c-13.4,0-21.6-8.6-21.6-22.6s8.2-23,21.2-23
				c12.7,0,20.8,8.5,20.8,21.9v3.6h-30.4v0.7c0,6.4,4.1,10.7,10.3,10.7c4.4,0,7.9-2.1,9-5.5L1971.5,1193.3L1971.5,1193.3z
				 M1941.6,1180.2h19c-0.2-5.8-4-9.5-9.4-9.5C1945.9,1170.6,1942,1174.5,1941.6,1180.2z"/>
			<path class="st13" d="M1995.9,1161.9c10.9,0,18.1,5.6,18.3,14h-10.8c-0.2-3.5-3.2-5.7-7.6-5.7c-4.2,0-7,1.9-7,4.7
				c0,2.2,1.9,3.7,5.9,4.6l8.3,1.8c8.8,2,12.4,5.4,12.4,12c0,8.6-7.9,14.2-19.4,14.2c-11.6,0-18.9-5.6-19.5-14.1h11.4
				c0.6,3.7,3.6,5.8,8.4,5.8c4.6,0,7.5-1.8,7.5-4.7c0-2.3-1.5-3.5-5.5-4.4l-8.1-1.8c-8.3-1.9-12.6-6.2-12.6-12.6
				C1977.4,1167.4,1984.7,1161.9,1995.9,1161.9z"/>
			<path class="st13" d="M2036.2,1152.9v9.8h8.2v8.8h-8.2v21.4c0,3.4,1.7,5,5.2,5c1,0,2.2-0.1,2.9-0.2v8.6c-1.2,0.2-3.3,0.5-5.6,0.5
				c-10.2,0-14.2-3.4-14.2-12.1v-23.3h-6v-8.8h6v-9.8L2036.2,1152.9L2036.2,1152.9z"/>
			<path class="st13" d="M2050.8,1151.7c0-3.5,2.8-6.1,6.3-6.1s6.3,2.6,6.3,6.1s-2.8,6.1-6.3,6.1
				C2053.6,1157.9,2050.8,1155.2,2050.8,1151.7z M2051.2,1162.7h11.7v44.1h-11.7V1162.7z"/>
			<path class="st13" d="M2071,1162.7h11.3v7.9h0.2c2.5-5.6,7-8.5,13.8-8.5c9.8,0,15.3,6.2,15.3,16.5v28.3h-11.7v-25.8
				c0-5.8-2.7-9.2-8.2-9.2c-5.6,0-9,4-9,9.8v25.1H2071V1162.7z"/>
			<path class="st13" d="M2119.2,1209.9h11.5c0.8,2.9,4.4,4.8,9,4.8c5.9,0,9.8-3,9.8-8v-7.9h-0.2c-2.1,4.7-7.3,7.7-13.7,7.7
				c-10.7,0-17.9-8.3-17.9-21.9c0-13.8,7-22.4,18.1-22.4c6.3,0,11.3,3.2,13.7,8h0.2v-7.5h11.5v43.1c0,10.5-8.5,17.1-21.8,17.1
				C2127.9,1222.9,2119.8,1217.8,2119.2,1209.9z M2149.6,1184.6c0-7.9-3.9-13.1-10-13.1c-6,0-9.9,5-9.9,13s3.8,12.8,9.9,12.8
				S2149.6,1192.5,2149.6,1184.6z"/>
		</g>
		<g class="st0">
			<path class="st13" d="M2759.4,1206.8V1159h-16.9v-10h45.9v10h-16.9v47.8H2759.4z"/>
		</g>
		<g class="st0">
			<path class="st13" d="M2790.9,1162.7h11.3v7.9h0.2c1.5-5.4,5.3-8.4,10.5-8.4c1.4,0,2.6,0.2,3.4,0.4v10.3c-1-0.4-2.6-0.7-4.3-0.7
				c-5.9,0-9.4,3.7-9.4,9.8v24.7h-11.7V1162.7z"/>
			<path class="st13" d="M2821.1,1151.7c0-3.5,2.8-6.1,6.3-6.1s6.3,2.6,6.3,6.1s-2.8,6.1-6.3,6.1
				C2823.9,1157.9,2821.1,1155.2,2821.1,1151.7z M2821.5,1162.7h11.7v44.1h-11.7V1162.7z"/>
			<path class="st13" d="M2839.5,1194.1c0-8,6.1-12.5,17.4-13.2l11-0.7v-2.9c0-4.2-2.9-6.6-7.7-6.6c-4.2,0-7.2,2.2-7.8,5.4h-10.7
				c0.3-8.4,7.9-14.2,18.9-14.2c11.3,0,18.7,5.8,18.7,14.6v30.2H2868v-6.8h-0.2c-2.4,4.6-7.8,7.3-13.5,7.3
				C2845.9,1207.3,2839.5,1201.9,2839.5,1194.1z M2867.9,1190.6v-3.2l-9.2,0.6c-4.9,0.3-7.5,2.2-7.5,5.5s2.8,5.3,7,5.3
				C2863.6,1198.7,2867.9,1195.4,2867.9,1190.6z"/>
			<path class="st13" d="M2887.6,1146.2h11.7v60.5h-11.7V1146.2z"/>
			<path class="st13" d="M2938,1206.8h-12.1V1149h23.9c13.3,0,20.9,7,20.9,18.4c0,7.4-3.8,13.8-10.5,16.4l12.2,22.9h-13.7
				l-10.8-21.1h-9.9L2938,1206.8L2938,1206.8z M2938,1176.8h10.6c6.1,0,9.6-3.5,9.6-9.2c0-5.6-3.8-9.2-9.8-9.2H2938V1176.8z"/>
			<path class="st13" d="M3018.2,1206.8h-11.3v-8h-0.2c-2.2,5.5-6.6,8.6-13.3,8.6c-9.5,0-15.8-6.2-15.8-16.5v-28.3h11.7v25.8
				c0,6,3,9.2,8.4,9.2s8.8-3.9,8.8-9.9v-25.1h11.7L3018.2,1206.8L3018.2,1206.8z"/>
			<path class="st13" d="M3026.1,1162.7h11.3v7.9h0.2c2.5-5.6,7-8.5,13.8-8.5c9.8,0,15.3,6.2,15.3,16.5v28.3H3055v-25.8
				c0-5.8-2.7-9.2-8.2-9.2c-5.6,0-9,4-9,9.8v25.1h-11.7V1162.7z"/>
		</g>
		<g class="st0">
			<path class="st13" d="M3643.6,1206.8h-37.4V1149h12.1v47.8h25.3L3643.6,1206.8L3643.6,1206.8z"/>
			<path class="st13" d="M3649.7,1151.7c0-3.5,2.8-6.1,6.3-6.1s6.3,2.6,6.3,6.1s-2.8,6.1-6.3,6.1
				C3652.5,1157.9,3649.7,1155.2,3649.7,1151.7z M3650.1,1162.7h11.7v44.1h-11.7V1162.7z"/>
		</g>
		<g class="st0">
			<path class="st13" d="M3694.7,1206.8h-13.1l-15.3-44.1h12.5l9.4,33.6h0.2l9.3-33.6h12.2L3694.7,1206.8z"/>
		</g>
		<g class="st0">
			<path class="st13" d="M3753,1193.3c-1.3,8.5-9.2,14.2-20,14.2c-13.4,0-21.6-8.6-21.6-22.6s8.2-23,21.2-23
				c12.7,0,20.8,8.5,20.8,21.9v3.6H3723v0.7c0,6.4,4.1,10.7,10.3,10.7c4.4,0,7.9-2.1,9-5.5L3753,1193.3L3753,1193.3z M3723,1180.2
				h19c-0.2-5.8-4-9.5-9.4-9.5C3727.3,1170.6,3723.4,1174.5,3723,1180.2z"/>
			<path class="st13" d="M3790.1,1206.8H3778V1149h23.9c13.3,0,20.9,7,20.9,18.4c0,7.4-3.8,13.8-10.5,16.4l12.2,22.9h-13.7
				l-10.8-21.1h-9.9L3790.1,1206.8L3790.1,1206.8z M3790.1,1176.8h10.6c6.1,0,9.6-3.5,9.6-9.2c0-5.6-3.8-9.2-9.8-9.2H3790
				L3790.1,1176.8L3790.1,1176.8z"/>
			<path class="st13" d="M3870.3,1206.8H3859v-8h-0.2c-2.2,5.5-6.6,8.6-13.3,8.6c-9.5,0-15.8-6.2-15.8-16.5v-28.3h11.7v25.8
				c0,6,3,9.2,8.4,9.2s8.8-3.9,8.8-9.9v-25.1h11.7L3870.3,1206.8L3870.3,1206.8z"/>
			<path class="st13" d="M3878.2,1162.7h11.3v7.9h0.2c2.5-5.6,7-8.5,13.8-8.5c9.8,0,15.3,6.2,15.3,16.5v28.3h-11.7v-25.8
				c0-5.8-2.7-9.2-8.2-9.2c-5.6,0-9,4-9,9.8v25.1h-11.7L3878.2,1162.7L3878.2,1162.7z"/>
		</g>
		<g class="st0">
			<path class="st13" d="M233.6,1089c11.9,0,20,7.9,20,19.8s-8.4,19.8-20.6,19.8h-11.4v18.2h-12.1V1089H233.6z M221.6,1119.1h8.8
				c6.9,0,11-3.7,11-10.3c0-6.6-4-10.2-10.9-10.2h-8.8v20.5H221.6z"/>
			<path class="st13" d="M260.3,1086.2H272v60.5h-11.7V1086.2z"/>
			<path class="st13" d="M278.4,1134c0-8,6.1-12.5,17.4-13.2l11-0.7v-2.9c0-4.2-2.9-6.6-7.7-6.6c-4.2,0-7.2,2.2-7.8,5.4h-10.7
				c0.3-8.4,7.9-14.2,18.9-14.2c11.3,0,18.7,5.8,18.7,14.6v30.2h-11.3v-6.8h-0.2c-2.4,4.6-7.8,7.3-13.5,7.3
				C284.7,1147.3,278.4,1141.9,278.4,1134z M306.7,1130.6v-3.2l-9.2,0.6c-4.9,0.3-7.5,2.2-7.5,5.5s2.8,5.3,7,5.3
				C302.4,1138.7,306.7,1135.4,306.7,1130.6z"/>
			<path class="st13" d="M326.1,1102.7h11.3v7.9h0.2c2.5-5.6,7-8.5,13.8-8.5c9.8,0,15.3,6.2,15.3,16.5v28.3H355v-25.8
				c0-5.8-2.7-9.2-8.2-9.2c-5.6,0-9,4-9,9.8v25.1h-11.7L326.1,1102.7L326.1,1102.7z"/>
			<path class="st13" d="M374.4,1102.7h11.3v7.9h0.2c2.5-5.6,7-8.5,13.8-8.5c9.8,0,15.3,6.2,15.3,16.5v28.3h-11.7v-25.8
				c0-5.8-2.7-9.2-8.2-9.2c-5.6,0-9,4-9,9.8v25.1h-11.7L374.4,1102.7L374.4,1102.7z"/>
			<path class="st13" d="M422.5,1091.7c0-3.5,2.8-6.1,6.3-6.1s6.3,2.6,6.3,6.1s-2.8,6.1-6.3,6.1
				C425.3,1097.9,422.5,1095.2,422.5,1091.7z M422.9,1102.7h11.7v44.1h-11.7V1102.7z"/>
			<path class="st13" d="M442.8,1102.7h11.3v7.9h0.2c2.5-5.6,7-8.5,13.8-8.5c9.8,0,15.3,6.2,15.3,16.5v28.3h-11.7v-25.8
				c0-5.8-2.7-9.2-8.2-9.2c-5.6,0-9,4-9,9.8v25.1h-11.7L442.8,1102.7L442.8,1102.7z"/>
			<path class="st13" d="M490.9,1149.9h11.5c0.8,2.9,4.4,4.8,9,4.8c5.9,0,9.8-3,9.8-8v-7.9H521c-2.1,4.7-7.3,7.7-13.7,7.7
				c-10.7,0-17.9-8.3-17.9-21.9c0-13.8,7-22.4,18.1-22.4c6.3,0,11.3,3.2,13.7,8h0.2v-7.5H533v43.1c0,10.5-8.5,17.1-21.8,17.1
				C499.6,1162.9,491.5,1157.8,490.9,1149.9z M521.3,1124.6c0-7.9-3.9-13.1-10-13.1c-6,0-9.9,5-9.9,13s3.8,12.8,9.9,12.8
				C517.4,1137.3,521.3,1132.5,521.3,1124.6z"/>
			<path class="st13" d="M556.7,1134c0-8,6.1-12.5,17.4-13.2l11-0.7v-2.9c0-4.2-2.9-6.6-7.7-6.6c-4.2,0-7.2,2.2-7.8,5.4h-10.7
				c0.3-8.4,7.9-14.2,18.9-14.2c11.3,0,18.7,5.8,18.7,14.6v30.2h-11.3v-6.8H585c-2.4,4.6-7.8,7.3-13.5,7.3
				C563.1,1147.3,556.7,1141.9,556.7,1134z M585.1,1130.6v-3.2l-9.2,0.6c-4.9,0.3-7.5,2.2-7.5,5.5s2.8,5.3,7,5.3
				C580.8,1138.7,585.1,1135.4,585.1,1130.6z"/>
			<path class="st13" d="M604.4,1102.7h11.3v7.9h0.2c2.5-5.6,7-8.5,13.8-8.5c9.8,0,15.3,6.2,15.3,16.5v28.3h-11.7v-25.8
				c0-5.8-2.7-9.2-8.2-9.2c-5.6,0-9,4-9,9.8v25.1h-11.7L604.4,1102.7L604.4,1102.7z"/>
			<path class="st13" d="M651.1,1124.6c0-13.8,7.1-22.5,18.1-22.5c6.4,0,11.3,3.2,13.5,8h0.2v-24h11.7v60.5h-11.5v-7.5h-0.2
				c-2.2,4.8-7.2,8-13.7,8C658.2,1147.3,651.1,1138.5,651.1,1124.6z M663.1,1124.7c0,8.1,3.9,13.1,10,13.1c6,0,10-5.1,10-13.1
				s-3.9-13.1-10-13.1S663.1,1116.7,663.1,1124.7z"/>
		</g>
		<g class="st0">
			<path class="st13" d="M224.6,1179c17.3,0,27.5,10.3,27.5,28.7s-10.2,29.1-27.5,29.1h-22.3V1179H224.6z M214.4,1226.7h8.7
				c10.8,0,16.7-6.6,16.7-19.1c0-12.1-6-18.7-16.7-18.7h-8.7V1226.7z"/>
		</g>
		<g class="st0">
			<path class="st13" d="M299,1223.3c-1.3,8.5-9.2,14.2-20,14.2c-13.4,0-21.6-8.6-21.6-22.6s8.2-23,21.2-23
				c12.7,0,20.8,8.5,20.8,21.9v3.6H269v0.7c0,6.4,4.1,10.7,10.3,10.7c4.4,0,7.9-2.1,9-5.5L299,1223.3L299,1223.3z M269.1,1210.2h19
				c-0.2-5.8-4-9.5-9.4-9.5C273.4,1200.6,269.5,1204.5,269.1,1210.2z"/>
		</g>
		<g class="st0">
			<path class="st13" d="M329.8,1236.7h-13.1l-15.3-44.1h12.5l9.4,33.6h0.2l9.3-33.6H345L329.8,1236.7z"/>
		</g>
		<g class="st0">
			<path class="st13" d="M388.1,1223.3c-1.3,8.5-9.2,14.2-20,14.2c-13.4,0-21.6-8.6-21.6-22.6s8.2-23,21.2-23
				c12.7,0,20.8,8.5,20.8,21.9v3.6H358v0.7c0,6.4,4.1,10.7,10.3,10.7c4.4,0,7.9-2.1,9-5.5L388.1,1223.3L388.1,1223.3z M358.2,1210.2
				h19c-0.2-5.8-4-9.5-9.4-9.5C362.5,1200.6,358.6,1204.5,358.2,1210.2z"/>
			<path class="st13" d="M395.1,1176.2h11.7v60.5h-11.7V1176.2z"/>
			<path class="st13" d="M413.3,1214.7c0-14.1,8.5-22.8,21.7-22.8c13.3,0,21.7,8.6,21.7,22.8c0,14.3-8.4,22.8-21.7,22.8
				S413.3,1228.9,413.3,1214.7z M444.9,1214.7c0-8.7-3.7-13.8-9.8-13.8c-6.2,0-9.9,5.2-9.9,13.8c0,8.8,3.7,13.8,9.9,13.8
				S444.9,1223.4,444.9,1214.7z"/>
			<path class="st13" d="M506.6,1214.7c0,14-6.9,22.6-17.9,22.6c-6.4,0-11.3-2.9-13.7-7.9h-0.2v21.8h-11.7v-58.5h11.5v7.5h0.2
				c2.3-5,7.5-8,13.7-8C499.7,1192.1,506.6,1200.7,506.6,1214.7z M494.7,1214.7c0-7.9-4-13.1-10-13.1s-9.9,5.2-9.9,13.1
				s4,13.1,9.9,13.1C490.7,1227.8,494.7,1222.7,494.7,1214.7z"/>
			<path class="st13" d="M512.9,1192.7h11.3v8h0.2c1.9-5.3,6.7-8.6,12.6-8.6c6.3,0,10.8,3.2,12.3,9h0.2c2-5.5,7.3-9,13.7-9
				c8.6,0,14.5,5.9,14.5,14.8v29.9H566v-27c0-5.2-2.6-8-7.4-8c-4.6,0-7.7,3.4-7.7,8.4v26.7h-11.3v-27.5c0-4.7-2.7-7.6-7.2-7.6
				c-4.6,0-7.8,3.5-7.8,8.5v26.5h-11.7L512.9,1192.7L512.9,1192.7z"/>
			<path class="st13" d="M625.3,1223.3c-1.3,8.5-9.2,14.2-20,14.2c-13.4,0-21.6-8.6-21.6-22.6s8.2-23,21.2-23
				c12.7,0,20.8,8.5,20.8,21.9v3.6h-30.4v0.7c0,6.4,4.1,10.7,10.3,10.7c4.4,0,7.9-2.1,9-5.5L625.3,1223.3L625.3,1223.3z
				 M595.4,1210.2h19c-0.2-5.8-4-9.5-9.4-9.5C599.7,1200.6,595.8,1204.5,595.4,1210.2z"/>
			<path class="st13" d="M632,1192.7h11.3v7.9h0.2c2.5-5.6,7-8.5,13.8-8.5c9.8,0,15.3,6.2,15.3,16.5v28.3h-11.7v-25.8
				c0-5.8-2.7-9.2-8.2-9.2c-5.6,0-9,4-9,9.8v25.1H632V1192.7z"/>
			<path class="st13" d="M695.1,1182.8v9.8h8.2v8.8h-8.2v21.4c0,3.4,1.7,5,5.2,5c1,0,2.2-0.1,2.9-0.2v8.6c-1.2,0.2-3.3,0.5-5.6,0.5
				c-10.2,0-14.2-3.4-14.2-12.1v-23.3h-6v-8.8h6v-9.8L695.1,1182.8L695.1,1182.8z"/>
		</g>
		<g class="st0">
			<path class="st4" d="M3641.9,971.4c0,7.7-5.8,12.6-15.1,12.6h-7v9.6h-8v-34.8h15C3636.1,958.8,3641.9,963.6,3641.9,971.4z
				 M3633.8,971.4c0-3.8-2.5-6.1-7.4-6.1h-6.6v12.1h6.6C3631.3,977.4,3633.8,975.2,3633.8,971.4z"/>
		</g>
		<g class="st0">
			<path class="st4" d="M3689.5,958.8v34.8h-8v-14.2h-15.8v14.2h-8v-34.8h8v13.7h15.8v-13.7H3689.5z"/>
			<path class="st4" d="M3730.5,986.1h-16.1l-3.1,7.4h-8.2l15.5-34.8h7.9l15.5,34.8h-8.4L3730.5,986.1z M3728,980l-5.5-13.3
				L3717,980H3728z"/>
			<path class="st4" d="M3752.9,990.2l2.7-6.1c2.9,2.1,7.3,3.6,11.5,3.6c4.8,0,6.7-1.6,6.7-3.7c0-6.5-20.2-2-20.2-14.9
				c0-5.9,4.8-10.8,14.6-10.8c4.4,0,8.8,1,12.1,3.1l-2.5,6.1c-3.2-1.8-6.6-2.7-9.6-2.7c-4.8,0-6.6,1.8-6.6,4c0,6.4,20.2,2,20.2,14.7
				c0,5.8-4.8,10.8-14.7,10.8C3761.5,994.2,3755.9,992.5,3752.9,990.2z"/>
			<path class="st4" d="M3824.1,987.1v6.5h-26.9v-34.8h26.3v6.5h-18.3v7.5h16.1v6.3h-16.1v8H3824.1z"/>
			<path class="st4" d="M3862.2,976.2c0-11.5,6.4-18,14.9-18c8.6,0,14.9,6.5,14.9,18s-6.3,18-14.9,18
				C3868.6,994.2,3862.2,987.7,3862.2,976.2z M3883.9,976.2c0-7.9-2.8-11.2-6.8-11.2s-6.8,3.3-6.8,11.2s2.8,11.2,6.8,11.2
				C3881.2,987.4,3883.9,984.1,3883.9,976.2z"/>
			<path class="st4" d="M3932.2,982.7c0,6.2-4.5,11.5-14.4,11.5c-4.8,0-9.9-1.3-13.3-3.7l3.2-6.2c2.6,2,6.3,3.1,9.9,3.1
				c4,0,6.5-1.7,6.5-4.5c0-2.7-1.8-4.5-8.1-4.5h-8.9l1.8-19.6h21.2v6.5h-14.5l-0.5,6.6h2.8C3928.1,971.9,3932.2,976.5,3932.2,982.7z
				"/>
		</g>
	</g>
</g>
<circle class="st14" cx="215.5" cy="1339" r="8.3"/>
<circle class="st14" cx="1053.8" cy="1339" r="8.3"/>
<circle class="st14" cx="1909.2" cy="1339" r="8.3"/>
<circle class="st14" cx="2760.9" cy="1339" r="8.3"/>
<circle class="st14" cx="3619.8" cy="1339" r="8.3"/>
<circle class="st14" cx="3619.8" cy="1414.8" r="8.3"/>
<circle class="st14" cx="1053.8" cy="1426.7" r="8.3"/>
<circle class="st14" cx="215.5" cy="1422.4" r="8.3"/>
<circle class="st14" cx="215.5" cy="1602.8" r="8.3"/>
<g>
	<path class="st1" d="M480.5,536.6V394.3h-11.9c0,8.2,0,16.4,0,24.5c0,4.9-1,6.7-3.5,6.7c-2.6,0-3.5-1.6-3.5-6.6
		c0-13.9,0-27.7,0-41.6v-3.8h-23.4v114h23.4c0-2.2,0-4.3,0-6.3c0-13.5,0-27,0-40.6c0-2.7,0.2-5.2,3.5-5.2c3.2,0.1,3.5,2.6,3.5,5.3
		c0,16.4,0,32.7-0.1,49.1c0,1.8-0.6,3.8-1.4,5.5c-4.4,9.5-8.9,18.8-13.3,28.2c-0.3,0.6-0.6,1.2-0.9,1.8c-1.9,3.1-4.9,3.1-6.5-0.2
		c-5-10.4-10-20.8-14.8-31.2c-0.7-1.4-0.6-3.3-0.6-5c0-30.1,0-60.2,0-90.3c0-1.3,0-2.7,0-4.3H286.9c0,4.9,0,9.7,0,14.6
		c0,4.2,0,8.4,0,12.6c0,2.7-0.5,5.2-3.6,5.2c-3.2,0-3.6-2.6-3.6-5.3c0-23.1-0.1-46.1,0.1-69.2c0-3.8-1.5-5.2-4.4-6.1
		c-12.8-4.1-25.1,5.8-25.2,20.5c-0.1,33.2,0,66.3,0,99.5c0,9.9,0,19.7,0,30.5c8.8-8.7,18.5-10.7,29.5-6.8c0-1.7,0-2.9,0-4.1
		c0-14.1,0-28.2,0-42.3c0-1.2-0.3-2.7,0.3-3.7c0.7-1.3,2.1-2.8,3.2-2.9c1.1,0,2.5,1.5,3.4,2.7c0.5,0.8,0.3,2.2,0.3,3.3
		c0,17,0.1,34.1-0.1,51.1c0,1.9-0.7,4.8-1.9,5.5c-1.2,0.7-3.8-0.2-5.4-1.2c-7-4.3-15.5-3.9-21.8,1.4c-6.3,5.3-8.9,14-6.7,21.9
		c2.4,8.6,8.9,14.1,17.2,14.7c1.6,0.1,3.2,0.1,4.8,0.1c31,0,62,0,93,0c4.4,0,6.3,1.2,6.2,3.9c0,2.8-1.8,3.8-6.3,3.8
		c-31.8,0-63.5,0-95.3,0c-12.2,0-21.7-6.6-25.8-18.3c-1.1-3.1-1.7-6.6-1.8-9.9c-0.1-50.1-0.1-100.2,0-150.3
		c0-10.8,4.6-19.3,13.4-24.6c8.9-5.3,17.8-4.9,26.7,0.4c2.6,1.5,3.8,3.6,3.7,6.9c-0.1,11.2,0,22.5,0,33.7c0,1.2,0,2.5,0,3.9H431
		c0-1.4,0-2.6,0-3.8c0-10.3-0.1-20.7,0-31c0.1-7.8,5.2-13.5,12.6-13.8c4-0.2,8.1-0.1,12.1,0c7.5,0.2,12.9,6.1,13,14.2
		c0.1,11.4,0,22.7,0,34.7c4.5,0,8.9,0,13.3,0c5,0,5.8,0.9,5.8,6.1c0,48.6,0,97.3,0,145.9c0,5-0.9,6-5.5,6c-31.8,0-63.5,0-95.3,0
		c-1,0-2.1,0.2-2.8-0.3c-1.1-0.8-2.5-2.1-2.6-3.3s1-2.9,2.1-3.6c1-0.7,2.6-0.6,4-0.6c29.6,0,59.3,0,88.9,0L480.5,536.6L480.5,536.6z
		 M438.1,365.2h23.5c0-4.8,0.1-9.3,0-13.9c-0.1-3.5-2.3-5.8-5.4-5.9c-4.2-0.2-8.5-0.2-12.7,0c-3.1,0.1-5.2,2.3-5.3,5.6
		C438,355.7,438.1,360.3,438.1,365.2L438.1,365.2z M449.8,515.4c3.3-6.9,6.2-13.2,9.3-19.8h-18.7
		C443.5,502.2,446.5,508.5,449.8,515.4z"/>
	<path class="st1" d="M324,495.8c0-7,0-13.5,0-20c0-4.6,0.9-5.5,5.3-5.5c8.5,0,17,0,25.5,0c4.8,0,5.6,0.8,5.6,5.9c0,1.3,0,2.7,0,4.4
		c1.3,0.1,2.4,0.2,3.6,0.2c6.9,0,13.8,0,20.7,0c3.9,0,4.9,1.2,5,5.3c0,2.8,0,5.7,0.1,8.5c0,0.2,0.1,0.4,0.3,1c1,0.1,2.1,0.2,3.2,0.2
		c6.9,0,13.8,0,20.7,0c3.7,0,5,1.4,5,5.4c0,7,0,14.1,0,21.1c0,4-1.2,5.3-4.9,5.3c-38.1,0-76.3,0-114.4,0c-3.7,0-4.9-1.3-4.9-5.4
		c0-7,0-14.1,0-21.1c0-3.9,1.3-5.3,5-5.3c6.8-0.1,13.6,0,20.4,0C321.3,495.8,322.4,495.8,324,495.8L324,495.8z M353.1,478h-21.8
		v41.7h21.8V478z M382.3,488.9h-21.8v30.9h21.8V488.9z M301.9,519.8h21.8v-15.9h-21.8V519.8z M389.8,519.7h21.8v-15.9h-21.8V519.7z"
		/>
	<path class="st1" d="M322.8,457.5c-6.5,0-12.9,0-19.4,0c-3.5,0-4.7-1.2-4.7-4.8c-0.1-14,0-27.9,0-41.9c0-3.1,1.3-4.8,4.5-4.8
		c13.1,0,26.3,0,39.5,0c3.2,0,4.3,1.3,4.3,4.8c0,14,0,27.9,0,41.9c0,3.4-1.2,4.7-4.4,4.8C336,457.6,329.4,457.5,322.8,457.5z
		 M339.6,413.9h-33.5v35.7h33.5V413.9z"/>
	<path class="st1" d="M446.3,430.4c0-12.6,0-25.2,0-37.8c0-1-0.3-2.2,0.1-3c0.6-1.2,1.6-2.7,2.6-2.8c1.2-0.1,2.7,0.8,3.7,1.8
		c0.6,0.6,0.6,2.1,0.6,3.2c0,25.9,0,51.8,0,77.7c0,0.7,0.2,1.6-0.1,2c-1.1,1.1-2.5,2.9-3.7,2.8c-1.1,0-2.5-1.9-3.1-3.3
		c-0.5-1.2-0.1-2.9-0.1-4.4C446.3,454.5,446.3,442.5,446.3,430.4L446.3,430.4z"/>
	<path class="st1" d="M387.2,428c7.5,0,15.1,0.1,22.6,0c2.6,0,4.8,0.5,5,3.8c0.2,2.5-1.5,3.9-4.8,3.9c-15.3,0-30.6,0-45.8,0
		c-3.1,0-5.2-1.5-4.9-3.9c0.4-3.1,2.4-3.8,5.1-3.8C371.9,428,379.6,428,387.2,428L387.2,428z"/>
	<path class="st1" d="M387.1,417.3c-7.7,0-15.5,0-23.2,0c-2.6,0-4.6-1-4.6-3.8s2-3.9,4.6-3.9c15.4,0,30.8,0,46.1,0
		c2.5,0,4.5,0.7,4.7,3.8c0.2,2.5-1.5,3.9-4.8,3.9C402.4,417.3,394.7,417.3,387.1,417.3L387.1,417.3z"/>
	<path class="st1" d="M376.9,454c-4.3,0-8.7-0.1-13,0c-2.6,0-4.6-1.1-4.6-3.9c0-2.9,2-3.8,4.6-3.8c8.8,0.1,17.6,0,26.4,0
		c2.4,0,4.3,0.9,4.4,3.7c0.1,3-1.9,4-4.5,4C385.8,453.9,381.3,454,376.9,454L376.9,454z"/>
	<path class="st1" d="M320.3,432.7c2.7-3.1,5.3-6,7.9-9c1.7-2,3.7-3,5.8-0.8c2,2.1,1.1,4.3-0.6,6.2c-3.4,3.6-6.7,7.2-10.2,10.8
		c-2.5,2.6-4,2.5-6.5-0.1c-1.6-1.7-3.2-3.4-4.7-5.1c-1.6-1.8-2-3.8-0.2-5.7s3.6-1.4,5.3,0.4C318,430.4,318.9,431.3,320.3,432.7
		L320.3,432.7z"/>
</g>
<g>
	<path class="st1" d="M1133.6,505.2c0.7-3.3,0.1-5.6-2.5-7.8c-4.6-3.8-6.7-9.1-6.7-15.1c-0.1-5.8-0.3-11.6,0.1-17.3
		c0.2-3.3,1.4-6.5,2.2-10.1c-1,0-2.5,0-4,0c-8.7-0.1-14-5.4-14-14.1c0-32.3,0-64.6,0-97c0-8.8,5.2-14.1,13.9-14.2c2,0,4,0,5.9,0
		c1.9,0.1,3.1,1.2,3.2,3.1c0,1.9-1.1,3.1-3,3.3c-2.1,0.2-4.3,0.1-6.4,0.1c-4.5,0.1-7.1,2.6-7.1,7.1c0,32.7,0,65.3,0,98
		c0,4.6,2.7,7.2,7.3,7.2c40.4,0,80.8,0,121.2,0c4.7,0,7.3-2.6,7.3-7.4c0-7,0-14,0-21.1c0-3,1.1-4.3,3.2-4.3s3.2,1.4,3.2,4.4
		c0,7,0.1,14,0,21.1c-0.1,8.5-5.4,13.8-13.8,13.8c-3.8,0-7.6,0-11.2,0c0.8,3.1,2.2,6,2.3,8.9c0.3,7.1,0.3,14.2-0.1,21.3
		c-0.3,5-2.7,9.5-6.6,12.6c-2.7,2.1-2.9,4.4-2.4,7.7c9-0.2,16.5,3,21.8,11.1c5.2-7.8,12.5-11.4,21.8-11c0.4-2.9,0.6-5.3-2.1-7.5
		c-4.8-3.9-7.1-9.3-7.1-15.5c-0.1-5.9-0.1-11.7,0-17.6c0.1-6.7,3.3-11.6,9.2-14.8c0.8-0.4,1.6-1.5,1.6-2.3
		c0.1-13.6,0.1-27.1,0.1-40.7c0-0.4-0.1-0.8-0.2-1.5c-1.1,0-2,0-3,0c-15,0-29.9,0-44.9,0c-8.5,0-12.9-4.4-12.9-12.8
		c0-0.7-0.1-1.5,0-2.2c0.2-2.5-0.1-4.5-2.5-6.4c-2.7-2.1-3.3-5.3-2.6-8.8c0.2-0.9-0.3-2-0.7-3c-0.2-0.6-1-0.9-1.3-1.5
		c-2.2-4.3-6.2-2.9-9.7-3.2c-0.5,0-1.1,0.7-1.5,1.1c-1.8,2.2-3.7,4.4-5.4,6.8c-0.5,0.6-0.6,1.8-0.4,2.6c1.2,3.8,0.6,7.1-2.2,9.8
		c-2.6,2.4-5.7,3.4-9.1,2.2c-3.7-1.3-6-3.9-6.2-7.8c-0.1-1.8-0.9-2.7-2.3-3.3c-0.8-0.4-1.7-0.8-2.4-1.3c-2.2-1.5-4.2-2.2-6.9-0.5
		c-1.4,0.9-3.7,0.2-5.5,0.4c-1,0.1-2.2,0.2-3,0.8c-1.5,1.1-2.8,2.6-4.2,3.8c-2.1,1.8-3.5,3.4-3.1,6.8c0.8,5.2-4.4,9.6-9.9,9.2
		c-5.3-0.3-9.1-5.4-8.2-10.9c0.9-5.1,6.1-8.4,11.2-7c1.5,0.4,2.4,0.2,3.4-0.9c1-1.1,2.2-2,3.3-3c2.5-2.2,4.6-4.2,4-8.4
		c-0.6-4.4,3.6-8.1,8.3-8.5c4.4-0.3,9,2.9,9.4,7.3c0.3,2.8,1.6,4.1,3.8,5c0.7,0.3,1.3,0.7,1.9,1.1c1.7,1.1,3.2,1.7,5.3,0.3
		c1.3-0.9,3.3-0.5,5-0.9c1-0.2,2.1-0.6,2.9-1.2c1.1-1,1.8-2.3,2.9-3.4c2.1-2.3,3.6-4.4,2.5-8c-1-3.6,0.9-6.8,4.2-8.8
		s6.7-1.9,9.8,0.2c3.1,2.1,4.7,5.2,3.8,9c-0.5,2.2-0.1,3.6,1.6,4.9c0.7,0.6,1.3,1.3,1.8,2c1.2,1.6,2.6,2.5,4.6,1.6
		c0.2-0.1,0.3-0.1,0.5-0.1c3.5,1.1,5.1-1.4,6.9-3.7c2.2-3,4.6-5.8,7-8.7c1-1.1,1.2-2,0.7-3.5c-1.7-4.8,1-10,5.8-11.5
		c4.7-1.5,10,1.2,11.6,5.9s-1,9.9-5.9,11.5c-0.9,0.3-2,0.7-2.9,0.4c-2.6-0.7-3.9,0.8-5.2,2.5c-2.6,3.4-5.4,6.7-8,10.1
		c-0.6,0.8-0.6,2-0.6,3c-0.1,2.5,0,5,0,7.7h28.6c0.1-0.8,0.1-1.6,0.1-2.4c0-12,0-24,0-36c0-5.6-2.4-8-8-8c-32.6,0-65.3,0-97.9,0
		c-1.1,0-2.2,0-3.2-0.2c-1.7-0.4-2.6-1.5-2.5-3.2s1-2.8,2.7-3c0.9-0.1,1.8-0.1,2.7-0.1c32.6,0,65.1,0,97.7,0c9.9,0,15,5.1,15,15
		c0,11.7,0,23.5,0,35.2v2.8h26.2c0.4-2.6,0.6-4.7-1.8-6.7c-4.3-3.6-6.4-8.6-6.5-14.2c-0.1-6.7-0.1-13.4,0-20.1
		c0.1-6.5,4.7-11.6,11.2-11.9c5.9-0.3,11.9-0.3,17.8,0c6.4,0.3,11,5.2,11.2,11.7c0.1,6.9,0.1,13.9,0,20.8c-0.1,5.7-2.5,10.5-6.9,14
		c-2.4,1.9-2.2,3.9-1.9,6.5c2.1,0,4,0,6,0c11,0.1,18.1,7.2,18.1,18.2c0,11.8-0.2,23.7,0.1,35.5c0.3,10.7-7.2,18.2-16.1,18.4
		c-0.2,0-0.4,0.1-1,0.3c0,2.2,0,4.4,0,6.6c0,1,0,2-0.2,3c-0.3,1.9-1.5,3-3.4,2.9c-1.8-0.1-2.8-1.4-2.9-3.2c-0.1-2.4-0.1-4.8-0.1-7.2
		c0-0.7-0.1-1.4-0.2-2.2h-7.3c4.5,10.1,2.6,20.6,2.2,31c-0.2,4.7-2.9,8.5-6.3,11.8c-3,2.9-3.1,3-2.4,7.1c4.7,1,9.2,2,13.9,3
		c0-0.5,0.1-1.3,0.1-2.2c0-7.9,0-15.9,0-23.8c0-0.9,0-1.8,0.1-2.7c0.2-1.7,1.4-2.9,3-2.7c1.1,0.2,2.3,1.3,3,2.3
		c0.5,0.7,0.3,1.9,0.3,2.9c0,10.2,0,20.5,0.1,30.8c0,1.3,0.6,2.7,1.1,3.9c1,3.2,2.7,6.3,3.1,9.5c0.6,5,0.4,10.1,0.3,15.1
		c-0.2,4.7-3.7,7.6-8.7,7.6c-11.7,0-23.3,0-34.9,0c-6.9,0-13.9,0.1-20.8,0c-1.8,0-3.7-0.7-5.5-1c-0.5-0.1-1.1-0.2-1.6-0.1
		c-2.3,0.3-4.7,1.1-7,1.1c-17.9,0.1-35.9,0.1-53.8,0c-1.8,0-3.5-0.7-5.3-1c-0.5-0.1-1.1-0.2-1.6-0.1c-2.6,0.4-5.2,1.1-7.7,1.1
		c-17.6,0.1-35.2,0.1-52.8,0c-6.9,0-9.8-2.9-9.8-9.8c0-4.8-0.2-9.6,0.5-14.3c1.7-11.2,10.9-18.8,22.3-19.1
		C1132.1,505.2,1132.8,505.2,1133.6,505.2L1133.6,505.2z M1216.4,389.1c-1.1,7.8,0.7,10,7.8,10c15.5-0.2,31.1-0.1,46.6-0.1
		c4.9,0,6.3,1.4,6.3,6.3c0,13.3,0,26.6,0,39.9v2.8h30c0-1.2,0-2.1,0-3.1c0-11.2,0-22.5,0-33.7c0-2.1,0.7-3.8,3-4.1
		c1.9-0.2,3.3,1.5,3.5,4c0,0.7,0,1.3,0,2c0,10.7,0,21.5,0,32.2c0,0.9,0.1,1.9,0.1,2.8c6-0.2,10.3-4.2,10.4-9.9
		c0.1-13,0.1-25.9,0-38.9c-0.1-5.7-4.6-10-10.4-10.2c-2.1-0.1-4.1-0.2-6.2,0c-0.8,0.1-1.9,0.8-2.3,1.5c-2.2,4-5.5,6.2-10,6.3
		s-8-2-10.1-6c-0.8-1.7-1.9-1.9-3.5-1.9c-20.6,0-41.1,0-61.7,0h-3.5L1216.4,389.1L1216.4,389.1z M1164.7,454.9
		c0.8,3.5,2,6.8,2.2,10.1c0.4,5.7,0.2,11.4,0.1,17.1c-0.1,6.1-2.2,11.7-7,15.5c-2.8,2.3-2.6,4.7-2.2,7.7c9.2-0.3,16.4,3.2,21.7,10.9
		c5.3-7.8,12.6-11.2,21.7-11c0.3-3.1,0.5-5.6-2.4-7.8c-4-3.1-6.2-7.6-6.5-12.7c-0.4-7-0.4-14-0.2-21c0.1-2.5,1.4-5,2.2-7.5
		c0.1-0.4,0.3-0.9,0.4-1.4L1164.7,454.9L1164.7,454.9z M1164.7,542c3.5,0,6.7,0.1,9.9-0.1c0.6,0,1.6-1.3,1.6-2
		c0.1-4.3,0.2-8.6-0.1-12.9c-0.8-9.5-8.4-15.9-17.9-15.2c-0.7,0-1.5,0.5-1.9,1.1c-1.8,2.7-4.4,3.9-7.6,3.9c-2.1,0-4.1,0-6.2,0
		c-3.1,0-5.5-1.2-7.4-3.8c-0.4-0.6-1.2-1.2-1.9-1.2c-8.2-0.3-15.5,3.7-17.1,11.6c-1.2,5.5-0.8,11.3-1,17c0,0.5,1,1.5,1.5,1.5
		c3.3,0.2,6.7,0.1,10.2,0.1c0-2.4,0-4.4,0-6.5c0.1-2.5,1.3-3.9,3.2-3.9c1.9,0,3.2,1.5,3.2,3.9c0,2.1,0,4.2,0,6.5c8,0,15.5,0,23.1,0
		c0.5,0,0.9-0.1,1.7-0.2c0-2.2-0.1-4.4,0-6.5c0.1-2.5,1.4-3.9,3.3-3.7c2.2,0.2,3.1,1.6,3.1,3.7
		C1164.7,537.5,1164.7,539.6,1164.7,542L1164.7,542z M1300.1,542c3.4,0,6.6,0,9.7,0c1.5,0,1.9-1,1.9-2.3c0-4,0.2-7.9-0.1-11.9
		c-0.6-9.8-8.1-16.4-17.8-15.9c-0.7,0-1.7,0.6-2.1,1.2c-1.8,2.5-4.1,3.8-7.1,3.8c-2.3,0-4.6,0-6.9,0c-2.9,0-5.2-1.3-7-3.6
		c-0.5-0.6-1.3-1.3-2.1-1.3c-7.9-0.7-15.4,3.9-17.1,11.7c-1.2,5.4-0.8,11.1-0.9,16.7c0,0.6,1.1,1.6,1.7,1.7
		c3.3,0.2,6.6,0.1,10.1,0.1c0-1.3,0-2.4,0-3.4c0-1.1,0-2.2,0-3.2c0.1-2,0.9-3.6,3.2-3.7c1.9-0.1,3.2,1.4,3.3,3.8
		c0.1,2.1,0,4.2,0,6.4h24.9c0-2.2-0.1-4.2,0-6.2c0.1-2.7,1.3-4.1,3.3-4s3.1,1.4,3.1,4C1300.2,537.6,1300.1,539.6,1300.1,542
		L1300.1,542z M1232.4,542c3.3,0,6.1,0,8.9,0c1.9,0,2.7-0.7,2.6-2.6c-0.1-3.5,0-7.1,0-10.7c-0.1-10.2-7.7-17.5-17.8-16.9
		c-0.8,0-1.7,0.6-2.2,1.2c-1.9,2.5-4.2,3.8-7.4,3.8c-2.2,0-4.3,0-6.4,0c-3.1,0-5.5-1.3-7.3-3.9c-0.4-0.5-1.1-1.1-1.7-1.1
		c-10.4-0.6-17.3,6.2-18.1,14.2c-0.4,4.6-0.2,9.2-0.1,13.9c0,0.7,1,1.9,1.6,2c3.3,0.2,6.5,0.1,10,0.1c0-2.3-0.1-4.3,0-6.2
		c0.1-2.6,1.3-4.1,3.3-4.1s3.1,1.4,3.2,4.1c0.1,2,0,4.1,0,6.1h24.9c0-2.2,0-4.2,0-6.2c0.1-2.6,1.3-4.1,3.3-4c1.9,0,3.1,1.5,3.2,4
		C1232.5,537.6,1232.4,539.6,1232.4,542L1232.4,542z M1213.3,454.8L1213.3,454.8c-1.7,0-3.5-0.1-5.2,0c-4.8,0.2-8.7,3.5-9.4,8.3
		c-0.3,2.5-0.2,5.1,0.1,7.6c1.4,10.9,14.7,16.2,23.4,9.6c5.4-4.1,6.4-9.7,6-15.9c-0.3-5.4-4.1-9.3-9.4-9.6
		C1216.9,454.7,1215.1,454.8,1213.3,454.8L1213.3,454.8z M1145.6,454.8c-1.4,0-2.8,0-4.2,0c-6.5,0.1-10.5,4-10.6,10.5
		c0,1.5,0,3,0.1,4.5c0.8,9.1,9.6,15.3,18.4,13c8.1-2.1,12.7-10.2,11-19.2c-1-5.4-4.6-8.5-10.1-8.7
		C1148.8,454.7,1147.2,454.8,1145.6,454.8L1145.6,454.8z M1281.1,454.8c-1.6,0-3.1,0-4.7,0c-6,0.2-10,4.2-10.2,10.2
		c0,1.7-0.1,3.5,0.2,5.2c0.7,5.7,3.8,9.9,9.2,11.9c5.3,2.1,10.5,1.4,15.1-2.4c4.7-3.9,5.6-9.1,5.4-14.7c-0.2-5.9-4.2-10-10.2-10.2
		C1284.2,454.7,1282.7,454.8,1281.1,454.8L1281.1,454.8z M1308.9,359.6c0-6-1.8-7.8-7.7-7.8c-3.4,0-6.8,0.1-10.1,0
		c-7.7-0.4-10,1.8-9.4,9.9c0.4,5.5,4,10.5,9.2,12.3C1299.5,377,1309.6,370.5,1308.9,359.6z M1266.8,484.4c0.3,4,2.4,7.5,6.2,9.9
		c2,1.3,3,2.9,2.8,5.3c-0.2,2.4-0.1,4.8,0,7.2c0.1,3.1,0.4,3.4,3.4,3.4c1.7,0,3.3,0,4.9,0s2.4-0.8,2.4-2.4c0-1.6,0.2-3.2,0-4.7
		c-0.6-4.5,0.5-7.9,4.6-10.5c2.7-1.7,4-4.8,4.4-8.4C1285.8,491.5,1276.4,491.5,1266.8,484.4L1266.8,484.4z M1228,484.2
		c-10,7.3-19.4,7.3-29.1,0c0.8,4.5,2.9,7.8,6.4,10.1c1.9,1.2,2.8,2.8,2.7,5.2c-0.2,2.6,0,5.3-0.1,7.9c-0.1,2.1,0.9,3,3,2.9
		c1.7-0.1,3.3-0.1,5,0c2,0.1,2.9-0.6,2.8-2.7c-0.1-2.3,0.2-4.7-0.1-6.9c-0.3-3.1,0.9-5.1,3.4-6.8
		C1225.3,491.7,1227.2,488.6,1228,484.2L1228,484.2z M1160.1,484.3c-9.7,7.2-19.2,7.2-29,0c0.3,1.2,0.2,2.2,0.6,2.8
		c1.6,2.3,2.9,4.9,5,6.5c2.5,2,3.9,4,3.5,7.3c-0.2,2.3,0,4.6-0.1,6.9c0,1.6,0.7,2.5,2.4,2.5c2,0,4,0,5.9,0c1.8,0,2.5-0.9,2.5-2.6
		c0-2.4,0.2-4.8-0.1-7.2c-0.3-3.1,0.8-5.1,3.4-6.8C1157.7,491.6,1159.6,488.5,1160.1,484.3L1160.1,484.3z M1281.6,346.4
		c1.5-0.3,2.6-0.5,3.7-0.9c0.8-0.3,1.4-1,2.1-1.6c0.9-0.7,1.9-2,2.8-1.9c1.1,0,2.1,1.2,3.2,1.9c0.7,0.4,1.3,1.2,1.9,1.3
		c4.5,0.3,8.9,0.4,13.5,0.6c0-1.4,0.1-3.1,0-4.8c-0.2-2.7-2.3-4.8-5.1-4.9c-5.7-0.1-11.4-0.1-17.1,0c-2.6,0-4.8,2.3-5,4.9
		C1281.5,342.8,1281.6,344.5,1281.6,346.4L1281.6,346.4z M1290.3,381c0.3,3.1-1.1,6.5,2.4,8.7c1.8,1.1,3.7,1,5.2-0.3
		c2.9-2.4,1.9-5.5,1.9-8.4H1290.3L1290.3,381z M1216.5,378.5v-1.2c-1-0.7-1.9-1.8-3.1-2c-1.6-0.3-2.8,1-2.5,2.5
		c0.2,1,1.5,2.4,2.4,2.4C1214.4,380.3,1215.5,379.1,1216.5,378.5L1216.5,378.5z M1128.4,388.5v1.2c1,0.7,2,1.7,3.1,1.9
		c1.6,0.3,2.8-1.1,2.5-2.5c-0.2-1-1.6-2.4-2.6-2.5C1130.5,386.4,1129.4,387.8,1128.4,388.5L1128.4,388.5z M1235.5,353
		c2.2-0.6,3.4-1.6,3-3.2c-0.3-1-1.5-2.2-2.5-2.4c-1.5-0.3-2.8,0.9-2.5,2.5C1233.7,351.1,1234.8,352,1235.5,353L1235.5,353z
		 M1198.4,359.3v-1.1c-1-0.7-2-2-3-2c-0.9,0-2.2,1.4-2.5,2.3c-0.4,1.5,0.8,2.8,2.4,2.7C1196.4,361.1,1197.4,360,1198.4,359.3
		L1198.4,359.3z M1174,380.7v1.2c1,0.7,1.9,1.9,3,2c1.5,0.2,2.8-1,2.4-2.6c-0.2-1-1.5-2.3-2.4-2.4
		C1176.1,378.9,1175,380.1,1174,380.7L1174,380.7z M1156.2,369.3v-1.2c-1-0.7-1.9-1.9-3-2c-1.5-0.2-2.8,1-2.4,2.6
		c0.2,1,1.5,2.3,2.4,2.4C1154.2,371.2,1155.2,369.9,1156.2,369.3z"/>
	<path class="st1" d="M1183,419.7c17.7,0,35.3,0,53,0c0.9,0,1.8,0,2.7,0.1c1.8,0.2,2.9,1.3,2.9,3.1c0.1,1.8-1,2.9-2.8,3.2
		c-0.8,0.1-1.6,0.1-2.5,0.1c-35.7,0-71.4,0-107,0c-0.3,0-0.7,0-1,0c-2.8-0.1-4.3-1.2-4.3-3.3s1.4-3.2,4.4-3.2
		C1146.7,419.7,1164.9,419.7,1183,419.7L1183,419.7z"/>
	<path class="st1" d="M1155.9,432.3c9.2,0,18.3,0,27.5,0c2.8,0,4.4,1.2,4.4,3.2s-1.7,3.2-4.5,3.2c-18.2,0-36.5,0-54.7,0
		c-0.2,0-0.5,0-0.7,0c-2.1,0-3.5-1-3.7-3.2c-0.2-1.9,1.4-3.3,3.8-3.3C1137.3,432.3,1146.6,432.3,1155.9,432.3L1155.9,432.3z"/>
</g>
<g>
	<path class="st1" d="M1997.5,394.4v-3.3h-17.2v114.5H2154v-111h7v111.2c3.3,0,6.4,0,9.5,0c3.2,0,4.4,1.2,4.5,4.5
		c0,4.1,0,8.3,0,12.4c0,6.5-4.5,10.9-11.2,10.9c-43.1,0-86.1,0-129.2,0c-21.2,0-42.4,0-63.6,0c-7.4,0-11.6-4.2-11.6-11.5
		c0-4.1,0-8.1,0-12.2c0-2.8,1.3-4.1,4.1-4.1c3.1,0,6.3,0,9.8,0v-3c0-37.8,0-75.7,0-113.5c0-4.3,1-5.3,5.2-5.3c6.3,0,12.6,0,19.1,0
		c0-3.3,0-6.4,0-9.5s1.2-4.4,4.3-4.4c15.7,0,31.3,0,46.9,0c3.1,0,4.3,1.3,4.3,4.4c0,3.1,0,6.1,0,9.4h31.2v6.9h-31v3.5h30.9v7h-31.1
		c0,6.5,0,12.8,0,19.1c0,4.4-0.9,5.3-5.4,5.3c-15.1,0-30.1,0-45.2,0c-3.9,0-5-1.1-5-5c0-6.4,0-12.7,0-19.2h-6.8v93.6h152.9V398h7
		v2.6c0,32.2,0,64.4,0,96.7c0,3.9-1.1,5-5,5c-52.3,0-104.7,0-157,0c-3.8,0-4.9-1.1-4.9-4.8c0-32.7,0-65.4,0-98.2
		c0-3.8,1.1-4.9,4.8-4.9C1991.5,394.4,1994.4,394.4,1997.5,394.4L1997.5,394.4z M2168,512.9h-201.8c0,2.8,0,5.5,0,8.1
		c0,4.8,0.9,5.7,5.6,5.7c63.5,0,127,0,190.5,0c0.7,0,1.3,0,2,0c2.2-0.2,3.5-1.4,3.6-3.7C2168.1,519.6,2168,516.3,2168,512.9
		L2168,512.9z M2004.7,377.1v41.5h41.4v-41.5H2004.7z"/>
	<path class="st1" d="M2109.6,390.6c-0.6-0.1-1.6,2.1-2.8,3.2c-1.7,1.7-3.5,1.8-5.2,0.1c-3.3-3.2-6.5-6.4-9.6-9.7
		c-1.6-1.6-1.4-3.4,0.1-5.1c0.2-0.2,0.5-0.5,0.7-0.7c2.6-2.7,2.8-4.7,0.6-7.8c-0.3-0.4-0.9-0.6-1.4-0.6c-1.1-0.1-2.3,0-3.5,0
		c-2.4-0.1-3.7-1.4-3.8-3.7c-0.1-4.5-0.1-8.9,0-13.4c0-2.2,1.3-4,3.5-3.7c4.6,0.7,6.4-1.6,7.2-6.5c-0.7-0.5-2-1.5-3.2-2.7
		c-1.7-1.7-1.7-3.5,0-5.2c3.1-3.2,6.3-6.4,9.5-9.5c1.7-1.7,3.5-1.7,5.2,0c1.1,1.1,2,2.4,2.9,3.4c0.8-0.2,1-0.3,1.3-0.4
		c3.7-0.9,5.7-2.8,5-7.1c-0.3-2,1.3-3.4,3.4-3.4c4.6-0.1,9.3-0.1,13.9,0c2.1,0,3.3,1.4,3.4,3.5c0,0.2,0,0.5,0,0.7
		c0.1,4.3,0.9,5.3,5,6.2c0.4,0.1,1.1-0.2,1.5-0.5c0.8-0.6,1.4-1.4,2.1-2.1c2.3-2.2,3.9-2.3,6.1-0.1c3,2.9,5.9,5.8,8.8,8.8
		c2.1,2.1,2.1,3.8-0.1,6c-1,1-2.2,1.8-3.1,2.5c0.4,1,0.6,1.3,0.6,1.6c0.9,3.6,2.7,5.4,6.8,4.7c2.2-0.3,3.6,1.3,3.6,3.7
		c0.1,4.4,0.1,8.8,0,13.2c0,2.5-1.4,3.8-3.9,3.9c-0.2,0-0.5,0-0.7,0c-3.8,0-5.2,1.2-5.9,5c-0.1,0.5,0.4,1.4,0.9,1.8
		c5.5,4.8,3.5,6.3-0.2,9.9c-2.3,2.2-4.5,4.6-6.9,6.8c-2.1,2-3.7,2-5.8,0c-0.1-0.1-0.1-0.1-0.2-0.2c-3-2.9-4.6-3.1-7.9-0.8
		c-0.4,0.3-0.6,0.9-0.7,1.4c-0.1,1.2,0,2.3,0,3.5c-0.1,2.5-1.4,3.8-3.9,3.8c-4.4,0-8.8,0-13.2,0c-2.2,0-4.1-1.3-3.7-3.4
		C2116.8,393,2114,391.5,2109.6,390.6L2109.6,390.6z M2104.2,386.5c0.8-0.8,1.6-1.5,2.3-2.2c1.7-2,3.5-2.1,5.7-0.8
		c1.4,0.8,2.9,1.6,4.5,2.1c5.8,2.1,5.8,2.1,6.2,8.2c0,0.1,0.1,0.3,0.2,0.4h6.7c0-1,0-1.8,0-2.6c0-3.6,0.6-4.2,4-5.2
		c1.1-0.3,2.3-0.5,3.3-1.1c4.1-2.7,8.1-4.2,11.1,1.2c1.9-1.7,3.5-3.2,5.2-4.7c-0.9-0.9-1.5-1.6-2.1-2.2c-2.3-2.4-2.4-3.2-0.8-6.1
		c0.8-1.4,1.6-2.8,2-4.3c2-7.2,2.8-6,8.2-6.2c0.1,0,0.3-0.2,0.4-0.2v-6.7c-0.8,0-1.5,0-2.1,0c-4.2,0-4.6-0.4-5.9-4.4
		c-0.7-2.1-1.6-4.2-2.7-6.1c-1.2-2.2-1.2-4,0.8-5.7c0.8-0.7,1.5-1.5,2.1-2.1c-1.6-1.8-3.1-3.4-4.6-5.1c-0.9,0.9-1.6,1.5-2.2,2.1
		c-2.4,2.3-3.2,2.4-6.1,0.8c-1.4-0.8-2.8-1.6-4.2-2c-7.3-2.1-6-2.8-6.2-8.2c0-0.1-0.1-0.3-0.2-0.4h-6.7c0,0.8,0,1.5,0,2.1
		c0,4.2-0.4,4.6-4.4,5.9c-2.1,0.7-4.2,1.6-6.1,2.6c-2.2,1.2-4,1.2-5.7-0.8c-0.7-0.8-1.5-1.5-2-1.9c-1.8,1.5-3.5,3-5.2,4.4
		c0.9,0.9,1.5,1.6,2.1,2.2c2.3,2.4,2.4,3.2,0.8,6.1c-0.8,1.4-1.6,2.8-2,4.3c-2,7.3-2.9,6-8.2,6.2c-0.1,0-0.3,0.2-0.4,0.2v6.7
		c1,0,1.8,0,2.6,0c3.6,0,4.2,0.6,5.2,4c0.3,1.1,0.5,2.3,1.1,3.3c2.7,4.2,4.1,8.1-1.5,11.2C2101,383.4,2102.5,384.9,2104.2,386.5
		L2104.2,386.5z"/>
	<path class="st1" d="M1997.6,460.4c0-7.7,0-15.4,0-23.1c0-3.4,1.2-4.6,4.6-4.6c15.5,0,30.9,0,46.4,0c3.4,0,4.6,1.2,4.6,4.6
		c0,15.5,0,31,0,46.4c0,3.4-1.2,4.6-4.6,4.6c-15.5,0-30.9,0-46.4,0c-3.4,0-4.6-1.2-4.6-4.6C1997.6,475.9,1997.6,468.1,1997.6,460.4
		L1997.6,460.4z M2046.1,481.3v-41.5h-41.4v41.5H2046.1z"/>
	<path class="st1" d="M2127.3,412.8l2.3-2.1c1.6,1.6,3.2,3.2,4.8,4.8l-2.1,2.3c1.6,3.8,3,7.3,4.7,11.3l3.1,0.2v6.7
		c-1.1,0.1-2.2,0.2-3.2,0.2c-1.5,3.7-3,7.3-4.6,11.3l2.1,2.3c-1.7,1.5-3.3,2.9-5.1,4.5l-2-1.8c-3.8,1.6-7.4,3.1-11.3,4.7
		c0,0.7-0.1,1.8-0.2,3.1h-6.8l-0.1-3.1c-3.8-1.6-7.5-3-11.3-4.7c-0.6,0.5-1.4,1.3-2.3,2.1l-4.8-4.8l2.1-2.3c-1.6-3.8-3-7.3-4.7-11.3
		l-3.1-0.2v-6.7l3.1-0.2c1.5-3.7,3-7.3,4.6-11.3l-2.1-2.3c1.7-1.5,3.3-2.9,5.1-4.5l2,1.8c3.8-1.6,7.4-3.1,11.3-4.7
		c0-0.7,0.1-1.8,0.2-3.1h6.8c0.1,1.2,0.1,2.3,0.1,3.1C2119.7,409.7,2123.4,411.2,2127.3,412.8L2127.3,412.8z M2112.3,415.3
		c-9.5,0-17.4,7.9-17.4,17.4s7.9,17.4,17.4,17.4s17.4-7.9,17.4-17.4C2129.7,423.1,2121.9,415.2,2112.3,415.3L2112.3,415.3z"/>
	<path class="st1" d="M2020.9,460.8c-4.1,3.9-7.9,7.5-11.5,11c1.6,1.7,3,3.3,4.8,5.2c3.8-4,7.4-7.7,11.4-11.9
		c3.8,4.1,7.4,7.9,10.8,11.6c1.9-1.8,3.5-3.2,5.4-5c-3.9-3.8-7.7-7.3-11.9-11.4c4.1-3.8,7.9-7.4,11.3-10.6c-1.6-2-3-3.7-4.6-5.7
		c-3.9,4-7.5,7.8-11.5,12c-3.8-4.1-7.4-7.9-10.8-11.6c-1.9,1.8-3.5,3.2-5.4,5C2012.9,453.1,2016.7,456.7,2020.9,460.8L2020.9,460.8z
		"/>
	<path class="st1" d="M2021.7,405.6c2.6-4.1,5-7.9,7.4-11.8c2.4-3.8,4.8-7.7,7.3-11.7c2,1.3,3.8,2.4,5.8,3.7c-0.6,1-1,1.8-1.5,2.7
		c-4.9,7.8-9.8,15.7-14.7,23.5c-2.8,4.4-4.9,4.4-8,0.3c-3-4-6-8.1-9.1-12.3l5.4-4.2C2016.7,399,2019,402.1,2021.7,405.6
		L2021.7,405.6z"/>
	<path class="st1" d="M2101.9,359.5c0-13.4,11-24.3,24.4-24.3s24.3,11,24.3,24.4s-11,24.3-24.4,24.3S2101.9,372.9,2101.9,359.5
		L2101.9,359.5z M2143.7,359.6c0-9.5-7.8-17.4-17.4-17.5s-17.4,7.8-17.4,17.3s7.8,17.4,17.3,17.5
		C2135.8,377,2143.6,369.2,2143.7,359.6L2143.7,359.6z"/>
	<path class="st1" d="M2020.9,460.8c-4.3-4.1-8-7.7-12-11.5c1.9-1.7,3.5-3.2,5.4-5c3.4,3.7,7,7.5,10.8,11.6c4-4.2,7.6-7.9,11.5-12
		c1.6,2,2.9,3.7,4.6,5.7c-3.4,3.2-7.3,6.8-11.3,10.6c4.2,4,7.9,7.6,11.9,11.4c-1.9,1.8-3.5,3.2-5.4,5c-3.4-3.7-7-7.5-10.8-11.6
		c-4,4.2-7.6,7.9-11.4,11.9c-1.7-1.9-3.2-3.5-4.8-5.2C2013.1,468.3,2016.8,464.7,2020.9,460.8L2020.9,460.8z"/>
	<path class="st1" d="M2098.4,432.6c0-7.6,6.3-13.9,14-13.8c7.6,0,13.9,6.3,13.8,14c0,7.6-6.3,13.9-14,13.8
		C2104.7,446.5,2098.4,440.2,2098.4,432.6L2098.4,432.6z M2119.3,432.7c0.1-3.7-3.1-7-6.9-7s-7,3.1-7,6.9c-0.1,3.7,3.1,7,6.9,7
		C2116,439.7,2119.3,436.5,2119.3,432.7L2119.3,432.7z"/>
</g>
<g>
	<path class="st1" d="M2945.8,423.7v14.9h-37.1v29.9h14.6v7.4h-22.1v-37.1h-15v-15h-2.8c-12.5,0-25.1,0-37.6,0
		c-19.9,0-34.8-15.2-34.4-35c0.3-15.5,13.1-29.8,28.4-31.8c2.2-0.3,4.5-0.4,6.7-0.4c1.3,0,1.8-0.5,2.3-1.6
		c8.3-19.7,22.9-31.8,44-35.1c19.4-3,36,3.2,49.5,17.6c1.2,1.3,2,1.6,3.7,0.8c23.1-10.8,50.8,0.3,60.1,24c0.8,1.9,1.6,2.3,3.6,2
		c14.8-2.5,30.7,9.3,32.9,24.4c2.9,19.3-10.8,35.1-30.4,35.1c-21.1,0-42.2,0-63.3,0L2945.8,423.7L2945.8,423.7z M2945.9,416.2
		c0.6,0,1,0.1,1.4,0.1c22.1,0,44.2,0,66.3,0c5.6,0,10.5-2,14.6-5.8c7.5-6.9,9.5-17.4,5.1-26.4s-14.1-13.9-24-12.1
		c-2.5,0.5-4.9,1.3-7.5,2c-2.7-13.7-9.8-24-22.8-29.4c-13-5.4-25.4-3.4-36.9,4.4c-12.6-17-28.9-25.2-49.8-21.3
		c-20.8,3.9-33.3,17.2-39.1,37.4c-0.8-0.1-1.7-0.2-2.5-0.4c-16.9-3.5-32.3,9.1-32,26.1c0.3,13.9,11.8,25.4,25.8,25.5
		c13.4,0.1,26.8,0,40.2,0c0.4,0,0.7,0,1.4-0.1v-59.5h59.8V416.2L2945.9,416.2z M2893.7,364v67h44.6v-67H2893.7z"/>
	<path class="st1" d="M2940.2,521.7c0.3-0.9,0.8-2.8,1.5-4.6c1.3-3.1,0.5-5-2.6-6.2c-5.6-2.1-8.2-5.8-8.2-11.7c0-3.3,0-6.5,0-9.8
		c0-5,2.8-8.9,7.5-10.7c4-1.5,4.7-3.1,2.9-7.1c-2.1-4.5-1.2-9.3,2.3-12.9c2.4-2.5,4.8-4.9,7.3-7.3c3.8-3.8,8.4-4.5,13.3-2.3
		c3.5,1.6,5.4,0.9,6.7-2.7c1.9-5.2,5.8-7.9,11.4-7.9c3.3,0,6.5,0,9.8,0c5.2,0,9.1,2.8,10.9,7.6c1.4,3.9,3.2,4.6,6.9,2.9
		c4.6-2.1,9.3-1.4,12.9,2.1c2.6,2.5,5.1,5,7.6,7.6c3.5,3.6,4.3,8.3,2.2,12.9c-1.8,3.8-1.1,5.5,2.8,6.9c4.9,1.8,7.6,5.7,7.6,10.9
		c0,3.4,0,6.8,0,10.3c0,5.1-2.8,9-7.7,10.8c-3.9,1.4-4.6,3.1-2.8,7c2.1,4.6,1.3,9.3-2.2,12.9c-2.5,2.6-5,5.1-7.6,7.6
		c-3.5,3.4-8.3,4.2-12.7,2.2c-4-1.8-5.6-1.2-7.1,2.8c-1.8,4.8-5.7,7.6-10.9,7.6c-3.4,0-6.7,0-10,0c-5.3,0-9.2-2.8-11-7.7
		c-1.4-3.8-3.2-4.5-6.8-2.8c-4.9,2.2-9.4,1.5-13.3-2.3c-2.5-2.5-5-4.9-7.4-7.4C2941.4,528.3,2940.4,525.7,2940.2,521.7L2940.2,521.7
		z M2959,455.3c-0.9,0.5-1.9,0.8-2.7,1.5c-2.4,2.3-4.8,4.7-7.1,7.1c-1.5,1.5-1.7,3.1-0.8,5.1c3.4,7.3,0.8,13.8-6.8,16.6
		c-2.2,0.8-3.2,2.2-3.1,4.6c0.1,3,0.1,6.1,0,9.1c-0.1,2.5,1.1,3.9,3.4,4.7c7.3,2.6,10.1,9.3,6.7,16.3c-1,2.2-0.8,3.9,0.9,5.5
		c2.2,2.1,4.3,4.3,6.4,6.5c1.7,1.8,3.5,2.1,5.9,1c1.9-0.8,4-1.4,6-1.3c4.9,0.3,8.4,3,10.1,7.7c1.1,3,2,3.6,5.1,3.6c3,0,6.1,0,9.1,0
		c2,0,3.5-0.9,4-2.9c2.2-7.8,10.9-10.7,17-7c1.7,1,3.3,0.7,4.7-0.7c2.5-2.4,5-4.9,7.4-7.4c1.3-1.4,1.6-3,0.6-4.7
		c-3.9-6.7-0.1-15,6.9-16.8c2.2-0.6,3.1-2.2,3.1-4.4c-0.1-3.1-0.1-6.2,0-9.3c0.1-2.4-1.1-3.7-3.3-4.5c-7.4-2.7-10.1-9.3-6.7-16.5
		c0.9-1.9,0.8-3.6-0.7-5.1c-2.4-2.4-4.8-4.9-7.3-7.3c-1.4-1.3-3-1.7-4.7-0.7c-6.5,3.8-15,0.4-17-7c-0.5-2-2-2.9-4-2.9
		c-3.1,0-6.2,0.1-9.3,0c-2.6-0.1-4,1.1-4.9,3.4c-2.5,7.1-9.4,9.9-16.2,6.8C2960.8,455.9,2960,455.7,2959,455.3L2959,455.3z"/>
	<path class="st1" d="M2871.1,483.6h52.3v7.3h-52.1v22.3h-59.7v-81.9h59.5V483.6L2871.1,483.6z M2819,438.8v67h44.6v-67H2819z"/>
	<path class="st1" d="M2897.5,498.6h25.8v7.3h-18.6c0,5.1-0.1,10,0.1,14.8c0,0.5,1.2,1.1,2,1.5c5.7,2.5,9.2,8,9.1,14.2
		c-0.1,5.9-4.1,11.4-9.8,13.5c-7.6,2.8-16-1-19-8.5s0.5-16,8.1-19.1c1.6-0.7,2.2-1.4,2.1-3.2c-0.1-6.6,0-13.2,0-19.8
		C2897.3,499.1,2897.4,498.9,2897.5,498.6L2897.5,498.6z M2908.5,536c0.1-4-3.2-7.5-7.3-7.6s-7.6,3.3-7.7,7.4
		c-0.1,4,3.2,7.5,7.3,7.6C2905,543.5,2908.5,540.1,2908.5,536L2908.5,536z"/>
	<path class="st1" d="M2870.2,361.7c-2.3-1-4.4-1.9-6.5-2.8c6.9-19.2,32.5-31.1,53.7-21.2c-0.9,2.2-1.9,4.3-2.9,6.7
		c-8.6-3.5-17.2-3.8-25.7-0.4C2880.3,347.2,2874.2,353.1,2870.2,361.7L2870.2,361.7z"/>
	<path class="st1" d="M2993.1,370.4c-2.4,0.7-4.6,1.4-6.9,2.1c-3.8-9.9-10.9-15.3-21.5-16.1v-7
		C2974.6,348.1,2989.4,356.4,2993.1,370.4L2993.1,370.4z"/>
	<path class="st1" d="M2833.6,390.2c1.4,7.1,4.5,10.2,11.3,11.2v7.1c-8.4,0.9-18.8-7.4-18.4-18.3H2833.6L2833.6,390.2z"/>
	<path class="st1" d="M3013.3,386.3v-7.1c7.6-0.6,15,6.6,14.7,14.6h-7.2C3020.1,389.4,3017.7,386.9,3013.3,386.3L3013.3,386.3z"/>
	<path class="st1" d="M2960.7,408.7h-7.2v-7.2h7.2V408.7z"/>
	<path class="st1" d="M2968.4,408.7v-7.2h7.2v7.2H2968.4z"/>
	<path class="st1" d="M2990.6,401.5v7.2h-7.2v-7.2H2990.6z"/>
	<path class="st1" d="M2930.8,371.6v7.2h-29.7v-7.2H2930.8z"/>
	<path class="st1" d="M2901.2,393.7v-7.2h29.7v7.2H2901.2z"/>
	<path class="st1" d="M2901.2,408.7v-7.2h29.6v7.2H2901.2z"/>
	<path class="st1" d="M2901.2,416.4h29.6v7.2h-29.6V416.4z"/>
	<path class="st1" d="M2953.4,494.6c0-18.5,15.2-33.5,33.8-33.5c18.5,0,33.5,15.2,33.4,33.9c0,18.5-15.2,33.4-33.9,33.4
		C2968.4,528.3,2953.4,513.1,2953.4,494.6L2953.4,494.6z M3013.2,494.7c0-14.3-11.8-26.1-26.1-26.1s-26.2,11.8-26.2,26.1
		c0,14.4,11.8,26.3,26.3,26.2C3001.4,520.9,3013.2,509.1,3013.2,494.7L3013.2,494.7z"/>
	<path class="st1" d="M2856,453.5h-29.6v-7.2h29.6V453.5z"/>
	<path class="st1" d="M2826.4,468.4v-7.2h29.7v7.2H2826.4z"/>
	<path class="st1" d="M2826.5,476.2h29.6v7.2h-29.6V476.2z"/>
	<path class="st1" d="M2856.1,491.2v7.2h-29.6v-7.2H2856.1z"/>
	<path class="st1" d="M3005.7,494.9c0,10.2-8.5,18.6-18.8,18.6c-10.2,0-18.6-8.5-18.6-18.8s8.5-18.6,18.8-18.6
		C2997.4,476.1,3005.7,484.5,3005.7,494.9L3005.7,494.9z M2986.9,506c6.1,0,11.2-5,11.3-11c0.1-6.2-5-11.4-11.2-11.4
		c-6.1,0-11.2,5-11.3,11C2975.7,500.8,2980.8,505.9,2986.9,506z"/>
</g>
<g>
	<path class="st1" d="M3763.8,465.3c3-10.3,8.9-15.5,17.6-15.7c9.1-0.2,14.8,4.5,18.7,15.8c4.5-1.3,9-1.7,13.6-0.3
		c5.1,1.5,9,4.6,12.1,9c0.5,0.7,1.7,1.5,2.5,1.4c19.6-2.6,35.3,12.1,33.7,31.6c0,0.2,0.1,0.5,0.1,0.9h11.6v-2.7c0-40,0-80.1,0-120.2
		c0-6.2-3-9.3-9.3-9.3c-13.4,0-26.8,0-40.1,0c-0.9,0-1.9,0.3-2.6-0.1c-1.1-0.6-2.5-1.7-2.6-2.6c-0.1-1.1,0.8-2.7,1.8-3.5
		c0.7-0.6,2.1-0.5,3.2-0.5c13.4,0,26.8,0,40.1,0c10.4,0,16.2,5.8,16.2,16.1c0,39.9,0,79.8,0,119.6c0,1,0,2,0,3.4c4.7,0,9.2,0,13.7,0
		c3.4,0,4.6,1.1,4.5,4.5c0,2.8,0.2,5.6-0.3,8.3c-1,5.3-5.2,8.5-10.6,8.6c-0.6,0-1.2,0-1.8,0c-69.4,0-138.9,0-208.3,0
		c-8.5,0-12.6-4.1-12.6-12.6c0-1.7,0-3.3,0-5c0.1-2.6,1.3-3.8,3.9-3.8c4.7,0,9.4,0,14.4,0c0-1.2,0-2.2,0-3.2c0-40,0-79.9,0-119.9
		c0-10,5.9-16,15.8-16c13.6,0,27.1,0,40.7,0c1,0,2.4-0.1,3,0.5c1,0.9,2.1,2.4,1.9,3.5c-0.1,1-1.7,2-2.8,2.8
		c-0.6,0.4-1.5,0.1-2.3,0.1c-13.3,0-26.6,0-39.9,0c-6.8,0-9.6,2.9-9.6,9.7c0,39.8,0,79.6,0,119.4v3h11.4c0.2-2.7,0.2-5.5,0.6-8.2
		c2.2-15.7,17.3-26.8,33-24.2c1.3,0.2,2,0.1,2.8-1c6.3-9,14.4-12,24.9-9.3C3763.1,465.3,3763.3,465.3,3763.8,465.3L3763.8,465.3z
		 M3672.1,514.9c-0.6,6.6,0.5,7.8,6.6,7.8c69,0,138,0,207,0.1c5.2,0,7.2-2.6,5.9-7.9h-3.3c-51.6,0-103.2,0-154.8,0
		c-0.9,0-1.7,0.1-2.6,0c-2.1-0.2-3.5-1.4-3.4-3.5s1.4-3.3,3.6-3.2c0.8,0,1.6,0,2.4,0c39.4,0,78.9,0,118.3,0h3.3
		c0.2-1.6,0.4-3,0.4-4.3c-0.3-14.4-13.9-24.7-27.8-21.1c-4.3,1.1-4.8,0.8-6.6-3c-1.8-3.9-4.8-6.6-8.9-7.9c-5-1.6-9.6-0.6-13.8,2.5
		c-2.2,1.6-4.3,1.4-5.3-0.7c-0.5-1-0.4-2.5-0.2-3.7c0.8-4.6-0.9-9.2-4.6-11.6c-4-2.6-8.8-2.5-12.7,0.1c-3.6,2.5-5.5,7-4.4,11.4
		c0.5,2,0.6,3.6-1.2,4.8c-1.9,1.3-3.4,0.2-4.9-0.9c-7.8-5.5-18.1-2.7-22.1,6.1c-1.6,3.6-2.4,3.9-6.2,2.9c-9.4-2.5-19.3,1.1-24.5,9.4
		c-3,4.8-4.4,10-3,15.9c2.1,0,4,0,5.9,0c3,0,4.3,1,4.4,3.2c0.1,2.3-1.4,3.6-4.4,3.6c-7.7,0-15.5,0-23.2,0
		C3685.2,514.9,3678.7,514.9,3672.1,514.9L3672.1,514.9z"/>
	<path class="st1" d="M3799.8,420.4c-2.1,2.6-3.5,5.1-2.2,8.6c1,2.5,1.4,5.2,1.9,7.8c0.7,3.1-0.6,4.9-3.6,4.9
		c-9.4,0.1-18.8,0.1-28.1,0c-3.1,0-4.4-1.8-3.7-4.8c0.5-2.5,1.2-5.1,1.8-7.6c0.8-3.1,0.1-6.1-2.1-8.9c-4.1,2.3-8.2,4.6-12.4,6.9
		c-3.7,2.1-7.4,4.2-11.1,6.2c-3.3,1.8-5.7,0.3-5.8-3.4c-0.1-3.3-0.1-6.6,0-9.9c0.1-3.7,1.4-6.9,3.8-9.7c4.9-5.8,9.8-11.7,14.6-17.7
		c0.6-0.8,1-2,0.9-3c-2.9-21.7,0.6-42.1,12-60.8c3.7-6,8.5-11.4,13-16.8c2-2.5,3.8-2.3,6-0.1c14.3,14.5,22.6,31.8,25.2,52
		c1.1,8.8,1,17.5-0.2,26.2c-0.1,0.8,0.4,2,1,2.7c4.7,5.8,9.5,11.6,14.3,17.2c2.2,2.6,3.7,5.5,3.9,8.9c0.2,3.9,0.3,7.8,0.1,11.7
		c-0.1,3.1-2.8,4.3-5.7,2.7c-7.1-3.9-14.2-8-21.3-12C3801.4,421.2,3800.7,420.8,3799.8,420.4L3799.8,420.4z M3781.9,346.6
		c-4.9,0-9.7,0.1-14.6,0c-1.8,0-2.6,0.6-3.1,2.2c-2.9,8.5-4.3,17.2-4.5,26c-0.2,15.5,3.4,30.1,11.1,43.6c0.8,1.4,1.7,2,3.3,1.9
		c5.1-0.1,10.2-0.1,15.4,0c1.7,0,2.7-0.6,3.5-2.1c12.2-22.4,14.3-45.7,6.4-69.9c-0.4-1.4-1.1-1.9-2.6-1.8
		C3791.8,346.6,3786.9,346.6,3781.9,346.6L3781.9,346.6z M3768,339.6h27.8c-3.7-7.7-8.1-14.5-14-20.6
		C3776.1,325.3,3771.5,331.9,3768,339.6z M3760.8,414.2c-1.6-4.6-3.2-9-4.9-13.9c-4.1,5-8,9.7-12,14.3c-2.6,3-2.8,6.3-2.2,10.3
		C3748.2,421.3,3754.5,417.8,3760.8,414.2L3760.8,414.2z M3822.2,425c0.7-4.6-0.1-8.2-3-11.3c-3.3-3.7-6.4-7.6-9.6-11.4
		c-0.5-0.6-1.1-1.2-1.7-1.9c-1.7,4.8-3.2,9.2-4.9,13.7C3809.3,417.7,3815.6,421.3,3822.2,425L3822.2,425z M3771.8,434.8h20.2
		c-0.5-2.3-0.9-4.4-1.6-6.5c-0.2-0.5-1.2-1.1-1.9-1.1c-4.4-0.1-8.8-0.1-13.2,0c-0.7,0-1.7,0.6-1.9,1.1
		C3772.7,430.4,3772.3,432.5,3771.8,434.8L3771.8,434.8z"/>
	<path class="st1" d="M3781.9,386.8c-8,0-14.5-6.4-14.4-14.4c0.1-7.9,6.7-14.5,14.5-14.4s14.2,6.5,14.3,14.4
		C3796.3,380.4,3789.9,386.8,3781.9,386.8L3781.9,386.8z M3782,380c4.1,0,7.4-3.3,7.4-7.4s-3.5-7.7-7.6-7.7c-4,0.1-7.4,3.5-7.4,7.5
		C3774.3,376.7,3777.7,380,3782,380L3782,380z"/>
</g>
</svg>
