<svg id="Layer_1" data-name="Layer 1" xmlns="http://www.w3.org/2000/svg" viewBox="0 0 14.53 16.4"><defs><style>.cls-1{fill:#fff;}.cls-2{fill:#11294b;}</style></defs><path class="cls-1" d="M1.31,12.49v3.25A.65.65,0,0,0,2,16.4H12.56a.57.57,0,0,0,.18,0,.63.63,0,0,0,.47-.66c0-1,0-2.08,0-3.12v-.1h.39a.93.93,0,0,0,.93-.92V6.78a.9.9,0,0,0-.72-.88,2.52,2.52,0,0,0-.48,0h-.12V5.74c0-.57,0-1.14,0-1.7a.48.48,0,0,0-.1-.35l-.79-.9L11.05,1.35,10,.15A.43.43,0,0,0,9.68,0H2a.65.65,0,0,0-.68.69V5.88a4.17,4.17,0,0,0-.5,0A.9.9,0,0,0,0,6.77v4.82a.93.93,0,0,0,.9.9Z"/><path class="cls-2" d="M1.31,12.49H.9a.93.93,0,0,1-.9-.9V6.77a.9.9,0,0,1,.81-.89,4.17,4.17,0,0,1,.5,0V.69A.65.65,0,0,1,2,0H9.68A.43.43,0,0,1,10,.15l1,1.2,1.27,1.44.79.9a.48.48,0,0,1,.1.35c0,.56,0,1.13,0,1.7v.12h.12a2.52,2.52,0,0,1,.48,0,.9.9,0,0,1,.72.88v4.79a.93.93,0,0,1-.93.92h-.39v.1c0,1,0,2.08,0,3.12a.63.63,0,0,1-.47.66.57.57,0,0,1-.18,0H2a.65.65,0,0,1-.66-.66V12.49ZM9.4.65H2V5.86H12.56V4.26H9.75a.32.32,0,0,1-.35-.35V.65Zm3.16,11.84H2v3.08H12.56ZM11.3,8.6v2a.28.28,0,0,1-.05-.09L9.84,7.91a.1.1,0,0,0-.11-.07H9.17a.11.11,0,0,0-.12.07L8.38,9.16,8,9.85a0,0,0,0,0,0,0A1.15,1.15,0,0,0,6.9,9H6a.22.22,0,0,1-.22-.16A.2.2,0,0,1,5.9,8.6H7.61a.12.12,0,0,0,.12-.08l.21-.36c0-.1.1-.2.16-.3H1.71v.74h3c0,.14,0,.28,0,.41a1.11,1.11,0,0,0,.93.73H6.8A.23.23,0,0,1,7,9.88a.18.18,0,0,1-.09.2.33.33,0,0,1-.17,0H5.14a.12.12,0,0,0-.11.07c-.09.18-.19.36-.29.54a.83.83,0,0,0-.07.13H8.45a.09.09,0,0,0,.09-.06l.57-1.05.34-.64.5,1H9.13A.12.12,0,0,0,9,10.2c-.06.13-.13.25-.2.38s-.09.18-.14.28h3.52V8.59h.93V7.85H9.93l.38.71s0,0,.07,0h.92ZM1.71,10.86H4.46a.09.09,0,0,0,.08,0c.11-.19.2-.39.31-.59l.05-.1H1.71ZM4.39,9H1.71v.73H4s0,0,.07-.06l.27-.53S4.36,9,4.39,9Z"/><path class="cls-1" d="M9.4.65V3.91a.32.32,0,0,0,.35.35h2.81v1.6H2V.65Z"/><path class="cls-1" d="M12.56,12.49v3.08H2V12.49Z"/><path class="cls-1" d="M11.3,8.6h-.92s-.06,0-.07,0l-.38-.71h3.18v.74h-.93v2.27H8.66c.05-.1.09-.19.14-.28s.14-.25.2-.38a.12.12,0,0,1,.13-.08H10l-.5-1-.34.64-.57,1.05a.09.09,0,0,1-.09.06H4.67a.83.83,0,0,1,.07-.13c.1-.18.2-.36.29-.54a.12.12,0,0,1,.11-.07H6.76a.33.33,0,0,0,.17,0A.18.18,0,0,0,7,9.88a.23.23,0,0,0-.22-.15H5.72A1.11,1.11,0,0,1,4.79,9c0-.13,0-.27,0-.41h-3V7.85H8.1c-.06.1-.11.2-.16.3l-.21.36a.12.12,0,0,1-.12.08H5.9a.2.2,0,0,0-.16.22A.22.22,0,0,0,6,9H6.9A1.15,1.15,0,0,1,8,9.82a0,0,0,0,1,0,0l.37-.69.67-1.25a.11.11,0,0,1,.12-.07h.56a.1.1,0,0,1,.11.07l1.41,2.64a.28.28,0,0,0,.05.09Z"/><path class="cls-1" d="M1.71,10.86v-.74H4.9l-.05.1c-.11.2-.2.4-.31.59a.09.09,0,0,1-.08,0H1.71Z"/><path class="cls-1" d="M4.39,9s0,.11-.08.15L4,9.67s0,.06-.07.06H1.71V9Z"/></svg>