<?xml version="1.0" encoding="utf-8"?>
<!-- Generator: Adobe Illustrator 27.9.0, SVG Export Plug-In . SVG Version: 6.00 Build 0)  -->
<svg version="1.1" id="a" xmlns="http://www.w3.org/2000/svg" xmlns:xlink="http://www.w3.org/1999/xlink" x="0px" y="0px"
	 viewBox="0 0 50 50" style="enable-background:new 0 0 50 50;" xml:space="preserve">
<style type="text/css">
	.st0{fill:#122a4f;}
</style>
<path class="st0" d="M8.8,15.1c-0.1-0.2-0.2-0.4-0.4-0.5c-0.7-0.9-1.5-1.7-2.2-2.6c-0.5-0.6-0.5-1,0.1-1.5C7.7,9,9.1,7.6,10.5,6.2
	c0.4-0.4,0.9-0.5,1.4-0.1c0.9,0.8,1.8,1.5,2.7,2.3c0.4,0.3,0.6,0.3,1.1,0.1c1.4-0.6,2.8-1.2,4.2-1.8c0.5-0.2,0.7-0.4,0.7-0.9
	c0.1-1.2,0.2-2.3,0.3-3.5c0.1-0.6,0.4-0.9,1-0.9c2,0,4,0,6,0c0.7,0,1,0.4,1.1,1c0.1,1.2,0.2,2.4,0.4,3.5c0,0.3,0.3,0.6,0.5,0.7
	c1.5,0.7,3,1.3,4.5,1.9c0.2,0.1,0.6,0,0.8-0.2c0.9-0.7,1.8-1.4,2.7-2.2c0.5-0.5,1-0.5,1.5,0c1.4,1.4,2.8,2.7,4.2,4.1
	c0.7,0.7,0.7,1,0,1.8c-0.7,0.8-1.4,1.7-2.2,2.5c-0.3,0.3-0.3,0.6-0.1,1c0.7,1.4,1.3,2.9,1.8,4.3c0.2,0.4,0.3,0.5,0.7,0.6
	c1.2,0.1,2.3,0.2,3.5,0.4c1,0.1,1.1,0.3,1.1,1.3c0,1.9,0,3.8,0,5.7c0,0.8-0.3,1.1-1,1.2c-1.2,0.1-2.3,0.2-3.5,0.4
	c-0.3,0-0.6,0.3-0.7,0.5c-0.6,1.4-1.2,2.8-1.8,4.2c-0.2,0.5-0.2,0.8,0.2,1.2c0.7,0.8,1.4,1.6,2.1,2.5c0.5,0.7,0.5,1-0.1,1.6
	c-1.4,1.4-2.9,2.8-4.3,4.2c-0.5,0.5-0.9,0.4-1.3,0c-0.9-0.8-1.8-1.5-2.7-2.2c-0.4-0.3-0.7-0.3-1.2-0.1c-1.3,0.6-2.6,1.2-4,1.7
	c-0.5,0.2-0.9,0.4-0.9,1.1c0,1.1-0.2,2.2-0.3,3.3c-0.1,0.6-0.4,0.9-1,0.9c-2.1,0-4.2,0-6.3,0c-0.6,0-0.8-0.3-0.8-0.8
	c-0.1-1.1-0.2-2.2-0.3-3.4c0-0.5-0.2-0.8-0.8-1c-1.4-0.5-2.8-1.1-4.1-1.7c-0.4-0.2-0.8-0.2-1.1,0.1c-0.9,0.8-1.8,1.5-2.7,2.3
	c-0.5,0.4-0.9,0.4-1.3-0.1c-1.5-1.5-2.9-2.9-4.4-4.4c-0.5-0.5-0.4-0.9,0-1.4c0.7-0.9,1.5-1.8,2.2-2.7c0.3-0.4,0.3-0.7,0.1-1.1
	c-0.7-1.4-1.2-2.9-1.8-4.3c-0.1-0.2-0.4-0.5-0.7-0.5c-1.2-0.2-2.5-0.4-3.7-0.5c-0.6-0.1-0.8-0.3-0.8-0.9c0-2.1,0-4.1,0-6.2
	c0-0.7,0.3-1,1-1.1c1.2-0.1,2.3-0.2,3.4-0.3c0.3,0,0.6-0.3,0.7-0.5c0.7-1.5,1.3-3,1.9-4.5C8.6,15.4,8.7,15.3,8.8,15.1L8.8,15.1z
	 M39.8,25.2c0.1-7.8-6.4-14.9-14.9-14.9c-8.2,0.1-14.5,6.6-14.6,14.7c-0.1,8.4,7,15,15.1,14.8C33.2,39.7,39.8,33.1,39.8,25.2
	L39.8,25.2z"/>
<path class="st0" d="M25,38.3c-7.2,0-13.2-5.9-13.2-13.1c0-7.3,5.8-13.2,13.3-13.3c7.2,0,13.2,6,13.1,13.2
	C38.2,32.7,32.2,38.4,25,38.3L25,38.3z M14.5,28.1c0,1.3,0,2.6,0,3.9c0,0.7,0.3,1,1,1c0.8,0,1.6,0,2.4,0c1.7,0,2.1,0.3,2-2
	c0-0.6,0.2-0.9,0.9-0.8c2.6,0,5.1,0,7.7,0c1.9,0,1.6-0.2,1.6,1.6c0,0.8,0.3,1.1,1.1,1.2c1.1,0,2.2,0,3.3,0c0.8,0,1-0.3,1-1
	c0-2.4,0-4.9,0-7.3c0-0.6-0.2-1.2-0.5-1.6c-0.6-0.7-1-1.5-1.3-2.4c-0.3-0.9-0.7-1.8-1-2.7c-0.4-1-1.1-1.5-2.2-1.5
	c-3.6,0-7.1,0-10.7,0c-1,0-1.8,0.6-2.2,1.5c-0.1,0.3-0.2,0.6-0.3,0.9c-0.6,1.4-0.9,3-2.1,4.1c-0.4,0.4-0.5,1.1-0.6,1.7
	C14.4,25.7,14.5,26.9,14.5,28.1L14.5,28.1z"/>
<path class="st0" d="M17.8,21.5c0.5-1.2,0.8-2.3,1.3-3.3c0.1-0.2,0.5-0.3,0.8-0.3c3.5,0,7.1,0,10.6,0c0.3,0,0.7,0.2,0.8,0.4
	c0.5,1,0.8,2.1,1.2,3.3C32.5,21.5,17.8,21.5,17.8,21.5z"/>
<path class="st0" d="M25.1,28.7c-2.7,0-5.4,0-8.1,0c-0.8,0-1-0.2-0.9-1c0.1-0.9,0-1.9,0-2.8c0-1.1,0.7-1.8,1.8-1.8
	c4.9,0,9.8,0,14.6,0c1,0,1.6,0.5,1.7,1.5c0,1.2,0,2.3,0,3.5c0,0.6-0.4,0.5-0.8,0.5C30.6,28.7,27.9,28.7,25.1,28.7L25.1,28.7z
	 M25.1,24.2L25.1,24.2c-0.9,0-1.9,0-2.8,0c-0.7,0-1,0.3-1,1c0,0.6,0,1.1,0,1.7c0,0.5,0.3,1,0.9,1c1.9,0,3.9,0,5.8,0
	c0.5,0,0.8-0.3,0.8-0.9c0-0.6,0-1.2,0-1.8c0-0.8-0.2-1-1-1C26.9,24.2,26,24.2,25.1,24.2L25.1,24.2z M31.5,24.1
	c-1.3,0-2.1,0.7-2.2,1.8c0,1.2,0.8,1.9,2,2c1.2,0,2.1-0.7,2.1-1.9C33.5,25,32.7,24.1,31.5,24.1z M16.6,26c0,1.2,0.8,1.9,2,1.9
	c1.2,0,2-0.7,2-1.8c0-1.2-0.8-2-2-2C17.4,24.1,16.6,24.8,16.6,26L16.6,26z"/>
<path class="st0" d="M34,30.3c0.1,0.8-0.2,1.1-0.9,1.1c-0.4,0-0.8,0-1.3,0v-1.1H34z"/>
<path class="st0" d="M16,31.4v-1.1h2.2c0.3,1,0.2,1.1-0.8,1.1C17,31.4,16.5,31.4,16,31.4z"/>
<path class="st0" d="M25,25.8c0.6,0,1.2,0,1.8,0c0.1,0,0.3,0.2,0.4,0.3c-0.1,0.1-0.3,0.3-0.4,0.3c-1.1,0-2.3,0-3.5,0
	c-0.1,0-0.3-0.2-0.4-0.3c0.1-0.1,0.3-0.3,0.4-0.3C23.8,25.8,24.4,25.8,25,25.8z"/>
</svg>
