<?xml version="1.0" encoding="UTF-8"?><svg id="a" xmlns="http://www.w3.org/2000/svg" width="139.06" height="139" viewBox="0 0 139.06 139"><defs><style>.b{fill:#fff;}</style></defs><path class="b" d="M128.18,112.75c-1.11,0-2.09,0-3.06,0-10.32,0-20.65,.06-30.97-.04-2.77-.03-4.3,1.07-5.31,3.61-2.52,6.34-2.6,6.31-9.47,6.31-8.15,0-16.3-.05-24.45,.04-1.73,.02-2.54-.55-3.16-2.15-3.48-9.03-2.38-7.7-11.64-7.76-8.69-.05-17.39-.01-26.08-.01h-3.22c-.07-1.16-.19-2.12-.19-3.07-.01-19.56-.01-39.12,0-58.68,0-4.11,.4-4.5,4.51-4.5,36.4,0,72.81,0,109.21,0,3.45,0,4.06,.54,4.06,3.86,.02,20.01,.01,40.03,0,60.04,0,.69-.14,1.39-.25,2.35ZM55.18,67.51c-7.73,3.97-15.27,7.79-22.74,11.73-1.8,.95-1.41,5.12,.51,6.11,7.12,3.7,14.26,7.37,21.4,11.03,.27,.14,.63,.1,1.14,.18,0-1.43-.14-2.71,.03-3.94,.32-2.39-.51-3.75-2.81-4.74-3.83-1.65-7.49-3.69-11.52-5.72,3.2-1.62,6.01-3.05,8.83-4.46q5.85-2.94,5.39-9.49c0-.09-.05-.17-.21-.69Zm28.75,29.29c7.35-3.76,14.53-7.5,21.79-11.1,1.58-.78,1.97-1.77,1.94-3.39-.04-1.62-.16-2.82-1.91-3.68-6.73-3.3-13.36-6.8-20.03-10.2-.59-.3-1.25-.47-2.12-.79,0,1.6,.16,2.88-.03,4.12-.38,2.45,.64,3.72,2.87,4.69,3.82,1.67,7.49,3.68,11.58,5.72-3.26,1.64-5.95,3.48-8.92,4.37-5.13,1.54-6.28,4.89-5.45,9.59,.02,.09,.07,.17,.29,.67Zm-3.18-34.85c-1.58,0-2.65,.13-3.68-.03-2.77-.43-4.04,.66-5.02,3.37-3.51,9.73-7.39,19.33-11.1,28.99-.37,.97-.62,1.98-.95,3.02q6.83,.71,8.77-4.28c3.92-10.15,7.83-20.3,11.98-31.07Z"/><path class="b" d="M0,120.56c3.39,0,6.36,0,9.34,0,10.59,0,21.18,.03,31.77-.03,1.6-.01,2.37,.5,2.98,1.99,3.55,8.7,1.91,8.19,12.28,8.17,10.32-.02,20.64-.06,30.96,.03,3.03,.03,4.85-1.07,5.97-3.96,2.41-6.23,2.51-6.19,9.27-6.19,11.04,0,22.09,0,33.13,0h3.34c0,5.46,.1,10.76-.11,16.05-.03,.79-1.4,1.7-2.34,2.21-.63,.34-1.59,.09-2.41,.09-43.09,0-86.18,0-129.27,0-4.46,0-4.91-.46-4.91-5,0-4.33,0-8.66,0-13.36Z"/><path class="b" d="M46,8.01c3.84,2.29,7.09,4.69,12.54,2.46,5.35-2.19,6.59-5.73,7.36-10.47h7.29c1,4.38,1.8,8.22,7.22,10.42,5.4,2.18,8.74,.3,12.75-2.44,1.56,1.76,3.03,3.42,4.76,5.37-.51,.86-1.25,2.07-1.97,3.28-.46,.78-1.02,1.51-1.35,2.34-1.25,3.1,3.11,11.58,6.35,12.44,.35,.09,.68,.24,1.03,.33q4.96,1.24,4.27,6.53h-18.67c.34-6.87-1.95-12.68-7.68-16.84-3.77-2.73-8.03-3.55-12.6-3.15-9.15,.8-15.13,8.24-15.84,19.94h-18.71v-5.35c.23-.13,.46-.37,.68-.37,7.43,.09,9.43-5.46,11.2-11.02,.36-1.13-.26-2.83-.91-3.99-2.67-4.77-2.74-4.73,1.13-8.46,.32-.31,.67-.6,1.15-1.02Z"/><path class="b" d="M79.08,38.33h-19.13c-1.09-4.09,.42-8.08,3.91-10.44,3.65-2.47,8.06-2.41,11.63,.17,3.31,2.38,4.73,6.4,3.59,10.27Z"/></svg>