<?xml version="1.0" encoding="UTF-8"?><svg id="a" xmlns="http://www.w3.org/2000/svg" width="139.4" height="139" viewBox="0 0 139.4 139"><defs><style>.b{fill:#fff;}</style></defs><path class="b" d="M38.23,139c-.84-7.78,1.1-14.33,6.78-19.63,5.73-5.35,12.79-5.78,20.27-5.44V27.74c-9.62,.08-17.82,4.48-26.35,8.66,.42,.78,.84,1.64,1.32,2.47,4.69,8.14,9.11,16.46,14.19,24.35,3.77,5.86,3.57,11.86,1.89,17.92-2.97,10.73-13.06,18.22-24.21,18.35-3.78,.04-7.65,.14-11.34-.56C8.72,96.68,.25,86.08,0,73.88c-.08-3.78,.82-6.94,2.86-10.11,5.71-8.9,11.15-17.97,16.58-26.78-4.25-2.4-8.43-4.76-12.91-7.3,2.27-2.49,4.01-4.41,5.82-6.41,5.37,4.5,11.35,6.8,18.17,6.1,2.74-.28,5.52-.98,8.09-1.97,6.2-2.39,12.28-5.07,18.63-7.73-1.41-3.39-2.15-7.55,0-11.38,1.32-2.35,3.24-4.65,5.44-6.17,4.78-3.3,11.08-2.62,15.65,1.09,4.76,3.87,6.01,9.82,3.43,17,1.09,.32,2.19,.59,3.25,.98,3.98,1.45,8.17,2.51,11.86,4.49,10.52,5.65,20.38,5.19,30.08-2.35,1.73,1.9,3.48,3.81,5.72,6.27-4.07,2.4-7.89,4.66-11.88,7.02,4.32,7.5,8.78,15.23,13.24,22.97,.54,.94,1.03,1.91,1.63,2.81,10.52,15.69-3.2,34.49-16.39,36.35-5.98,.84-12.43,1.05-18.25-.29-12.05-2.77-20.55-13.72-19.01-29.51,.08-.84,.63-1.67,1.09-2.42,5.57-9.1,11.16-18.18,16.74-27.26,.51-.82,.97-1.67,1.48-2.55-8.86-3.96-17.2-8.89-27.37-9.01V114.03c2.47,0,4.97-.16,7.45,.03,12.58,.96,21.36,12.24,19.34,24.94H38.23Zm10.24-69.46c-5.8-10.08-11.37-19.78-16.96-29.46-1.59-2.76-2.66-2.75-4.37,.01-5.64,9.15-11.27,18.3-16.9,27.45-.35,.57-.6,1.21-.99,1.99H48.47Zm81.62-.04c-.27-.6-.38-.93-.54-1.21-5.48-9.54-10.95-19.08-16.47-28.6-1.29-2.23-2.5-2.18-3.93,.13-5.84,9.44-11.64,18.89-17.45,28.34-.22,.36-.37,.76-.64,1.34h39.03Z"/></svg>