<?xml version="1.0" encoding="utf-8"?>
<!-- Generator: Adobe Illustrator 27.8.1, SVG Export Plug-In . SVG Version: 6.00 Build 0)  -->
<svg version="1.1" id="Layer_1" xmlns="http://www.w3.org/2000/svg" xmlns:xlink="http://www.w3.org/1999/xlink" x="0px" y="0px"
	 viewBox="0 0 89.6 25.7" style="enable-background:new 0 0 89.6 25.7;" xml:space="preserve">
<style type="text/css">
	.st0{fill:#15A800;}
</style>
<g>
	<path class="st0" d="M6.1,14.9c0.2-0.3,0.7-1,1.4-2.1c0.6-0.9,1.6-2.3,2.9-4.1c0.8-1,1.5-1.9,2.1-2.6c0.4-0.4,0.7-0.6,1-0.6
		c0.2,0,0.3,0.1,0.4,0.2c0.1,0.1,0.1,0.2,0.1,0.4c0,0.2-0.1,0.5-0.4,1c0,0.1-0.3,0.5-0.8,1.3c-0.8,1.4-1.4,2.5-1.7,3.1
		c-0.8,1.7-1.4,3.1-1.8,4.3c-0.2,0.7-0.3,1.2-0.3,1.6c0,0.1,0,0.2,0,0.2c0,0.2,0,0.4,0,0.4c0,0.2-0.1,0.3-0.2,0.5
		c-0.1,0.1-0.3,0.2-0.4,0.2c-0.2,0-0.3-0.1-0.4-0.3c-0.1-0.2-0.1-0.4-0.1-0.6c0-1.7,1.5-5.2,4.4-10.3c-1.5,1.6-3.2,4-5.1,7
		c-0.4,0.7-0.7,1.1-1,1.3c-0.3,0.2-0.5,0.3-0.7,0.3S5.3,16,5.2,15.8c-0.1-0.1-0.1-0.3-0.1-0.5c0-1.5,0.9-4,2.8-7.3
		C7.2,8.7,6.6,9.4,6,10.3c-1,1.6-2,3.1-2.8,4.8c-0.4,0.8-0.9,1.8-1.4,3.1c-0.3,0.7-0.6,1-1,1c-0.1,0-0.2,0-0.2-0.1
		c0-0.1-0.1-0.1-0.1-0.2c0-0.1,0.1-0.4,0.3-1c0.5-1.2,0.9-2,1.1-2.5c1.3-2.6,2.9-5,4.7-7.3c0.8-1,1.3-1.6,1.6-1.9
		C8.6,6,8.9,5.8,9.1,5.8c0.1,0,0.2,0.1,0.4,0.2c0.1,0.1,0.2,0.3,0.2,0.4c0,0.2-0.1,0.5-0.4,0.9c-0.7,1.2-1.4,2.6-2,4.1
		C6.6,12.8,6.3,13.9,6.1,14.9z"/>
	<path class="st0" d="M14.6,16.2c-0.2,0.4-0.4,0.7-0.6,0.9c-0.4,0.5-0.8,0.7-1.2,0.7c-0.3,0-0.6-0.2-0.8-0.5
		c-0.1-0.2-0.2-0.4-0.2-0.7c0-0.7,0.2-1.4,0.6-2.3c0.5-0.9,1.1-1.6,1.7-2.1c0.4-0.3,0.9-0.5,1.3-0.5c0.3,0,0.5,0.1,0.6,0.2
		c0.1,0.1,0.2,0.3,0.2,0.5c0,0.1-0.1,0.3-0.2,0.6c0.1,0.1,0.1,0.2,0.1,0.3c0,0.1-0.1,0.3-0.3,0.6c-0.2,0.3-0.4,0.7-0.5,1.2
		c-0.2,0.5-0.3,1-0.3,1.3c0,0.3,0.1,0.5,0.2,0.6c0,0,0.2,0.1,0.4,0.2c0.2,0.1,0.2,0.2,0.2,0.4c0,0.1,0,0.2-0.1,0.3
		c-0.1,0.1-0.2,0.1-0.3,0.1c-0.3,0-0.6-0.1-0.9-0.4c-0.2-0.2-0.3-0.5-0.3-0.9C14.5,16.7,14.5,16.5,14.6,16.2z M15.7,13.2
		c-0.1-0.1-0.2-0.2-0.2-0.3c-0.1-0.1-0.2-0.1-0.3-0.1c-0.5,0-1,0.4-1.5,1.2c-0.6,0.9-0.9,1.7-0.9,2.3c0,0.2,0,0.3,0.1,0.4
		c0.1,0.1,0.1,0.1,0.3,0.1c0.3,0,0.6-0.3,1-0.9c0.2-0.3,0.5-0.9,0.8-1.5c0.2-0.4,0.4-0.7,0.5-0.9C15.5,13.4,15.6,13.3,15.7,13.2z"/>
	<path class="st0" d="M20.6,13.8c-0.4,1-0.6,1.8-0.6,2.3c0,0.3,0,0.5,0.1,0.6c0.1,0.2,0.3,0.3,0.5,0.3c0.4,0,0.9-0.3,1.5-0.8
		c0.4-0.4,0.7-0.7,0.9-1.1c0.2-0.2,0.3-0.4,0.5-0.4c0.1,0,0.2,0.1,0.2,0.2c0,0.2-0.3,0.7-0.9,1.4c-0.8,1.1-1.7,1.6-2.4,1.6
		c-0.5,0-0.8-0.2-1-0.7c-0.1-0.3-0.2-0.7-0.2-1.1c0-0.3,0.1-0.8,0.2-1.4c-0.4,0.3-1,1.1-1.8,2.4c-0.2,0.4-0.4,0.5-0.6,0.5
		c-0.1,0-0.2,0-0.2-0.1c-0.1-0.1-0.1-0.2-0.1-0.3c0-0.2,0.3-1.1,1-2.5c1.1-2.5,2.4-4.5,3.7-6.2c0.7-0.9,1.3-1.6,1.9-2
		c0.5-0.4,0.9-0.6,1.2-0.6c0.1,0,0.3,0.1,0.4,0.2c0.1,0.1,0.2,0.3,0.2,0.5c0,0.5-0.3,1.2-0.8,2c-0.6,0.8-1.6,1.9-2.9,3.1
		c-0.8,0.7-1.5,1.2-2.1,1.6c-0.1,0.2-0.3,0.6-0.7,1.4c0.8-0.8,1.4-1.4,1.8-1.7c0.3-0.2,0.7-0.4,1.2-0.6c0.3-0.1,0.6-0.2,0.7-0.2
		c0.1,0,0.2,0,0.2,0.1c0.1,0.1,0.1,0.1,0.1,0.2c0,0.2-0.1,0.3-0.4,0.4C21.5,13.2,21.1,13.5,20.6,13.8z M19.8,12.2
		c1-0.7,2-1.5,2.8-2.5c0.4-0.5,0.8-1,1.1-1.5c0.2-0.3,0.3-0.6,0.3-0.7c0-0.1-0.1-0.2-0.2-0.2c-0.3,0-0.9,0.5-1.8,1.6
		C21.3,9.7,20.5,10.8,19.8,12.2z"/>
	<path class="st0" d="M24.2,16v0.2c0,0.1,0,0.3,0.1,0.4c0.2,0.2,0.4,0.3,0.8,0.3c0.8,0,1.7-0.6,2.7-1.8c0.2-0.2,0.3-0.3,0.5-0.3
		c0.1,0,0.1,0,0.2,0.1c0,0,0.1,0.1,0.1,0.1c0,0.2-0.3,0.6-0.9,1.2c-0.5,0.5-1,0.8-1.5,1.1c-0.5,0.3-1,0.4-1.5,0.4
		c-0.5,0-0.8-0.2-1.1-0.5c-0.2-0.2-0.3-0.5-0.3-0.9c0-1,0.5-2.1,1.5-3.1c0.8-0.8,1.5-1.2,2.1-1.2c0.2,0,0.3,0,0.4,0.1
		c0.2,0.1,0.2,0.3,0.2,0.5c0,0.3-0.2,0.7-0.5,1.2C26.4,14.9,25.5,15.6,24.2,16z M24.4,15.3c0.4-0.1,0.8-0.3,1-0.5
		c0.4-0.3,0.8-0.7,1-1.1c0.1-0.1,0.1-0.3,0.1-0.4c0-0.1-0.1-0.2-0.2-0.2c-0.2,0-0.4,0.1-0.7,0.4C25.2,13.8,24.8,14.5,24.4,15.3z"/>
	<path class="st0" d="M34.5,17c0.2,0,0.3-0.1,0.4-0.1c1.4-0.4,2.5-0.7,3.1-0.7c0.5,0,0.7,0.2,0.7,0.5c0,0.1-0.1,0.3-0.2,0.4
		c-0.1,0.1-0.2,0.2-0.4,0.2c-0.1,0-0.2,0-0.3,0c-0.1,0-0.2,0-0.2,0c-0.4,0-0.8,0.1-1.4,0.3C36,17.5,35.6,17.7,35,18
		c-0.4,0.2-0.8,0.3-1,0.3c-0.2,0-0.3-0.1-0.5-0.3c-0.1-0.2-0.2-0.3-0.2-0.5c0-0.2,0.1-0.6,0.4-1.2c0.8-1.7,1.6-3.2,2.5-4.5
		c1.3-1.9,2.3-3.3,2.9-4.2c0.2-0.2,0.4-0.5,0.6-0.7c0.3-0.4,0.6-0.6,0.8-0.6c0.1,0,0.2,0,0.3,0.1c0.1,0.1,0.1,0.2,0.1,0.3
		c0,0.1-0.1,0.3-0.3,0.6c0,0.1-0.3,0.4-0.8,1c-0.9,1.2-1.5,2-2,2.7c-0.4,0.6-0.9,1.3-1.4,2.1C35.5,14.6,34.9,15.9,34.5,17z"/>
	<path class="st0" d="M41.8,12.2c0.1,0,0.2,0,0.3,0.1c0,0.1,0.1,0.1,0.1,0.2c0,0.1-0.1,0.3-0.3,0.6c-0.6,1-1.1,1.8-1.4,2.5
		c-0.3,0.7-0.5,1.3-0.8,2c-0.1,0.3-0.3,0.5-0.5,0.5c-0.1,0-0.2,0-0.3-0.1c-0.1-0.1-0.1-0.2-0.1-0.3c0-0.2,0.2-0.8,0.6-1.9
		c0.3-0.8,0.8-1.7,1.5-2.7c0.2-0.3,0.4-0.5,0.5-0.7C41.5,12.3,41.6,12.2,41.8,12.2z M43.5,8.8c0.3,0,0.4,0.1,0.4,0.4
		c0,0.3-0.1,0.5-0.4,0.9c-0.3,0.3-0.5,0.5-0.8,0.5c-0.1,0-0.2,0-0.3-0.1c-0.1-0.1-0.1-0.2-0.1-0.3c0-0.3,0.2-0.6,0.5-0.9
		C43.1,8.9,43.3,8.8,43.5,8.8z"/>
	<path class="st0" d="M43.4,13.4c0.9-2,1.9-3.7,2.8-5c0.6-0.9,1.1-1.5,1.5-1.9c0.3-0.3,0.5-0.4,0.7-0.4c0.1,0,0.1,0,0.2,0.1
		c0.1,0.1,0.1,0.1,0.1,0.3c0,0.1-0.1,0.3-0.3,0.6c-1.4,1.6-2.6,3.4-3.7,5.6c1-0.4,1.7-0.6,2.1-0.6c0.3,0,0.5,0.1,0.7,0.2
		c0.2,0.1,0.3,0.3,0.3,0.5c0,0.1,0,0.2-0.1,0.3c-0.1,0.1-0.2,0.2-0.4,0.2c-0.1,0-0.3-0.1-0.6-0.3c-0.1,0-0.2-0.1-0.3-0.1
		c-0.6,0-1.4,0.3-2.2,0.8c0.4,0.2,0.6,0.4,0.8,0.7c0.2,0.4,0.3,0.9,0.3,1.5c0,1.5-0.5,3.1-1.4,4.8c-0.4,0.7-0.8,1.3-1.1,1.6
		c-0.4,0.4-0.8,0.6-1.2,0.6c-0.3,0-0.6-0.1-0.8-0.4c-0.2-0.2-0.2-0.6-0.2-1c0-0.9,0.3-2.3,1-4.1c0.1-0.2,0.3-0.8,0.7-1.7
		c0.1-0.2,0.2-0.5,0.3-0.7c0,0-0.1,0-0.1,0c-0.2,0-0.3-0.1-0.3-0.3C42.2,14.3,42.6,13.9,43.4,13.4z M43.7,14.6
		c-0.3,0.7-0.8,1.7-1.4,3.2c-0.6,1.5-0.9,2.6-0.9,3.5c0,0.2,0,0.3,0.1,0.4c0.1,0.1,0.2,0.2,0.3,0.2c0.4,0,0.9-0.6,1.5-1.9
		c0.7-1.4,1.1-2.7,1.1-3.9c0-0.5-0.1-0.8-0.3-1C44.1,14.8,43.9,14.7,43.7,14.6z"/>
	<path class="st0" d="M47.4,16v0.2c0,0.1,0,0.3,0.1,0.4c0.2,0.2,0.4,0.3,0.8,0.3c0.8,0,1.7-0.6,2.7-1.8c0.2-0.2,0.3-0.3,0.5-0.3
		c0.1,0,0.1,0,0.2,0.1c0,0,0.1,0.1,0.1,0.1c0,0.2-0.3,0.6-0.9,1.2c-0.5,0.5-1,0.8-1.5,1.1c-0.5,0.3-1,0.4-1.5,0.4
		c-0.5,0-0.8-0.2-1.1-0.5c-0.2-0.2-0.3-0.5-0.3-0.9c0-1,0.5-2.1,1.5-3.1c0.8-0.8,1.5-1.2,2.1-1.2c0.2,0,0.3,0,0.4,0.1
		c0.2,0.1,0.2,0.3,0.2,0.5c0,0.3-0.2,0.7-0.5,1.2C49.6,14.9,48.7,15.6,47.4,16z M47.6,15.3c0.4-0.1,0.8-0.3,1-0.5
		c0.4-0.3,0.8-0.7,1-1.1c0.1-0.1,0.1-0.3,0.1-0.4c0-0.1-0.1-0.2-0.2-0.2c-0.2,0-0.4,0.1-0.7,0.4C48.4,13.8,48,14.5,47.6,15.3z"/>
	<path class="st0" d="M61.1,10.9l0.4-0.1c1.4-0.3,2.3-0.4,2.9-0.4c0.4,0,0.6,0.2,0.6,0.5c0,0.2-0.1,0.3-0.2,0.4
		c-0.1,0-0.3,0.1-0.5,0.1c-1.6,0.1-2.8,0.3-3.7,0.6c-0.3,0.5-0.8,1.4-1.4,2.7c-0.4,0.8-0.6,1.5-0.9,2.2c0.1,0,0.3-0.1,0.4-0.1
		c0.9-0.3,1.6-0.5,2-0.6c0.6-0.1,1.1-0.2,1.6-0.2c0.3,0,0.6,0,0.7,0.1c0.1,0.1,0.2,0.2,0.2,0.4c0,0.2-0.1,0.3-0.3,0.4
		c-0.1,0-0.3,0-0.6,0c-1.6,0.1-3.1,0.5-4.4,1.2c-0.2,0.1-0.3,0.1-0.4,0.1c-0.2,0-0.3-0.1-0.5-0.3C57,17.8,57,17.7,57,17.5
		c0-0.2,0.2-0.7,0.6-1.7c0.6-1.5,1.4-3.1,2.4-4.9c0.3-0.5,0.9-1.4,1.7-2.7c0.2-0.3,0.4-0.6,0.6-0.9c-0.2-0.1-0.4-0.2-0.4-0.5
		c0-0.2,0.1-0.3,0.3-0.4C62.5,6.3,63.1,6.1,64,6c1.4-0.2,2.5-0.3,3.5-0.3c0.5,0,0.8,0.1,0.8,0.4c0,0.2-0.1,0.4-0.3,0.5
		c-0.1,0.1-0.2,0.1-0.4,0.1c0,0-0.1,0-0.2,0c-0.1,0-0.2,0-0.3,0c-0.4,0-1.1,0-1.9,0.1c-0.7,0.1-1.4,0.2-1.9,0.4
		c0.1,0.1,0.1,0.2,0.1,0.2c0,0.1-0.1,0.3-0.4,0.7l-0.4,0.7C61.8,9.7,61.4,10.4,61.1,10.9z"/>
	<path class="st0" d="M66.9,16.2c-0.2,0.4-0.4,0.7-0.6,0.9c-0.4,0.5-0.8,0.7-1.2,0.7c-0.3,0-0.6-0.2-0.8-0.5
		c-0.1-0.2-0.2-0.4-0.2-0.7c0-0.7,0.2-1.4,0.6-2.3c0.5-0.9,1.1-1.6,1.7-2.1c0.4-0.3,0.9-0.5,1.3-0.5c0.3,0,0.5,0.1,0.6,0.2
		c0.1,0.1,0.2,0.3,0.2,0.5c0,0.1-0.1,0.3-0.2,0.6c0.1,0.1,0.1,0.2,0.1,0.3c0,0.1-0.1,0.3-0.3,0.6c-0.2,0.3-0.4,0.7-0.5,1.2
		c-0.2,0.5-0.3,1-0.3,1.3c0,0.3,0.1,0.5,0.2,0.6c0,0,0.2,0.1,0.4,0.2c0.2,0.1,0.2,0.2,0.2,0.4c0,0.1,0,0.2-0.1,0.3
		c-0.1,0.1-0.2,0.1-0.3,0.1c-0.3,0-0.6-0.1-0.9-0.4c-0.2-0.2-0.3-0.5-0.3-0.9C66.8,16.7,66.8,16.5,66.9,16.2z M68,13.2
		c-0.1-0.1-0.2-0.2-0.2-0.3c-0.1-0.1-0.2-0.1-0.3-0.1c-0.5,0-1,0.4-1.5,1.2c-0.6,0.9-0.9,1.7-0.9,2.3c0,0.2,0,0.3,0.1,0.4
		s0.1,0.1,0.3,0.1c0.3,0,0.6-0.3,1-0.9c0.2-0.3,0.5-0.9,0.8-1.5c0.2-0.4,0.4-0.7,0.5-0.9C67.8,13.4,67.9,13.3,68,13.2z"/>
	<path class="st0" d="M73.3,11.6c0.4,0,0.7,0.1,0.9,0.2c0.2,0.1,0.3,0.3,0.3,0.6c0,0.4-0.1,0.7-0.4,1.1c-0.3,0.3-0.6,0.6-1.2,0.8
		c-0.3,0.1-0.5,0.2-0.7,0.2c-0.3,0-0.4-0.1-0.4-0.3c0-0.2,0.1-0.3,0.2-0.4c0,0,0.2-0.1,0.6-0.2c0.2,0,0.4-0.2,0.6-0.3
		c0.2-0.1,0.3-0.3,0.3-0.5c0-0.1,0-0.2-0.1-0.3c-0.1-0.1-0.2-0.1-0.3-0.1c-0.4,0-0.8,0.1-1.2,0.4c-0.5,0.3-0.8,0.7-0.8,1.2
		c0,0.3,0.2,0.7,0.5,1.2c0.4,0.5,0.5,1,0.5,1.3c0,0.5-0.2,1-0.7,1.3c-0.3,0.2-0.6,0.3-1,0.3c-0.6,0-1-0.2-1.4-0.6
		c-0.2-0.3-0.3-0.7-0.3-1.1c0-0.5,0.1-0.9,0.4-1.2c0.2-0.2,0.3-0.3,0.5-0.3c0.2,0,0.2,0.1,0.2,0.2c0,0,0,0.1-0.1,0.2
		c-0.1,0.3-0.2,0.6-0.2,0.9c0,0.3,0.1,0.6,0.3,0.8c0.2,0.2,0.4,0.3,0.7,0.3c0.2,0,0.4-0.1,0.6-0.2c0.1-0.1,0.2-0.3,0.2-0.5
		c0-0.3-0.1-0.6-0.4-1c-0.4-0.6-0.6-1.1-0.6-1.5c0-0.6,0.3-1.2,1-1.6C71.9,11.8,72.6,11.6,73.3,11.6z"/>
	<path class="st0" d="M76.3,12.2c0.1,0,0.2,0,0.3,0.1c0,0.1,0.1,0.1,0.1,0.2c0,0.1-0.1,0.3-0.3,0.6c-0.6,1-1.1,1.8-1.4,2.5
		c-0.3,0.7-0.5,1.3-0.8,2c-0.1,0.3-0.3,0.5-0.5,0.5c-0.1,0-0.2,0-0.3-0.1c-0.1-0.1-0.1-0.2-0.1-0.3c0-0.2,0.2-0.8,0.6-1.9
		c0.3-0.8,0.8-1.7,1.5-2.7c0.2-0.3,0.4-0.5,0.5-0.7C76.1,12.3,76.2,12.2,76.3,12.2z M78.1,8.8c0.3,0,0.4,0.1,0.4,0.4
		c0,0.3-0.1,0.5-0.4,0.9c-0.3,0.3-0.5,0.5-0.8,0.5c-0.1,0-0.2,0-0.3-0.1c-0.1-0.1-0.1-0.2-0.1-0.3c0-0.3,0.2-0.6,0.5-0.9
		C77.7,8.9,77.9,8.8,78.1,8.8z"/>
	<path class="st0" d="M77.1,16v0.2c0,0.1,0,0.3,0.1,0.4c0.2,0.2,0.4,0.3,0.8,0.3c0.8,0,1.7-0.6,2.7-1.8c0.2-0.2,0.3-0.3,0.5-0.3
		c0.1,0,0.1,0,0.2,0.1c0,0,0.1,0.1,0.1,0.1c0,0.2-0.3,0.6-0.9,1.2c-0.5,0.5-1,0.8-1.5,1.1c-0.5,0.3-1,0.4-1.5,0.4
		c-0.5,0-0.8-0.2-1.1-0.5c-0.2-0.2-0.3-0.5-0.3-0.9c0-1,0.5-2.1,1.5-3.1c0.8-0.8,1.5-1.2,2.1-1.2c0.2,0,0.3,0,0.4,0.1
		c0.2,0.1,0.2,0.3,0.2,0.5c0,0.3-0.2,0.7-0.5,1.2C79.3,14.9,78.4,15.6,77.1,16z M77.3,15.3c0.4-0.1,0.8-0.3,1-0.5
		c0.4-0.3,0.8-0.7,1-1.1c0.1-0.1,0.1-0.3,0.1-0.4c0-0.1-0.1-0.2-0.2-0.2c-0.2,0-0.4,0.1-0.7,0.4C78.1,13.8,77.7,14.5,77.3,15.3z"/>
	<path class="st0" d="M83.3,14.7c0.6-0.6,1.3-1.3,2.1-1.9c0.3-0.2,0.6-0.4,0.9-0.6c0.2-0.1,0.3-0.1,0.3-0.1c0.1,0,0.2,0.1,0.3,0.2
		c0.1,0.1,0.1,0.1,0.1,0.2c0,0.1-0.1,0.3-0.4,0.5c-0.6,0.5-0.9,0.9-0.9,1.1c0,0.1,0.1,0.2,0.2,0.2c0.3,0,0.7-0.2,1.4-0.7
		c0.1-0.1,0.2-0.1,0.3-0.1c0,0,0.1,0,0.1,0.1c0.1,0.1,0.1,0.1,0.1,0.2c0,0.2-0.3,0.5-0.8,0.9c-0.5,0.4-1.1,0.6-1.5,0.6
		c-0.2,0-0.4-0.1-0.5-0.2c-0.1-0.1-0.2-0.2-0.2-0.5c0-0.2,0.1-0.3,0.2-0.5c-0.5,0.3-1.1,0.9-1.7,1.8c-0.4,0.5-0.8,1.2-1.1,1.9
		c-0.1,0.3-0.3,0.4-0.5,0.4c-0.2,0-0.3-0.1-0.3-0.3c0-0.2,0.2-0.8,0.5-1.7c0.5-1.4,1.1-2.4,1.7-3.2c0.4-0.5,0.7-0.7,0.9-0.7
		c0.1,0,0.2,0,0.2,0.1c0.1,0.1,0.1,0.1,0.1,0.2c0,0.1-0.1,0.2-0.2,0.4c0,0-0.2,0.2-0.5,0.6C83.6,14,83.4,14.4,83.3,14.7z"/>
</g>
</svg>
