<?xml version="1.0" encoding="UTF-8"?>
<svg id="Layer_1" data-name="Layer 1" xmlns="http://www.w3.org/2000/svg" xmlns:xlink="http://www.w3.org/1999/xlink" viewBox="0 0 75.5 40.73">
  <defs>
    <style>
      .cls-1 {
        fill: #a4a7a9;
      }

      .cls-1, .cls-2, .cls-3 {
        stroke-width: 0px;
      }

      .cls-4 {
        opacity: .84;
      }

      .cls-2 {
        fill: none;
      }

      .cls-5 {
        clip-path: url(#clippath);
      }

      .cls-3 {
        fill: #555658;
      }
    </style>
    <clipPath id="clippath">
      <rect class="cls-2" x="31.46" y="27.6" width="1.21" height="10.37"/>
    </clipPath>
  </defs>
  <path class="cls-1" d="m11.31,11.92c-.23.77-.55,1.42-.97,1.95-.42.53-.91.94-1.5,1.23-.58.29-1.22.48-1.91.56v.89c0,.26.02.47.05.63.03.16.1.28.2.36.1.08.23.14.39.17.17.03.38.04.64.04h1.22c.12,0,.23.03.32.08.09.06.14.14.14.25v.7c0,.18-.15.31-.45.38-.3.08-.71.11-1.23.11s-.96-.04-1.34-.11-.71-.22-.97-.42c-.26-.21-.46-.49-.59-.84-.13-.35-.2-.8-.2-1.33v-.93c-.69-.08-1.32-.27-1.89-.57-.57-.3-1.07-.71-1.48-1.23-.41-.52-.74-1.17-.96-1.93-.23-.77-.34-1.67-.34-2.7v-2.67c0-1.14.14-2.13.42-2.95.28-.82.67-1.49,1.17-2.02.5-.52,1.09-.91,1.77-1.16.68-.25,1.43-.37,2.25-.37s1.56.12,2.25.37c.68.25,1.28.63,1.77,1.16.5.52.88,1.2,1.16,2.02.28.82.42,1.8.42,2.95v2.67c0,1.04-.11,1.94-.34,2.71m-1.58-5.38c0-.87-.09-1.61-.26-2.21-.17-.61-.42-1.1-.73-1.49-.32-.39-.7-.67-1.16-.84-.45-.17-.96-.26-1.53-.26s-1.07.09-1.53.26c-.45.17-.84.45-1.16.84-.32.39-.57.88-.74,1.49-.17.61-.26,1.35-.26,2.21v2.67c0,.87.09,1.61.26,2.21.17.61.42,1.11.74,1.49.32.39.71.67,1.16.84.45.17.96.26,1.53.26s1.07-.09,1.53-.26c.45-.17.84-.45,1.16-.84.31-.38.56-.88.73-1.49.17-.61.26-1.34.26-2.21v-2.67Z"/>
  <path class="cls-1" d="m25,15.29c0,.18-.09.27-.27.27h-1.32c-.12,0-.22-.01-.3-.03-.08-.02-.15-.1-.24-.24l-3.7-6.17h-.54c-.35,0-.67,0-.98,0-.31,0-.74-.02-1.29-.05v6.08c0,.11-.03.21-.1.29-.07.08-.16.12-.27.12h-1.12c-.11,0-.2-.04-.27-.12-.07-.08-.1-.18-.1-.29V.66c0-.15.04-.26.1-.32.07-.06.2-.11.39-.14.22-.03.48-.05.78-.07.3-.02.61-.04.93-.05.32-.01.65-.02.98-.03.33,0,.65-.01.95-.01.81,0,1.58.08,2.29.23.71.15,1.32.4,1.84.75.52.34.92.8,1.22,1.36.3.57.45,1.27.45,2.11v.15c0,.58-.08,1.1-.24,1.56-.16.46-.38.86-.67,1.21-.29.35-.63.63-1.03.87-.4.23-.83.41-1.3.54l3.77,6.29c.04.05.06.12.06.18m-2.44-10.79c0-1.04-.33-1.76-.99-2.16-.66-.4-1.64-.6-2.94-.6h-.56c-.21,0-.42,0-.63.01-.21,0-.42.01-.61.02-.19,0-.35.02-.48.03v5.69c.45.02.89.03,1.3.03.41,0,.74.01.97.01.63,0,1.19-.05,1.68-.13.49-.09.9-.25,1.23-.47.33-.22.58-.52.76-.89.17-.37.26-.84.26-1.39v-.14Z"/>
  <path class="cls-1" d="m41.34,15.3c-.08.06-.18.11-.29.13-.22.04-.44.08-.66.11-.22.03-.46.06-.72.08-.26.02-.56.04-.89.05-.33.02-.72.02-1.16.02-.63,0-1.28-.1-1.92-.29-.65-.19-1.23-.54-1.76-1.03-.53-.49-.95-1.14-1.28-1.96-.33-.82-.5-1.86-.5-3.11v-2.88c0-1.27.17-2.31.5-3.13.33-.82.76-1.47,1.28-1.95.52-.48,1.11-.82,1.76-1.01.65-.19,1.29-.29,1.92-.29s1.29.04,1.89.11c.6.07,1.13.15,1.58.22.22.03.33.12.33.27v1.06c0,.07-.01.13-.04.17-.03.04-.1.06-.21.06h-.06c-.18-.01-.41-.03-.68-.05-.28-.02-.57-.04-.88-.06-.31-.02-.63-.04-.96-.05-.33-.01-.65-.02-.95-.02-.51,0-.98.08-1.42.24-.43.16-.82.42-1.14.79-.33.37-.58.85-.76,1.45-.19.6-.28,1.34-.28,2.22v2.88c0,.87.09,1.6.28,2.2.19.6.44,1.08.76,1.45.32.37.7.63,1.14.8.43.17.91.25,1.42.25.29,0,.6,0,.92-.02.33-.01.64-.03.95-.04.31-.01.6-.03.87-.05.27-.02.49-.04.67-.05h.08c.22,0,.33.11.33.33v.85c0,.13-.04.22-.13.28"/>
  <path class="cls-1" d="m52.14,12.72c-.19.62-.48,1.15-.87,1.59-.39.44-.87.78-1.45,1.03-.58.24-1.25.36-2.01.36s-1.42-.12-2-.36c-.57-.24-1.05-.58-1.44-1.03-.39-.44-.67-.97-.87-1.59-.19-.62-.29-1.31-.29-2.07v-1.57c0-.76.1-1.45.29-2.07.19-.62.48-1.15.87-1.59.39-.44.87-.78,1.44-1.03.57-.24,1.24-.36,2-.36s1.43.12,2.01.36c.58.24,1.06.58,1.45,1.03.39.44.67.97.87,1.59.19.62.29,1.31.29,2.07v1.57c0,.76-.1,1.45-.29,2.07m-1.53-3.64c0-1.06-.22-1.9-.66-2.52-.44-.62-1.15-.93-2.13-.93s-1.67.31-2.11.92c-.44.61-.66,1.46-.66,2.53v1.57c0,1.06.22,1.9.65,2.52.43.62,1.14.93,2.12.93s1.67-.31,2.12-.92c.45-.61.67-1.46.67-2.53v-1.57Z"/>
  <path class="cls-1" d="m63.17,15.2c-.05.08-.17.13-.36.15-.65.13-1.29.21-1.91.27-.63.05-1.26.08-1.89.08-.77,0-1.44-.12-2.01-.36-.57-.24-1.03-.59-1.41-1.03-.37-.45-.65-.99-.83-1.61-.18-.63-.27-1.33-.27-2.1v-1.49c0-1.63.37-2.88,1.12-3.75.74-.88,1.88-1.31,3.39-1.31.32,0,.7.02,1.15.05.45.04.87.09,1.27.15V.39c0-.11.04-.2.11-.28.08-.08.17-.11.28-.11h1.06c.11,0,.2.04.27.11.07.08.1.17.1.28v14.48c0,.14-.02.25-.07.32m-1.75-9.42c-.35-.07-.75-.11-1.22-.13-.47-.01-.87-.02-1.2-.02-1.01,0-1.71.3-2.1.91-.39.61-.59,1.46-.59,2.57v1.49c0,1.13.19,2,.58,2.61.39.61,1.09.91,2.11.91.36,0,.76-.01,1.21-.04.45-.03.85-.06,1.21-.08V5.77Z"/>
  <path class="cls-1" d="m74.44,10.45h-6.93v.29c0,1.23.24,2.1.72,2.61.48.51,1.2.77,2.15.77.61,0,1.25-.02,1.93-.06.68-.04,1.26-.1,1.75-.17h.1c.08,0,.16.02.23.06.07.04.1.12.1.23v.7c0,.14-.03.25-.08.32-.06.08-.17.13-.33.15-.59.11-1.18.2-1.77.26-.59.06-1.23.09-1.93.09-.59,0-1.17-.08-1.74-.24-.57-.16-1.07-.43-1.5-.81-.43-.38-.79-.88-1.06-1.52-.27-.63-.4-1.43-.4-2.4v-1.86c0-1.49.39-2.67,1.18-3.54.79-.87,1.92-1.3,3.41-1.3.76,0,1.42.11,1.99.34.57.23,1.04.55,1.42.97.38.42.66.93.86,1.53.19.6.29,1.27.29,2v1.12c0,.3-.13.46-.39.46m-1.43-1.57c0-1.17-.23-2.01-.67-2.5-.45-.5-1.13-.74-2.05-.74s-1.59.26-2.07.78c-.48.53-.72,1.34-.72,2.46v.19h5.5v-.19Z"/>
  <g class="cls-4">
    <path class="cls-3" d="m6.32,37.85c-.34.06-.72.1-1.14.15-.42.04-.95.06-1.61.06-.43,0-.86-.08-1.29-.23-.43-.15-.81-.4-1.14-.73-.34-.34-.61-.78-.82-1.32-.21-.55-.32-1.22-.32-2.01v-1.85c0-.84.11-1.53.33-2.08.22-.55.5-.99.86-1.32.35-.33.74-.56,1.18-.7.44-.13.88-.2,1.32-.2.64,0,1.17.02,1.59.06.42.04.76.08,1.03.13.06.01.12.03.17.06.05.03.07.08.07.15v.69c0,.09-.06.14-.18.14h-.06c-.2-.02-.4-.03-.59-.05-.19-.01-.38-.02-.59-.03-.2,0-.42-.01-.66-.01-.23,0-.5,0-.79,0-.32,0-.63.05-.92.14-.29.1-.55.27-.78.51-.23.24-.4.57-.54.97-.14.4-.2.92-.2,1.54v1.84c0,.57.06,1.05.18,1.45.12.4.29.73.5.99.21.26.46.44.74.56.28.11.58.17.9.17.42,0,.78,0,1.06-.03.29-.02.51-.04.68-.06v-3.94c0-.07.02-.14.07-.19.05-.06.11-.09.18-.09h.74c.07,0,.14.03.19.09.05.05.08.12.08.19v4.64c0,.18-.08.28-.25.31"/>
  </g>
  <g class="cls-4">
    <path class="cls-3" d="m14.27,36.08c-.13.41-.32.77-.58,1.06-.26.29-.58.52-.96.68-.39.16-.83.24-1.34.24s-.95-.08-1.33-.24c-.38-.16-.7-.39-.96-.68-.26-.29-.45-.65-.58-1.06-.13-.41-.19-.87-.19-1.38v-1.05c0-.51.06-.97.19-1.38.13-.41.32-.77.58-1.06.26-.3.58-.52.96-.68.38-.16.83-.24,1.33-.24s.95.08,1.34.24c.39.16.71.39.96.68.26.29.45.65.58,1.06.13.41.19.87.19,1.38v1.05c0,.51-.06.97-.19,1.38m-1.02-2.43c0-.71-.15-1.27-.44-1.68-.29-.41-.77-.62-1.42-.62s-1.11.2-1.41.61c-.29.41-.44.97-.44,1.69v1.05c0,.71.14,1.27.43,1.68.29.41.76.62,1.42.62s1.11-.2,1.41-.61c.3-.41.45-.97.45-1.69v-1.05Z"/>
  </g>
  <g class="cls-4">
    <path class="cls-3" d="m21.79,36.08c-.13.41-.32.77-.58,1.06-.26.29-.58.52-.97.68-.39.16-.83.24-1.34.24s-.95-.08-1.33-.24c-.38-.16-.7-.39-.96-.68-.26-.29-.45-.65-.58-1.06-.13-.41-.19-.87-.19-1.38v-1.05c0-.51.06-.97.19-1.38.13-.41.32-.77.58-1.06.26-.3.58-.52.96-.68.38-.16.82-.24,1.33-.24s.95.08,1.34.24c.39.16.71.39.97.68.26.29.45.65.58,1.06.13.41.19.87.19,1.38v1.05c0,.51-.06.97-.19,1.38m-1.02-2.43c0-.71-.15-1.27-.44-1.68s-.77-.62-1.42-.62-1.11.2-1.41.61-.44.97-.44,1.69v1.05c0,.71.14,1.27.43,1.68.29.41.76.62,1.41.62s1.12-.2,1.41-.61c.3-.41.45-.97.45-1.69v-1.05Z"/>
  </g>
  <g class="cls-4">
    <path class="cls-3" d="m29.81,31.23s-.11.06-.18.08l-.5.1c.13.13.24.3.33.53.09.22.14.52.14.9v.11c0,.76-.24,1.35-.73,1.75-.49.41-1.26.61-2.33.61-.37,0-.68-.02-.92-.08-.25-.05-.47-.12-.68-.2-.23.11-.34.27-.34.47,0,.12.03.21.1.28.06.06.17.12.33.17l2.05.53c.34.08.67.17.99.27.32.1.6.23.85.38.25.15.45.34.59.56.15.22.22.49.22.81v.11c0,.66-.24,1.18-.72,1.57-.48.38-1.29.57-2.42.57s-1.9-.2-2.41-.59c-.51-.39-.77-.92-.77-1.61v-.12c0-.39.09-.73.26-1.04.17-.3.38-.54.61-.71l-.1-.04c-.22-.1-.38-.25-.48-.45-.1-.2-.15-.41-.15-.62h0c0-.2.05-.38.14-.57.09-.18.23-.33.43-.44-.21-.2-.37-.43-.48-.69-.11-.26-.16-.56-.16-.91v-.11c0-.3.05-.6.14-.9.1-.3.26-.56.5-.79.23-.23.55-.41.94-.55.4-.14.89-.21,1.48-.21h3.02c.08,0,.16.03.22.09.06.06.1.13.1.21v.36c0,.09-.02.15-.07.19m-1.3,7.25c0-.14-.03-.26-.09-.35-.06-.1-.16-.19-.29-.27s-.31-.16-.52-.23c-.21-.07-.47-.15-.79-.23l-1.56-.4c-.2.18-.37.36-.49.57-.13.2-.19.48-.19.84v.12c0,.19.03.37.1.52.06.16.17.29.32.39.15.11.35.19.61.25.25.06.57.09.96.09s.72-.03.97-.08c.25-.06.44-.13.59-.23.14-.1.24-.22.3-.37.06-.15.08-.32.08-.51v-.11Zm-.13-5.65c0-.21-.03-.41-.08-.59-.05-.18-.15-.33-.29-.46-.14-.13-.33-.23-.56-.31-.24-.08-.54-.12-.92-.12s-.7.04-.94.12c-.24.08-.43.19-.56.33-.13.13-.22.29-.27.47-.05.18-.08.37-.08.56v.11c0,.15.02.3.07.47.05.17.13.32.27.46.13.14.32.25.56.34.24.09.56.14.96.14s.68-.03.92-.1c.24-.07.43-.17.56-.29.14-.13.23-.27.29-.45.06-.18.08-.36.08-.57v-.11Z"/>
  </g>
  <g class="cls-4">
    <g class="cls-5">
      <path class="cls-3" d="m32.6,37.89c-.05.05-.11.08-.18.08h-.72c-.07,0-.13-.03-.18-.08-.05-.06-.07-.12-.07-.19v-9.83c0-.07.02-.14.07-.19.05-.05.1-.08.18-.08h.72c.07,0,.13.03.18.08.05.05.07.11.07.19v9.83c0,.07-.02.14-.07.19"/>
    </g>
  </g>
  <g class="cls-4">
    <path class="cls-3" d="m40.27,34.56h-4.62v.19c0,.82.16,1.4.48,1.74.32.34.8.51,1.43.51.4,0,.83-.01,1.29-.04.46-.03.84-.06,1.16-.11h.07c.06,0,.11.01.15.04.05.03.07.08.07.15v.47c0,.09-.02.16-.06.21-.04.05-.11.09-.22.1-.4.07-.79.13-1.18.17-.39.04-.82.06-1.29.06-.4,0-.78-.05-1.16-.16-.38-.11-.71-.29-1-.54-.29-.25-.52-.59-.7-1.01-.18-.42-.27-.96-.27-1.6v-1.24c0-.99.26-1.78.79-2.36.53-.58,1.28-.87,2.28-.87.51,0,.95.08,1.32.23.38.15.69.37.95.65.25.28.44.62.57,1.02.13.4.19.84.19,1.33v.74c0,.2-.09.3-.26.3m-.95-1.05c0-.78-.15-1.34-.45-1.67-.3-.33-.75-.5-1.36-.5s-1.06.17-1.38.52c-.32.35-.48.9-.48,1.64v.12h3.67v-.12Z"/>
  </g>
  <g class="cls-4">
    <path class="cls-3" d="m54.01,37.89c-.05.05-.12.08-.19.08h-.67c-.07,0-.14-.03-.19-.08-.06-.06-.08-.12-.08-.19v-8.18s0-.04,0-.04c-.02,0-.03.01-.03.03l-1.98,4.08c-.07.14-.15.24-.24.3-.08.06-.21.1-.39.1h-.64c-.18,0-.31-.03-.39-.1-.08-.06-.16-.17-.24-.3l-1.98-4.08s-.02-.03-.03-.03c0,0-.01.01-.01.04v8.18c0,.07-.03.14-.08.19-.05.05-.12.08-.19.08h-.67c-.07,0-.14-.03-.19-.08-.05-.06-.08-.12-.08-.19v-9.57c0-.11.04-.21.12-.28.08-.08.17-.12.28-.12h.89c.13,0,.22.02.28.05.06.03.11.09.16.19l2.29,4.73c.05.1.1.15.17.15s.12-.05.17-.15l2.29-4.73c.05-.09.1-.15.16-.19.06-.03.15-.05.28-.05h.89c.11,0,.2.04.28.12.08.08.12.17.12.28v9.57c0,.07-.03.14-.08.19"/>
  </g>
  <g class="cls-4">
    <path class="cls-3" d="m61.29,37.89c-.06.05-.12.08-.19.08h-.63c-.07,0-.14-.03-.19-.08-.06-.06-.08-.12-.08-.19v-.3c-.33.19-.67.35-1.02.48-.35.13-.72.19-1.1.19-.29,0-.58-.03-.85-.1-.27-.07-.51-.19-.72-.37-.21-.18-.37-.41-.5-.69-.13-.28-.19-.64-.19-1.08v-.17c0-.38.06-.7.17-.98.12-.28.3-.51.57-.7.26-.19.6-.33,1.03-.42.42-.09.94-.14,1.56-.14h1.02v-.55c0-.58-.11-.98-.33-1.21s-.6-.35-1.14-.35c-.45,0-.85.01-1.19.04-.34.02-.65.05-.92.07h-.07c-.07,0-.12-.01-.17-.04-.05-.03-.08-.09-.08-.18v-.48c0-.15.1-.23.29-.26.29-.05.6-.09.93-.12.34-.04.74-.06,1.21-.06.96,0,1.64.23,2.06.68.42.46.63,1.09.63,1.91v4.81c0,.07-.03.14-.08.19m-1.13-3.59h-1.02c-.41,0-.76.03-1.03.08-.28.05-.49.13-.65.23-.16.11-.27.24-.33.41-.06.17-.1.38-.1.63v.17c0,.5.11.83.33,1,.22.17.53.25.94.25.32,0,.63-.05.92-.14.29-.09.61-.23.94-.41v-2.22Z"/>
  </g>
  <g class="cls-4">
    <path class="cls-3" d="m68.33,37.19c-.5.58-1.25.88-2.26.88-.21,0-.47-.01-.77-.04-.3-.03-.58-.07-.85-.11v2.5c0,.07-.03.13-.08.18-.05.05-.11.08-.19.08h-.7c-.07,0-.13-.02-.18-.08-.05-.05-.07-.11-.07-.18v-9.49c0-.09.02-.16.05-.21.03-.05.11-.08.24-.11.37-.09.78-.17,1.23-.23.45-.06.89-.09,1.31-.09.51,0,.96.08,1.34.24.38.16.69.39.94.68.25.3.43.65.55,1.08.12.42.18.89.18,1.41v.99c0,1.09-.25,1.92-.75,2.5m-.47-3.5c0-.36-.03-.69-.09-.98-.06-.3-.16-.55-.3-.75-.14-.21-.32-.37-.55-.48-.23-.11-.51-.17-.86-.17-.29,0-.59.01-.88.04-.29.03-.54.06-.73.1v5.46c.23.05.5.08.81.1.31.02.58.03.8.03.34,0,.62-.05.86-.16.23-.11.41-.26.55-.46.14-.2.24-.45.3-.74.06-.29.09-.62.09-.99v-.99Z"/>
  </g>
  <g class="cls-4">
    <path class="cls-3" d="m75.5,36.06c0,.7-.24,1.21-.71,1.52-.47.32-1.1.48-1.87.48-.13,0-.28,0-.46,0-.18,0-.37-.02-.57-.03-.2-.02-.4-.04-.6-.07-.2-.03-.39-.06-.55-.1-.19-.05-.29-.14-.29-.28v-.48c0-.06.02-.12.07-.15.05-.04.11-.06.18-.06h.06c.16.02.35.04.54.06.2.02.4.03.6.05.2.01.39.02.57.03.18,0,.33.01.45.01.45,0,.79-.07,1.02-.21.23-.14.34-.4.34-.77,0-.21-.07-.39-.22-.55-.15-.16-.42-.35-.81-.59l-1.39-.83c-.42-.26-.76-.54-1.02-.85-.26-.31-.39-.68-.39-1.12,0-.36.06-.65.19-.89.13-.23.3-.42.52-.57.22-.14.48-.24.79-.3.3-.06.63-.08.99-.08.38,0,.76.02,1.12.05.36.03.71.08,1.03.13.18.03.26.12.26.28v.45c0,.16-.08.24-.24.24h-.04c-.24-.02-.56-.04-.96-.07-.4-.03-.79-.04-1.18-.04s-.7.05-.93.14-.35.31-.35.66c0,.21.08.39.24.55.15.15.39.32.72.5l1.37.81c.57.34.96.67,1.19.99.22.32.33.69.33,1.09"/>
  </g>
</svg>