<?xml version="1.0" encoding="UTF-8"?>
<svg id="Layer_1" data-name="Layer 1" xmlns="http://www.w3.org/2000/svg" viewBox="0 0 138.84 131.26">
  <defs>
    <style>
      .cls-1 {
        fill: #0d1831;
        stroke-width: 0px;
      }
    </style>
  </defs>
  <g>
    <path class="cls-1" d="m44.2,38.41v-1.38l1.77-1.71c4.25-4.05,6.17-6.2,6.2-8.71,0-1.69-.82-3.25-3.3-3.25-1.51,0-2.77.77-3.53,1.41l-.72-1.59c1.15-.97,2.79-1.69,4.71-1.69,3.58,0,5.1,2.46,5.1,4.84,0,3.07-2.23,5.56-5.74,8.94l-1.33,1.23v.05h7.48v1.87h-10.63Z"/>
    <path class="cls-1" d="m64.29,38.41v-4.53h-7.73v-1.48l7.42-10.63h2.43v10.34h2.33v1.77h-2.33v4.53h-2.12Zm0-6.3v-5.56c0-.87.03-1.74.08-2.61h-.08c-.51.97-.92,1.69-1.38,2.46l-4.07,5.66v.05h5.45Z"/>
    <path class="cls-1" d="m69.28,39.44l7.14-18.56h1.74l-7.17,18.56h-1.72Z"/>
    <path class="cls-1" d="m90.05,21.77v1.49l-7.25,15.16h-2.33l7.22-14.72v-.05h-8.14v-1.87h10.5Z"/>
  </g>
  <g>
    <path class="cls-1" d="m50.88,47.75c.33.21.82.38,1.33.38.76,0,1.2-.4,1.2-.98,0-.54-.31-.84-1.08-1.14-.94-.33-1.52-.82-1.52-1.63,0-.9.74-1.56,1.86-1.56.59,0,1.02.14,1.27.28l-.2.61c-.19-.1-.57-.27-1.09-.27-.78,0-1.08.47-1.08.86,0,.54.35.8,1.14,1.11.97.38,1.47.84,1.47,1.69,0,.89-.66,1.65-2.01,1.65-.55,0-1.16-.16-1.47-.37l.19-.62Z"/>
    <path class="cls-1" d="m55.93,42.9v3.4c0,1.29.57,1.83,1.34,1.83.85,0,1.4-.56,1.4-1.83v-3.4h.75v3.35c0,1.77-.93,2.49-2.17,2.49-1.18,0-2.06-.67-2.06-2.46v-3.39h.75Z"/>
    <path class="cls-1" d="m60.71,42.97c.36-.06.83-.11,1.42-.11.73,0,1.27.17,1.61.48.32.27.5.69.5,1.2s-.15.93-.44,1.23c-.39.42-1.03.63-1.76.63-.22,0-.43,0-.6-.05v2.3h-.74v-5.68Zm.74,2.77c.16.04.37.06.61.06.9,0,1.44-.44,1.44-1.23s-.54-1.13-1.36-1.13c-.32,0-.57.03-.7.06v2.24Z"/>
    <path class="cls-1" d="m65.25,42.97c.36-.06.83-.11,1.42-.11.73,0,1.27.17,1.61.48.32.27.5.69.5,1.2s-.15.93-.44,1.23c-.39.42-1.03.63-1.76.63-.22,0-.43,0-.6-.05v2.3h-.74v-5.68Zm.74,2.77c.16.04.37.06.61.06.9,0,1.44-.44,1.44-1.23s-.54-1.13-1.36-1.13c-.32,0-.57.03-.7.06v2.24Z"/>
    <path class="cls-1" d="m74.7,45.72c0,1.98-1.2,3.03-2.67,3.03s-2.58-1.18-2.58-2.92c0-1.83,1.13-3.02,2.67-3.02s2.58,1.2,2.58,2.91Zm-4.46.09c0,1.23.67,2.33,1.83,2.33s1.84-1.08,1.84-2.39c0-1.14-.6-2.34-1.83-2.34s-1.84,1.13-1.84,2.4Z"/>
    <path class="cls-1" d="m75.67,42.98c.38-.08.91-.12,1.42-.12.79,0,1.31.15,1.66.47.29.26.45.65.45,1.09,0,.76-.48,1.26-1.08,1.47v.03c.44.15.71.56.84,1.16.19.8.32,1.36.44,1.58h-.77c-.09-.16-.22-.66-.38-1.37-.17-.79-.48-1.09-1.15-1.12h-.7v2.49h-.74v-5.67Zm.74,2.62h.76c.79,0,1.3-.43,1.3-1.09,0-.74-.54-1.07-1.32-1.07-.36,0-.61.03-.73.07v2.1Z"/>
    <path class="cls-1" d="m81.43,43.53h-1.75v-.63h4.26v.63h-1.76v5.12h-.75v-5.12Z"/>
  </g>
  <g>
    <path class="cls-1" d="m130.5,64.31c-1.19-21.83-10.53-39.07-29.19-50.79C81.02.76,55.01,1.49,35.05,15.07c-9.88,6.72-17.09,15.68-21.82,26.64-3.64,8.44-4.97,18.04-4.69,22.51,1.78-.79,3.58-1.65,5.43-2.39.91-.36,1.91-.54,2.88-.71,1.54-.28,3,.9,3.12,2.46.02.23.02.47.02.71,0,11.07,0,22.14-.02,33.21,0,.63-.12,1.32-.4,1.88-.55,1.09-1.7,1.49-3.12,1.24-8.6-1.49-15.31-8.63-16.32-17.38-.59-5.1.64-9.74,3.54-13.96.23-.33.37-.81.35-1.21-.55-17.05,4.67-32.13,15.67-45.12C29.43,11.47,41.8,4.34,56.5,1.3,62.68.02,68.93-.29,75.23.26c26.9,2.34,50.54,21.52,57.53,48.79,1.61,6.27,2.34,12.63,2.05,19.11-.02.36.11.78.31,1.07,8.24,11.79,2.2,27.81-11.77,31.16-.65.16-1.34.27-2.01.26-1.26-.02-2.32-1.06-2.46-2.32-.02-.21-.03-.42-.03-.63,0-11.2,0-22.4,0-33.6,0-1.62.87-2.79,2.31-2.98.58-.07,1.2.05,1.78.17,2.45.51,4.73,1.45,6.83,2.82.15.1.31.18.47.27.02,0,.05-.01.28-.08"/>
    <path class="cls-1" d="m68.25,122.69c-8.39-.12-16.44-1.73-24.15-5.05-.49-.21-.73-.4-.6-1.01,1.61-7.56,4.85-14.21,10.72-19.4,4.13-3.64,8.94-5.77,14.48-5.95,5.61-.19,10.58,1.66,14.93,5.15,5.88,4.71,9.32,10.96,11.21,18.14.46,1.74.44,1.75-1.18,2.49-6.32,2.89-12.93,4.7-19.87,5.27-1.85.15-3.7.24-5.55.36"/>
    <path class="cls-1" d="m82.5,75.35c-.04,2.94-1.35,6.79-4.4,9.92-5.17,5.31-13.07,5.03-17.92-.58-5.18-6-5.15-15.6.06-21.56,5.52-6.3,14.72-5.6,19.5,1.5,1.89,2.81,2.77,5.94,2.75,10.71"/>
    <path class="cls-1" d="m68.64,131.26c-10.5-.05-20.06-2.25-29.12-6.62-.38-.18-.84-.27-1.26-.26-.87.02-1.65-.13-2.38-.63-2.13-1.47-4.29-2.89-6.39-4.4-1.74-1.24-2.09-3.37-.93-4.95,1.2-1.62,3.3-1.85,5.08-.59,1.96,1.39,3.95,2.75,5.95,4.08.85.56,1.41,1.29,1.71,2.26.07.23.28.5.49.61,5.15,2.5,10.55,4.21,16.2,5.18,4.66.8,9.36,1.05,14.07.74,11.39-.74,21.79-4.38,31.16-10.93,4.38-3.06,8.26-6.66,11.73-10.72.45-.52,1.1-.99,1.75-1.2.9-.3,1.8.21,2.27.99.52.87.48,1.83-.32,2.67-2.57,2.68-5.03,5.49-7.82,7.92-8.56,7.47-18.49,12.26-29.62,14.54-4.29.88-8.63,1.28-12.57,1.3"/>
    <path class="cls-1" d="m21.86,80.93c0-6.23,0-12.46,0-18.68,0-2.29,1.81-3.82,3.97-3.39,1.45.29,2.5,1.58,2.58,3.15.02.36,0,.73,0,1.1,0,12.09,0,24.18,0,36.27,0,1.68-.77,2.91-2.13,3.42-2.17.82-4.41-.77-4.42-3.18-.02-3.38,0-6.75,0-10.13v-8.56"/>
    <path class="cls-1" d="m110.42,80.86c0-6.2,0-12.4,0-18.61,0-2.3,1.8-3.83,3.96-3.4,1.42.28,2.46,1.52,2.58,3.07.01.13,0,.26,0,.39,0,12.38,0,24.76,0,37.13,0,1.62-.78,2.84-2.12,3.35-2.17.83-4.42-.76-4.43-3.17-.02-3.64,0-7.27,0-10.91v-7.85"/>
  </g>
</svg>