<?xml version="1.0" encoding="UTF-8"?>
<svg id="Layer_1" data-name="Layer 1" xmlns="http://www.w3.org/2000/svg" viewBox="0 0 39.66 56.79">
  <defs>
    <style>
      .cls-1 {
        fill: #62bc46;
        stroke-width: 0px;
      }
    </style>
  </defs>
  <path class="cls-1" d="m19.82.66C9.29.66.76,9.08.76,19.47s8.53,36.67,19.07,36.67,19.07-26.28,19.07-36.67S30.35.66,19.82.66Zm.33,31.43c-.07,0-.14,0-.2-.01v10.11c1.89.13,3.38,1.68,3.38,3.61s-1.63,3.64-3.64,3.64-3.64-1.62-3.64-3.64c0-1.92,1.5-3.48,3.39-3.61v-10.13c-6.37-.37-11.43-5.64-11.43-12.1s5.43-12.14,12.14-12.14,12.12,5.43,12.12,12.14-5.43,12.14-12.12,12.14Z"/>
</svg>