<?xml version="1.0" encoding="UTF-8"?>
<svg id="Layer_1" data-name="Layer 1" xmlns="http://www.w3.org/2000/svg" viewBox="0 0 61.97 33.02">
  <defs>
    <style>
      .cls-1 {
        fill: #231f20;
        stroke-width: 0px;
      }
    </style>
  </defs>
  <path class="cls-1" d="m31,33.02H0V2.02c3.22,3.22,6.45,6.45,9.68,9.68C14.46,5.56,20.6,1.69,28.27.41c6.06-1.01,11.89-.17,17.42,2.52,10.72,5.21,15.68,15.35,16.28,23.32-.13-.65-.27-1.53-.49-2.39-.79-3.11-2.21-5.91-4.27-8.37-2.83-3.38-6.36-5.68-10.6-6.9-1.61-.46-3.26-.73-4.94-.79-5.43-.19-10.27,1.42-14.47,4.87-3.14,2.57-5.34,5.8-6.66,9.64-.05.13,0,.2.08.29,3.42,3.42,6.84,6.84,10.27,10.26.05.05.12.07.18.1-.02.02-.04.04-.06.06"/>
</svg>