<?xml version="1.0" encoding="utf-8"?>
<!-- Generator: Adobe Illustrator 28.0.0, SVG Export Plug-In . SVG Version: 6.00 Build 0)  -->
<svg version="1.1" id="Layer_1" xmlns="http://www.w3.org/2000/svg" xmlns:xlink="http://www.w3.org/1999/xlink" x="0px" y="0px"
	 viewBox="0 0 612 296.1" style="enable-background:new 0 0 612 296.1;" xml:space="preserve">
<style type="text/css">
	.st0{fill:#95989B;}
	.st1{fill:#FFFFFF;}
	.st2{fill:#44BEEE;}
	.st3{fill:url(#Path_3683_00000069397783101093046090000013111759956922856109_);}
	.st4{fill:url(#Path_3684_00000047773291943224234140000003625223288181268107_);}
	.st5{fill:url(#Path_3685_00000098932662306682257430000007951358287290265488_);}
	.st6{enable-background:new    ;}
	.st7{fill:#466997;}
	.st8{fill:#231F20;}
	.st9{fill:#12294C;}
	.st10{clip-path:url(#SVGID_00000155135049753029979390000011505938177705078440_);}
</style>
<g id="Group_5217_00000179637746624037787260000010096079858778368918_" transform="translate(-366.512 -236.472)">
	<g id="Group_5215_00000150825353360435173380000015674672883444456092_">
		<g id="Group_5211_00000157269710254467898390000000836491418796873883_">
			<path id="Rectangle_1616_00000057132286161162619000000000528734465431658383_" d="M851.1,437.7h59.1c1.2,0,2.2,1,2.2,2.2v14
				c0,1.2-1,2.2-2.2,2.2h-59.1c-1.2,0-2.2-1-2.2-2.2v-14C849,438.7,849.9,437.7,851.1,437.7z"/>
			<path id="Path_3659_00000143581755715387387480000016293993760933424000_" class="st0" d="M910.3,456.3h-59.1
				c-1.3,0-2.4-1.1-2.4-2.4v-14c0-1.3,1.1-2.4,2.4-2.4h59.1c1.3,0,2.4,1.1,2.4,2.4v14C912.7,455.2,911.6,456.3,910.3,456.3z
				 M851.1,438c-1.1,0-1.9,0.9-1.9,1.9v14c0,1.1,0.9,1.9,1.9,1.9h59.1c1.1,0,1.9-0.9,1.9-1.9v-14c0-1.1-0.9-1.9-1.9-1.9H851.1z"/>
		</g>
		<g id="Group_5214_00000066493167001042187570000001092539391499527312_">
			<g id="Group_5212_00000138561777158324752370000016409250818086696122_">
				<path id="Path_3660_00000020381312604553473170000005342000307839634079_" class="st1" d="M863,446.7c0-0.9,0.5-1.8,1.3-2.3
					c-0.5-0.7-1.3-1.2-2.2-1.2c-0.9-0.1-1.8,0.6-2.3,0.6s-1.2-0.5-2-0.5c-1,0-2,0.6-2.5,1.5c-1.1,1.9-0.3,4.6,0.8,6.1
					c0.5,0.7,1.1,1.6,1.9,1.5c0.8,0,1.1-0.5,2-0.5s1.2,0.5,2,0.5s1.3-0.7,1.8-1.5c0.4-0.5,0.7-1.1,0.8-1.7
					C863.6,448.7,863,447.8,863,446.7"/>
				<path id="Path_3661_00000016782592535170261080000011801331011385750450_" class="st1" d="M861.5,442.2c0.5-0.5,0.7-1.2,0.6-1.9
					c-0.7,0.1-1.3,0.4-1.8,0.9s-0.7,1.2-0.6,1.9C860.4,443.1,861,442.8,861.5,442.2"/>
			</g>
			<g id="Group_5213_00000019662113946922011030000005822340288097681047_">
				<path id="Path_3662_00000061463700568083672600000011351819611926293677_" class="st1" d="M874.2,449.8h-1.1l-0.6-1.9h-2
					l-0.6,1.9h-1l2-6.3h1.3L874.2,449.8z M872.3,447.1l-0.5-1.6c-0.1-0.2-0.2-0.6-0.3-1.2l0,0c-0.1,0.3-0.2,0.7-0.3,1.2l-0.5,1.6
					H872.3z"/>
				<path id="Path_3663_00000071530871438247008410000012112796563640733074_" class="st1" d="M879.4,447.4c0,0.7-0.2,1.3-0.6,1.8
					c-0.4,0.4-0.9,0.6-1.4,0.6s-1-0.2-1.3-0.6l0,0v2.4h-1v-4.9c0-0.5,0-1,0-1.5h0.9l0.1,0.7l0,0c0.5-0.8,1.7-1.1,2.5-0.5
					c0.1,0.1,0.3,0.2,0.4,0.3C879.2,446.2,879.4,446.8,879.4,447.4 M878.3,447.5c0-0.4-0.1-0.8-0.3-1.1c-0.2-0.3-0.5-0.5-0.9-0.4
					c-0.2,0-0.5,0.1-0.7,0.2c-0.2,0.2-0.3,0.4-0.4,0.7c0,0.1,0,0.2,0,0.3v0.8c0,0.3,0.1,0.6,0.3,0.8c0.2,0.2,0.5,0.4,0.8,0.3
					c0.4,0,0.7-0.2,0.9-0.4C878.3,448.3,878.4,447.9,878.3,447.5"/>
				<path id="Path_3664_00000099631873492542050560000017858541224816389550_" class="st1" d="M884.6,447.4c0,0.7-0.2,1.3-0.6,1.8
					c-0.4,0.4-0.9,0.6-1.4,0.6s-1-0.2-1.3-0.6l0,0v2.4h-1v-4.9c0-0.5,0-1,0-1.5h0.9l0.1,0.7l0,0c0.5-0.8,1.7-1.1,2.5-0.5
					c0.1,0.1,0.3,0.2,0.4,0.3C884.4,446.2,884.6,446.8,884.6,447.4 M883.6,447.5c0-0.4-0.1-0.8-0.3-1.1c-0.2-0.3-0.5-0.5-0.9-0.4
					c-0.2,0-0.5,0.1-0.7,0.2c-0.2,0.2-0.3,0.4-0.4,0.7c0,0.1,0,0.2,0,0.3v0.8c0,0.3,0.1,0.6,0.3,0.8c0.2,0.2,0.5,0.4,0.8,0.3
					c0.4,0,0.7-0.2,0.9-0.4C883.5,448.3,883.6,447.9,883.6,447.5"/>
				<path id="Path_3665_00000088096355641243996810000013275745873054662536_" class="st1" d="M890.4,448c0,0.5-0.2,1-0.6,1.3
					c-0.5,0.4-1.1,0.6-1.7,0.6c-0.6,0-1.1-0.1-1.6-0.4l0.2-0.8c0.4,0.3,0.9,0.4,1.5,0.4c0.3,0,0.6-0.1,0.9-0.3
					c0.2-0.2,0.3-0.4,0.3-0.7c0-0.2-0.1-0.5-0.3-0.6c-0.3-0.2-0.5-0.4-0.9-0.5c-1.1-0.4-1.7-1-1.7-1.8c0-0.5,0.2-1,0.6-1.3
					c0.4-0.3,1-0.5,1.5-0.5s1,0.1,1.4,0.3l-0.3,0.8c-0.4-0.2-0.8-0.3-1.2-0.3c-0.3,0-0.6,0.1-0.8,0.3c-0.2,0.1-0.3,0.4-0.3,0.6
					s0.1,0.5,0.3,0.6c0.3,0.2,0.6,0.4,0.9,0.5c0.5,0.2,0.9,0.4,1.2,0.8C890.3,447.2,890.5,447.6,890.4,448"/>
				<path id="Path_3666_00000011753700715924810410000006996830038036446635_" class="st1" d="M893.8,446h-1.1v2.2
					c0,0.6,0.2,0.8,0.6,0.8c0.2,0,0.3,0,0.4,0v0.8c-0.3,0.1-0.5,0.1-0.8,0.1s-0.7-0.1-0.9-0.4c-0.3-0.4-0.4-0.8-0.3-1.2V446H891
					v-0.8h0.7v-0.8l1-0.3v1.1h1.1V446z"/>
				<path id="Path_3667_00000006704152778844483960000008376637882440655794_" class="st1" d="M898.8,447.5c0,0.6-0.2,1.2-0.6,1.7
					c-0.4,0.5-1,0.7-1.7,0.7c-0.6,0-1.2-0.2-1.6-0.7c-0.4-0.5-0.6-1.1-0.6-1.7s0.2-1.3,0.6-1.7c0.4-0.5,1-0.7,1.6-0.7
					s1.2,0.2,1.6,0.7C898.6,446.3,898.8,446.9,898.8,447.5 M897.8,447.5c0-0.4-0.1-0.8-0.3-1.1c-0.2-0.3-0.5-0.6-0.9-0.5
					c-0.4,0-0.7,0.2-0.9,0.5s-0.3,0.7-0.3,1.1s0.1,0.8,0.3,1.1c0.2,0.3,0.5,0.5,0.9,0.5s0.7-0.2,0.9-0.6
					C897.7,448.3,897.8,447.9,897.8,447.5"/>
				<path id="Path_3668_00000039847501476895325470000010533870455225696927_" class="st1" d="M902.1,446.1c-0.1,0-0.2,0-0.3,0
					c-0.3,0-0.6,0.1-0.8,0.4s-0.3,0.6-0.3,0.9v2.4h-1v-3.1c0-0.5,0-1,0-1.4h0.9v0.9l0,0c0.1-0.3,0.3-0.5,0.5-0.7s0.5-0.2,0.7-0.2
					c0.1,0,0.2,0,0.3,0L902.1,446.1z"/>
				<path id="Path_3669_00000101801035728022119350000004108437276529321113_" class="st1" d="M906.6,447.3c0,0.2,0,0.3,0,0.5h-3
					c0,0.4,0.1,0.8,0.4,1c0.3,0.2,0.6,0.3,1,0.3s0.8-0.1,1.2-0.2l0.2,0.7c-0.5,0.2-1,0.3-1.5,0.3c-0.6,0-1.2-0.2-1.7-0.6
					c-0.4-0.5-0.6-1.1-0.6-1.7s0.2-1.2,0.6-1.7c0.4-0.5,1-0.8,1.6-0.7c0.6,0,1.2,0.2,1.5,0.7C906.5,446.3,906.6,446.8,906.6,447.3
					 M905.6,447c0-0.3-0.1-0.5-0.2-0.8c-0.2-0.3-0.5-0.4-0.8-0.4s-0.6,0.1-0.8,0.4c-0.2,0.2-0.3,0.5-0.3,0.8H905.6z"/>
			</g>
		</g>
	</g>
</g>
<g id="Group_5223_00000026854893125147138030000011570467918808212150_" transform="translate(-366.512 -312.105)">
	<g id="Group_5221_00000103972379702125366720000013340811402136330883_">
		<g id="Group_5218_00000134932604704140905230000014637297398246563208_">
			<path id="Rectangle_1617_00000019666452811017352030000003852335880010704519_" d="M850.9,536.5H910c1.2,0,2.2,1,2.2,2.2v14
				c0,1.2-1,2.2-2.2,2.2h-59.1c-1.2,0-2.2-1-2.2-2.2v-14C848.7,537.4,849.7,536.5,850.9,536.5z"/>
			<path id="Path_3680_00000096026100486354594150000011865394222789901188_" class="st0" d="M910,555h-59.1c-1.3,0-2.4-1.1-2.4-2.4
				v-14c0-1.3,1.1-2.4,2.4-2.4H910c1.3,0,2.4,1.1,2.4,2.4v14C912.4,554,911.4,555,910,555z M850.9,536.7c-1.1,0-1.9,0.9-1.9,1.9v14
				c0,1.1,0.9,1.9,1.9,1.9H910c1.1,0,1.9-0.9,1.9-1.9v-14c0-1.1-0.9-1.9-1.9-1.9H850.9z"/>
		</g>
		<g id="Group_5220_00000139272564363513291080000011107947276979659423_">
			<path id="Path_3681_00000178175703282190073220000014205741639843884432_" class="st1" d="M880.7,544c-1.1,0-2,0.9-2,2s0.9,2,2,2
				s2-0.9,2-2C882.8,544.9,881.9,544,880.7,544C880.8,544,880.8,544,880.7,544z M880.7,547.3c-0.7,0-1.3-0.5-1.3-1.1
				s0.5-1.3,1.1-1.3c0.7,0,1.3,0.5,1.3,1.1v0.1C881.9,546.7,881.4,547.2,880.7,547.3C880.8,547.3,880.7,547.3,880.7,547.3z
				 M876.3,544c-1.1,0-2,0.9-2,2s0.9,2,2,2s2-0.9,2-2C878.4,544.9,877.5,544,876.3,544C876.4,544,876.4,544,876.3,544L876.3,544z
				 M876.3,547.3c-0.7,0-1.3-0.5-1.3-1.1c0-0.7,0.5-1.3,1.1-1.3c0.7,0,1.3,0.5,1.3,1.1v0.1C877.5,546.7,877,547.2,876.3,547.3
				C876.4,547.3,876.3,547.3,876.3,547.3L876.3,547.3z M871.1,544.6v0.9h2c0,0.4-0.2,0.8-0.5,1.1c-0.4,0.4-1,0.6-1.6,0.6
				c-1.3,0-2.3-1-2.2-2.3c0-1.2,1-2.2,2.2-2.2c0.6,0,1.1,0.2,1.5,0.6l0.6-0.6c-0.6-0.6-1.3-0.9-2.1-0.9c-1.7,0-3.1,1.3-3.2,3.1
				s1.3,3.1,3.1,3.2h0.1c0.8,0,1.6-0.3,2.2-0.9c0.5-0.5,0.8-1.3,0.7-2c0-0.2,0-0.4,0-0.5L871.1,544.6z M892.5,545.3
				c-0.2-0.7-0.9-1.3-1.7-1.3c-1.1,0-1.9,0.9-1.9,1.9v0.1c0,1.1,0.8,2,1.9,2c0,0,0,0,0.1,0c0.7,0,1.3-0.3,1.7-0.9l-0.7-0.5
				c-0.2,0.3-0.6,0.6-1,0.6s-0.8-0.2-1-0.6l2.7-1.1L892.5,545.3z M889.8,546c0-0.6,0.4-1.1,1-1.2l0,0c0.3,0,0.6,0.1,0.7,0.4
				L889.8,546z M887.6,547.9h0.9V542h-0.9V547.9z M886.1,544.5L886.1,544.5c-0.3-0.3-0.7-0.5-1.1-0.4c-1.1,0-2,1-1.9,2.1
				c0,1,0.9,1.9,1.9,1.9c0.4,0,0.8-0.2,1.1-0.5l0,0v0.3c0,0.8-0.4,1.2-1.1,1.2c-0.5,0-0.9-0.3-1-0.7l-0.8,0.3c0.3,0.7,1,1.2,1.8,1.2
				c1,0,1.9-0.6,1.9-2.1v-3.6h-0.8L886.1,544.5z M885.1,547.3c-0.7-0.1-1.2-0.6-1.1-1.3c0-0.6,0.5-1.1,1.1-1.1s1.1,0.5,1.1,1.2
				C886.3,546.7,885.8,547.2,885.1,547.3C885.2,547.3,885.1,547.3,885.1,547.3L885.1,547.3z M896.7,542h-2.1v5.9h0.9v-2.2h1.2
				c1,0.1,1.9-0.7,1.9-1.7c0.1-1-0.7-1.9-1.7-1.9C896.8,542,896.7,542,896.7,542L896.7,542z M896.7,544.9h-1.3v-2h1.3
				c0.6,0,1,0.4,1,1C897.7,544.4,897.3,544.9,896.7,544.9L896.7,544.9z M902.1,544c-0.7,0-1.3,0.3-1.6,0.9l0.8,0.3
				c0.2-0.3,0.5-0.5,0.8-0.4c0.5,0,0.9,0.3,0.9,0.8v0.1c-0.3-0.2-0.6-0.2-0.9-0.2c-0.8,0-1.7,0.5-1.7,1.3s0.7,1.3,1.5,1.3
				c0.5,0,0.9-0.2,1.1-0.6l0,0v0.5h0.9v-2.3C903.9,544.6,903.1,544,902.1,544L902.1,544z M902,547.3c-0.3,0-0.7-0.1-0.7-0.5
				c0-0.5,0.5-0.6,0.9-0.6c0.3,0,0.6,0.1,0.8,0.2C903,546.9,902.6,547.3,902,547.3L902,547.3z M907,544.1l-1,2.6l0,0l-1-2.6h-1
				l1.6,3.6l-0.9,2h0.9l2.4-5.6H907z M899.1,547.9h0.9V542h-0.9V547.9z"/>
			<g id="Group_5219_00000170262216997714838810000016474340033641541307_">
				<path id="Path_3682_00000113343175012994541380000003049824786984201149_" class="st2" d="M853.5,539.8
					c-0.2,0.2-0.2,0.4-0.2,0.7v10.4c0,0.2,0.1,0.5,0.2,0.7l0,0l5.9-5.9v-0.1L853.5,539.8L853.5,539.8z"/>
				
					<linearGradient id="Path_3683_00000165214980599185868660000006883295118171228582_" gradientUnits="userSpaceOnUse" x1="776.1868" y1="54.8627" x2="775.4869" y2="54.8627" gradientTransform="matrix(16.3354 0 0 13.747 -11816.1133 -208.547)">
					<stop  offset="0" style="stop-color:#FDD600"/>
					<stop  offset="7.500000e-02" style="stop-color:#FDCD05"/>
					<stop  offset="0.48" style="stop-color:#F9A619"/>
					<stop  offset="0.803" style="stop-color:#F68E1E"/>
					<stop  offset="1" style="stop-color:#F5851F"/>
				</linearGradient>
				
					<path id="Path_3683_00000077314818114387127130000017388548316901116553_" style="fill:url(#Path_3683_00000165214980599185868660000006883295118171228582_);" d="
					M861.3,547.7l-2-2v-0.1l2-2l0,0l2.3,1.3c0.7,0.4,0.7,1,0,1.4L861.3,547.7L861.3,547.7z"/>
				
					<linearGradient id="Path_3684_00000157305742826086975960000000966993497469084848_" gradientUnits="userSpaceOnUse" x1="766.2062" y1="36.2127" x2="765.8056" y2="36.7329" gradientTransform="matrix(26.816 0 0 20.6682 -19686.3359 -201.7037)">
					<stop  offset="0" style="stop-color:#E72A36"/>
					<stop  offset="1" style="stop-color:#B31E5D"/>
				</linearGradient>
				
					<path id="Path_3684_00000183940217938617386580000014232581713973542831_" style="fill:url(#Path_3684_00000157305742826086975960000000966993497469084848_);" d="
					M861.3,547.7l-2-2l-5.9,5.9c0.2,0.2,0.6,0.3,1,0L861.3,547.7"/>
				
					<linearGradient id="Path_3685_00000054968126452122869270000006579634182852501651_" gradientUnits="userSpaceOnUse" x1="765.8024" y1="36.5857" x2="766.1296" y2="37.0104" gradientTransform="matrix(26.817 0 0 20.6687 -19687.0879 -222.3491)">
					<stop  offset="0" style="stop-color:#2D8D5B"/>
					<stop  offset="0.39" style="stop-color:#4DA057"/>
					<stop  offset="0.768" style="stop-color:#66B052"/>
					<stop  offset="1" style="stop-color:#6EB551"/>
				</linearGradient>
				
					<path id="Path_3685_00000039849909460646460860000016950316790934671522_" style="fill:url(#Path_3685_00000054968126452122869270000006579634182852501651_);" d="
					M861.3,543.7l-6.9-3.9c-0.4-0.2-0.8-0.2-1,0l5.9,5.9L861.3,543.7z"/>
			</g>
		</g>
	</g>
</g>
<g class="st6">
	<path class="st7" d="M483.8,121.3c0-0.9,0.6-1.5,1.4-1.5c0.8,0,1.4,0.6,1.4,1.5c0,0.8-0.6,1.5-1.4,1.5
		C484.4,122.8,483.8,122.2,483.8,121.3z"/>
</g>
<g class="st6">
	<path class="st8" d="M495.1,125.1c-0.3,0.2-1,0.3-1.8,0.3c-2,0-3.4-1.2-3.4-3.5c0-2.2,1.5-3.6,3.6-3.6c0.9,0,1.4,0.2,1.6,0.3
		l-0.2,0.7c-0.3-0.2-0.8-0.3-1.4-0.3c-1.6,0-2.7,1-2.7,2.9c0,1.7,1,2.8,2.7,2.8c0.5,0,1.1-0.1,1.5-0.3L495.1,125.1z"/>
	<path class="st8" d="M498.9,125.3l-0.1-0.6h0c-0.3,0.4-0.8,0.7-1.5,0.7c-1,0-1.5-0.7-1.5-1.4c0-1.2,1.1-1.9,3-1.9V122
		c0-0.4-0.1-1.2-1.1-1.2c-0.5,0-0.9,0.1-1.3,0.4l-0.2-0.6c0.4-0.3,1-0.4,1.6-0.4c1.5,0,1.9,1,1.9,2v1.9c0,0.4,0,0.9,0.1,1.2H498.9z
		 M498.8,122.8c-1,0-2.1,0.2-2.1,1.1c0,0.6,0.4,0.9,0.9,0.9c0.6,0,1.1-0.4,1.2-0.8c0-0.1,0.1-0.2,0.1-0.3V122.8z"/>
	<path class="st8" d="M501.1,121.7c0-0.5,0-0.9,0-1.3h0.8l0.1,0.8h0c0.2-0.5,0.8-0.9,1.6-0.9c0.7,0,1.8,0.4,1.8,2.1v3h-0.9v-2.9
		c0-0.8-0.3-1.5-1.2-1.5c-0.6,0-1.1,0.4-1.2,0.9c0,0.1-0.1,0.3-0.1,0.4v3h-0.9V121.7z"/>
	<path class="st8" d="M511.1,118v6c0,0.4,0,0.9,0,1.3h-0.8l0-0.9h0c-0.3,0.6-0.9,1-1.7,1c-1.2,0-2.1-1-2.1-2.5c0-1.7,1-2.7,2.2-2.7
		c0.8,0,1.3,0.4,1.5,0.8h0v-3H511.1z M510.2,122.4c0-0.1,0-0.3,0-0.4c-0.1-0.6-0.6-1-1.3-1c-0.9,0-1.5,0.8-1.5,1.9
		c0,1,0.5,1.8,1.5,1.8c0.6,0,1.2-0.4,1.3-1.1c0-0.1,0-0.2,0-0.4V122.4z"/>
	<path class="st8" d="M513.6,118.9c0,0.3-0.2,0.6-0.6,0.6c-0.3,0-0.5-0.2-0.5-0.6c0-0.3,0.2-0.6,0.6-0.6
		C513.4,118.4,513.6,118.6,513.6,118.9z M512.6,125.3v-5h0.9v5H512.6z"/>
	<path class="st8" d="M519.3,118v6c0,0.4,0,0.9,0,1.3h-0.8l0-0.9h0c-0.3,0.6-0.9,1-1.7,1c-1.2,0-2.1-1-2.1-2.5c0-1.7,1-2.7,2.2-2.7
		c0.8,0,1.3,0.4,1.5,0.8h0v-3H519.3z M518.4,122.4c0-0.1,0-0.3,0-0.4c-0.1-0.6-0.6-1-1.3-1c-0.9,0-1.5,0.8-1.5,1.9
		c0,1,0.5,1.8,1.5,1.8c0.6,0,1.2-0.4,1.3-1.1c0-0.1,0-0.2,0-0.4V122.4z"/>
	<path class="st8" d="M523.6,125.3l-0.1-0.6h0c-0.3,0.4-0.8,0.7-1.5,0.7c-1,0-1.5-0.7-1.5-1.4c0-1.2,1.1-1.9,3-1.9V122
		c0-0.4-0.1-1.2-1.1-1.2c-0.5,0-0.9,0.1-1.3,0.4l-0.2-0.6c0.4-0.3,1-0.4,1.6-0.4c1.5,0,1.9,1,1.9,2v1.9c0,0.4,0,0.9,0.1,1.2H523.6z
		 M523.4,122.8c-1,0-2.1,0.2-2.1,1.1c0,0.6,0.4,0.9,0.9,0.9c0.6,0,1.1-0.4,1.2-0.8c0-0.1,0.1-0.2,0.1-0.3V122.8z"/>
	<path class="st8" d="M526.8,118.9v1.4h1.3v0.7h-1.3v2.7c0,0.6,0.2,1,0.7,1c0.2,0,0.4,0,0.5-0.1l0,0.7c-0.2,0.1-0.5,0.1-0.8,0.1
		c-0.4,0-0.8-0.1-1-0.4c-0.3-0.3-0.3-0.7-0.3-1.3V121h-0.8v-0.7h0.8v-1.2L526.8,118.9z"/>
	<path class="st8" d="M529.6,123c0,1.2,0.8,1.7,1.7,1.7c0.6,0,1-0.1,1.4-0.3l0.2,0.6c-0.3,0.1-0.9,0.3-1.7,0.3c-1.5,0-2.4-1-2.4-2.5
		c0-1.5,0.9-2.7,2.3-2.7c1.6,0,2.1,1.4,2.1,2.3c0,0.2,0,0.3,0,0.4H529.6z M532.2,122.3c0-0.6-0.2-1.5-1.3-1.5
		c-0.9,0-1.3,0.8-1.4,1.5H532.2z"/>
	<path class="st8" d="M537.6,123.1l-0.7,2.2h-0.9l2.4-6.9h1.1l2.4,6.9h-1l-0.7-2.2H537.6z M539.8,122.4l-0.7-2
		c-0.2-0.5-0.3-0.9-0.4-1.3h0c-0.1,0.4-0.2,0.8-0.3,1.3l-0.7,2H539.8z"/>
	<path class="st8" d="M542.7,122c0-0.6,0-1.2,0-1.6h0.8l0,0.9h0c0.4-0.6,1-1,1.8-1c1.2,0,2.1,1,2.1,2.5c0,1.8-1.1,2.7-2.3,2.7
		c-0.7,0-1.2-0.3-1.5-0.8h0v2.7h-0.9V122z M543.6,123.3c0,0.1,0,0.3,0,0.4c0.2,0.6,0.7,1.1,1.4,1.1c1,0,1.5-0.8,1.5-1.9
		c0-1-0.5-1.9-1.5-1.9c-0.6,0-1.2,0.4-1.4,1.1c0,0.1-0.1,0.2-0.1,0.4V123.3z"/>
	<path class="st8" d="M548.5,122c0-0.6,0-1.2,0-1.6h0.8l0,0.9h0c0.4-0.6,1-1,1.8-1c1.2,0,2.1,1,2.1,2.5c0,1.8-1.1,2.7-2.3,2.7
		c-0.7,0-1.2-0.3-1.5-0.8h0v2.7h-0.9V122z M549.4,123.3c0,0.1,0,0.3,0,0.4c0.2,0.6,0.7,1.1,1.4,1.1c1,0,1.5-0.8,1.5-1.9
		c0-1-0.5-1.9-1.5-1.9c-0.6,0-1.2,0.4-1.4,1.1c0,0.1-0.1,0.2-0.1,0.4V123.3z"/>
</g>
<g class="st6">
	<path class="st7" d="M483.8,90c0-0.9,0.6-1.5,1.4-1.5c0.8,0,1.4,0.6,1.4,1.5c0,0.8-0.6,1.5-1.4,1.5C484.4,91.5,483.8,90.9,483.8,90
		z"/>
</g>
<g class="st6">
	<path class="st8" d="M490.1,92.9c0.4,0.2,1,0.5,1.6,0.5c0.9,0,1.5-0.5,1.5-1.2c0-0.6-0.4-1-1.3-1.4c-1.1-0.4-1.8-1-1.8-2
		c0-1.1,0.9-1.9,2.2-1.9c0.7,0,1.2,0.2,1.5,0.3l-0.2,0.7c-0.2-0.1-0.7-0.3-1.3-0.3c-0.9,0-1.3,0.6-1.3,1c0,0.6,0.4,1,1.4,1.3
		c1.2,0.5,1.8,1,1.8,2c0,1.1-0.8,2-2.4,2c-0.7,0-1.4-0.2-1.8-0.4L490.1,92.9z"/>
	<path class="st8" d="M499.4,92.7c0,0.5,0,1,0,1.4h-0.8l-0.1-0.8h0c-0.2,0.4-0.8,0.9-1.6,0.9c-0.8,0-1.7-0.4-1.7-2.2V89h0.9v2.8
		c0,0.9,0.3,1.6,1.1,1.6c0.6,0,1-0.4,1.2-0.8c0.1-0.1,0.1-0.3,0.1-0.5V89h0.9V92.7z"/>
	<path class="st8" d="M500.9,90.7c0-0.6,0-1.2,0-1.6h0.8l0,0.9h0c0.4-0.6,1-1,1.8-1c1.2,0,2.1,1,2.1,2.5c0,1.8-1.1,2.7-2.3,2.7
		c-0.7,0-1.2-0.3-1.5-0.8h0V96h-0.9V90.7z M501.8,92c0,0.1,0,0.3,0,0.4c0.2,0.6,0.7,1.1,1.4,1.1c1,0,1.5-0.8,1.5-1.9
		c0-1-0.5-1.9-1.5-1.9c-0.6,0-1.2,0.4-1.4,1.1c0,0.1-0.1,0.2-0.1,0.4V92z"/>
	<path class="st8" d="M506.7,90.7c0-0.6,0-1.2,0-1.6h0.8l0,0.9h0c0.4-0.6,1-1,1.8-1c1.2,0,2.1,1,2.1,2.5c0,1.8-1.1,2.7-2.3,2.7
		c-0.7,0-1.2-0.3-1.5-0.8h0V96h-0.9V90.7z M507.6,92c0,0.1,0,0.3,0,0.4c0.2,0.6,0.7,1.1,1.4,1.1c1,0,1.5-0.8,1.5-1.9
		c0-1-0.5-1.9-1.5-1.9c-0.6,0-1.2,0.4-1.4,1.1c0,0.1-0.1,0.2-0.1,0.4V92z"/>
	<path class="st8" d="M512.6,86.7h0.9V94h-0.9V86.7z"/>
	<path class="st8" d="M516,87.6c0,0.3-0.2,0.6-0.6,0.6c-0.3,0-0.5-0.2-0.5-0.6c0-0.3,0.2-0.6,0.6-0.6C515.8,87.1,516,87.3,516,87.6z
		 M515,94v-5h0.9v5H515z"/>
	<path class="st8" d="M517.9,91.7c0,1.2,0.8,1.7,1.7,1.7c0.6,0,1-0.1,1.4-0.3l0.2,0.6c-0.3,0.1-0.9,0.3-1.7,0.3
		c-1.5,0-2.4-1-2.4-2.5c0-1.5,0.9-2.7,2.3-2.7c1.6,0,2.1,1.4,2.1,2.3c0,0.2,0,0.3,0,0.4H517.9z M520.6,91c0-0.6-0.2-1.5-1.3-1.5
		c-0.9,0-1.3,0.8-1.4,1.5H520.6z"/>
	<path class="st8" d="M522.6,90.6c0-0.6,0-1.1,0-1.6h0.8l0,1h0c0.2-0.7,0.8-1.1,1.4-1.1c0.1,0,0.2,0,0.3,0v0.9c-0.1,0-0.2,0-0.3,0
		c-0.6,0-1.1,0.5-1.2,1.2c0,0.1,0,0.3,0,0.4V94h-0.9V90.6z"/>
</g>
<g class="st6">
	<path class="st8" d="M529.2,91.8l-0.7,2.2h-0.9l2.4-6.9h1.1l2.4,6.9h-1l-0.7-2.2H529.2z M531.5,91.1l-0.7-2
		c-0.2-0.5-0.3-0.9-0.4-1.3h0c-0.1,0.4-0.2,0.8-0.3,1.3l-0.7,2H531.5z"/>
	<path class="st8" d="M534.3,90.7c0-0.6,0-1.2,0-1.6h0.8l0,0.9h0c0.4-0.6,1-1,1.8-1c1.2,0,2.1,1,2.1,2.5c0,1.8-1.1,2.7-2.3,2.7
		c-0.7,0-1.2-0.3-1.5-0.8h0V96h-0.9V90.7z M535.2,92c0,0.1,0,0.3,0,0.4c0.2,0.6,0.7,1.1,1.4,1.1c1,0,1.5-0.8,1.5-1.9
		c0-1-0.5-1.9-1.5-1.9c-0.6,0-1.2,0.4-1.4,1.1c0,0.1-0.1,0.2-0.1,0.4V92z"/>
	<path class="st8" d="M540.2,90.7c0-0.6,0-1.2,0-1.6h0.8l0,0.9h0c0.4-0.6,1-1,1.8-1c1.2,0,2.1,1,2.1,2.5c0,1.8-1.1,2.7-2.3,2.7
		c-0.7,0-1.2-0.3-1.5-0.8h0V96h-0.9V90.7z M541.1,92c0,0.1,0,0.3,0,0.4c0.2,0.6,0.7,1.1,1.4,1.1c1,0,1.5-0.8,1.5-1.9
		c0-1-0.5-1.9-1.5-1.9c-0.6,0-1.2,0.4-1.4,1.1c0,0.1-0.1,0.2-0.1,0.4V92z"/>
</g>
<g class="st6">
	<path class="st7" d="M483.8,74.4c0-0.9,0.6-1.5,1.4-1.5c0.8,0,1.4,0.6,1.4,1.5c0,0.8-0.6,1.5-1.4,1.5
		C484.4,75.8,483.8,75.2,483.8,74.4z"/>
</g>
<g class="st6">
	<path class="st8" d="M495.1,78.1c-0.3,0.2-1,0.3-1.8,0.3c-2,0-3.4-1.2-3.4-3.5c0-2.2,1.5-3.6,3.6-3.6c0.9,0,1.4,0.2,1.6,0.3
		l-0.2,0.7c-0.3-0.2-0.8-0.3-1.4-0.3c-1.6,0-2.7,1-2.7,2.9c0,1.7,1,2.8,2.7,2.8c0.5,0,1.1-0.1,1.5-0.3L495.1,78.1z"/>
	<path class="st8" d="M496.2,71.1h0.9v7.3h-0.9V71.1z"/>
	<path class="st8" d="M499.7,72c0,0.3-0.2,0.6-0.6,0.6c-0.3,0-0.5-0.2-0.5-0.6c0-0.3,0.2-0.6,0.6-0.6
		C499.4,71.4,499.7,71.7,499.7,72z M498.7,78.4v-5h0.9v5H498.7z"/>
	<path class="st8" d="M501.6,76c0,1.2,0.8,1.7,1.7,1.7c0.6,0,1-0.1,1.4-0.3l0.2,0.6c-0.3,0.1-0.9,0.3-1.7,0.3c-1.5,0-2.4-1-2.4-2.5
		c0-1.5,0.9-2.7,2.3-2.7c1.6,0,2.1,1.4,2.1,2.3c0,0.2,0,0.3,0,0.4H501.6z M504.2,75.4c0-0.6-0.2-1.5-1.3-1.5c-0.9,0-1.3,0.8-1.4,1.5
		H504.2z"/>
	<path class="st8" d="M506.2,74.7c0-0.5,0-0.9,0-1.3h0.8l0.1,0.8h0c0.2-0.5,0.8-0.9,1.6-0.9c0.7,0,1.8,0.4,1.8,2.1v3h-0.9v-2.9
		c0-0.8-0.3-1.5-1.2-1.5c-0.6,0-1.1,0.4-1.2,0.9c0,0.1-0.1,0.3-0.1,0.4v3h-0.9V74.7z"/>
	<path class="st8" d="M513,72v1.4h1.3v0.7H513v2.7c0,0.6,0.2,1,0.7,1c0.2,0,0.4,0,0.5-0.1l0,0.7c-0.2,0.1-0.5,0.1-0.8,0.1
		c-0.4,0-0.8-0.1-1-0.4c-0.3-0.3-0.3-0.7-0.3-1.3v-2.7h-0.8v-0.7h0.8v-1.2L513,72z"/>
	<path class="st8" d="M518.6,76.2l-0.7,2.2H517l2.4-6.9h1.1l2.4,6.9h-1l-0.7-2.2H518.6z M520.9,75.5l-0.7-2
		c-0.2-0.5-0.3-0.9-0.4-1.3h0c-0.1,0.4-0.2,0.8-0.3,1.3l-0.7,2H520.9z"/>
	<path class="st8" d="M523.7,75c0-0.6,0-1.2,0-1.6h0.8l0,0.9h0c0.4-0.6,1-1,1.8-1c1.2,0,2.1,1,2.1,2.5c0,1.8-1.1,2.7-2.3,2.7
		c-0.7,0-1.2-0.3-1.5-0.8h0v2.7h-0.9V75z M524.6,76.3c0,0.1,0,0.3,0,0.4c0.2,0.6,0.7,1.1,1.4,1.1c1,0,1.5-0.8,1.5-1.9
		c0-1-0.5-1.9-1.5-1.9c-0.6,0-1.2,0.4-1.4,1.1c0,0.1-0.1,0.2-0.1,0.4V76.3z"/>
	<path class="st8" d="M529.6,75c0-0.6,0-1.2,0-1.6h0.8l0,0.9h0c0.4-0.6,1-1,1.8-1c1.2,0,2.1,1,2.1,2.5c0,1.8-1.1,2.7-2.3,2.7
		c-0.7,0-1.2-0.3-1.5-0.8h0v2.7h-0.9V75z M530.5,76.3c0,0.1,0,0.3,0,0.4c0.2,0.6,0.7,1.1,1.4,1.1c1,0,1.5-0.8,1.5-1.9
		c0-1-0.5-1.9-1.5-1.9c-0.6,0-1.2,0.4-1.4,1.1c0,0.1-0.1,0.2-0.1,0.4V76.3z"/>
</g>
<g class="st6">
	<path class="st7" d="M483.8,58.7c0-0.9,0.6-1.5,1.4-1.5c0.8,0,1.4,0.6,1.4,1.5c0,0.8-0.6,1.5-1.4,1.5
		C484.4,60.2,483.8,59.6,483.8,58.7z"/>
</g>
<g class="st6">
	<path class="st8" d="M493.9,59.5h-2.7V62h3v0.8h-3.9v-6.9h3.7v0.8h-2.8v2.2h2.7V59.5z"/>
	<path class="st8" d="M495.2,61.6c0.4,0.2,1,0.5,1.6,0.5c0.9,0,1.5-0.5,1.5-1.2c0-0.6-0.4-1-1.3-1.4c-1.1-0.4-1.8-1-1.8-2
		c0-1.1,0.9-1.9,2.2-1.9c0.7,0,1.2,0.2,1.5,0.3l-0.2,0.7c-0.2-0.1-0.7-0.3-1.3-0.3c-0.9,0-1.3,0.6-1.3,1c0,0.6,0.4,1,1.4,1.3
		c1.2,0.5,1.8,1,1.8,2c0,1.1-0.8,2-2.4,2c-0.7,0-1.4-0.2-1.8-0.4L495.2,61.6z"/>
	<path class="st8" d="M501.5,60.5l-0.7,2.2h-0.9l2.4-6.9h1.1l2.4,6.9h-1l-0.7-2.2H501.5z M503.8,59.8l-0.7-2
		c-0.2-0.5-0.3-0.9-0.4-1.3h0c-0.1,0.4-0.2,0.8-0.3,1.3l-0.7,2H503.8z"/>
	<path class="st8" d="M507.2,56.5h-2.1v-0.8h5.1v0.8h-2.1v6.2h-0.9V56.5z"/>
	<path class="st8" d="M516.8,59.5h-2.7V62h3v0.8h-3.9v-6.9h3.7v0.8h-2.8v2.2h2.7V59.5z"/>
	<path class="st8" d="M518.3,55.9c0.5-0.1,1.1-0.1,1.7-0.1c1,0,1.6,0.2,2,0.6c0.3,0.3,0.5,0.8,0.5,1.3c0,0.9-0.6,1.5-1.3,1.8v0
		c0.5,0.2,0.9,0.7,1,1.4c0.2,1,0.4,1.6,0.5,1.9h-0.9c-0.1-0.2-0.3-0.8-0.5-1.7c-0.2-1-0.6-1.3-1.4-1.3h-0.8v3h-0.9V55.9z M519.2,59
		h0.9c1,0,1.6-0.5,1.6-1.3c0-0.9-0.6-1.3-1.6-1.3c-0.4,0-0.7,0-0.9,0.1V59z"/>
	<path class="st8" d="M523.8,55.9c0.4-0.1,1-0.1,1.7-0.1c0.9,0,1.5,0.2,1.9,0.6c0.4,0.3,0.6,0.8,0.6,1.5c0,0.6-0.2,1.1-0.5,1.5
		c-0.5,0.5-1.2,0.8-2.1,0.8c-0.3,0-0.5,0-0.7-0.1v2.8h-0.9V55.9z M524.7,59.2c0.2,0.1,0.4,0.1,0.7,0.1c1.1,0,1.7-0.5,1.7-1.5
		c0-0.9-0.6-1.4-1.6-1.4c-0.4,0-0.7,0-0.8,0.1V59.2z"/>
</g>
<g class="st6">
	<path class="st7" d="M483.8,105.7c0-0.9,0.6-1.5,1.4-1.5c0.8,0,1.4,0.6,1.4,1.5c0,0.8-0.6,1.5-1.4,1.5
		C484.4,107.1,483.8,106.5,483.8,105.7z"/>
</g>
<g class="st6">
	<path class="st8" d="M493.9,106.4h-2.7v2.5h3v0.8h-3.9v-6.9h3.7v0.8h-2.8v2.2h2.7V106.4z"/>
	<path class="st8" d="M495.3,106c0-0.5,0-0.9,0-1.3h0.8l0,0.8h0c0.3-0.5,0.7-0.9,1.6-0.9c0.7,0,1.2,0.4,1.4,1h0
		c0.2-0.3,0.3-0.5,0.6-0.6c0.3-0.2,0.6-0.3,1.1-0.3c0.7,0,1.6,0.4,1.6,2.2v2.9h-0.9v-2.8c0-1-0.3-1.5-1.1-1.5
		c-0.5,0-0.9,0.4-1.1,0.8c0,0.1-0.1,0.3-0.1,0.5v3.1h-0.9v-3c0-0.8-0.3-1.4-1-1.4c-0.6,0-1,0.5-1.1,0.9c-0.1,0.1-0.1,0.3-0.1,0.4v3
		h-0.9V106z"/>
	<path class="st8" d="M503.9,106.3c0-0.6,0-1.2,0-1.6h0.8l0,0.9h0c0.4-0.6,1-1,1.8-1c1.2,0,2.1,1,2.1,2.5c0,1.8-1.1,2.7-2.3,2.7
		c-0.7,0-1.2-0.3-1.5-0.8h0v2.7h-0.9V106.3z M504.8,107.6c0,0.1,0,0.3,0,0.4c0.2,0.6,0.7,1.1,1.4,1.1c1,0,1.5-0.8,1.5-1.9
		c0-1-0.5-1.9-1.5-1.9c-0.6,0-1.2,0.4-1.4,1.1c0,0.1-0.1,0.2-0.1,0.4V107.6z"/>
	<path class="st8" d="M509.7,102.4h0.9v7.3h-0.9V102.4z"/>
	<path class="st8" d="M516.7,107.1c0,1.8-1.3,2.6-2.5,2.6c-1.3,0-2.4-1-2.4-2.6c0-1.7,1.1-2.6,2.5-2.6
		C515.7,104.6,516.7,105.6,516.7,107.1z M512.7,107.2c0,1.1,0.6,1.9,1.5,1.9c0.9,0,1.5-0.8,1.5-1.9c0-0.8-0.4-1.9-1.5-1.9
		C513.2,105.2,512.7,106.2,512.7,107.2z"/>
	<path class="st8" d="M518.1,104.7l1.1,2.9c0.1,0.3,0.2,0.7,0.3,1h0c0.1-0.3,0.2-0.7,0.3-1l1-2.9h1l-1.4,3.5
		c-0.6,1.7-1.1,2.6-1.7,3.1c-0.4,0.4-0.9,0.5-1.1,0.6l-0.2-0.8c0.2-0.1,0.5-0.2,0.8-0.4c0.2-0.2,0.6-0.5,0.8-1
		c0-0.1,0.1-0.2,0.1-0.2s0-0.1-0.1-0.2l-1.8-4.6H518.1z"/>
	<path class="st8" d="M523,107.3c0,1.2,0.8,1.7,1.7,1.7c0.6,0,1-0.1,1.4-0.3l0.2,0.6c-0.3,0.1-0.9,0.3-1.7,0.3c-1.5,0-2.4-1-2.4-2.5
		c0-1.5,0.9-2.7,2.3-2.7c1.6,0,2.1,1.4,2.1,2.3c0,0.2,0,0.3,0,0.4H523z M525.6,106.7c0-0.6-0.2-1.5-1.3-1.5c-0.9,0-1.3,0.8-1.4,1.5
		H525.6z"/>
	<path class="st8" d="M528.1,107.3c0,1.2,0.8,1.7,1.7,1.7c0.6,0,1-0.1,1.4-0.3l0.2,0.6c-0.3,0.1-0.9,0.3-1.7,0.3
		c-1.5,0-2.4-1-2.4-2.5c0-1.5,0.9-2.7,2.3-2.7c1.6,0,2.1,1.4,2.1,2.3c0,0.2,0,0.3,0,0.4H528.1z M530.8,106.7c0-0.6-0.2-1.5-1.3-1.5
		c-0.9,0-1.3,0.8-1.4,1.5H530.8z"/>
	<path class="st8" d="M536.1,107.5l-0.7,2.2h-0.9l2.4-6.9h1.1l2.4,6.9h-1l-0.7-2.2H536.1z M538.4,106.8l-0.7-2
		c-0.2-0.5-0.3-0.9-0.4-1.3h0c-0.1,0.4-0.2,0.8-0.3,1.3l-0.7,2H538.4z"/>
	<path class="st8" d="M541.2,106.3c0-0.6,0-1.2,0-1.6h0.8l0,0.9h0c0.4-0.6,1-1,1.8-1c1.2,0,2.1,1,2.1,2.5c0,1.8-1.1,2.7-2.3,2.7
		c-0.7,0-1.2-0.3-1.5-0.8h0v2.7h-0.9V106.3z M542.1,107.6c0,0.1,0,0.3,0,0.4c0.2,0.6,0.7,1.1,1.4,1.1c1,0,1.5-0.8,1.5-1.9
		c0-1-0.5-1.9-1.5-1.9c-0.6,0-1.2,0.4-1.4,1.1c0,0.1-0.1,0.2-0.1,0.4V107.6z"/>
	<path class="st8" d="M547.1,106.3c0-0.6,0-1.2,0-1.6h0.8l0,0.9h0c0.4-0.6,1-1,1.8-1c1.2,0,2.1,1,2.1,2.5c0,1.8-1.1,2.7-2.3,2.7
		c-0.7,0-1.2-0.3-1.5-0.8h0v2.7h-0.9V106.3z M548,107.6c0,0.1,0,0.3,0,0.4c0.2,0.6,0.7,1.1,1.4,1.1c1,0,1.5-0.8,1.5-1.9
		c0-1-0.5-1.9-1.5-1.9c-0.6,0-1.2,0.4-1.4,1.1c0,0.1-0.1,0.2-0.1,0.4V107.6z"/>
</g>
<g class="st6">
	<path class="st7" d="M483.8,137c0-0.9,0.6-1.5,1.5-1.5c0.9,0,1.4,0.6,1.4,1.5c0,0.9-0.6,1.5-1.5,1.5
		C484.4,138.5,483.8,137.8,483.8,137z"/>
</g>
<g class="st6">
	<path class="st8" d="M491.6,134h3.8v0.8h-2.9v2.3h2.6v0.7h-2.6v3.2h-0.9V134z"/>
	<path class="st8" d="M496.8,138.6c0,1.2,0.8,1.7,1.7,1.7c0.7,0,1-0.1,1.4-0.3l0.2,0.7c-0.3,0.1-0.9,0.3-1.7,0.3
		c-1.5,0-2.5-1-2.5-2.5c0-1.5,0.9-2.7,2.4-2.7c1.6,0,2.1,1.4,2.1,2.4c0,0.2,0,0.3,0,0.4H496.8z M499.5,138c0-0.6-0.2-1.5-1.3-1.5
		c-0.9,0-1.3,0.9-1.4,1.5H499.5z"/>
	<path class="st8" d="M502,138.6c0,1.2,0.8,1.7,1.7,1.7c0.7,0,1-0.1,1.4-0.3l0.2,0.7c-0.3,0.1-0.9,0.3-1.7,0.3c-1.5,0-2.5-1-2.5-2.5
		c0-1.5,0.9-2.7,2.4-2.7c1.6,0,2.1,1.4,2.1,2.4c0,0.2,0,0.3,0,0.4H502z M504.7,138c0-0.6-0.2-1.5-1.3-1.5c-0.9,0-1.3,0.9-1.4,1.5
		H504.7z"/>
	<path class="st8" d="M511.1,133.6v6.1c0,0.4,0,1,0,1.3h-0.8l0-0.9h0c-0.3,0.6-0.9,1-1.7,1c-1.2,0-2.2-1-2.2-2.6
		c0-1.7,1-2.7,2.3-2.7c0.8,0,1.3,0.4,1.5,0.8h0v-3H511.1z M510.2,138c0-0.1,0-0.3,0-0.4c-0.1-0.6-0.6-1.1-1.3-1.1
		c-0.9,0-1.5,0.8-1.5,1.9c0,1,0.5,1.9,1.5,1.9c0.6,0,1.2-0.4,1.3-1.1c0-0.1,0-0.2,0-0.4V138z"/>
	<path class="st8" d="M512.6,141c0-0.3,0-0.9,0-1.3v-6.1h0.9v3.2h0c0.3-0.6,0.9-0.9,1.7-0.9c1.2,0,2.1,1,2.1,2.6
		c0,1.8-1.1,2.7-2.3,2.7c-0.7,0-1.3-0.3-1.7-0.9h0l0,0.8H512.6z M513.5,139c0,0.1,0,0.2,0,0.3c0.2,0.6,0.7,1.1,1.4,1.1
		c1,0,1.5-0.8,1.5-1.9c0-1-0.5-1.9-1.5-1.9c-0.6,0-1.2,0.4-1.4,1.1c0,0.1-0.1,0.2-0.1,0.4V139z"/>
	<path class="st8" d="M521.3,141l-0.1-0.6h0c-0.3,0.4-0.8,0.7-1.5,0.7c-1,0-1.5-0.7-1.5-1.4c0-1.2,1.1-1.9,3-1.9v-0.1
		c0-0.4-0.1-1.2-1.1-1.2c-0.5,0-1,0.1-1.3,0.4l-0.2-0.6c0.4-0.3,1-0.4,1.7-0.4c1.5,0,1.9,1,1.9,2.1v1.9c0,0.4,0,0.9,0.1,1.2H521.3z
		 M521.2,138.4c-1,0-2.1,0.2-2.1,1.1c0,0.6,0.4,0.9,0.9,0.9c0.7,0,1.1-0.4,1.2-0.8c0-0.1,0.1-0.2,0.1-0.3V138.4z"/>
	<path class="st8" d="M527.1,140.8c-0.2,0.1-0.8,0.3-1.4,0.3c-1.5,0-2.5-1-2.5-2.6c0-1.5,1.1-2.7,2.7-2.7c0.5,0,1,0.1,1.3,0.3
		l-0.2,0.7c-0.2-0.1-0.6-0.2-1.1-0.2c-1.2,0-1.8,0.9-1.8,1.9c0,1.2,0.7,1.9,1.7,1.9c0.5,0,0.9-0.1,1.1-0.2L527.1,140.8z"/>
	<path class="st8" d="M529.1,138.3L529.1,138.3c0.1-0.2,0.3-0.4,0.5-0.6l1.5-1.7h1.1l-1.9,2.1l2.2,3h-1.1l-1.7-2.4l-0.5,0.5v1.9
		h-0.9v-7.4h0.9V138.3z"/>
	<path class="st8" d="M537.9,135.5v2.4h2.3v0.6h-2.3v2.5h-0.7v-2.5h-2.3v-0.6h2.3v-2.4H537.9z"/>
	<path class="st8" d="M549.6,137.9c-0.1-1-0.1-2.2-0.1-3h0c-0.2,0.8-0.5,1.7-0.9,2.7l-1.2,3.4h-0.7l-1.1-3.3c-0.3-1-0.6-1.9-0.8-2.7
		h0c0,0.9-0.1,2-0.1,3.1l-0.2,3h-0.9l0.5-7h1.2l1.2,3.4c0.3,0.9,0.5,1.6,0.7,2.4h0c0.2-0.7,0.4-1.5,0.7-2.4l1.2-3.4h1.2l0.4,7h-0.9
		L549.6,137.9z"/>
	<path class="st8" d="M552.6,138.6c0,1.2,0.8,1.7,1.7,1.7c0.7,0,1-0.1,1.4-0.3l0.2,0.7c-0.3,0.1-0.9,0.3-1.7,0.3
		c-1.5,0-2.5-1-2.5-2.5c0-1.5,0.9-2.7,2.4-2.7c1.6,0,2.1,1.4,2.1,2.4c0,0.2,0,0.3,0,0.4H552.6z M555.3,138c0-0.6-0.2-1.5-1.3-1.5
		c-0.9,0-1.3,0.9-1.4,1.5H555.3z"/>
	<path class="st8" d="M557.8,138.6c0,1.2,0.8,1.7,1.7,1.7c0.7,0,1-0.1,1.4-0.3l0.2,0.7c-0.3,0.1-0.9,0.3-1.7,0.3
		c-1.5,0-2.5-1-2.5-2.5c0-1.5,0.9-2.7,2.4-2.7c1.6,0,2.1,1.4,2.1,2.4c0,0.2,0,0.3,0,0.4H557.8z M560.5,138c0-0.6-0.2-1.5-1.3-1.5
		c-0.9,0-1.3,0.9-1.4,1.5H560.5z"/>
	<path class="st8" d="M563.6,134.5v1.4h1.3v0.7h-1.3v2.7c0,0.6,0.2,1,0.7,1c0.2,0,0.4,0,0.5-0.1l0,0.7c-0.2,0.1-0.5,0.1-0.8,0.1
		c-0.4,0-0.8-0.1-1-0.4c-0.3-0.3-0.4-0.7-0.4-1.3v-2.7h-0.8V136h0.8v-1.2L563.6,134.5z"/>
	<path class="st8" d="M567,134.5c0,0.3-0.2,0.6-0.6,0.6c-0.3,0-0.6-0.2-0.6-0.6c0-0.3,0.2-0.6,0.6-0.6
		C566.8,134,567,134.2,567,134.5z M566,141v-5h0.9v5H566z"/>
	<path class="st8" d="M568.4,137.3c0-0.5,0-0.9,0-1.4h0.8l0.1,0.8h0c0.2-0.5,0.8-0.9,1.7-0.9c0.7,0,1.8,0.4,1.8,2.1v3h-0.9v-2.9
		c0-0.8-0.3-1.5-1.2-1.5c-0.6,0-1.1,0.4-1.2,0.9c0,0.1-0.1,0.3-0.1,0.4v3h-0.9V137.3z"/>
	<path class="st8" d="M578.5,136c0,0.4,0,0.8,0,1.4v2.9c0,1.2-0.2,1.9-0.7,2.3c-0.5,0.5-1.2,0.6-1.8,0.6c-0.6,0-1.3-0.1-1.7-0.4
		l0.2-0.7c0.3,0.2,0.9,0.4,1.5,0.4c0.9,0,1.6-0.5,1.6-1.8v-0.6h0c-0.3,0.5-0.8,0.8-1.6,0.8c-1.2,0-2.1-1.1-2.1-2.5
		c0-1.7,1.1-2.7,2.3-2.7c0.9,0,1.4,0.5,1.6,0.9h0l0-0.8H578.5z M577.5,137.9c0-0.2,0-0.3-0.1-0.4c-0.2-0.5-0.6-1-1.3-1
		c-0.9,0-1.5,0.7-1.5,1.9c0,1,0.5,1.8,1.5,1.8c0.6,0,1.1-0.4,1.3-0.9c0.1-0.2,0.1-0.3,0.1-0.5V137.9z"/>
</g>
<g class="st6">
	<path class="st8" d="M585.5,138.8l-0.7,2.2h-0.9l2.4-6.9h1.1l2.4,6.9h-1l-0.7-2.2H585.5z M587.8,138.1l-0.7-2
		c-0.2-0.5-0.3-0.9-0.4-1.3h0c-0.1,0.4-0.2,0.8-0.3,1.3l-0.7,2H587.8z"/>
	<path class="st8" d="M590.6,137.6c0-0.6,0-1.2,0-1.6h0.8l0,0.9h0c0.4-0.6,1-1,1.8-1c1.2,0,2.1,1,2.1,2.5c0,1.8-1.1,2.7-2.3,2.7
		c-0.7,0-1.2-0.3-1.5-0.8h0v2.7h-0.9V137.6z M591.5,139c0,0.1,0,0.3,0,0.4c0.2,0.6,0.7,1.1,1.4,1.1c1,0,1.5-0.8,1.5-1.9
		c0-1-0.5-1.9-1.5-1.9c-0.6,0-1.2,0.4-1.4,1.1c0,0.1-0.1,0.2-0.1,0.4V139z"/>
	<path class="st8" d="M596.5,137.6c0-0.6,0-1.2,0-1.6h0.8l0,0.9h0c0.4-0.6,1-1,1.8-1c1.2,0,2.1,1,2.1,2.5c0,1.8-1.1,2.7-2.3,2.7
		c-0.7,0-1.2-0.3-1.5-0.8h0v2.7h-0.9V137.6z M597.4,139c0,0.1,0,0.3,0,0.4c0.2,0.6,0.7,1.1,1.4,1.1c1,0,1.5-0.8,1.5-1.9
		c0-1-0.5-1.9-1.5-1.9c-0.6,0-1.2,0.4-1.4,1.1c0,0.1-0.1,0.2-0.1,0.4V139z"/>
</g>
<g class="st6">
	<path class="st7" d="M483.8,152.6c0-0.9,0.6-1.5,1.5-1.5c0.9,0,1.4,0.6,1.4,1.5c0,0.9-0.6,1.5-1.5,1.5
		C484.4,154.1,483.8,153.5,483.8,152.6z"/>
</g>
<g class="st6">
	<path class="st8" d="M490.3,155.5c0.4,0.2,1,0.5,1.6,0.5c0.9,0,1.5-0.5,1.5-1.2c0-0.7-0.4-1-1.3-1.4c-1.1-0.4-1.8-1-1.8-2
		c0-1.1,0.9-1.9,2.3-1.9c0.7,0,1.2,0.2,1.5,0.3l-0.2,0.7c-0.2-0.1-0.7-0.3-1.3-0.3c-1,0-1.3,0.6-1.3,1c0,0.7,0.4,1,1.4,1.4
		c1.2,0.5,1.8,1,1.8,2.1c0,1.1-0.8,2-2.5,2c-0.7,0-1.4-0.2-1.8-0.4L490.3,155.5z"/>
	<path class="st8" d="M499.7,155.3c0,0.5,0,1,0,1.4H499l-0.1-0.8h0c-0.2,0.4-0.8,0.9-1.7,0.9c-0.8,0-1.7-0.4-1.7-2.2v-2.9h0.9v2.8
		c0,1,0.3,1.6,1.1,1.6c0.6,0,1-0.4,1.2-0.8c0.1-0.1,0.1-0.3,0.1-0.5v-3.1h0.9V155.3z"/>
	<path class="st8" d="M501.2,153.2c0-0.6,0-1.1,0-1.6h0.8l0,1h0c0.2-0.7,0.8-1.1,1.4-1.1c0.1,0,0.2,0,0.3,0v0.9c-0.1,0-0.2,0-0.3,0
		c-0.6,0-1.1,0.5-1.2,1.2c0,0.1,0,0.3,0,0.4v2.7h-0.9V153.2z"/>
	<path class="st8" d="M505.3,151.6l1,2.8c0.2,0.5,0.3,0.9,0.4,1.3h0c0.1-0.4,0.3-0.8,0.4-1.3l1-2.8h1l-2,5h-0.9l-1.9-5H505.3z"/>
	<path class="st8" d="M510.3,154.3c0,1.2,0.8,1.7,1.7,1.7c0.7,0,1-0.1,1.4-0.3l0.2,0.7c-0.3,0.1-0.9,0.3-1.7,0.3
		c-1.5,0-2.5-1-2.5-2.5c0-1.5,0.9-2.7,2.4-2.7c1.6,0,2.1,1.4,2.1,2.4c0,0.2,0,0.3,0,0.4H510.3z M513,153.6c0-0.6-0.2-1.5-1.3-1.5
		c-0.9,0-1.3,0.9-1.4,1.5H513z"/>
	<path class="st8" d="M515.3,151.6l1.1,3c0.1,0.3,0.2,0.7,0.3,1h0c0.1-0.3,0.2-0.7,0.3-1l1-3h1l-1.4,3.6c-0.7,1.7-1.1,2.6-1.7,3.1
		c-0.4,0.4-0.9,0.6-1.1,0.6l-0.2-0.8c0.2-0.1,0.5-0.2,0.8-0.4c0.2-0.2,0.6-0.6,0.8-1c0-0.1,0.1-0.2,0.1-0.2c0-0.1,0-0.1-0.1-0.2
		l-1.9-4.6H515.3z"/>
</g>
<g class="st6">
	<path class="st8" d="M523.9,154.5l-0.7,2.2h-0.9l2.4-6.9h1.1l2.4,6.9h-1l-0.7-2.2H523.9z M526.2,153.8l-0.7-2
		c-0.2-0.5-0.3-0.9-0.4-1.3h0c-0.1,0.4-0.2,0.8-0.3,1.3l-0.7,2H526.2z"/>
	<path class="st8" d="M529,153.3c0-0.6,0-1.2,0-1.6h0.8l0,0.9h0c0.4-0.6,1-1,1.8-1c1.2,0,2.1,1,2.1,2.5c0,1.8-1.1,2.7-2.3,2.7
		c-0.7,0-1.2-0.3-1.5-0.8h0v2.7H529V153.3z M529.9,154.6c0,0.1,0,0.3,0,0.4c0.2,0.6,0.7,1.1,1.4,1.1c1,0,1.5-0.8,1.5-1.9
		c0-1-0.5-1.9-1.5-1.9c-0.6,0-1.2,0.4-1.4,1.1c0,0.1-0.1,0.2-0.1,0.4V154.6z"/>
	<path class="st8" d="M534.9,153.3c0-0.6,0-1.2,0-1.6h0.8l0,0.9h0c0.4-0.6,1-1,1.8-1c1.2,0,2.1,1,2.1,2.5c0,1.8-1.1,2.7-2.3,2.7
		c-0.7,0-1.2-0.3-1.5-0.8h0v2.7h-0.9V153.3z M535.8,154.6c0,0.1,0,0.3,0,0.4c0.2,0.6,0.7,1.1,1.4,1.1c1,0,1.5-0.8,1.5-1.9
		c0-1-0.5-1.9-1.5-1.9c-0.6,0-1.2,0.4-1.4,1.1c0,0.1-0.1,0.2-0.1,0.4V154.6z"/>
</g>
<g class="st6">
	<path class="st7" d="M483.8,168.3c0-0.9,0.6-1.5,1.5-1.5c0.9,0,1.4,0.6,1.4,1.5c0,0.9-0.6,1.5-1.5,1.5
		C484.4,169.8,483.8,169.1,483.8,168.3z"/>
</g>
<g class="st6">
	<path class="st8" d="M491.6,170.1l-0.7,2.2H490l2.4-6.9h1.1l2.4,6.9h-1l-0.7-2.2H491.6z M493.9,169.4l-0.7-2
		c-0.2-0.5-0.3-0.9-0.4-1.3h0c-0.1,0.4-0.2,0.8-0.3,1.3l-0.7,2H493.9z"/>
	<path class="st8" d="M500.9,165v6c0,0.4,0,0.9,0,1.3h-0.8l0-0.9h0c-0.3,0.6-0.9,1-1.7,1c-1.2,0-2.1-1-2.1-2.5c0-1.7,1-2.7,2.2-2.7
		c0.8,0,1.3,0.4,1.5,0.8h0v-3H500.9z M500,169.3c0-0.1,0-0.3,0-0.4c-0.1-0.6-0.6-1-1.3-1c-0.9,0-1.5,0.8-1.5,1.9
		c0,1,0.5,1.8,1.5,1.8c0.6,0,1.2-0.4,1.3-1.1c0-0.1,0-0.2,0-0.4V169.3z"/>
	<path class="st8" d="M502.8,167.3l1,2.8c0.2,0.5,0.3,0.9,0.4,1.3h0c0.1-0.4,0.3-0.8,0.4-1.3l1-2.8h0.9l-2,5h-0.9l-1.9-5H502.8z"/>
	<path class="st8" d="M507.8,170c0,1.2,0.8,1.7,1.7,1.7c0.6,0,1-0.1,1.4-0.3l0.2,0.6c-0.3,0.1-0.9,0.3-1.7,0.3c-1.5,0-2.4-1-2.4-2.5
		c0-1.5,0.9-2.7,2.3-2.7c1.6,0,2.1,1.4,2.1,2.3c0,0.2,0,0.3,0,0.4H507.8z M510.4,169.3c0-0.6-0.2-1.5-1.3-1.5
		c-0.9,0-1.3,0.8-1.4,1.5H510.4z"/>
	<path class="st8" d="M512.4,168.9c0-0.6,0-1.1,0-1.6h0.8l0,1h0c0.2-0.7,0.8-1.1,1.4-1.1c0.1,0,0.2,0,0.3,0v0.9c-0.1,0-0.2,0-0.3,0
		c-0.6,0-1.1,0.5-1.2,1.2c0,0.1,0,0.3,0,0.4v2.7h-0.9V168.9z"/>
	<path class="st8" d="M517.1,165.9v1.4h1.3v0.7h-1.3v2.7c0,0.6,0.2,1,0.7,1c0.2,0,0.4,0,0.5-0.1l0,0.7c-0.2,0.1-0.5,0.1-0.8,0.1
		c-0.4,0-0.8-0.1-1-0.4c-0.3-0.3-0.3-0.7-0.3-1.3V168h-0.8v-0.7h0.8v-1.2L517.1,165.9z"/>
	<path class="st8" d="M520.5,165.9c0,0.3-0.2,0.6-0.6,0.6c-0.3,0-0.5-0.2-0.5-0.6c0-0.3,0.2-0.6,0.6-0.6
		C520.2,165.3,520.5,165.6,520.5,165.9z M519.5,172.3v-5h0.9v5H519.5z"/>
	<path class="st8" d="M521.7,171.4c0.3,0.2,0.7,0.4,1.2,0.4c0.7,0,1-0.3,1-0.7c0-0.4-0.3-0.7-0.9-0.9c-0.9-0.3-1.3-0.8-1.3-1.4
		c0-0.8,0.6-1.5,1.7-1.5c0.5,0,0.9,0.1,1.2,0.3l-0.2,0.7c-0.2-0.1-0.6-0.3-1-0.3c-0.5,0-0.8,0.3-0.8,0.7c0,0.4,0.3,0.6,0.9,0.8
		c0.9,0.3,1.3,0.8,1.3,1.5c0,0.9-0.7,1.5-1.9,1.5c-0.5,0-1-0.1-1.4-0.3L521.7,171.4z"/>
	<path class="st8" d="M525.9,168.7c0-0.5,0-0.9,0-1.3h0.8l0,0.8h0c0.3-0.5,0.7-0.9,1.6-0.9c0.7,0,1.2,0.4,1.4,1h0
		c0.2-0.3,0.3-0.5,0.6-0.6c0.3-0.2,0.6-0.3,1.1-0.3c0.7,0,1.6,0.4,1.6,2.2v2.9h-0.9v-2.8c0-1-0.3-1.5-1.1-1.5
		c-0.5,0-0.9,0.4-1.1,0.8c0,0.1-0.1,0.3-0.1,0.5v3.1h-0.9v-3c0-0.8-0.4-1.4-1-1.4c-0.6,0-1,0.5-1.1,0.9c-0.1,0.1-0.1,0.3-0.1,0.4v3
		h-0.9V168.7z"/>
	<path class="st8" d="M535,170c0,1.2,0.8,1.7,1.7,1.7c0.6,0,1-0.1,1.4-0.3l0.2,0.6c-0.3,0.1-0.9,0.3-1.7,0.3c-1.5,0-2.4-1-2.4-2.5
		c0-1.5,0.9-2.7,2.3-2.7c1.6,0,2.1,1.4,2.1,2.3c0,0.2,0,0.3,0,0.4H535z M537.7,169.3c0-0.6-0.2-1.5-1.3-1.5c-0.9,0-1.3,0.8-1.4,1.5
		H537.7z"/>
	<path class="st8" d="M539.7,168.7c0-0.5,0-0.9,0-1.3h0.8l0.1,0.8h0c0.2-0.5,0.8-0.9,1.6-0.9c0.7,0,1.8,0.4,1.8,2.1v3H543v-2.9
		c0-0.8-0.3-1.5-1.2-1.5c-0.6,0-1.1,0.4-1.2,0.9c0,0.1-0.1,0.3-0.1,0.4v3h-0.9V168.7z"/>
	<path class="st8" d="M546.4,165.9v1.4h1.3v0.7h-1.3v2.7c0,0.6,0.2,1,0.7,1c0.2,0,0.4,0,0.5-0.1l0,0.7c-0.2,0.1-0.5,0.1-0.8,0.1
		c-0.4,0-0.8-0.1-1-0.4c-0.3-0.3-0.3-0.7-0.3-1.3V168h-0.8v-0.7h0.8v-1.2L546.4,165.9z"/>
	<path class="st8" d="M552.1,170.1l-0.7,2.2h-0.9l2.4-6.9h1.1l2.4,6.9h-1l-0.7-2.2H552.1z M554.3,169.4l-0.7-2
		c-0.2-0.5-0.3-0.9-0.4-1.3h0c-0.1,0.4-0.2,0.8-0.3,1.3l-0.7,2H554.3z"/>
	<path class="st8" d="M557.2,168.9c0-0.6,0-1.2,0-1.6h0.8l0,0.9h0c0.4-0.6,1-1,1.8-1c1.2,0,2.1,1,2.1,2.5c0,1.8-1.1,2.7-2.3,2.7
		c-0.7,0-1.2-0.3-1.5-0.8h0v2.7h-0.9V168.9z M558.1,170.3c0,0.1,0,0.3,0,0.4c0.2,0.6,0.7,1.1,1.4,1.1c1,0,1.5-0.8,1.5-1.9
		c0-1-0.5-1.9-1.5-1.9c-0.6,0-1.2,0.4-1.4,1.1c0,0.1-0.1,0.2-0.1,0.4V170.3z"/>
	<path class="st8" d="M563,168.9c0-0.6,0-1.2,0-1.6h0.8l0,0.9h0c0.4-0.6,1-1,1.8-1c1.2,0,2.1,1,2.1,2.5c0,1.8-1.1,2.7-2.3,2.7
		c-0.7,0-1.2-0.3-1.5-0.8h0v2.7H563V168.9z M563.9,170.3c0,0.1,0,0.3,0,0.4c0.2,0.6,0.7,1.1,1.4,1.1c1,0,1.5-0.8,1.5-1.9
		c0-1-0.5-1.9-1.5-1.9c-0.6,0-1.2,0.4-1.4,1.1c0,0.1-0.1,0.2-0.1,0.4V170.3z"/>
</g>
<g class="st6">
	<path class="st7" d="M483.8,183.9c0-0.9,0.6-1.5,1.5-1.5c0.9,0,1.4,0.6,1.4,1.5c0,0.9-0.6,1.5-1.5,1.5
		C484.4,185.4,483.8,184.8,483.8,183.9z"/>
</g>
<g class="st6">
	<path class="st8" d="M490.5,181.1c0.4-0.1,1-0.1,1.7-0.1c0.9,0,1.5,0.2,1.9,0.6c0.4,0.3,0.6,0.8,0.6,1.5c0,0.6-0.2,1.1-0.5,1.5
		c-0.5,0.5-1.2,0.8-2.1,0.8c-0.3,0-0.5,0-0.7-0.1v2.8h-0.9V181.1z M491.4,184.4c0.2,0.1,0.4,0.1,0.7,0.1c1.1,0,1.7-0.5,1.7-1.5
		c0-0.9-0.6-1.4-1.6-1.4c-0.4,0-0.7,0-0.8,0.1V184.4z"/>
	<path class="st8" d="M501.9,184.4c0,2.4-1.5,3.7-3.2,3.7c-1.8,0-3.1-1.4-3.1-3.5c0-2.2,1.4-3.6,3.2-3.6
		C500.7,180.9,501.9,182.3,501.9,184.4z M496.5,184.5c0,1.5,0.8,2.8,2.2,2.8c1.4,0,2.2-1.3,2.2-2.9c0-1.4-0.7-2.8-2.2-2.8
		C497.3,181.6,496.5,183,496.5,184.5z"/>
	<path class="st8" d="M502.9,186.8c0.4,0.2,1,0.5,1.6,0.5c0.9,0,1.5-0.5,1.5-1.2c0-0.6-0.4-1-1.3-1.4c-1.1-0.4-1.8-1-1.8-2
		c0-1.1,0.9-1.9,2.2-1.9c0.7,0,1.2,0.2,1.5,0.3l-0.2,0.7c-0.2-0.1-0.7-0.3-1.3-0.3c-0.9,0-1.3,0.6-1.3,1c0,0.6,0.4,1,1.4,1.3
		c1.2,0.5,1.8,1,1.8,2c0,1.1-0.8,2-2.4,2c-0.7,0-1.4-0.2-1.8-0.4L502.9,186.8z"/>
	<path class="st8" d="M511.4,185.7l-0.7,2.2h-0.9l2.4-6.9h1.1l2.4,6.9h-1l-0.7-2.2H511.4z M513.7,185.1l-0.7-2
		c-0.2-0.5-0.3-0.9-0.4-1.3h0c-0.1,0.4-0.2,0.8-0.3,1.3l-0.7,2H513.7z"/>
	<path class="st8" d="M516.5,184.6c0-0.6,0-1.2,0-1.6h0.8l0,0.9h0c0.4-0.6,1-1,1.8-1c1.2,0,2.1,1,2.1,2.5c0,1.8-1.1,2.7-2.3,2.7
		c-0.7,0-1.2-0.3-1.5-0.8h0v2.7h-0.9V184.6z M517.4,185.9c0,0.1,0,0.3,0,0.4c0.2,0.6,0.7,1.1,1.4,1.1c1,0,1.5-0.8,1.5-1.9
		c0-1-0.5-1.9-1.5-1.9c-0.6,0-1.2,0.4-1.4,1.1c0,0.1-0.1,0.2-0.1,0.4V185.9z"/>
	<path class="st8" d="M522.4,184.6c0-0.6,0-1.2,0-1.6h0.8l0,0.9h0c0.4-0.6,1-1,1.8-1c1.2,0,2.1,1,2.1,2.5c0,1.8-1.1,2.7-2.3,2.7
		c-0.7,0-1.2-0.3-1.5-0.8h0v2.7h-0.9V184.6z M523.3,185.9c0,0.1,0,0.3,0,0.4c0.2,0.6,0.7,1.1,1.4,1.1c1,0,1.5-0.8,1.5-1.9
		c0-1-0.5-1.9-1.5-1.9c-0.6,0-1.2,0.4-1.4,1.1c0,0.1-0.1,0.2-0.1,0.4V185.9z"/>
</g>
<g>
	<g class="st6">
		<path class="st9" d="M489.9,28.5c-0.5,0.1-1.2,0.2-2.7,0.2c-1.8,0-3.3-0.5-3.3-2.9v-4.5c0-2.5,1.6-2.9,3.3-2.9
			c1.5,0,2.2,0.1,2.6,0.2c0.2,0,0.3,0.1,0.3,0.3V20c0,0.2-0.1,0.3-0.3,0.3h-2.8c-0.6,0-0.9,0.2-0.9,0.9v1.2h3.5
			c0.2,0,0.3,0.1,0.3,0.3V24c0,0.2-0.1,0.3-0.3,0.3h-3.5v1.5c0,0.7,0.2,0.9,0.9,0.9h2.8c0.2,0,0.3,0.1,0.3,0.3v1.3
			C490.2,28.4,490.1,28.5,489.9,28.5z"/>
		<path class="st9" d="M494.7,28.7c-1.1,0-1.9-0.1-2.6-0.3c-0.1,0-0.3-0.1-0.3-0.3v-1.3c0-0.2,0.1-0.3,0.2-0.3c0,0,0,0,0,0
			c0.6,0.1,2.1,0.2,2.6,0.2c0.9,0,1.2-0.3,1.2-1c0-0.4-0.2-0.6-0.9-1l-1.9-1.1c-1.3-0.8-1.6-1.6-1.6-2.6c0-1.5,0.8-2.7,3.5-2.7
			c1,0,2.4,0.2,2.9,0.3c0.1,0,0.2,0.1,0.2,0.2v1.4c0,0.1-0.1,0.2-0.2,0.2c0,0,0,0,0,0c-0.4,0-2-0.2-2.9-0.2c-0.8,0-1.1,0.2-1.1,0.7
			c0,0.4,0.2,0.6,0.9,1l1.8,0.9c1.4,0.8,1.8,1.7,1.8,2.8C498.4,27.1,497.5,28.7,494.7,28.7z"/>
		<path class="st9" d="M507.7,28.6h-1.9c-0.1,0-0.2-0.1-0.3-0.2l-0.5-2.2h-2.8l-0.5,2.2c0,0.1-0.1,0.2-0.3,0.2h-1.9
			c-0.1,0-0.2-0.1-0.2-0.2c0,0,0,0,0-0.1l2-8.5c0.3-1.3,1.3-1.5,2.3-1.5c0.9,0,1.9,0.2,2.3,1.5l2,8.5c0,0,0,0.1,0,0.1
			C507.9,28.5,507.8,28.6,507.7,28.6z M503.8,20.4c0-0.1-0.1-0.2-0.2-0.2c-0.1,0-0.2,0.1-0.2,0.2l-0.8,3.8h2L503.8,20.4z"/>
		<path class="st9" d="M515.6,20.3h-2.2v8c0,0.2-0.1,0.3-0.3,0.3h-1.8c-0.2,0-0.3-0.1-0.3-0.3v-8h-2.2c-0.2,0-0.3-0.1-0.3-0.3v-1.4
			c0-0.2,0.1-0.3,0.3-0.3h6.8c0.2,0,0.3,0.1,0.3,0.3v1.4C515.9,20.2,515.7,20.3,515.6,20.3z"/>
		<path class="st9" d="M522.7,19.8h-1.8c-0.2,0-0.3-0.1-0.3-0.3v-1.3c0-0.2,0.1-0.3,0.3-0.3h1.8c0.2,0,0.3,0.1,0.3,0.3v1.3
			C522.9,19.7,522.8,19.8,522.7,19.8z M522.6,28.6h-1.7c-0.2,0-0.3-0.1-0.3-0.3V21c0-0.2,0.1-0.3,0.3-0.3h1.7c0.2,0,0.3,0.1,0.3,0.3
			v7.3C522.9,28.4,522.7,28.6,522.6,28.6z"/>
		<path class="st9" d="M528.5,28.7c-2.3,0-4.1-1.2-4.1-4.4v-1.6c0-3.2,1.8-4.4,4.1-4.4c2.3,0,4.1,1.2,4.1,4.4v1.6
			C532.6,27.5,530.8,28.7,528.5,28.7z M530.2,22.7c0-1.6-0.5-2.3-1.7-2.3c-1.2,0-1.7,0.7-1.7,2.3v1.6c0,1.6,0.5,2.3,1.7,2.3
			c1.1,0,1.7-0.7,1.7-2.3V22.7z"/>
		<path class="st9" d="M537,28.7c-1.1,0-1.9-0.1-2.6-0.3c-0.1,0-0.3-0.1-0.3-0.3v-1.3c0-0.2,0.1-0.3,0.2-0.3c0,0,0,0,0,0
			c0.6,0.1,2.1,0.2,2.6,0.2c0.9,0,1.2-0.3,1.2-1c0-0.4-0.2-0.6-0.9-1l-1.9-1.1c-1.3-0.8-1.6-1.6-1.6-2.6c0-1.5,0.8-2.7,3.5-2.7
			c1,0,2.4,0.2,2.9,0.3c0.1,0,0.2,0.1,0.2,0.2v1.4c0,0.1-0.1,0.2-0.2,0.2c0,0,0,0,0,0c-0.4,0-2-0.2-2.9-0.2c-0.8,0-1.1,0.2-1.1,0.7
			c0,0.4,0.2,0.6,0.9,1l1.8,0.9c1.4,0.8,1.8,1.7,1.8,2.8C540.8,27.1,539.8,28.7,537,28.7z"/>
		<path class="st9" d="M554.5,28.6h-1.9c-0.1,0-0.1,0-0.2-0.1l-0.4-0.4c-0.7,0.4-1.5,0.7-2.5,0.7c-2.1,0-3.8-0.7-3.8-2.7v-0.1
			c0-1.2,0.7-2,1.8-2.7l-0.1-0.1c-1-1.1-1.2-1.7-1.2-2.3v-0.1c0-1.3,1-2.4,3.2-2.4c2,0,3.1,1,3.1,2.4v0.1c0,1.3-0.8,1.9-1.8,2.6
			l-0.4,0.3l1.8,1.9c0.2-0.4,0.2-0.8,0.2-1.7v-0.1c0-0.2,0.1-0.3,0.2-0.3h1.3c0.2,0,0.3,0.1,0.3,0.3v0.1c0,1-0.2,2-0.8,3l1.4,1.5
			c0.1,0.1,0.1,0.1,0.1,0.2C554.7,28.5,554.6,28.6,554.5,28.6z M548.7,24.6c-0.7,0.4-0.8,0.8-0.8,1.3V26c0,0.7,0.6,1.1,1.5,1.1
			c0.6,0,1-0.1,1.4-0.3L548.7,24.6z M550.4,20.6c0-0.5-0.4-0.8-1.1-0.8c-0.8,0-1.2,0.3-1.2,0.8v0.1c0,0.4,0.1,0.7,0.8,1.4l0.1,0.1
			l0.4-0.2c0.8-0.5,1.1-0.8,1.1-1.3V20.6z"/>
		<path class="st9" d="M567.2,28.6h-1.9c-0.1,0-0.2-0.1-0.3-0.2l-0.5-2.2h-2.8l-0.5,2.2c0,0.1-0.1,0.2-0.3,0.2H559
			c-0.1,0-0.2-0.1-0.2-0.2c0,0,0,0,0-0.1l2-8.5c0.3-1.3,1.3-1.5,2.3-1.5s1.9,0.2,2.3,1.5l2,8.5c0,0,0,0.1,0,0.1
			C567.4,28.5,567.3,28.6,567.2,28.6z M563.3,20.4c0-0.1-0.1-0.2-0.2-0.2s-0.2,0.1-0.2,0.2l-0.8,3.8h2L563.3,20.4z"/>
		<path class="st9" d="M574.9,28.6h-1.7c-0.2,0-0.3-0.1-0.3-0.3v-4.6c0-1-0.2-1.3-1-1.3c-0.4,0-0.8,0.2-1.3,0.4v5.4
			c0,0.2-0.1,0.3-0.3,0.3h-1.7c-0.2,0-0.3-0.1-0.3-0.3V21c0-0.2,0.1-0.3,0.3-0.3h1.5c0.2,0,0.3,0.1,0.3,0.3v0.3
			c0.8-0.5,1.4-0.7,2.2-0.7c2,0,2.4,1.4,2.4,3.1v4.6C575.2,28.4,575.1,28.6,574.9,28.6z"/>
		<path class="st9" d="M583,28.3c-0.8,0.2-1.9,0.4-2.9,0.4c-2.2,0-3.4-1.3-3.4-3.5v-1.1c0-2.1,1.1-3.5,3.4-3.5c0.3,0,0.7,0,1.1,0.1
			v-2.4c0-0.2,0.1-0.3,0.3-0.3h1.7c0.2,0,0.3,0.1,0.3,0.3v9.6C583.4,28.2,583.3,28.3,583,28.3z M581.2,22.5c-0.3,0-0.8-0.1-1.1-0.1
			c-1,0-1.2,0.7-1.2,1.7v1.1c0,1,0.2,1.7,1.2,1.7c0.5,0,0.9,0,1.1-0.1V22.5z"/>
		<path class="st9" d="M589.1,22.5H589c-0.7,0-1.3,0.2-1.8,0.5v5.4c0,0.2-0.1,0.3-0.3,0.3h-1.7c-0.2,0-0.3-0.1-0.3-0.3V21
			c0-0.2,0.1-0.3,0.3-0.3h1.6c0.2,0,0.3,0.1,0.3,0.3v0.3c0.5-0.4,1.2-0.7,1.8-0.7c0.2,0,0.3,0.1,0.3,0.3v1.3
			C589.3,22.3,589.3,22.5,589.1,22.5z"/>
		<path class="st9" d="M593.7,28.7c-2.2,0-3.4-1.4-3.4-3.6v-1c0-2.2,1.2-3.6,3.4-3.6c2.2,0,3.4,1.4,3.4,3.6v1
			C597.1,27.3,595.9,28.7,593.7,28.7z M594.9,24.2c0-1.1-0.4-1.7-1.2-1.7s-1.2,0.6-1.2,1.7v1c0,1.1,0.4,1.7,1.2,1.7s1.2-0.6,1.2-1.7
			V24.2z"/>
		<path class="st9" d="M600.6,19.8h-1.8c-0.2,0-0.3-0.1-0.3-0.3v-1.3c0-0.2,0.1-0.3,0.3-0.3h1.8c0.2,0,0.3,0.1,0.3,0.3v1.3
			C600.8,19.7,600.7,19.8,600.6,19.8z M600.5,28.6h-1.7c-0.2,0-0.3-0.1-0.3-0.3V21c0-0.2,0.1-0.3,0.3-0.3h1.7c0.2,0,0.3,0.1,0.3,0.3
			v7.3C600.8,28.4,600.7,28.6,600.5,28.6z"/>
		<path class="st9" d="M608.6,28.3c-0.8,0.2-1.9,0.4-2.9,0.4c-2.2,0-3.4-1.3-3.4-3.5v-1.1c0-2.1,1.1-3.5,3.4-3.5
			c0.3,0,0.7,0,1.1,0.1v-2.4c0-0.2,0.1-0.3,0.3-0.3h1.7c0.2,0,0.3,0.1,0.3,0.3v9.6C609,28.2,609,28.3,608.6,28.3z M606.8,22.5
			c-0.3,0-0.8-0.1-1.1-0.1c-1,0-1.2,0.7-1.2,1.7v1.1c0,1,0.2,1.7,1.2,1.7c0.5,0,0.9,0,1.1-0.1V22.5z"/>
	</g>
	<g class="st6">
		<path class="st9" d="M493,45h-1.8c-0.1,0-0.2-0.1-0.2-0.3V39c0-0.1,0-0.1-0.1-0.1c0,0-0.1,0-0.1,0.1l-1.2,2.3
			c-0.1,0.2-0.2,0.2-0.4,0.2h-1.1c-0.2,0-0.3-0.1-0.4-0.2l-1.2-2.3c0-0.1-0.1-0.1-0.1-0.1c0,0-0.1,0-0.1,0.1v5.7
			c0,0.2-0.1,0.3-0.2,0.3h-1.8c-0.1,0-0.2,0-0.2-0.2v-9.5c0-0.3,0.2-0.5,0.5-0.5h1.3c0.3,0,0.5,0.1,0.6,0.4l2.1,3.9
			c0.1,0.1,0.1,0.2,0.2,0.2s0.1-0.1,0.2-0.2l2.1-3.9c0.1-0.2,0.3-0.4,0.6-0.4h1.3c0.3,0,0.5,0.2,0.5,0.5v9.5
			C493.2,44.9,493.1,45,493,45z"/>
		<path class="st9" d="M498.2,45.1c-2.2,0-3.4-1.4-3.4-3.6v-1c0-2.2,1.2-3.6,3.4-3.6c2.2,0,3.4,1.4,3.4,3.6v1
			C501.7,43.7,500.5,45.1,498.2,45.1z M499.5,40.6c0-1.1-0.4-1.7-1.2-1.7s-1.2,0.6-1.2,1.7v1c0,1.1,0.4,1.7,1.2,1.7s1.2-0.6,1.2-1.7
			V40.6z"/>
		<path class="st9" d="M506.4,45.1c-1.1,0-2.1-0.2-2.9-0.4c-0.4-0.1-0.4-0.2-0.4-0.4v-9.6c0-0.2,0.1-0.3,0.3-0.3h1.7
			c0.2,0,0.3,0.1,0.3,0.3v2.4c0.4-0.1,0.8-0.1,1.1-0.1c2.3,0,3.4,1.4,3.4,3.5v1.1C509.9,43.8,508.6,45.1,506.4,45.1z M507.6,40.5
			c0-1-0.2-1.7-1.2-1.7c-0.3,0-0.8,0-1.1,0.1v4.3c0.3,0,0.7,0.1,1.1,0.1c1,0,1.2-0.7,1.2-1.7V40.5z"/>
		<path class="st9" d="M513.3,36.2h-1.8c-0.2,0-0.3-0.1-0.3-0.3v-1.3c0-0.2,0.1-0.3,0.3-0.3h1.8c0.2,0,0.3,0.1,0.3,0.3V36
			C513.6,36.1,513.5,36.2,513.3,36.2z M513.3,45h-1.7c-0.2,0-0.3-0.1-0.3-0.3v-7.3c0-0.2,0.1-0.3,0.3-0.3h1.7c0.2,0,0.3,0.1,0.3,0.3
			v7.3C513.5,44.8,513.4,45,513.3,45z"/>
		<path class="st9" d="M517.2,45h-1.7c-0.2,0-0.3-0.1-0.3-0.3v-9.9c0-0.2,0.1-0.3,0.3-0.3h1.7c0.2,0,0.3,0.1,0.3,0.3v9.9
			C517.4,44.8,517.3,45,517.2,45z"/>
		<path class="st9" d="M525.4,41.7h-4.4v0c0,0.8,0.3,1.5,1.4,1.5c0.9,0,2.1-0.1,2.6-0.1c0,0,0,0,0,0c0.2,0,0.3,0.1,0.3,0.2v1
			c0,0.2-0.1,0.3-0.3,0.4c-0.9,0.2-1.6,0.3-2.8,0.3c-1.7,0-3.4-0.9-3.4-3.5v-1c0-2.2,1.3-3.6,3.5-3.6c2.2,0,3.4,1.5,3.4,3.6v0.8
			C525.7,41.6,525.6,41.7,525.4,41.7z M523.6,40.3c0-1-0.5-1.5-1.2-1.5c-0.8,0-1.3,0.5-1.3,1.5v0.1L523.6,40.3L523.6,40.3z"/>
		<path class="st9" d="M538.6,45h-1.9c-0.1,0-0.2-0.1-0.3-0.2l-0.5-2.2h-2.8l-0.5,2.2c0,0.1-0.1,0.2-0.3,0.2h-1.9
			c-0.1,0-0.2-0.1-0.2-0.2c0,0,0,0,0-0.1l2-8.5c0.3-1.3,1.3-1.5,2.3-1.5s1.9,0.2,2.3,1.5l2,8.5c0,0,0,0.1,0,0.1
			C538.8,44.9,538.7,45,538.6,45z M534.7,36.8c0-0.1-0.1-0.2-0.2-0.2s-0.2,0.1-0.2,0.2l-0.8,3.8h2L534.7,36.8z"/>
		<path class="st9" d="M543.2,45.1c-0.3,0-0.7,0-1.1-0.1v2.4c0,0.2-0.1,0.3-0.3,0.3h-1.7c-0.2,0-0.3-0.1-0.3-0.3v-9.6
			c0-0.2,0.1-0.3,0.4-0.4c0.8-0.2,1.9-0.4,2.9-0.4c2.2,0,3.4,1.3,3.4,3.5v1.1C546.7,43.7,545.5,45.1,543.2,45.1z M544.5,40.5
			c0-1-0.2-1.7-1.2-1.7c-0.5,0-0.9,0-1.1,0.1v4.3c0.3,0,0.8,0.1,1.1,0.1c1,0,1.2-0.7,1.2-1.7V40.5z"/>
		<path class="st9" d="M551.4,45.1c-0.3,0-0.7,0-1.1-0.1v2.4c0,0.2-0.1,0.3-0.3,0.3h-1.7c-0.2,0-0.3-0.1-0.3-0.3v-9.6
			c0-0.2,0.1-0.3,0.4-0.4c0.8-0.2,1.9-0.4,2.9-0.4c2.2,0,3.4,1.3,3.4,3.5v1.1C554.8,43.7,553.7,45.1,551.4,45.1z M552.6,40.5
			c0-1-0.2-1.7-1.2-1.7c-0.5,0-0.9,0-1.1,0.1v4.3c0.3,0,0.8,0.1,1.1,0.1c1,0,1.2-0.7,1.2-1.7V40.5z"/>
		<path class="st9" d="M558.2,45h-1.7c-0.2,0-0.3-0.1-0.3-0.3v-9.9c0-0.2,0.1-0.3,0.3-0.3h1.7c0.2,0,0.3,0.1,0.3,0.3v9.9
			C558.5,44.8,558.3,45,558.2,45z"/>
		<path class="st9" d="M562.2,36.2h-1.8c-0.2,0-0.3-0.1-0.3-0.3v-1.3c0-0.2,0.1-0.3,0.3-0.3h1.8c0.2,0,0.3,0.1,0.3,0.3V36
			C562.4,36.1,562.3,36.2,562.2,36.2z M562.1,45h-1.7c-0.2,0-0.3-0.1-0.3-0.3v-7.3c0-0.2,0.1-0.3,0.3-0.3h1.7c0.2,0,0.3,0.1,0.3,0.3
			v7.3C562.4,44.8,562.3,45,562.1,45z"/>
		<path class="st9" d="M568.9,44.9c-0.4,0.1-1,0.2-1.8,0.2c-1.9,0-3.2-1.2-3.2-3.5v-1.1c0-2.2,1.3-3.5,3.2-3.5
			c0.8,0,1.4,0.1,1.8,0.2c0.2,0.1,0.3,0.1,0.3,0.3v1.2c0,0.1-0.1,0.2-0.3,0.2c0,0,0,0,0,0c-0.5-0.1-0.9-0.1-1.7-0.1
			c-0.6,0-1.1,0.4-1.1,1.6v1.1c0,1.2,0.5,1.6,1.1,1.6c0.8,0,1.2,0,1.7-0.1c0,0,0,0,0,0c0.1,0,0.3,0.1,0.3,0.2v1.2
			C569.2,44.8,569.1,44.8,568.9,44.9z"/>
		<path class="st9" d="M576.3,45h-1.5c-0.2,0-0.3-0.1-0.3-0.3v-0.2c-0.5,0.4-1.1,0.6-1.9,0.6c-1.2,0-2.3-0.6-2.3-2.4v-0.1
			c0-1.6,1-2.3,3.4-2.3h0.7v-0.5c0-0.8-0.4-0.9-1-0.9c-0.9,0-1.8,0.1-2.3,0.1H571c-0.1,0-0.2-0.1-0.2-0.2v-1.1
			c0-0.2,0.1-0.3,0.3-0.3c0.5-0.1,1.5-0.3,2.4-0.3c2,0,3.2,0.8,3.2,2.8v4.9C576.6,44.8,576.5,45,576.3,45z M574.4,41.6h-0.8
			c-1,0-1.2,0.3-1.2,1v0.1c0,0.6,0.3,0.7,0.9,0.7c0.4,0,0.8-0.1,1.1-0.3V41.6z"/>
		<path class="st9" d="M582.5,45c-0.4,0.1-0.7,0.1-1.1,0.1c-1.5,0-2.3-0.4-2.3-2.3v-4l-1.1-0.2c-0.2,0-0.3-0.1-0.3-0.3v-0.9
			c0-0.2,0.1-0.3,0.3-0.3h1.1V36c0-0.2,0.1-0.2,0.3-0.3l1.7-0.3c0,0,0,0,0,0c0.1,0,0.2,0.1,0.2,0.2v1.5h1.1c0.2,0,0.3,0.1,0.3,0.3
			v1.1c0,0.2-0.1,0.3-0.3,0.3h-1.1v4c0,0.5,0,0.6,0.5,0.6h0.7c0.2,0,0.3,0.1,0.3,0.2v1.1C582.8,44.8,582.7,45,582.5,45z"/>
		<path class="st9" d="M586.1,36.2h-1.8c-0.2,0-0.3-0.1-0.3-0.3v-1.3c0-0.2,0.1-0.3,0.3-0.3h1.8c0.2,0,0.3,0.1,0.3,0.3V36
			C586.3,36.1,586.2,36.2,586.1,36.2z M586,45h-1.7c-0.2,0-0.3-0.1-0.3-0.3v-7.3c0-0.2,0.1-0.3,0.3-0.3h1.7c0.2,0,0.3,0.1,0.3,0.3
			v7.3C586.3,44.8,586.2,45,586,45z"/>
		<path class="st9" d="M591.2,45.1c-2.2,0-3.4-1.4-3.4-3.6v-1c0-2.2,1.2-3.6,3.4-3.6c2.2,0,3.4,1.4,3.4,3.6v1
			C594.6,43.7,593.4,45.1,591.2,45.1z M592.4,40.6c0-1.1-0.4-1.7-1.2-1.7s-1.2,0.6-1.2,1.7v1c0,1.1,0.4,1.7,1.2,1.7s1.2-0.6,1.2-1.7
			V40.6z"/>
		<path class="st9" d="M602.5,45h-1.7c-0.2,0-0.3-0.1-0.3-0.3v-4.6c0-1-0.2-1.3-1-1.3c-0.4,0-0.8,0.2-1.3,0.4v5.4
			c0,0.2-0.1,0.3-0.3,0.3h-1.7c-0.2,0-0.3-0.1-0.3-0.3v-7.3c0-0.2,0.1-0.3,0.3-0.3h1.5c0.2,0,0.3,0.1,0.3,0.3v0.3
			c0.8-0.5,1.4-0.7,2.2-0.7c2,0,2.4,1.4,2.4,3.1v4.6C602.8,44.8,602.7,45,602.5,45z"/>
		<path class="st9" d="M607,45.1c-0.8,0-1.8-0.1-2.5-0.3c-0.2,0-0.3-0.2-0.3-0.3v-1.1c0-0.1,0.1-0.3,0.3-0.3c0,0,0,0,0.1,0
			c0.7,0.1,1.9,0.2,2.3,0.2c0.7,0,0.8-0.2,0.8-0.5c0-0.2-0.1-0.4-0.5-0.6l-1.8-1c-0.8-0.4-1.2-1.1-1.2-2c0-1.4,0.9-2.1,2.8-2.1
			c1.1,0,1.7,0.1,2.4,0.3c0.2,0,0.3,0.2,0.3,0.3v1.1c0,0.2-0.1,0.3-0.2,0.3c0,0,0,0,0,0c-0.4-0.1-1.6-0.2-2.3-0.2
			c-0.5,0-0.7,0.1-0.7,0.4c0,0.2,0.2,0.3,0.4,0.5l1.7,1c1.1,0.7,1.4,1.4,1.4,2.1C609.9,44.1,609,45.1,607,45.1z"/>
	</g>
</g>
<g>
	<g>
		<defs>
			<rect id="SVGID_1_" y="0" width="455.2" height="296"/>
		</defs>
		<clipPath id="SVGID_00000115512736333246512410000000385447894887943831_">
			<use xlink:href="#SVGID_1_"  style="overflow:visible;"/>
		</clipPath>
		
			<g id="Mock_up_x5F_02e.psd_00000061441188046186649780000013663246903794787247_" style="clip-path:url(#SVGID_00000115512736333246512410000000385447894887943831_);">
			
				<image style="overflow:visible;enable-background:new    ;" width="1443" height="887" id="Mock_up_x5F_02e" xlink:href="56ED70738653536A.png"  transform="matrix(0.336 0 0 0.336 -6.5383 0.2636)">
			</image>
		</g>
	</g>
</g>
</svg>
