<?xml version="1.0" encoding="UTF-8"?><svg id="a" xmlns="http://www.w3.org/2000/svg" width="139.53" height="139" viewBox="0 0 139.53 139"><defs><style>.b{fill:#122a4f;}</style></defs><path class="b" d="M94.56,31.32c-3.36,.59-6.43,.7-9.18,1.7-3.96,1.44-7.93,3.16-11.42,5.47-2.58,1.71-4.95,2.47-7.98,2.44-14.35-.12-28.7-.06-43.05-.05-1,0-2.01-.02-2.99,.12-2.18,.3-3.49,1.65-3.55,3.81-.07,2.3,1.26,3.72,3.55,4.09,.98,.16,1.99,.15,2.99,.15,12.53,0,25.07,0,37.6,0,.98,0,1.96,0,3.22,0-1.05,2.61-1.82,4.99-2.99,7.16-.35,.64-1.8,.97-2.74,.97-11.81,.06-23.61,.04-35.42,.04-4.23,0-6.19,1.27-6.24,4-.05,2.79,2.05,4.17,6.37,4.18,10.99,0,21.98,0,32.97,0,.99,0,1.98,0,3.3,0,.18,2.72,.35,5.28,.54,8.18-1.32,0-2.39,0-3.46,0-11.17,0-22.34,0-33.51,0-.99,0-2.01,0-2.98,.19-2.03,.42-3.17,1.8-3.19,3.84-.02,2.04,1.13,3.43,3.13,3.89,1.05,.24,2.16,.23,3.25,.24,12.35,.01,24.7,.02,37.06,0,1.39,0,2.5,0,3.35,1.57,6.22,11.44,15.81,17.88,28.85,19.06,.71,.06,1.42,.18,2.36,.31,.06,.94,.17,1.81,.17,2.68,.01,9.26,.02,18.53,0,27.79,0,4.68-1.14,5.83-5.79,5.83-27.7,.01-55.4,.01-83.1,0-4.4,0-5.66-1.29-5.66-5.67C0,90.73,0,48.13,0,5.53,0,1.33,1.29,.01,5.53,.01,33.32,0,61.11,0,88.91,0c4.48,0,5.64,1.18,5.65,5.69,.02,8.52,0,17.05,0,25.62Zm-54.78-6.78c-6.08,0-12.16-.03-18.24,.01-3.27,.02-5.11,1.47-5.2,3.94-.09,2.58,1.82,4.2,5.19,4.21,11.98,.03,23.96,.03,35.93,0,3.36,0,5.29-1.64,5.2-4.21-.09-2.48-1.92-3.92-5.19-3.94-5.9-.04-11.8-.01-17.69-.01Zm-.26,73.58c5.99,0,11.98,.03,17.97-.01,3.27-.02,5.1-1.47,5.18-3.95,.09-2.57-1.84-4.19-5.21-4.2-11.98-.03-23.95-.03-35.93,0-3.26,0-5.1,1.48-5.19,3.95-.08,2.58,1.83,4.18,5.21,4.2,5.99,.04,11.98,.01,17.97,.01Zm21.79,16.35c4.26,0,8.53,.04,12.79-.01,3.05-.04,4.83-1.54,4.92-3.94,.09-2.51-1.76-4.18-4.92-4.2-8.53-.05-17.05-.05-25.58,0-3.06,.02-4.84,1.53-4.92,3.93-.09,2.49,1.79,4.16,4.92,4.2,4.26,.06,8.53,.01,12.79,.01Z"/><path class="b" d="M111.66,88.48c1.46,2.56,2.84,4.99,4.21,7.39-2.29,1.32-4.55,2.62-7.03,4.04-1.35-2.29-2.76-4.68-4.31-7.3-8.98,2.91-17.62,2.3-25.56-3.2-5.34-3.7-8.91-8.75-10.67-14.98-3.59-12.68,2.61-26.24,14.51-31.93,11.95-5.71,26.17-1.97,33.94,8.76,6.86,9.47,7.99,25.66-5.08,37.22Zm-20.4-18.71c-1.25-1.4-2.15-2.54-3.19-3.54-2.06-1.98-4.26-2.05-6.01-.32-1.72,1.7-1.66,4.01,.26,6.03,1.81,1.9,3.68,3.75,5.56,5.58,2.53,2.46,4.42,2.45,6.99-.09,3.86-3.82,7.7-7.67,11.53-11.53,2.3-2.32,2.49-4.56,.62-6.4-1.81-1.79-4.15-1.57-6.42,.71-3,3.02-5.94,6.08-9.34,9.57Z"/><path class="b" d="M121.78,103.81c1.5,.02,3.94,1.11,5.45,3.64,3.83,6.47,7.64,12.96,11.26,19.54,2.21,4,.78,8.63-3.01,10.85-3.89,2.27-8.73,1.12-11.14-2.9-3.77-6.3-7.48-12.63-10.98-19.08-3.03-5.59,.8-12,8.42-12.06Z"/></svg>