<?xml version="1.0" encoding="utf-8"?>
<!-- Generator: Adobe Illustrator 27.9.0, SVG Export Plug-In . SVG Version: 6.00 Build 0)  -->
<svg version="1.1" id="Layer_1" xmlns="http://www.w3.org/2000/svg" xmlns:xlink="http://www.w3.org/1999/xlink" x="0px" y="0px"
	 viewBox="0 0 519.3 475.7" style="enable-background:new 0 0 519.3 475.7;" xml:space="preserve">
<style type="text/css">
	.st0{fill:#D3D4D4;}
	.st1{fill:#12294C;}
	.st2{fill:#B3B2B3;}
	.st3{fill:#FFFFFF;}
	.st4{font-family:'NeoSansW1G-Medium';}
	.st5{font-size:26.8543px;}
	.st6{font-family:'NeoSansW1G-Regular';}
	.st7{font-size:24.7886px;}
	.st8{font-size:24.7891px;}
	.st9{font-size:24.7887px;}
	.st10{font-size:24.7873px;}
</style>
<g>
	<g>
		<polygon class="st0" points="131.8,43.1 8.7,256.3 255,256.3 		"/>
		<polygon class="st0" points="8.7,261.1 131.9,474.5 255.4,261.1 		"/>
		<polygon class="st0" points="509.8,256.3 386.9,43.4 263.6,256.3 		"/>
		<polygon class="st0" points="383.1,40.5 135.8,40.5 259.3,254.3 		"/>
		<polygon class="st0" points="135.9,476.9 382.4,476.9 259.3,263.8 		"/>
		<polygon class="st0" points="263.2,261.1 386.5,474.6 509.8,261.1 		"/>
	</g>
	<path class="st1" d="M354.2,320.9c-9.7,16-19.2,32.1-29,48c-43.5-0.3-87.2-0.4-130.7-0.7c-9.7-15.7-19.1-31.4-28.7-47.1
		c-12.2-20.9-24.5-41.6-36.7-62.3c9.7-16,26.5-43.8,36.1-59.9c7-11.6,22.8-37.8,29.7-49.5c43.4,0.1,87,0.4,130.4,0.6
		c10.7,17.5,21.4,35.2,32.1,53c11.2,18.8,22.2,37.6,33.1,56.2C378.4,280,366.3,300.4,354.2,320.9z"/>
	<path class="st2" d="M349.3,317.4c-9.1,15.1-18.1,30.1-27.2,45.3c-41.1-0.1-82.2-0.4-123.3-0.6c-9.1-14.7-17.9-29.4-27-44.4
		c-11.5-19.6-23-39.2-34.6-58.8c9.1-15.1,24.9-41.3,34-56.4c6.6-10.9,21.5-35.7,28.2-46.6c40.9,0.1,81.9,0.4,122.9,0.6
		c10.1,16.5,20.2,33.1,30.3,50c10.5,17.7,21,35.4,31.1,52.8C372.1,278.7,360.7,298.1,349.3,317.4z"/>
</g>
<g>
	<text transform="matrix(1 0 0 1 218.8281 239.1789)" class="st3 st4 st5">Quality</text>
	<text transform="matrix(1 0 0 1 199.5281 278.3789)" class="st3 st4 st5">Assurance</text>
</g>
<g>
	<text transform="matrix(0.9991 0 0 1 213.165 101.3203)" class="st1 st6 st7">Analysis</text>
</g>
<g>
	<text transform="matrix(0.9991 0 0 1 229.8506 437.4658)" class="st1 st6 st7">Test</text>
</g>
<g>
	<text transform="matrix(0.4814 -0.8755 0.8763 0.4818 395.9977 388.3957)" class="st1 st6 st8">Develop</text>
</g>
<g>
	<text transform="matrix(0.5174 -0.8547 0.8548 0.5189 79.5685 223.0361)" class="st1 st6 st9">Training &amp;</text>
	<text transform="matrix(0.5174 -0.8547 0.8548 0.5189 95.5267 248.6186)" class="st1 st6 st9">Maintenance</text>
</g>
<g>
	<text transform="matrix(0.5066 0.8611 -0.8619 0.5071 85.4299 311.478)" class="st1 st6 st9">Deploy</text>
</g>
<g>
	<text transform="matrix(0.5062 0.8614 -0.8622 0.5066 381.5876 153.1383)" class="st1 st6 st10">Design</text>
</g>
</svg>
