<?xml version="1.0" encoding="UTF-8"?><svg id="a" xmlns="http://www.w3.org/2000/svg" width="139.35" height="139" viewBox="0 0 139.35 139"><defs><style>.b{fill:#122a4f;}</style></defs><path class="b" d="M15.41,138.92c0-1.15,0-2.2,0-3.25,0-21.62-.04-43.23,.07-64.85,0-1.78,1.02-3.55,1.79-6.06,3.61,3.59,6.98,4.95,11.11,4.87,3.97-.07,7.44-.89,10.24-4.2,2.94,2.94,6.31,4.26,10.43,4.2,3.99-.05,7.4-.99,10.09-3.97,8.3,5.49,14.2,5.49,20.77,.06,5.86,5.38,15.57,5.28,20.68,0,5.67,5.24,15.27,5.42,20.73-.04,2.24,1,2.78,2.74,2.78,5.13-.08,21.62-.04,43.23-.04,64.85,0,1.05,0,2.1,0,3.33H63.29v-3.57c0-16.56,0-33.12,0-49.68q0-5.33-5.48-5.33c-8.49,0-16.99,.1-25.48-.05-3.13-.06-4.15,1.13-4.14,4.16,.08,16.78,.04,33.55,.04,50.33,0,1.28,0,2.55,0,4.08H15.41Zm60.75-41.33c0,4.52,.1,9.04-.04,13.55-.09,2.88,1.02,4.14,3.93,4.12,9.14-.06,18.28-.05,27.42,0,2.53,.01,3.76-1.01,3.75-3.64-.05-9.36-.05-18.71,0-28.07,.01-2.41-1.01-3.62-3.43-3.61-9.35,0-18.71,0-28.06,0-2.55,0-3.66,1.18-3.6,3.79,.11,4.62,.03,9.25,.03,13.87Z"/><path class="b" d="M1.09,47.98c2.57-7.99,5.04-15.73,7.53-23.45q2.64-8.18,11.41-8.18c34.73,0,69.47,.04,104.2-.07,2.91,0,4.26,.67,5.13,3.64,2.52,8.64,5.46,17.15,8.23,25.72,.22,.69,.37,1.41,.61,2.33H1.09Z"/><path class="b" d="M127.2,0V10.97H12.27V0H127.2Z"/><path class="b" d="M57.97,85.76v53.24h-24.37v-53.24h24.37Z"/><path class="b" d="M.14,53.46H15.32c.21,3.6,.93,7.17-2.4,9.77-1.96,1.53-7.63,1.71-9.84,.33C-.76,61.15,.03,57.37,.14,53.46Z"/><path class="b" d="M20.76,53.48h15.2c.23,3.49,1.06,7.16-2.33,9.63-2.9,2.11-6.41,1.92-9.48,.56-4.37-1.93-3.46-6.11-3.39-10.19Z"/><path class="b" d="M41.41,53.48h15.2c.24,3.5,1.06,7.17-2.33,9.64-2.9,2.11-6.41,1.92-9.48,.55-4.35-1.94-3.47-6.11-3.4-10.18Z"/><path class="b" d="M103.37,53.48h15.27c.13,3.73,1.19,8.05-2.83,9.76-2.71,1.16-6.67,1.16-9.42,.06-4.09-1.64-3.06-6-3.02-9.82Z"/><path class="b" d="M139.23,53.56c.65,8.31-1.14,10.83-7.53,10.83-6.37,0-8.22-2.59-7.56-10.83h15.09Z"/><path class="b" d="M62.09,53.46h15.21c.17,3.6,.94,7.18-2.43,9.77-1.98,1.52-7.64,1.69-9.84,.3-3.81-2.41-3.05-6.19-2.94-10.08Z"/><path class="b" d="M82.78,53.5h15.21c.13,3.75,1.15,8.08-2.89,9.77-2.72,1.14-6.68,1.15-9.41,.02-4.04-1.67-3.09-5.99-2.91-9.79Z"/><path class="b" d="M105.8,109.96h-24.24v-24.65h24.24v24.65Z"/></svg>