<?xml version="1.0" encoding="UTF-8"?><svg id="a" xmlns="http://www.w3.org/2000/svg" width="139.2" height="139" viewBox="0 0 139.2 139"><defs><style>.b{fill:#fff;}</style></defs><path class="b" d="M139.2,101.29c0,20.75-16.9,37.7-37.61,37.71-20.84,0-37.96-17.1-37.85-37.82,.11-20.69,17.18-37.68,37.82-37.64,20.67,.03,37.64,17.05,37.64,37.75Zm-43.76,5.25c-2.24-2.27-4.24-4.37-6.31-6.38-2.3-2.24-4.81-2.36-6.69-.41-1.8,1.86-1.68,4.32,.44,6.5,3.03,3.11,6.11,6.18,9.21,9.21,2.62,2.55,5.03,2.44,7.43-.31,3.57-4.09,7.12-8.2,10.67-12.3,2.49-2.87,5.02-5.71,7.43-8.65,1.81-2.22,1.65-4.62-.22-6.29-1.89-1.68-4.24-1.5-6.24,.55-.76,.77-1.45,1.62-2.16,2.44-4.44,5.12-8.88,10.24-13.57,15.65Z"/><path class="b" d="M53.91,114.27c-12.77-6.56-24.9-12.79-37.03-19.03-4.58-2.36-9.16-4.72-13.75-7.07C1.32,87.25,0,85.99,0,83.8,0,67.04,0,50.28,0,33.22c.9,.33,1.63,.53,2.31,.86,5.78,2.79,11.51,5.68,17.34,8.37,1.67,.77,2.17,1.7,2.13,3.48-.13,5.07-.06,10.15-.04,15.22,.01,3.14,1.7,5.19,4.25,5.26,2.66,.07,4.44-2.04,4.46-5.32,.02-4.24,0-8.49,0-12.98,.82,.27,1.41,.4,1.95,.65,6.51,3.14,13,6.35,19.54,9.43,1.44,.68,1.92,1.52,1.9,3.09-.09,8.7,.01,17.4-.11,26.1-.03,2.23-.63,4.46-.99,6.68-1.07,6.6-.57,13.13,1.17,20.21Z"/><path class="b" d="M35.18,40.35c10.95-5.51,21.59-10.86,32.22-16.22,6.22-3.13,12.41-6.31,18.66-9.36,.84-.41,2.15-.62,2.93-.26,7.2,3.36,14.34,6.88,21.48,10.35,.22,.11,.38,.34,.73,.66-.63,.35-1.13,.67-1.66,.92-16.48,8.05-32.96,16.12-49.49,24.07-1.09,.52-2.83,.55-3.92,.05-6.16-2.81-12.22-5.85-18.31-8.83-.8-.39-1.57-.82-2.66-1.4Z"/><path class="b" d="M77.79,8.95c-1.3,.72-2.12,1.22-2.97,1.65-15.72,7.94-31.46,15.84-47.15,23.84-1.69,.86-3.02,.94-4.73,.07-5.95-3.03-11.99-5.89-18.36-8.99,.92-.53,1.56-.95,2.25-1.28C22.82,16.44,38.83,8.69,54.79,.83c2.25-1.11,4.17-1.12,6.39,.01,5.35,2.73,10.78,5.28,16.61,8.11Z"/><path class="b" d="M115.83,33.47v20.47c-21.04-5.24-38.61,.34-53.3,16.94,0-3.97-.05-7.51,.06-11.05,.02-.5,.78-1.15,1.35-1.42,16.88-8.25,33.78-16.47,50.68-24.68,.3-.14,.67-.15,1.21-.26Z"/></svg>