<svg xmlns="http://www.w3.org/2000/svg" xmlns:xlink="http://www.w3.org/1999/xlink" width="519.3" height="436.4" viewBox="0 0 519.3 436.4">
  <defs>
    <clipPath id="clip-path">
      <path id="Path_2" data-name="Path 2" d="M244.9,67.8c2.6,7.9,3.6,22.1,11.2,22.1h0a11.019,11.019,0,0,0,1.8-.2h0c-6.9-1.6-7.7-15.6-11.9-22.9h0a12.036,12.036,0,0,0-1.1,1"/>
    </clipPath>
    <clipPath id="clip-path-2">
      <rect id="Rectangle_2" data-name="Rectangle 2" width="12.9" height="23.1" transform="translate(245 66.9)"/>
    </clipPath>
    <linearGradient id="linear-gradient" x1="-35.435" y1="-6.847" x2="-35.357" y2="-6.847" gradientUnits="objectBoundingBox">
      <stop offset="0" stop-color="#0095da"/>
      <stop offset="0.11" stop-color="#0095da"/>
      <stop offset="0.18" stop-color="#0397db"/>
      <stop offset="0.23" stop-color="#0e9fdf"/>
      <stop offset="0.28" stop-color="#1face6"/>
      <stop offset="0.33" stop-color="#37bef0"/>
      <stop offset="0.35" stop-color="#44c8f5"/>
      <stop offset="0.45" stop-color="#44c8f5"/>
      <stop offset="0.47" stop-color="#40c4f2"/>
      <stop offset="0.63" stop-color="#1d9dda"/>
      <stop offset="0.76" stop-color="#0886cb"/>
      <stop offset="0.85" stop-color="#007dc5"/>
      <stop offset="1" stop-color="#007dc5"/>
    </linearGradient>
    <clipPath id="clip-path-3">
      <path id="Path_3" data-name="Path 3" d="M245.9,66.9c4.2,7.3,5,21.3,11.9,22.9h0c.6-.1,1.1-.3,1.6-.4h0c-6.2-3-7.9-16.6-12.7-23.2h0c-.3.1-.5.4-.8.7"/>
    </clipPath>
    <clipPath id="clip-path-4">
      <rect id="Rectangle_4" data-name="Rectangle 4" width="105.7" height="105.7" transform="translate(153.6 66)"/>
    </clipPath>
    <linearGradient id="linear-gradient-2" x1="-3.462" y1="-1.501" x2="-3.453" y2="-1.501" gradientUnits="objectBoundingBox">
      <stop offset="0" stop-color="#0078b9"/>
      <stop offset="0.18" stop-color="#0078b9"/>
      <stop offset="0.24" stop-color="#0087c7"/>
      <stop offset="0.36" stop-color="#00abe6"/>
      <stop offset="0.52" stop-color="#00abe6"/>
      <stop offset="0.73" stop-color="#00ace9"/>
      <stop offset="0.85" stop-color="#00aeef"/>
      <stop offset="1" stop-color="#00aeef"/>
    </linearGradient>
    <clipPath id="clip-path-5">
      <rect id="Rectangle_7" data-name="Rectangle 7" width="12.7" height="23.8" transform="translate(253.4 62.7)"/>
    </clipPath>
    <clipPath id="clip-path-6">
      <path id="Path_5" data-name="Path 5" d="M264.3,86.5c.6-.5,1.3-1.1,1.9-1.7-2.6-7.9-3.6-22.3-11.2-22.3a7.772,7.772,0,0,0-1.6.2c6.9,1.7,7.7,16.9,10.9,23.8"/>
    </clipPath>
    <clipPath id="clip-path-7">
      <rect id="Rectangle_6" data-name="Rectangle 6" width="84.1" height="84.1" transform="translate(253.3 2.4)"/>
    </clipPath>
    <linearGradient id="linear-gradient-3" x1="-5.796" y1="-1.192" x2="-5.784" y2="-1.192" gradientUnits="objectBoundingBox">
      <stop offset="0" stop-color="#0066b3"/>
      <stop offset="0.14" stop-color="#0079c1"/>
      <stop offset="0.42" stop-color="#00a9e6"/>
      <stop offset="0.5" stop-color="#00b9f2"/>
      <stop offset="1" stop-color="#00b9f2"/>
    </linearGradient>
    <clipPath id="clip-path-8">
      <rect id="Rectangle_8" data-name="Rectangle 8" width="3" height="0.4" transform="translate(252.1 62.3)"/>
    </clipPath>
    <clipPath id="clip-path-9">
      <path id="Path_8" data-name="Path 8" d="M251.5,63.2c6.2,3.3,6.8,18,11.8,24h0l1-.8h0c-3.1-6.9-4-22-11-23.8h0a12.666,12.666,0,0,0-1.8.6"/>
    </clipPath>
    <clipPath id="clip-path-10">
      <rect id="Rectangle_10" data-name="Rectangle 10" width="109.8" height="109.8" transform="translate(154.6 62.8)"/>
    </clipPath>
    <linearGradient id="linear-gradient-4" x1="-3.345" y1="-1.416" x2="-3.336" y2="-1.416" gradientUnits="objectBoundingBox">
      <stop offset="0" stop-color="#006cb3"/>
      <stop offset="0.1" stop-color="#006cb3"/>
      <stop offset="0.2" stop-color="#007ec1"/>
      <stop offset="0.4" stop-color="#00abe6"/>
      <stop offset="0.52" stop-color="#00abe6"/>
      <stop offset="0.85" stop-color="#0097d9"/>
      <stop offset="1" stop-color="#0097d9"/>
    </linearGradient>
    <clipPath id="clip-path-11">
      <path id="Path_9" data-name="Path 9" d="M246.7,66.1c4.8,6.6,6.5,20.2,12.7,23.2h0a15.238,15.238,0,0,0,3.8-2h0c-5-6-5.5-20.8-11.8-24h0a16.259,16.259,0,0,0-4.7,2.8"/>
    </clipPath>
    <clipPath id="clip-path-12">
      <rect id="Rectangle_12" data-name="Rectangle 12" width="16.6" height="26.1" transform="translate(246.8 63.3)"/>
    </clipPath>
    <linearGradient id="linear-gradient-5" x1="-27.715" y1="-5.932" x2="-27.654" y2="-5.932" gradientUnits="objectBoundingBox">
      <stop offset="0" stop-color="#00487e"/>
      <stop offset="0.11" stop-color="#00487e"/>
      <stop offset="0.39" stop-color="#0087c7"/>
      <stop offset="0.52" stop-color="#0087c7"/>
      <stop offset="0.54" stop-color="#0082c2"/>
      <stop offset="0.78" stop-color="#005598"/>
      <stop offset="1" stop-color="#005598"/>
    </linearGradient>
    <clipPath id="clip-path-13">
      <rect id="Rectangle_13" data-name="Rectangle 13" width="5.5" height="8.9" transform="translate(239.4 65.7)"/>
    </clipPath>
    <clipPath id="clip-path-14">
      <rect id="Rectangle_16" data-name="Rectangle 16" width="22.5" height="28" transform="translate(269.6 61.8)"/>
    </clipPath>
    <clipPath id="clip-path-15">
      <path id="Path_13" data-name="Path 13" d="M288,61.8c-3.5,13.6-10.9,24.5-17,27.3h0l-.3.1h-1.1a2.92,2.92,0,0,0,.9.2c5.9,0,11.8-10.5,21.5-28Z"/>
    </clipPath>
    <clipPath id="clip-path-16">
      <rect id="Rectangle_15" data-name="Rectangle 15" width="81.9" height="82" transform="translate(269.5 7.9)"/>
    </clipPath>
    <linearGradient id="linear-gradient-6" x1="-6.153" y1="-1.288" x2="-6.141" y2="-1.288" gradientUnits="objectBoundingBox">
      <stop offset="0" stop-color="#006db0"/>
      <stop offset="0.13" stop-color="#0a87c4"/>
      <stop offset="0.33" stop-color="#16a8de"/>
      <stop offset="0.49" stop-color="#1dbdee"/>
      <stop offset="0.6" stop-color="#20c4f4"/>
      <stop offset="1" stop-color="#20c4f4"/>
    </linearGradient>
    <clipPath id="clip-path-17">
      <rect id="Rectangle_17" data-name="Rectangle 17" width="20.4" height="28" transform="translate(219.9 62.7)"/>
    </clipPath>
    <clipPath id="clip-path-18">
      <path id="Path_17" data-name="Path 17" d="M224.2,84c6-11.6,8.9-18.9,13.9-20.9h0c-5.2,2-11,9.7-13.9,20.9"/>
    </clipPath>
    <clipPath id="clip-path-19">
      <rect id="Rectangle_19" data-name="Rectangle 19" width="83.9" height="83.9" transform="translate(224.1)"/>
    </clipPath>
    <linearGradient id="linear-gradient-7" x1="-5.462" y1="-1.166" x2="-5.45" y2="-1.166" gradientUnits="objectBoundingBox">
      <stop offset="0" stop-color="#008fd0"/>
      <stop offset="0.54" stop-color="#009ddb"/>
      <stop offset="1" stop-color="#00a4e0"/>
    </linearGradient>
    <clipPath id="clip-path-20">
      <rect id="Rectangle_22" data-name="Rectangle 22" width="12.7" height="16.1" transform="translate(226.7 74.6)"/>
    </clipPath>
    <clipPath id="clip-path-21">
      <path id="Path_19" data-name="Path 19" d="M226.9,90.7h-.4c6.1-.2,8.9-3.2,10.3-7.6,1.1-3.3,1.9-6.2,2.7-8.5a126.208,126.208,0,0,0-7.7,12.7,7.31,7.31,0,0,1-4.9,3.4"/>
    </clipPath>
    <clipPath id="clip-path-22">
      <rect id="Rectangle_21" data-name="Rectangle 21" width="81.6" height="81.6" transform="translate(226.5 9.1)"/>
    </clipPath>
    <linearGradient id="linear-gradient-8" x1="-5.65" y1="-1.311" x2="-5.637" y2="-1.311" gradientUnits="objectBoundingBox">
      <stop offset="0" stop-color="#00a1e4"/>
      <stop offset="1" stop-color="#00a1e4"/>
    </linearGradient>
    <clipPath id="clip-path-23">
      <path id="Path_20" data-name="Path 20" d="M227.1,90.7h0a6.8,6.8,0,0,0,4.8-3.6h0a126.207,126.207,0,0,1,7.7-12.7h0a55.414,55.414,0,0,1,2.5-6.8h0c-5.1,4.8-10.2,12.9-14.9,23"/>
    </clipPath>
    <clipPath id="clip-path-24">
      <rect id="Rectangle_24" data-name="Rectangle 24" width="14.9" height="23" transform="translate(226.8 67.5)"/>
    </clipPath>
    <linearGradient id="linear-gradient-9" x1="-31.114" y1="-7.162" x2="-31.047" y2="-7.162" gradientUnits="objectBoundingBox">
      <stop offset="0" stop-color="#005da4"/>
      <stop offset="0.15" stop-color="#005da4"/>
      <stop offset="0.32" stop-color="#007bc0"/>
      <stop offset="0.5" stop-color="#00a1e4"/>
      <stop offset="0.57" stop-color="#05a2e4"/>
      <stop offset="0.65" stop-color="#14a6e4"/>
      <stop offset="0.74" stop-color="#2cace4"/>
      <stop offset="0.83" stop-color="#4eb5e4"/>
      <stop offset="0.92" stop-color="#72bee4"/>
      <stop offset="1" stop-color="#72bee4"/>
    </linearGradient>
    <clipPath id="clip-path-25">
      <path id="Path_23" data-name="Path 23" d="M240,62.6h-.7l-.3.1h-.2l-.2.1h-.3c-5,2-7.9,9.3-13.9,20.9h0c-.5,2.1-1,4.3-1.3,6.3h.3a5.381,5.381,0,0,0,2.2.4h.8c0-.1.1-.1.2-.1h.6c4.5-10.1,9.6-18.1,14.7-23h0a11.088,11.088,0,0,1,1.7-3h0a7.887,7.887,0,0,0-1.2-1.5h-1l-.3-.1h-.6"/>
    </clipPath>
    <clipPath id="clip-path-26">
      <rect id="Rectangle_25" data-name="Rectangle 25" width="75.5" height="75.5" transform="translate(209.106 20.307) rotate(-9.84)"/>
    </clipPath>
    <linearGradient id="linear-gradient-10" x1="-5.072" y1="-1.157" x2="-5.06" y2="-1.157" gradientUnits="objectBoundingBox">
      <stop offset="0" stop-color="#005496"/>
      <stop offset="0.1" stop-color="#005496"/>
      <stop offset="1" stop-color="#0083c5"/>
    </linearGradient>
    <clipPath id="clip-path-27">
      <path id="Path_24" data-name="Path 24" d="M274.3,69.5c-1.1,3.7-2.1,6.8-2.9,9.3h0a99.97,99.97,0,0,0,9.3-16.2h0c-3.5,1-5.4,3.5-6.4,6.9"/>
    </clipPath>
    <clipPath id="clip-path-28">
      <rect id="Rectangle_27" data-name="Rectangle 27" width="39" height="39" transform="translate(271.3 39.6)"/>
    </clipPath>
    <linearGradient id="linear-gradient-11" x1="-13.318" y1="-3.598" x2="-13.293" y2="-3.598" gradientUnits="objectBoundingBox">
      <stop offset="0" stop-color="#00a1e4"/>
      <stop offset="0.47" stop-color="#009fe1"/>
      <stop offset="0.78" stop-color="#0098d8"/>
      <stop offset="0.87" stop-color="#0095d4"/>
      <stop offset="1" stop-color="#0095d4"/>
    </linearGradient>
    <clipPath id="clip-path-29">
      <rect id="Rectangle_29" data-name="Rectangle 29" width="17" height="27.2" transform="translate(270.8 61.8)"/>
    </clipPath>
    <clipPath id="clip-path-30">
      <path id="Path_26" data-name="Path 26" d="M271.5,88.9l-.5.2c6.2-2.8,13.5-13.7,17.1-27.3h-.7c-8.2,14.5-10.8,24.2-15.9,27.1"/>
    </clipPath>
    <clipPath id="clip-path-31">
      <rect id="Rectangle_28" data-name="Rectangle 28" width="91.4" height="91.4" transform="translate(186.835 137.213) rotate(-80.003)"/>
    </clipPath>
    <linearGradient id="linear-gradient-12" x1="-3.762" y1="-1.295" x2="-3.752" y2="-1.295" gradientUnits="objectBoundingBox">
      <stop offset="0" stop-color="#00a4e0"/>
      <stop offset="0.36" stop-color="#00a4e0"/>
      <stop offset="0.96" stop-color="#0089cf"/>
      <stop offset="1" stop-color="#0089cf"/>
    </linearGradient>
    <clipPath id="clip-path-32">
      <path id="Path_33" data-name="Path 33" d="M285.1,61.8h-3a.367.367,0,0,1-.3.1h0c-.1,0-.2,0-.3.3h0a.6.6,0,0,0-.6-.3h0l-.3.6h0a99.974,99.974,0,0,1-9.3,16.2h0c-1.5,4.6-2.6,7.4-3.9,9h0a3.9,3.9,0,0,0,2,2h1.3l.3-.1h0l.5-.2h0c5.2-2.9,7.8-12.6,15.9-27.1H285Z"/>
    </clipPath>
    <clipPath id="clip-path-33">
      <rect id="Rectangle_31" data-name="Rectangle 31" width="85.2" height="85.2" transform="translate(202 61.9)"/>
    </clipPath>
    <linearGradient id="linear-gradient-13" x1="-4.836" y1="-1.805" x2="-4.824" y2="-1.805" gradientUnits="objectBoundingBox">
      <stop offset="0" stop-color="#008dcf"/>
      <stop offset="0.5" stop-color="#0087c8"/>
      <stop offset="0.63" stop-color="#0078b8"/>
      <stop offset="1" stop-color="#00508f"/>
    </linearGradient>
    <clipPath id="clip-path-34">
      <rect id="Rectangle_34" data-name="Rectangle 34" width="12.3" height="2.5" transform="translate(239.8 62.7)"/>
    </clipPath>
    <clipPath id="clip-path-35">
      <path id="Path_37" data-name="Path 37" d="M240.3,62.7h.5a6.284,6.284,0,0,1,3.7,1.2,6.839,6.839,0,0,1,4.4-1.2h-8.6"/>
    </clipPath>
    <clipPath id="clip-path-36">
      <rect id="Rectangle_32" data-name="Rectangle 32" width="4.6" height="9" transform="matrix(0.383, -0.924, 0.924, 0.383, 239.127, 63.401)"/>
    </clipPath>
    <linearGradient id="linear-gradient-14" x1="-43.2" y1="-25.033" x2="-43.1" y2="-25.033" gradientUnits="objectBoundingBox">
      <stop offset="0" stop-color="#8ccfec"/>
      <stop offset="0.11" stop-color="#84cdec"/>
      <stop offset="0.28" stop-color="#6ec9eb"/>
      <stop offset="0.5" stop-color="#4ac2ea"/>
      <stop offset="0.7" stop-color="#20bae8"/>
      <stop offset="1" stop-color="#20bae8"/>
    </linearGradient>
    <clipPath id="clip-path-37">
      <path id="Path_39" data-name="Path 39" d="M248.8,62.7a6.839,6.839,0,0,0-4.4,1.2c.4.3.7.6,1.1.9a15.164,15.164,0,0,1,4.7-2,11.019,11.019,0,0,1,1.8-.2l-3.2.1Z"/>
    </clipPath>
    <clipPath id="clip-path-38">
      <rect id="Rectangle_33" data-name="Rectangle 33" width="17" height="17" transform="translate(243.552 63.167) rotate(-24.387)"/>
    </clipPath>
    <linearGradient id="linear-gradient-15" x1="-21.204" y1="-9.358" x2="-21.16" y2="-9.358" gradientUnits="objectBoundingBox">
      <stop offset="0" stop-color="#68c5ea"/>
      <stop offset="0.34" stop-color="#68c5ea"/>
      <stop offset="0.36" stop-color="#64c4ea"/>
      <stop offset="0.66" stop-color="#2ebaea"/>
      <stop offset="0.88" stop-color="#0db4ea"/>
      <stop offset="1" stop-color="#00b2ea"/>
    </linearGradient>
    <clipPath id="clip-path-39">
      <rect id="Rectangle_37" data-name="Rectangle 37" width="14.9" height="22.9" transform="translate(266.2 61.8)"/>
    </clipPath>
    <clipPath id="clip-path-40">
      <path id="Path_40" data-name="Path 40" d="M271.4,78.7c.8-2.5,1.8-5.6,2.9-9.3,1-3.3,2.9-5.8,6.4-6.9l.3-.6c-5.7.3-8.3,3.2-9.6,7.5-2.3,7.5-3.7,12.3-5.1,15.4a51.455,51.455,0,0,0,5.1-6.1"/>
    </clipPath>
    <clipPath id="clip-path-41">
      <rect id="Rectangle_36" data-name="Rectangle 36" width="83.4" height="83.3" transform="translate(197.4 61.8)"/>
    </clipPath>
    <linearGradient id="linear-gradient-16" x1="-4.882" y1="-1.845" x2="-4.87" y2="-1.845" gradientUnits="objectBoundingBox">
      <stop offset="0" stop-color="#00a5e5"/>
      <stop offset="1" stop-color="#00a8e3"/>
    </linearGradient>
  </defs>
  <g id="Group_144" data-name="Group 144" transform="translate(-667 -383)">
    <g id="softwaredata" transform="translate(667 343.7)">
      <g id="Group_133" data-name="Group 133">
        <path id="Path_1" data-name="Path 1" d="M256.2,252.4l128-213.1h-255l-1.6,2.6Z" fill="#d4d5d5"/>
        <g id="Group_6" data-name="Group 6">
          <g id="Group_5" data-name="Group 5">
            <g id="Group_4" data-name="Group 4" clip-path="url(#clip-path)">
              <g id="Group_3" data-name="Group 3">
                <g id="Group_2" data-name="Group 2">
                  <g id="Group_1" data-name="Group 1" clip-path="url(#clip-path-2)">
                    <rect id="Rectangle_1" data-name="Rectangle 1" width="12.9" height="23.1" transform="translate(245 66.9)" fill="url(#linear-gradient)"/>
                  </g>
                </g>
              </g>
            </g>
          </g>
        </g>
        <g id="Group_12" data-name="Group 12">
          <g id="Group_11" data-name="Group 11">
            <g id="Group_10" data-name="Group 10" clip-path="url(#clip-path-3)">
              <g id="Group_9" data-name="Group 9">
                <g id="Group_8" data-name="Group 8">
                  <g id="Group_7" data-name="Group 7" clip-path="url(#clip-path-4)">
                    <rect id="Rectangle_3" data-name="Rectangle 3" width="105.7" height="105.7" transform="translate(153.6 66)" fill="url(#linear-gradient-2)"/>
                  </g>
                </g>
              </g>
            </g>
          </g>
        </g>
        <path id="Path_4" data-name="Path 4" d="M251.9,62.5a11.019,11.019,0,0,0-1.8.2,11.562,11.562,0,0,0-4.7,2,8.064,8.064,0,0,1,1.2,1.4,16.631,16.631,0,0,1,4.8-2.9,12.09,12.09,0,0,1,1.8-.5,5.067,5.067,0,0,0-1.3-.2" fill="#005999"/>
        <g id="Group_22" data-name="Group 22">
          <g id="Group_21" data-name="Group 21">
            <g id="Group_20" data-name="Group 20">
              <g id="Group_19" data-name="Group 19" clip-path="url(#clip-path-5)">
                <g id="Group_18" data-name="Group 18">
                  <g id="Group_17" data-name="Group 17">
                    <g id="Group_16" data-name="Group 16" clip-path="url(#clip-path-6)">
                      <g id="Group_15" data-name="Group 15">
                        <g id="Group_14" data-name="Group 14">
                          <g id="Group_13" data-name="Group 13" clip-path="url(#clip-path-7)">
                            <rect id="Rectangle_5" data-name="Rectangle 5" width="84.1" height="84.1" transform="translate(253.3 2.4)" fill="url(#linear-gradient-3)"/>
                          </g>
                        </g>
                      </g>
                    </g>
                  </g>
                </g>
              </g>
            </g>
          </g>
        </g>
        <g id="Group_26" data-name="Group 26">
          <g id="Group_25" data-name="Group 25">
            <g id="Group_24" data-name="Group 24">
              <g id="Group_23" data-name="Group 23" clip-path="url(#clip-path-8)">
                <path id="Path_6" data-name="Path 6" d="M253.3,62.9a5.9,5.9,0,0,0-1.4-.2h3a4.4,4.4,0,0,0-1.6.2" fill="#0091be"/>
              </g>
            </g>
          </g>
        </g>
        <path id="Path_7" data-name="Path 7" d="M264.1,88.2l-.9-.9a15.839,15.839,0,0,1-3.8,2.1,7.838,7.838,0,0,0,1.4.5,4.869,4.869,0,0,0,1.2.1,8.342,8.342,0,0,0,3.5-.6,17.417,17.417,0,0,0-1.4-1.2" fill="#006cb6"/>
        <g id="Group_32" data-name="Group 32">
          <g id="Group_31" data-name="Group 31">
            <g id="Group_30" data-name="Group 30" clip-path="url(#clip-path-9)">
              <g id="Group_29" data-name="Group 29">
                <g id="Group_28" data-name="Group 28">
                  <g id="Group_27" data-name="Group 27" clip-path="url(#clip-path-10)">
                    <rect id="Rectangle_9" data-name="Rectangle 9" width="109.8" height="109.8" transform="translate(154.6 62.8)" fill="url(#linear-gradient-4)"/>
                  </g>
                </g>
              </g>
            </g>
          </g>
        </g>
        <g id="Group_38" data-name="Group 38">
          <g id="Group_37" data-name="Group 37">
            <g id="Group_36" data-name="Group 36" clip-path="url(#clip-path-11)">
              <g id="Group_35" data-name="Group 35">
                <g id="Group_34" data-name="Group 34">
                  <g id="Group_33" data-name="Group 33" clip-path="url(#clip-path-12)">
                    <rect id="Rectangle_11" data-name="Rectangle 11" width="16.6" height="26.1" transform="translate(246.8 63.3)" fill="url(#linear-gradient-5)"/>
                  </g>
                </g>
              </g>
            </g>
          </g>
        </g>
        <g id="Group_42" data-name="Group 42">
          <g id="Group_41" data-name="Group 41">
            <g id="Group_40" data-name="Group 40">
              <g id="Group_39" data-name="Group 39" clip-path="url(#clip-path-13)">
                <path id="Path_10" data-name="Path 10" d="M241.8,67.6a56.038,56.038,0,0,0-2.4,6.8,43.777,43.777,0,0,1,5.5-6.6,18.027,18.027,0,0,0-.8-2.1,19.249,19.249,0,0,0-2.3,1.9" fill="#00b8f1"/>
              </g>
            </g>
          </g>
        </g>
        <path id="Path_11" data-name="Path 11" d="M244.7,65.2c-.2.1-.4.3-.7.5a18.027,18.027,0,0,1,.8,2.1c.3-.3.7-.6,1-.9a6.191,6.191,0,0,0-1.1-1.7" fill="#0078ae"/>
        <path id="Path_12" data-name="Path 12" d="M245.5,64.7l-.8.5a9.909,9.909,0,0,1,1.1,1.7c.3-.3.6-.5.9-.8a5.263,5.263,0,0,0-1.2-1.4" fill="#005e9c"/>
        <g id="Group_52" data-name="Group 52">
          <g id="Group_51" data-name="Group 51">
            <g id="Group_50" data-name="Group 50">
              <g id="Group_49" data-name="Group 49" clip-path="url(#clip-path-14)">
                <g id="Group_48" data-name="Group 48">
                  <g id="Group_47" data-name="Group 47">
                    <g id="Group_46" data-name="Group 46" clip-path="url(#clip-path-15)">
                      <g id="Group_45" data-name="Group 45">
                        <g id="Group_44" data-name="Group 44">
                          <g id="Group_43" data-name="Group 43" clip-path="url(#clip-path-16)">
                            <rect id="Rectangle_14" data-name="Rectangle 14" width="81.9" height="82" transform="translate(269.5 7.9)" fill="url(#linear-gradient-6)"/>
                          </g>
                        </g>
                      </g>
                    </g>
                  </g>
                </g>
              </g>
            </g>
          </g>
        </g>
        <g id="Group_56" data-name="Group 56">
          <g id="Group_55" data-name="Group 55">
            <g id="Group_54" data-name="Group 54">
              <g id="Group_53" data-name="Group 53" clip-path="url(#clip-path-17)">
                <path id="Path_14" data-name="Path 14" d="M238.1,63.1h.2l.2-.1h.2l.3-.1h.5c-6.6,0-15.7,12.2-19.8,28.1h.8c1.3-2.3,2.5-4.6,3.6-6.6,2.9-11.2,8.7-18.9,13.9-20.9" fill="#00a0e3"/>
              </g>
            </g>
          </g>
        </g>
        <path id="Path_15" data-name="Path 15" d="M241.8,67.6c.8-.7,1.5-1.3,2.3-1.9-.2-.3-.3-.7-.5-1a9.958,9.958,0,0,0-1.8,2.9" fill="#0082c5"/>
        <path id="Path_16" data-name="Path 16" d="M242.4,63.2a5.263,5.263,0,0,1,1.2,1.4c.1-.1.2-.3.3-.4a6.528,6.528,0,0,0-1.5-1h0" fill="#0082c5"/>
        <g id="Group_62" data-name="Group 62">
          <g id="Group_61" data-name="Group 61">
            <g id="Group_60" data-name="Group 60" clip-path="url(#clip-path-18)">
              <g id="Group_59" data-name="Group 59">
                <g id="Group_58" data-name="Group 58">
                  <g id="Group_57" data-name="Group 57" clip-path="url(#clip-path-19)">
                    <rect id="Rectangle_18" data-name="Rectangle 18" width="83.9" height="83.9" transform="translate(224.1)" fill="url(#linear-gradient-7)"/>
                  </g>
                </g>
              </g>
            </g>
          </g>
        </g>
        <path id="Path_18" data-name="Path 18" d="M243.9,64.3a1.38,1.38,0,0,0-.3.4,4.672,4.672,0,0,1,.5,1,4.233,4.233,0,0,1,.7-.5,3.818,3.818,0,0,0-.9-.9" fill="#007dc4"/>
        <g id="Group_72" data-name="Group 72">
          <g id="Group_71" data-name="Group 71">
            <g id="Group_70" data-name="Group 70">
              <g id="Group_69" data-name="Group 69" clip-path="url(#clip-path-20)">
                <g id="Group_68" data-name="Group 68">
                  <g id="Group_67" data-name="Group 67">
                    <g id="Group_66" data-name="Group 66" clip-path="url(#clip-path-21)">
                      <g id="Group_65" data-name="Group 65">
                        <g id="Group_64" data-name="Group 64">
                          <g id="Group_63" data-name="Group 63" clip-path="url(#clip-path-22)">
                            <rect id="Rectangle_20" data-name="Rectangle 20" width="81.6" height="81.6" transform="translate(226.5 9.1)" fill="url(#linear-gradient-8)"/>
                          </g>
                        </g>
                      </g>
                    </g>
                  </g>
                </g>
              </g>
            </g>
          </g>
        </g>
        <g id="Group_78" data-name="Group 78">
          <g id="Group_77" data-name="Group 77">
            <g id="Group_76" data-name="Group 76" clip-path="url(#clip-path-23)">
              <g id="Group_75" data-name="Group 75">
                <g id="Group_74" data-name="Group 74">
                  <g id="Group_73" data-name="Group 73" clip-path="url(#clip-path-24)">
                    <rect id="Rectangle_23" data-name="Rectangle 23" width="14.9" height="23" transform="translate(226.8 67.5)" fill="url(#linear-gradient-9)"/>
                  </g>
                </g>
              </g>
            </g>
          </g>
        </g>
        <path id="Path_21" data-name="Path 21" d="M224.2,84q-1.65,3.15-3.6,6.6h2.3a51.3,51.3,0,0,1,1.3-6.6" fill="#00a0e3"/>
        <g id="Group_84" data-name="Group 84">
          <g id="Group_83" data-name="Group 83">
            <g id="Group_82" data-name="Group 82" clip-path="url(#clip-path-25)">
              <g id="Group_81" data-name="Group 81">
                <g id="Group_80" data-name="Group 80">
                  <g id="Group_79" data-name="Group 79" clip-path="url(#clip-path-26)">
                    <path id="Path_22" data-name="Path 22" d="M210,19.4,284.8,6.2,297.9,81,223.2,94.1Z" fill="url(#linear-gradient-10)"/>
                  </g>
                </g>
              </g>
            </g>
          </g>
        </g>
        <g id="Group_90" data-name="Group 90">
          <g id="Group_89" data-name="Group 89">
            <g id="Group_88" data-name="Group 88" clip-path="url(#clip-path-27)">
              <g id="Group_87" data-name="Group 87">
                <g id="Group_86" data-name="Group 86">
                  <g id="Group_85" data-name="Group 85" clip-path="url(#clip-path-28)">
                    <rect id="Rectangle_26" data-name="Rectangle 26" width="39" height="39.1" transform="translate(271.3 39.6)" fill="url(#linear-gradient-11)"/>
                  </g>
                </g>
              </g>
            </g>
          </g>
        </g>
        <g id="Group_100" data-name="Group 100">
          <g id="Group_99" data-name="Group 99">
            <g id="Group_98" data-name="Group 98">
              <g id="Group_97" data-name="Group 97" clip-path="url(#clip-path-29)">
                <g id="Group_96" data-name="Group 96">
                  <g id="Group_95" data-name="Group 95">
                    <g id="Group_94" data-name="Group 94" clip-path="url(#clip-path-30)">
                      <g id="Group_93" data-name="Group 93">
                        <g id="Group_92" data-name="Group 92">
                          <g id="Group_91" data-name="Group 91" clip-path="url(#clip-path-31)">
                            <path id="Path_25" data-name="Path 25" d="M186.9,137.2l15.8-90.1L292.8,63l-15.9,90.1Z" fill="url(#linear-gradient-12)"/>
                          </g>
                        </g>
                      </g>
                    </g>
                  </g>
                </g>
              </g>
            </g>
          </g>
        </g>
        <path id="Path_27" data-name="Path 27" d="M267.4,87.8c1.3-1.6,2.4-4.4,3.9-9a43.009,43.009,0,0,1-5.2,6.1h0a25.5,25.5,0,0,0,1.3,2.9" fill="#009ade"/>
        <path id="Path_28" data-name="Path 28" d="M267.4,87.8a4.708,4.708,0,0,1-1.5,1.3c-.1.1-.2.1-.4.2a6.033,6.033,0,0,0,1.9.6h0c.1,0,.3.4.3.4h0l.1-.8h0l.1.5h.9a.367.367,0,0,0,.3-.1,6.038,6.038,0,0,1-1.7-2.1" fill="#006cb6"/>
        <path id="Path_29" data-name="Path 29" d="M256,89.9a11.019,11.019,0,0,0,1.8-.2c.6-.1,1.1-.3,1.6-.4a7.838,7.838,0,0,0,1.4.5,4.869,4.869,0,0,0,1.2.1Z" fill="#0060ae"/>
        <path id="Path_30" data-name="Path 30" d="M262.1,90.3a20.135,20.135,0,0,0,3.5-1,6.033,6.033,0,0,0,1.9.6h0c.1,0,.3.4.3.4h0l.1-.4h0l.1.4Z" fill="#0060ae"/>
        <path id="Path_31" data-name="Path 31" d="M268.1,89.9h.9a.6.6,0,0,0,.1-.4h0v.4a.367.367,0,0,1,.3.1l-1.3-.1Z" fill="#0064b0"/>
        <path id="Path_32" data-name="Path 32" d="M266.2,84.8h0c-.6.6-1.3,1.2-1.9,1.7l-1,.8.9.9a5.825,5.825,0,0,0,1.5,1.1l.4-.2a4.708,4.708,0,0,0,1.5-1.3,8.255,8.255,0,0,1-1.4-3" fill="#0062a7"/>
        <g id="Group_106" data-name="Group 106">
          <g id="Group_105" data-name="Group 105">
            <g id="Group_104" data-name="Group 104" clip-path="url(#clip-path-32)">
              <g id="Group_103" data-name="Group 103">
                <g id="Group_102" data-name="Group 102">
                  <g id="Group_101" data-name="Group 101" clip-path="url(#clip-path-33)">
                    <rect id="Rectangle_30" data-name="Rectangle 30" width="85.2" height="85.2" transform="translate(202 61.9)" fill="url(#linear-gradient-13)"/>
                  </g>
                </g>
              </g>
            </g>
          </g>
        </g>
        <g id="Group_122" data-name="Group 122">
          <g id="Group_121" data-name="Group 121">
            <g id="Group_120" data-name="Group 120">
              <g id="Group_119" data-name="Group 119" clip-path="url(#clip-path-34)">
                <path id="Path_34" data-name="Path 34" d="M240.3,62.6h.5l.3.1h1.2a9.062,9.062,0,0,1,1.6,1.1,2.651,2.651,0,0,1,.6-.5,6.284,6.284,0,0,0-3.7-1.2h-.5" fill="#6dc3e8"/>
                <path id="Path_35" data-name="Path 35" d="M243.9,64.3l.9.9.8-.5a10.627,10.627,0,0,0-1.1-.9,1.024,1.024,0,0,0-.6.5" fill="#37bde9"/>
                <g id="Group_112" data-name="Group 112">
                  <g id="Group_111" data-name="Group 111">
                    <g id="Group_110" data-name="Group 110" clip-path="url(#clip-path-35)">
                      <g id="Group_109" data-name="Group 109">
                        <g id="Group_108" data-name="Group 108">
                          <g id="Group_107" data-name="Group 107" clip-path="url(#clip-path-36)">
                            <path id="Path_36" data-name="Path 36" d="M239.1,63.4l1.7-4.3,8.3,3.4-1.8,4.3Z" fill="url(#linear-gradient-14)"/>
                          </g>
                        </g>
                      </g>
                    </g>
                  </g>
                </g>
                <g id="Group_118" data-name="Group 118">
                  <g id="Group_117" data-name="Group 117">
                    <g id="Group_116" data-name="Group 116" clip-path="url(#clip-path-37)">
                      <g id="Group_115" data-name="Group 115">
                        <g id="Group_114" data-name="Group 114">
                          <g id="Group_113" data-name="Group 113" clip-path="url(#clip-path-38)">
                            <path id="Path_38" data-name="Path 38" d="M243.5,63.2,259,56.1l7,15.5-15.5,7.1Z" fill="url(#linear-gradient-15)"/>
                          </g>
                        </g>
                      </g>
                    </g>
                  </g>
                </g>
              </g>
            </g>
          </g>
        </g>
        <g id="Group_132" data-name="Group 132">
          <g id="Group_131" data-name="Group 131">
            <g id="Group_130" data-name="Group 130">
              <g id="Group_129" data-name="Group 129" clip-path="url(#clip-path-39)">
                <g id="Group_128" data-name="Group 128">
                  <g id="Group_127" data-name="Group 127">
                    <g id="Group_126" data-name="Group 126" clip-path="url(#clip-path-40)">
                      <g id="Group_125" data-name="Group 125">
                        <g id="Group_124" data-name="Group 124">
                          <g id="Group_123" data-name="Group 123" clip-path="url(#clip-path-41)">
                            <rect id="Rectangle_35" data-name="Rectangle 35" width="83.4" height="83.3" transform="translate(197.4 61.8)" fill="url(#linear-gradient-16)"/>
                          </g>
                        </g>
                      </g>
                    </g>
                  </g>
                </g>
              </g>
            </g>
          </g>
        </g>
        <path id="Path_41" data-name="Path 41" d="M280.2,98.7h0a1.38,1.38,0,0,0,.4-.3c.1-.1.1-.2.1-.4a.52.52,0,0,0-.2-.4,1.421,1.421,0,0,0-.6-.2h-.6v2.1h.4v-.8h0c.1,0,.3.2.4.4l.2.4h.4l-.3-.5A1.237,1.237,0,0,1,280.2,98.7Zm-.4,0h-.5v-.8h.5a.3.3,0,0,1,.4,0,.367.367,0,0,1,.1.3c0,.2-.2.4-.5.5Zm.1-1.7a1.845,1.845,0,0,0-1.2.5,1.7,1.7,0,1,0,2.4,0,1.845,1.845,0,0,0-1.2-.5Zm1,2.7a1.284,1.284,0,0,1-1,.4,1.777,1.777,0,0,1-1-.4,1.5,1.5,0,0,1-.4-1.1,1.391,1.391,0,0,1,1.5-1.4,1.777,1.777,0,0,1,1,.4,1.284,1.284,0,0,1,.4,1,1.606,1.606,0,0,1-.5,1.1Zm-52.6-1a14.745,14.745,0,0,1-.1-1.6h0s.2.6.3.8l3,6.8h.5l3-6.9a6.89,6.89,0,0,0,.3-.8h0a9.15,9.15,0,0,0-.1,1.6v6h.9V95.7h-1.3l-2.7,6.1c-.1.2-.2.6-.4,1.1h0a4.875,4.875,0,0,0-.4-1.1l-2.7-6.2h-1.4v8.9h1.3Zm10.6-2c.2,0,.3-.1.5-.2a.764.764,0,0,0,.2-.5c0-.2-.1-.3-.2-.5a.764.764,0,0,0-.5-.2c-.2,0-.3.1-.5.2a.764.764,0,0,0-.2.5c0,.2.1.3.2.5a.764.764,0,0,0,.5.2Zm-.4,8h.9V98.4h-.9Zm5.4,0a1.792,1.792,0,0,0,1.4-.4v-.9a1.3,1.3,0,0,1-1.3.5,2.271,2.271,0,0,1-1.6-.6,2.716,2.716,0,0,1-.6-1.7,2.792,2.792,0,0,1,.6-1.8,2.36,2.36,0,0,1,1.6-.7,3.022,3.022,0,0,1,1.6.5v-1a4.146,4.146,0,0,0-1.6-.3,3.1,3.1,0,0,0-2.4,1,3.84,3.84,0,0,0-.9,2.5,3.5,3.5,0,0,0,.8,2.2,3.716,3.716,0,0,0,2.4.7Zm4.9-6.2a2.589,2.589,0,0,0-.7,1.1h-.3V98.3H247v6.4h.9v-3.4a8.651,8.651,0,0,1,.7-1.7,1.231,1.231,0,0,1,1-.5,1.884,1.884,0,0,1,.8.2v-.9a1.268,1.268,0,0,0-.6-.1,1.645,1.645,0,0,0-1,.2Zm5.1,6.2a3.168,3.168,0,0,0,2.3-.9,4,4,0,0,0,0-4.8,3.1,3.1,0,0,0-2.2-.9,3.775,3.775,0,0,0-2.3.8,3.375,3.375,0,0,0-.9,2.5,3.244,3.244,0,0,0,.8,2.3,2.617,2.617,0,0,0,2.3,1Zm-1.5-5.1a2.175,2.175,0,0,1,3,0,2.383,2.383,0,0,1,.5,1.8,2.9,2.9,0,0,1-.5,1.8,1.717,1.717,0,0,1-1.5.6,2.035,2.035,0,0,1-1.5-.6,2.792,2.792,0,0,1-.6-1.8,3,3,0,0,1,.6-1.8Zm8.8,4.4a1.9,1.9,0,0,0,.5-1.3,1.777,1.777,0,0,0-.4-1,4.129,4.129,0,0,0-1.1-.7,4.053,4.053,0,0,1-.9-.5c-.2-.2-.3-.4-.2-.6a.713.713,0,0,1,.3-.6.778.778,0,0,1,.8-.2,2.3,2.3,0,0,1,1.4.4v-1a2.768,2.768,0,0,0-1.3-.3,2.1,2.1,0,0,0-1.5.5,1.607,1.607,0,0,0-.2,2.3,4.129,4.129,0,0,0,1.1.7,3.128,3.128,0,0,1,1,.5.713.713,0,0,1,.3.6c0,.6-.4.8-1.1.8a2.452,2.452,0,0,1-1.6-.6v1a4.191,4.191,0,0,0,1.5.4,1.554,1.554,0,0,0,1.4-.4Zm7-.2a4,4,0,0,0,0-4.8,3.1,3.1,0,0,0-2.2-.9,3.775,3.775,0,0,0-2.3.8,3.375,3.375,0,0,0-.9,2.5,3.244,3.244,0,0,0,.8,2.3,2.737,2.737,0,0,0,2.2.9,2.49,2.49,0,0,0,2.4-.8Zm-4.2-2.3a2.792,2.792,0,0,1,.6-1.8,2.175,2.175,0,0,1,3,0,3.348,3.348,0,0,1,0,3.6,1.717,1.717,0,0,1-1.5.6,2.035,2.035,0,0,1-1.5-.6A2.61,2.61,0,0,1,264,101.5Zm6.8,3.2h1.3V99.2h1.3v-.9h-1.7v-1c0-.9.4-1.3,1-1.3a1.854,1.854,0,0,1,.7.2v-.8a1.483,1.483,0,0,0-.7-.1,2.106,2.106,0,0,0-1.3.5,2.035,2.035,0,0,0-.6,1.5v1.1h-1.3v.8h1.3Zm4.3-1.8c0,1.2.5,1.8,1.6,1.8a2.92,2.92,0,0,0,.9-.2v-.8a1.445,1.445,0,0,1-.7.2,1.135,1.135,0,0,1-.8-.3,1.02,1.02,0,0,1-.2-.9V99.2h1.7v-.9h-1.7V96.4a8.492,8.492,0,0,0-.9.3v1.6h-1.3v.8H275Zm-53.5,24.3a2.106,2.106,0,0,0-1.3.5,1.871,1.871,0,0,0,0,2.6,1.9,1.9,0,0,0,1.3.5,1.793,1.793,0,0,0,1.8-1.8,1.9,1.9,0,0,0-.5-1.3A2.355,2.355,0,0,0,221.6,127.2Zm21.6-3.8a19.4,19.4,0,0,0,.2,3.4h-.1c-.2-.3-.4-.8-.9-1.5l-10.9-18h-4.4v22.9h3V113.8c0-1,0-2.1-.1-3.1h.1a6.109,6.109,0,0,0,.7,1.4l11.8,18.1h3.3V107.3h-2.6Zm10.2-3.4h8.5v-2.5h-8.5v-7.6h8.9v-2.5H250.8v22.9h11.9v-2.1h-9.3Zm11.9-10.2h6.8v20.4h2.5V109.8h6.8v-2.5H265.3v2.5Zm13.6-20h.4V87.7h.4v.4H278v-.4h.9Zm3.1-2.1-.7,1.5c0,.1-.1.1-.1.2h0a.31.31,0,0,0-.1-.2l-.7-1.5h-.6v2.1h.4V88.3a1.483,1.483,0,0,0,.1-.7h0s0,.4.1.5l.8,1.7h.1l.8-1.7a.755.755,0,0,0-.1-.4h0c.1.4.1.5-.1.7v1.5h.4V87.8l-.3-.1Z" fill="#231f20"/>
      </g>
      <g id="Group_134" data-name="Group 134">
        <path id="Path_42" data-name="Path 42" d="M256.1,261.8,128.4,474.4l.7,1.3H386.7Z" fill="#d4d5d5"/>
        <path id="Path_43" data-name="Path 43" d="M243.2,426h8.3l-4.4-7-8,12.6h-3.6l9.7-15.2a2.078,2.078,0,0,1,1.9-.9,2.2,2.2,0,0,1,1.9.9l9.7,15.2H255l-1.7-2.8H245Zm39.2,2.8V415.3H279v14.8a1.606,1.606,0,0,0,.5,1.1,1.746,1.746,0,0,0,1.2.4h15.2l2-2.8ZM229.6,426a5.421,5.421,0,0,0,5.4-5.3h0a5.378,5.378,0,0,0-5.4-5.4H215.4v16.3h3.4V418.1h11a2.85,2.85,0,0,1,0,5.7h-9.2l9,7.9h5l-6.7-5.6,1.7-.1Zm-33.5,5.6a8.2,8.2,0,0,1,0-16.4h9.4a8.2,8.2,0,0,1,0,16.4h-9.4Zm9.3-2.8a5.4,5.4,0,1,0,0-10.8h-9.2a5.4,5.4,0,1,0,0,10.8Zm60.4,2.8a8.2,8.2,0,0,1,0-16.4h11.5l-1.8,2.8H266a5.4,5.4,0,0,0,0,10.8h11.4l-1.8,2.8Zm39-2.8a5.37,5.37,0,0,1-5.2-3.9h13.6l1.8-2.8H299.6a5.252,5.252,0,0,1,5.1-3.9H314l1.8-2.8H304.4a8.2,8.2,0,0,0,0,16.4h9.9l1.8-2.8Z" fill="#e1001a"/>
      </g>
      <g id="Group_135" data-name="Group 135">
        <path id="Path_44" data-name="Path 44" d="M260.6,259.9l130.7,214,128-214Z" fill="#d4d5d5"/>
      </g>
      <g id="Group_136" data-name="Group 136">
        <path id="Path_45" data-name="Path 45" d="M0,255.1H252L124.7,46.7Z" fill="#d4d5d5"/>
        <path id="Path_46" data-name="Path 46" d="M89,207.1l-4.5-50.5H134l-4.5,50.5-20.3,5.6Z" fill="#e44d26"/>
        <path id="Path_47" data-name="Path 47" d="M109.2,208.1l16.4-4.5,3.8-43.2H109.2Z" fill="#f16529"/>
        <path id="Path_48" data-name="Path 48" d="M109.2,179.2h-8.3l-.5-6.4h8.8v-6H93.6l.2,1.7,1.5,17.1h13.9Z" fill="#ebebeb"/>
        <path id="Path_49" data-name="Path 49" d="M109.2,195.4h0l-6.9-1.9-.5-4.9H95.6l.9,9.7,12.7,3.5h0Z" fill="#ebebeb"/>
        <path id="Path_50" data-name="Path 50" d="M89.2,142.9h3v3h3v-3h3v9h-3v-3h-3v3.4h-3v-9.4Z"/>
        <path id="Path_51" data-name="Path 51" d="M102.4,145.9H99.8v-3h8.5v3h-3v6.4h-3l.1-6.4Z"/>
        <path id="Path_52" data-name="Path 52" d="M109.6,142.9h3.3l2,3.3,2-3.3h3.3v9.4h-3v-4.5l-2.1,3.2h0l-2.1-3.3v4.5h-3.4Z"/>
        <path id="Path_53" data-name="Path 53" d="M122,142.5h3v6.4h4.3v3.4H122Z"/>
        <path id="Path_54" data-name="Path 54" d="M109.2,179.2v6.4h7.9l-.8,8.3-7.1,1.9v6.7l13.1-3.7.1-1.1,1.5-16.8.2-1.7H109.2Z" fill="#fff"/>
        <path id="Path_55" data-name="Path 55" d="M109.2,166.8v6.4h15.4l.2-1.4.3-3.3.1-1.7Z" fill="#fff"/>
      </g>
      <g id="Group_137" data-name="Group 137">
        <path id="Path_56" data-name="Path 56" d="M251.6,259.9H0L125.5,469.7Z" fill="#d4d5d5"/>
        <path id="Path_57" data-name="Path 57" d="M90.9,370.6l-4.7-52.3h51.3l-4.7,52.3-21,5.8Z" fill="#1f72b5"/>
        <path id="Path_58" data-name="Path 58" d="M111.8,371.9l17-4.7,4-44.8h-21Z" fill="#51a3dc"/>
        <path id="Path_59" data-name="Path 59" d="M95.2,334.5l-.6-6.2h34.8l-.5,7.2-15,6.6h14.2L126.6,362l-14.1,3.8-14.7-3.6-.9-10.1h6.2l.3,5.6,8.9,1.7,8.1-2.5.4-8.9H96.3l-.4-6.4,16-7Z" fill="#ebebeb"/>
        <path id="Path_60" data-name="Path 60" d="M95.8,341.6l.5,6.4h15.5V334.6Z" fill="#cecece"/>
        <path id="Path_61" data-name="Path 61" d="M103.7,357.5l-.4-5.4H96.8l1,10.2,14,3.3V359Z" fill="#cecece"/>
        <path id="Path_62" data-name="Path 62" d="M95.1,328.7l.6,5.9,16.1.1v-6Z" fill="#cecece"/>
        <path id="Path_63" data-name="Path 63" d="M116.8,306.5V304h-9.6v5.5h6.2v1.6h-6.6v2.5h9.6v-5.8h-6.7v-1.3Z"/>
        <path id="Path_64" data-name="Path 64" d="M99.2,309.9v1.2h6.7v2.5H96.3V304h9.6v2.5H99.2Z"/>
        <path id="Path_65" data-name="Path 65" d="M127.3,306.5V304h-9.7v5.5h6.7v1.6h-6.7v2.5h9.7v-5.8h-7.1v-1.3Z"/>
      </g>
      <g id="Group_138" data-name="Group 138">
        <path id="Path_66" data-name="Path 66" d="M389.8,39.3,260.1,255.1H519.3L390.2,39.3Z" fill="#d4d5d5"/>
        <rect id="Rectangle_38" data-name="Rectangle 38" width="2.7" height="13.3" transform="translate(439.5 169.7)" fill="#fff"/>
        <rect id="Rectangle_39" data-name="Rectangle 39" width="2.7" height="13.3" transform="translate(445.4 169.7)" fill="#fff"/>
        <rect id="Rectangle_40" data-name="Rectangle 40" width="13.1" height="2.7" transform="translate(437.2 172)" fill="#fff"/>
        <rect id="Rectangle_41" data-name="Rectangle 41" width="13.1" height="2.7" transform="translate(437.2 177.9)" fill="#fff"/>
        <path id="Path_67" data-name="Path 67" d="M427.2,182.8a13.576,13.576,0,0,1-18.4,5.3,13.923,13.923,0,0,1-5.3-5.2,13.763,13.763,0,0,1,5.1-18.8,12.942,12.942,0,0,1,6.7-1.8,13.455,13.455,0,0,1,11.8,6.9l11.9-6.9a27.4,27.4,0,1,0-10.4,37.9A26.664,26.664,0,0,0,439,189.8l-11.8-7" fill="#9a4993"/>
        <rect id="Rectangle_42" data-name="Rectangle 42" width="2.7" height="13.3" transform="translate(439 169.3)" fill="#9a4993"/>
        <rect id="Rectangle_43" data-name="Rectangle 43" width="2.7" height="13.3" transform="translate(445.4 169.3)" fill="#9a4993"/>
        <rect id="Rectangle_44" data-name="Rectangle 44" width="13.1" height="2.7" transform="translate(437.2 171.5)" fill="#9a4993"/>
        <rect id="Rectangle_45" data-name="Rectangle 45" width="13.1" height="2.7" transform="translate(437.2 177.5)" fill="#9a4993"/>
      </g>
      <path id="Path_68" data-name="Path 68" d="M356.5,319.7c-9.9,16.4-19.7,32.9-29.7,49.2-44.6-.3-89.4-.4-134.1-.7-9.9-16.1-19.6-32.2-29.4-48.3-12.5-21.4-25.1-42.7-37.6-63.9,9.9-16.4,27.2-44.9,37-61.4,7.2-11.9,23.4-38.8,30.5-50.8,44.5.1,89.2.4,133.7.6,11,17.9,21.9,36.1,32.9,54.4,11.5,19.3,22.8,38.6,33.9,57.6C381.3,277.7,368.9,298.6,356.5,319.7Z" fill="#12294d"/>
      <path id="Path_69" data-name="Path 69" d="M351.5,316.1c-9.3,15.5-18.6,30.9-27.9,46.5-42.2-.1-84.3-.4-126.5-.6-9.3-15.1-18.4-30.2-27.7-45.5q-17.7-30.15-35.5-60.3c9.3-15.5,25.5-42.4,34.9-57.8,6.8-11.2,22.1-36.6,28.9-47.8,42,.1,84,.4,126.1.6,10.4,16.9,20.7,34,31.1,51.3,10.8,18.2,21.5,36.3,31.9,54.2C374.9,276.4,363.2,296.3,351.5,316.1Z" fill="#b3b3b3"/>
      <path id="Path_70" data-name="Path 70" d="M351.9,234H299l6.4,11.6,46.5-.1Z" fill="#fff" fill-rule="evenodd"/>
      <rect id="Rectangle_46" data-name="Rectangle 46" width="13.6" height="35.8" transform="translate(319.8 245.2)" fill="#fff"/>
      <path id="Path_71" data-name="Path 71" d="M263.5,276.7,286.4,234h11.1l25,47H279.6l6.1-11.5h14.2L292,253.8,277.4,281h-27Z" fill="#fff" fill-rule="evenodd"/>
      <path id="Path_72" data-name="Path 72" d="M170.5,269.5V281H214l6.1-11.5Z" fill="#fff"/>
      <path id="Path_73" data-name="Path 73" d="M212.2,251.7H170.5v11.6h35.6Z" fill="#fff"/>
      <path id="Path_74" data-name="Path 74" d="M183.9,245.5h35.3L234.4,234H170.5v11.5Z" fill="#fff"/>
      <path id="Path_75" data-name="Path 75" d="M249.3,269.5" fill="#fff"/>
      <path id="Path_76" data-name="Path 76" d="M252,251.7H237v11.5h12.6a3.246,3.246,0,0,1,3.4,3.1h0a3.136,3.136,0,0,1-3.3,3H222.2L216,280.8h35.8c7.2,0,16.1-5.7,16.1-13.2v-1.8C268,258.4,259.2,251.7,252,251.7Z" fill="#fff"/>
      <path id="Path_77" data-name="Path 77" d="M240.2,269.5Z" fill="#fff"/>
      <path id="Path_78" data-name="Path 78" d="M236.5,245.5a3.4,3.4,0,0,0-1,.1A3.4,3.4,0,0,1,236.5,245.5Z" fill="#fff"/>
      <path id="Path_79" data-name="Path 79" d="M269.9,233.9H234.1c-7.2,0-16.1,6-16.1,13.4v2.1c0,7.4,8.9,13.9,16.1,13.9h10.3l-.6-11.5h-7.2a3.2,3.2,0,0,1-3.3-3h0a3.092,3.092,0,0,1,2.2-2.9,1.729,1.729,0,0,1,1-.1h27.2Z" fill="#fff"/>
      <path id="Path_80" data-name="Path 80" d="M236.5,245.5" fill="#fff"/>
      <path id="Path_81" data-name="Path 81" d="M320.5,416a1.551,1.551,0,0,0-.1-3.1,1.538,1.538,0,0,0-1.5,1.5,1.58,1.58,0,0,0,1.6,1.6m-1.2-1.6a1.155,1.155,0,0,1,1.2-1.2h0a1.3,1.3,0,0,1,1.3,1.2v.1a1.24,1.24,0,0,1-1.3,1.2,1.305,1.305,0,0,1-1.2-1.3m1.1-.2a.367.367,0,0,0,.3-.1V414c0-.1-.1-.2-.2-.3h-.4v.6h.3v-.1Zm.1-.6h.5a.55.55,0,0,1,.3.5v.1a2.092,2.092,0,0,0-.4.6h-.1l.5.6h-.4l-.4-.6h-.4v.6h0v-1.7Z" fill="#e02926"/>
      <g id="Group_143" data-name="Group 143">
        <g id="Group_140" data-name="Group 140">
          <path id="Path_82" data-name="Path 82" d="M354.6,330.2a18.088,18.088,0,0,1,10.2-9.2c6.8-2.5,13.1-1.4,18.9,3,.4.3.4.5.1.9-1.6,1.5-3.2,3.1-4.7,4.7-.3.3-.4.3-.8.1a11.078,11.078,0,0,0-15.8,2.6,26.388,26.388,0,0,0-1.5,2.9c-1.2-1.1-2.5-2-3.8-3A25.6,25.6,0,0,1,354.6,330.2Z" fill="#eb453e"/>
          <path id="Path_83" data-name="Path 83" d="M361,342.2a11.019,11.019,0,0,0,5.9,6.6,12.072,12.072,0,0,0,10.8-.4c.1-.1.2-.1.4-.2a.781.781,0,0,0,.4.4c1.9,1.4,3.7,2.9,5.6,4.3a15.621,15.621,0,0,1-6.7,3.9,18.376,18.376,0,0,1-15-1.6,18,18,0,0,1-7.7-8.2c.9-.6,1.7-1.3,2.6-1.9A39.8,39.8,0,0,1,361,342.2Z" fill="#2ca659"/>
          <path id="Path_84" data-name="Path 84" d="M384,352.9c-1.9-1.4-3.7-2.9-5.6-4.3-.1-.1-.3-.2-.4-.4a8.948,8.948,0,0,0,3.6-4.9c0-.1.1-.2.1-.3.1-.3,0-.5-.4-.5h-9.2c-.4,0-.5-.1-.5-.5v-6.3c0-.5.2-.6.6-.6h16.7c.3,0,.4.1.5.4a18.232,18.232,0,0,1-.5,9,17.579,17.579,0,0,1-4.6,7.9A1.069,1.069,0,0,1,384,352.9Z" fill="#3987ec"/>
          <path id="Path_85" data-name="Path 85" d="M361,342.2c-1.3.9-2.5,1.9-3.8,2.9-.9.6-1.7,1.3-2.6,1.9a22.378,22.378,0,0,1-1.4-3.6,18.837,18.837,0,0,1-.5-6.7,20.8,20.8,0,0,1,1.1-4.8,5.306,5.306,0,0,1,.8-1.7,24.34,24.34,0,0,0,2.5,2c1.2,1,2.6,1.9,3.8,3a18.814,18.814,0,0,0-.5,3.3A11.476,11.476,0,0,0,361,342.2Z" fill="#fbba38"/>
          <g id="Group_139" data-name="Group 139">
            <path id="Path_86" data-name="Path 86" d="M353.4,366.9h-3.3l-.6,2h-2l3.2-9.2h2.1l3.2,9.2h-2Zm-.4-1.5-.9-2.7c-.1-.3-.2-.7-.3-1h0c-.1.3-.2.7-.3,1.1l-.9,2.7H353Z" fill="#656565"/>
            <path id="Path_87" data-name="Path 87" d="M364.2,362.9c0,2.2-1.5,3.2-3.6,3.2H359v2.7h-2v-9.2h3.3C362.8,359.7,364.2,360.8,364.2,362.9Zm-2,0c0-1-.7-1.7-2-1.7h-1.1v3.4h1.2C361.5,364.6,362.2,364,362.2,362.9Z" fill="#656565"/>
            <path id="Path_88" data-name="Path 88" d="M365.5,359.7h1.9v9.2h-1.9Z" fill="#656565"/>
            <path id="Path_89" data-name="Path 89" d="M375.3,361.2c-.8,0-1.3.4-1.3,1,0,1.7,4.8.7,4.8,4.2,0,1.4-1.2,2.6-3.5,2.6a5.4,5.4,0,0,1-3.7-1.3l1.2-1.4a3.947,3.947,0,0,0,2.6,1.1q1.5,0,1.5-.9c0-1.8-4.8-.9-4.8-4.1,0-1.5,1.3-2.7,3.3-2.7,2.4,0,3.2,1.4,3.4,2.4l-1.8.4A1.666,1.666,0,0,0,375.3,361.2Z" fill="#656565"/>
            <path id="Path_90" data-name="Path 90" d="M388,364.2c0,3-1.5,4.6-4.2,4.6h-3.6v-9.2h3.2C386.4,359.7,388,361.5,388,364.2Zm-2,0c0-2-1-3-2.8-3h-1v6h1.4C385,367.3,386,366.4,386,364.2Z" fill="#656565"/>
            <path id="Path_91" data-name="Path 91" d="M392.4,365.2h-1v3.6h-2v-9.2h2v4h.8l2.6-4h2l-3.2,4.7,3.2,4.5h-2.1Z" fill="#656565"/>
          </g>
        </g>
        <g id="Group_141" data-name="Group 141">
          <path id="Path_92" data-name="Path 92" d="M401.3,341.6a1.087,1.087,0,0,0-.5-.1h-4.5c-.4,0-.6-.1-.6-.5,0-1.2,0-1.2,1.2-1.2h4.3c.4.1.2-.2.2-.3v-4.6a.6.6,0,0,1,.3-.6h1.2l.1.1v4.8c0,.5.1.6.6.6h4.6c.4,0,.5.1.5.5,0,1.3,0,1.3-1.3,1.3h-3.8c-.4,0-.6.1-.5.5v4.5c0,.4-.1.5-.5.5h-1.2v-4.8C401.4,342,401.5,341.7,401.3,341.6Z" fill="#656565"/>
        </g>
        <g id="Group_142" data-name="Group 142">
          <path id="Path_93" data-name="Path 93" d="M436.4,314.5a.6.6,0,0,1,.7,0c6.6,2.2,13.2,4.5,19.8,6.7,1.4.5,2.8,1,4.3,1.4.4.1.5.3.4.7-.5,3.9-1,7.9-1.5,11.8-.4,3.2-.8,6.3-1.2,9.5-.4,3.3-.8,6.7-1.3,10a.752.752,0,0,1-.5.7c-6,3.3-12.1,6.7-18.1,10a21.165,21.165,0,0,1-2.1,1.1c-.2.1-.3.3-.6.1a1.483,1.483,0,0,0,.1-.7V347c0-.4-.1-.5-.5-.5h-5.4a.749.749,0,0,0-.5.1c.1-.4.4-.2.6-.2h12.6c.4,0,.6.1.7.5,1,2.3,1.9,4.5,2.9,6.8.1.2.1.4.4.4h5.1a.758.758,0,0,0-.2-.4c-5.1-10.9-10.3-21.8-15.4-32.7-.1-.2-.1-.4-.4-.5V315C436.6,314.9,436.7,314.6,436.4,314.5Z" fill="#b72f36"/>
          <path id="Path_94" data-name="Path 94" d="M436.4,314.5a.735.735,0,0,1,.2.6v5.5c-3.3,7.3-6.5,14.5-9.8,21.8l-5.1,11.4c-.2.5-.1.6.4.5,1.2,0,2.4-.1,3.7-.1,1.4,0,1.4,0,1.9-1.3a6.9,6.9,0,0,1,.3-.8c.7-1.8,1.4-3.5,2.2-5.3a1.087,1.087,0,0,1,.5-.1h5.4c.4,0,.5.1.5.5V366c0,.2-.1.4-.1.7-2.5-1.4-5-2.8-7.6-4.2-4.1-2.3-8.2-4.6-12.3-6.8a1.167,1.167,0,0,1-.7-1.1c-.6-5.3-1.2-10.5-1.8-15.8-.6-5-1.2-9.9-1.7-14.9-.1-.9-.1-.9.7-1.2,5.9-2.1,11.8-4.2,17.8-6.3C432.7,315.8,434.6,315.1,436.4,314.5Z" fill="#e4333c"/>
          <path id="Path_95" data-name="Path 95" d="M430.2,346.8c-.8,1.7-1.4,3.5-2.2,5.3a6.9,6.9,0,0,1-.3.8c-.5,1.3-.5,1.3-1.9,1.3-1.2,0-2.4,0-3.7.1-.5,0-.6-.1-.4-.5l5.1-11.4c3.3-7.3,6.5-14.5,9.8-21.8.3.1.3.3.4.5,5.1,10.9,10.3,21.8,15.4,32.7a.758.758,0,0,1,.2.4h-5.1c-.3,0-.3-.2-.4-.4-1-2.3-2-4.5-2.9-6.8-.2-.4-.3-.5-.7-.5H430.9C430.6,346.6,430.2,346.4,430.2,346.8Zm2.1-5c0,.4.3.2.4.2h8.5c.7,0,.7,0,.4-.6-1.2-2.5-2.4-5.1-3.6-7.6l-1.3-2.6a3.386,3.386,0,0,1-.3.8c-.4,1-.9,2-1.3,3.1C434.2,337.4,433.3,339.6,432.3,341.8Z" fill="#fefbfb"/>
          <path id="Path_96" data-name="Path 96" d="M436.4,332.1a3.384,3.384,0,0,0,.3-.8c.5.9.9,1.8,1.3,2.6,1.2,2.5,2.4,5.1,3.6,7.6.3.6.3.6-.4.6h-8.5c-.1,0-.4.2-.4-.2h3.8c.4,0,.5-.1.5-.5v-8.8C436.6,332.4,436.7,332.2,436.4,332.1Z" fill="#b73238"/>
          <path id="Path_97" data-name="Path 97" d="M436.4,332.1c.3.1.2.3.2.5v8.8c0,.4-.1.5-.5.5h-3.8c.9-2.2,1.8-4.4,2.8-6.7C435.5,334.1,436,333.1,436.4,332.1Z" fill="#e2343e"/>
        </g>
      </g>
    </g>
    <text id="ENTERPRISE_SYSTEMS_ANALYSIS_TECHNOLOGY" data-name="ENTERPRISE SYSTEMS ANALYSIS TECHNOLOGY" transform="translate(837 627)" fill="#fff" font-size="8" font-family="SofiaProSoftBold, Sofia Pro Soft"><tspan x="0" y="9">ENTERPRISE SYSTEMS ANALYSIS TECHNOLOGY</tspan></text>
  </g>
</svg>
