<svg xmlns="http://www.w3.org/2000/svg" width="24" height="24" viewBox="0 0 24 24">
  <g id="Group_10077" data-name="Group 10077" transform="translate(-635 -7516)">
    <g id="Group_10071" data-name="Group 10071" transform="translate(0)">
      <g id="Group_10064" data-name="Group 10064" transform="translate(37 28)">
        <g id="Group_10058" data-name="Group 10058">
          <g id="Linked_in" data-name="Linked in" transform="translate(598 7488)">
            <path id="XMLID_108" data-name="XMLID 108" d="M12,0A12,12,0,1,0,24,12,12,12,0,0,0,12,0Z" fill="#1695d6"/>
          </g>
          <path id="Path_24425" data-name="Path 24425" d="M-267.686,378.423a6.729,6.729,0,0,0,4.587-1.362,3.437,3.437,0,0,1-3.047-2.313,3.665,3.665,0,0,0,1.39-.058,3.423,3.423,0,0,1-2.561-3.274,3.345,3.345,0,0,0,1.4.345,6,6,0,0,1-.651-.666,3.276,3.276,0,0,1-.37-3.466c.069-.157.107-.258.282-.058a9.2,9.2,0,0,0,5.91,3.2c.219.028.486.136.642.027s.022-.4.023-.606a3.174,3.174,0,0,1,1.954-3.1,3.137,3.137,0,0,1,3.538.548.506.506,0,0,0,.509.13,8.172,8.172,0,0,0,1.784-.71,3.087,3.087,0,0,1-1.275,1.694c-.036.021-.035.05-.005.07a.1.1,0,0,0,.117-.007,10.074,10.074,0,0,0,1.507-.4,1.29,1.29,0,0,1-.385.6,4.762,4.762,0,0,1-.91.863.507.507,0,0,0-.222.474,9.523,9.523,0,0,1-2.942,7.012,8.741,8.741,0,0,1-5.405,2.467,9.484,9.484,0,0,1-5.986-1.335C-267.818,378.377-267.751,378.4-267.686,378.423Z" transform="translate(869.88 7126.675)" fill="#fff"/>
        </g>
      </g>
    </g>
  </g>
</svg>
