<?xml version="1.0" encoding="utf-8"?>
<!-- Generator: Adobe Illustrator 27.9.0, SVG Export Plug-In . SVG Version: 6.00 Build 0)  -->
<svg version="1.1" id="a" xmlns="http://www.w3.org/2000/svg" xmlns:xlink="http://www.w3.org/1999/xlink" x="0px" y="0px"
	 viewBox="0 0 50 50" style="enable-background:new 0 0 50 50;" xml:space="preserve">
<style type="text/css">
	.st0{fill:#122a4f;}
</style>
<path class="st0" d="M8.1,47.6v-0.8c0-7.1,0-14.3,0-21.4c0-1.6,0.7-2.3,2.3-2.3c9.8,0,19.5,0,29.3,0c1.6,0,2.3,0.7,2.3,2.3
	c0,7.1,0,14.3,0,21.4v0.8c1.2,0,2.4,0,3.6,0c1.3,0,2.1-0.8,2.1-2.1c0-9,0-17.9,0-26.9c0-0.7-0.3-1.1-0.8-1.5
	C39.8,12.3,32.9,7.6,26,2.8c-0.8-0.5-1.2-0.5-2,0c-6.8,4.7-13.6,9.4-20.5,14.1c-0.8,0.5-1.1,1.1-1.1,2.1c0,8.7,0,17.4,0,26.1
	c0,0.2,0,0.4,0,0.6c0.1,1,0.8,1.8,1.8,1.8C5.5,47.6,6.7,47.6,8.1,47.6z M23.6,26.9c-1.2,0-2.2,0-3.3,0c-0.6,0-0.9,0.4-0.9,1
	c0,2.5,0,5,0,7.5c0,0.6,0.4,1,1,1c3.1,0,6.2,0,9.3,0c0.6,0,1-0.4,1-1c0-2.5,0-5,0-7.5c0-0.5-0.3-0.9-0.8-0.9c-1.1,0-2.3,0-3.5,0
	c0,0.5,0,0.9,0,1.3c0,0.9-0.6,1.5-1.4,1.5c-0.8,0-1.4-0.6-1.4-1.5C23.6,27.8,23.6,27.4,23.6,26.9z M17,38.2c-1.1,0-2.1,0-3.1,0
	c-0.8,0-1.1,0.3-1.1,1.1c0,2.4,0,4.8,0,7.2c0,0.8,0.3,1.1,1.1,1.1c0.8,0,1.5,0,2.3,0c2.2,0,4.5,0,6.8,0c0.7,0,1.1-0.3,1.1-0.9
	c0-2.5,0-5,0-7.5c0-0.5-0.2-0.9-0.7-0.9c-1.2-0.1-2.3,0-3.5,0c0,0.5,0,0.9,0,1.3c0,0.8-0.6,1.4-1.4,1.4s-1.4-0.6-1.4-1.4
	C17,39.1,17,38.7,17,38.2L17,38.2z M30.2,38.2c-1.1,0-2.1,0-3.1,0c-0.8,0-1.1,0.3-1.1,1.1c0,2.4,0,4.8,0,7.2c0,0.8,0.4,1.1,1.1,1.1
	c0.8,0,1.6,0,2.4,0c2.2,0,4.4,0,6.6,0c0.7,0,1.1-0.3,1.1-0.9c0-2.5,0-5,0-7.5c0-0.5-0.2-0.9-0.7-0.9c-1.2-0.1-2.3,0-3.5,0
	c0,0.5,0,0.9,0,1.3c0,0.8-0.6,1.4-1.4,1.4c-0.8,0-1.4-0.6-1.4-1.4C30.2,39.1,30.2,38.7,30.2,38.2L30.2,38.2z"/>
<path class="st0" d="M8.1,47.6c-1.3,0-2.6,0-3.8,0c-1,0-1.8-0.8-1.8-1.8c0-0.2,0-0.4,0-0.6c0-8.7,0-17.4,0-26.1
	c0-0.9,0.3-1.5,1.1-2.1C10.4,12.2,17.2,7.5,24,2.8c0.8-0.5,1.3-0.5,2,0c6.9,4.8,13.8,9.5,20.8,14.3c0.5,0.4,0.8,0.9,0.8,1.5
	c0,8.9,0,17.9,0,26.9c0,1.3-0.8,2.1-2.1,2.1c-1.2,0-2.3,0-3.6,0v-0.8c0-7.1,0-14.3,0-21.4c0-1.6-0.7-2.3-2.3-2.3
	c-9.8,0-19.5,0-29.3,0c-1.6,0-2.3,0.7-2.3,2.3c0,7.1,0,14.3,0,21.4C8.1,46.8,8.1,47.6,8.1,47.6z"/>
<path class="st0" d="M23.6,26.9c0,0.5,0,0.9,0,1.4c0,0.8,0.6,1.5,1.4,1.5c0.8,0,1.4-0.6,1.4-1.5c0-0.4,0-0.9,0-1.3
	c1.2,0,2.3,0,3.5,0c0.5,0,0.8,0.4,0.8,0.9c0,2.5,0,5,0,7.5c0,0.6-0.4,1-1,1c-3.1,0-6.2,0-9.3,0c-0.6,0-1-0.4-1-1c0-2.5,0-5,0-7.5
	c0-0.6,0.4-0.9,0.9-1C21.4,26.9,22.4,26.9,23.6,26.9z"/>
<path class="st0" d="M17,38.2c0,0.5,0,1,0,1.4c0,0.8,0.6,1.4,1.4,1.4s1.4-0.6,1.4-1.4c0-0.4,0-0.9,0-1.3c1.2,0,2.4,0,3.5,0
	c0.5,0,0.7,0.4,0.7,0.9c0,2.5,0,5,0,7.5c0,0.6-0.4,0.9-1.1,0.9c-2.2,0-4.5,0-6.8,0c-0.8,0-1.5,0-2.3,0c-0.8,0-1.1-0.3-1.1-1.1
	c0-2.4,0-4.8,0-7.2c0-0.8,0.3-1.1,1.1-1.1C14.9,38.2,15.9,38.2,17,38.2L17,38.2z"/>
<path class="st0" d="M30.2,38.2c0,0.5,0,1,0,1.4c0,0.8,0.6,1.4,1.4,1.4s1.4-0.6,1.4-1.4c0-0.4,0-0.9,0-1.3c1.2,0,2.4,0,3.5,0
	c0.5,0,0.7,0.4,0.7,0.9c0,2.5,0,5,0,7.5c0,0.6-0.4,0.9-1.1,0.9c-2.2,0-4.4,0-6.6,0c-0.8,0-1.6,0-2.4,0c-0.8,0-1.1-0.4-1.1-1.1
	c0-2.4,0-4.8,0-7.2c0-0.8,0.3-1.1,1.1-1.1C28.1,38.2,29.1,38.2,30.2,38.2L30.2,38.2z"/>
</svg>
