<svg xmlns="http://www.w3.org/2000/svg" width="24" height="24" viewBox="0 0 24 24">
  <g id="Group_10078" data-name="Group 10078" transform="translate(-680 -7516)">
    <g id="Group_10072" data-name="Group 10072">
      <g id="Group_10065" data-name="Group 10065" transform="translate(0 23)">
        <g id="Group_10059" data-name="Group 10059">
          <path id="XMLID_108" data-name="XMLID 108" d="M12,0A12,12,0,1,0,24,12,12,12,0,0,0,12,0Z" transform="translate(680 7493)" fill="#0f3ca5"/>
          <g id="Group_10053" data-name="Group 10053" transform="translate(1325.847 7271.451)">
            <path id="Path_24426" data-name="Path 24426" d="M-633.833,225.381a8.228,8.228,0,0,1,8.2,8.208,8.217,8.217,0,0,1-8.248,8.225,8.218,8.218,0,0,1-8.18-8.258A8.219,8.219,0,0,1-633.833,225.381Zm3.109,6.052h-6.248a12.736,12.736,0,0,0,.034,4.335h6.2A13.774,13.774,0,0,0-630.723,231.433Zm-6.023-1.138h5.8a6.667,6.667,0,0,0-1.644-3.23,1.618,1.618,0,0,0-2.5,0A6.666,6.666,0,0,0-636.746,230.295Zm0,6.6c.085.294.148.558.238.813a5.666,5.666,0,0,0,1.541,2.539,1.565,1.565,0,0,0,2.223.014,6.419,6.419,0,0,0,1.8-3.366Zm-1.412-5.494c-.738,0-1.511-.005-2.284.008a.312.312,0,0,0-.229.178,6.959,6.959,0,0,0,0,4.005c.022.076.124.183.19.184.794.013,1.589.008,2.326.008Zm8.625,4.384c.746,0,1.52.008,2.293-.011.083,0,.207-.149.236-.25a6.933,6.933,0,0,0,.008-3.874c-.049-.178-.119-.267-.323-.254-.307.02-.615.005-.923.005h-1.29Zm-10.575-5.479c.7,0,1.392.007,2.082-.011.072,0,.179-.148.2-.243a9.466,9.466,0,0,1,1.149-2.757c.048-.078.09-.159.154-.272A6.787,6.787,0,0,0-640.109,230.311Zm12.531-.01c-.531-1.3-2.542-3.107-3.461-3.215l1.339,3.215Zm-12.539,6.593c.547,1.317,2.557,3.119,3.534,3.22-.249-.5-.537-1.006-.758-1.539s-.386-1.111-.579-1.681Zm10.418,0-1.354,3.247a7.143,7.143,0,0,0,3.51-3.247Z" transform="translate(0)" fill="#fff"/>
          </g>
        </g>
      </g>
    </g>
  </g>
</svg>
