<svg xmlns="http://www.w3.org/2000/svg" width="319" height="54" viewBox="0 0 319 54">
  <g id="Save_planet-03" transform="translate(-19 -6)">
    <g id="Layer_1" transform="translate(78.78 6)">
      <g id="Group_3" data-name="Group 3" transform="translate(0 0)">
        <g id="Group_2" data-name="Group 2">
          <path id="Path_25" data-name="Path 25" d="M80.8,15.6A9.651,9.651,0,0,0,77.6,22a19.357,19.357,0,0,0,1.2,8.6c0,.2.2.4.1.6a5.347,5.347,0,0,1-1.3-1.3A42.624,42.624,0,0,1,71,20.2a38.326,38.326,0,0,1-3.1-8.8c0-.2,0-.5-.3-.5s-.2.4-.2.6a28.8,28.8,0,0,0,1.7,9.2A33.046,33.046,0,0,0,72.7,28c.5.8,1.1,1.5,1.7,2.3,0,.1.2.2.1.3,0,.2-.2,0-.3,0A12.378,12.378,0,0,1,65.4,26a13.63,13.63,0,0,1-2.5-7.3,30.19,30.19,0,0,1,.5-8.5,41.278,41.278,0,0,1,2.4-8.5.867.867,0,0,1,.4-.7,19.987,19.987,0,0,0,1,2.1,13.675,13.675,0,0,0,3.4,3.8,56.879,56.879,0,0,0,5.2,3.3,14.66,14.66,0,0,1,5.3,5.2,1.866,1.866,0,0,1-.4.3Z" transform="translate(-62.78 -1)" fill="#3fa348"/>
          <path id="Path_26" data-name="Path 26" d="M80.6,14.4s-5.7,2.7-4.4,10.4A35.026,35.026,0,0,0,77,29a15.6,15.6,0,0,0,2.1,2.3l.9-.6,3.4-10.8-1.9-4-.3-.5a4.616,4.616,0,0,0-.7-1Z" transform="translate(-62.78 -1)" fill="#456a34"/>
          <path id="Path_27" data-name="Path 27" d="M88.8,10.2a12.109,12.109,0,0,0,4.3-5.6c0-.1.1-.2.2-.4a6.248,6.248,0,0,1,1,2.2c.5,1.3.8,2.6,1.2,4a42.121,42.121,0,0,1,1.2,7.1,24.176,24.176,0,0,1-.5,7.6,10.737,10.737,0,0,1-4.5,6.6A15.988,15.988,0,0,1,85.4,34h-.6c4.8-6.1,7.6-12.8,7.4-20.7a.829.829,0,0,0-.3.8,38.33,38.33,0,0,1-4.3,11.4,44.3,44.3,0,0,1-6,8.2c-.7.7-.8.7-1.3-.2-.4-.8-.7-1.6-1.1-2.3a1.268,1.268,0,0,0-.1-.6A19.357,19.357,0,0,1,77.9,22a9.651,9.651,0,0,1,3.2-6.4c.1-.1,5.4-3.6,7.9-5.4Z" transform="translate(-62.78 -1)" fill="#8bc54e"/>
        </g>
      </g>
      <g id="Group_7" data-name="Group 7" transform="translate(210.22 2.574)">
        <g id="Group_4" data-name="Group 4" transform="translate(0.3 1.7)">
          <path id="Path_28" data-name="Path 28" d="M287.2,14.1a1.777,1.777,0,0,0,.4,1c.7.7,1.9.2,2.8.7.2.1.4.3.6.4a.806.806,0,0,0,.9-.3c.2-.2.2-.5.3-.8a3.6,3.6,0,0,1,.8-1.2l.5-.5c.7-.4,1.6.2,2.4,0,1-.1,1.5-1.2,1.7-2.1s0-1.9.2-2.9a3.479,3.479,0,0,1,.7-1.5,1.012,1.012,0,0,0,.4-.7c0-.3-.1-.6-.4-.6a.758.758,0,0,0-.4.2c-.4.4-.8.7-1.2,1.1-.3.3-.7.5-1,.3s-.2-.7-.1-1.1a1.432,1.432,0,0,0-.3-1.1,14.885,14.885,0,0,0-8.4,8.8v.4Z" transform="translate(-286.3 -5)" fill="#3a9f47"/>
          <path id="Path_29" data-name="Path 29" d="M300.1,6a1.436,1.436,0,0,0-.5,1.8c0,.2.2.4,0,.6a.349.349,0,0,1-.2.1,1.24,1.24,0,0,0-.5,1.5,2.117,2.117,0,0,1,.3.7c0,.2-.2.4-.3.6-.1.4.3.7.7.7a1.823,1.823,0,0,0,1.1-.5c.2-.2.5-.3.7-.5a11.319,11.319,0,0,0,1.3-1,4.819,4.819,0,0,0,1.5-2.8h0a.909.909,0,0,0-.8-.4,3.751,3.751,0,0,0-1,.1h-.3c-.2,0-.3-.3-.3-.5a1.282,1.282,0,0,0-1.7-.5Z" transform="translate(-286.3 -5)" fill="#3a9f47"/>
          <path id="Path_30" data-name="Path 30" d="M315.1,11.9c-.3-.5-.6-1.1-.9-1.6-.4-.5-.7-1-1.1-1.5a.758.758,0,0,1-.4.2,2.979,2.979,0,0,1-1.3-.1,3.887,3.887,0,0,0-1.5.2,2.567,2.567,0,0,0-1.2.5.925.925,0,0,0-.2,1.2c.3.4,1.1.4,1.3.9.2.4-.2.8-.5,1.2a8.064,8.064,0,0,1-1.4,1.2,2.994,2.994,0,0,0-.8.4,1.738,1.738,0,0,0-.6,1.1,3.743,3.743,0,0,0-1.8.5c-.1.1-.3.2-.3.4a.4.4,0,0,0,.2.4c.4.3,1,0,1.4,0a4.329,4.329,0,0,1,1.6-.1c.2,0,.4,0,.5.2a.759.759,0,0,1,.3.9.792.792,0,0,1-.8.5,7.232,7.232,0,0,0-6.5,3.2,2.618,2.618,0,0,0-.5,1.7c.2,1,1.5,1.4,2,2.3a.536.536,0,0,0,.3.4h.4c1.3,0,2.7,0,3.6.9a4.351,4.351,0,0,1,.8,1.5c.3.8.6,1.5.9,2.3V31a.52.52,0,0,1-.2.4c-.2.2-.2.5-.3.7a14.524,14.524,0,0,0,2.6-1.7A2.382,2.382,0,0,1,311,29a9.022,9.022,0,0,1,1.4-2,3.008,3.008,0,0,0,.8-2.2,4.284,4.284,0,0,0-.5-1.3,1.22,1.22,0,0,1,0-1.3,2.181,2.181,0,0,1,.4-.5,1.8,1.8,0,0,0,.2-1.6,1.722,1.722,0,0,0-1.2-1h-1.4a2.326,2.326,0,0,1-1.2-.8c-.2-.2-.4-.4-.3-.6,0-.2.2-.3.4-.5a1.792,1.792,0,0,0,.4-1.4c.6.2,1.1.4,1.7.6.2,0,.4.2.6.4.2.3,0,.7.2,1,.1.3.5.4.8.4h1c.8,0,1.3.9,1.2,1.7,0,.7-.6,1.2-.7,1.9a2.1,2.1,0,0,0,.8,2.2h0a15.624,15.624,0,0,0,1.1-5.7,16.434,16.434,0,0,0-1.6-6.7Z" transform="translate(-286.3 -5)" fill="#3a9f47"/>
          <path id="Path_31" data-name="Path 31" d="M306.2,12.6c0,.1-.2.3-.1.4,0,.2.3.4.6.4a1.622,1.622,0,0,0,1.4-.7c.5-.8-.3-.7-.8-1h0a1.466,1.466,0,0,0-.4.2,1.794,1.794,0,0,0-.5.7Z" transform="translate(-286.3 -5)" fill="#3a9f47"/>
          <path id="Path_32" data-name="Path 32" d="M292.1,18.7a6.47,6.47,0,0,1-.9-.8c-.2-.2-.3-.4-.5-.6a.908.908,0,0,0-.7-.3h-.2c-.1.1,0,.3,0,.4a8.65,8.65,0,0,0,.7,1c.3.3.5,1,.9,1.2h.7c.3,0,.5.2.8.1h.1v-.3c-.2-.4-.7-.6-1.1-.9Z" transform="translate(-286.3 -5)" fill="#3a9f47"/>
          <path id="Path_33" data-name="Path 33" d="M290.7,29.3a12.81,12.81,0,0,0,1.1-2,3.744,3.744,0,0,1,1.3-1.2,7.255,7.255,0,0,0,.9-.5,1.649,1.649,0,0,0,0-2,3.825,3.825,0,0,0-1.8-1.2,2.01,2.01,0,0,1-.8-.4,5.5,5.5,0,0,1-.7-.9,2.814,2.814,0,0,0-2.1-1,1.8,1.8,0,0,1-1-.2c-.2-.2-.2-.5-.3-.8a.877.877,0,0,0-1-.5h0v.6a15.958,15.958,0,0,0,2.1,7.8,13.947,13.947,0,0,0,2.1,2.7s.2-.1.2-.2Z" transform="translate(-286.3 -5)" fill="#3a9f47"/>
          <path id="Path_34" data-name="Path 34" d="M304.6,29h-.4a4.053,4.053,0,0,1-.9.5h-.2c-.2.5.2,1,.2,1.5v.3c0,.2.3.3.5.3a.675.675,0,0,0,.6-.4.908.908,0,0,0,.3-.7.758.758,0,0,1,.2-.4,1.167,1.167,0,0,0,0-1h0a.2.2,0,0,0-.2-.2Z" transform="translate(-286.3 -5)" fill="#3a9f47"/>
        </g>
        <g id="Group_5" data-name="Group 5" transform="translate(22.3 5.7)">
          <path id="Path_35" data-name="Path 35" d="M316.7,18V13.1a.367.367,0,0,0-.1-.3.494.494,0,0,0-.1-.3v-.4c-.3-.5-.6-1.1-.9-1.6-.4-.5-.7-1-1.1-1.5a.758.758,0,0,1-.4.2h-.3a15.485,15.485,0,0,1,2.2,8v1.5a1.624,1.624,0,0,1,1,1.6c0,.7-.6,1.2-.7,1.9a2.1,2.1,0,0,0,.8,2.2h0a.367.367,0,0,1,.1-.3h0a.494.494,0,0,1,.1-.3h0v-.3h0v-.3h0V18.3Z" transform="translate(-308.3 -9)" fill="#3a9f47"/>
          <path id="Path_36" data-name="Path 36" d="M313.3,25.1a1.777,1.777,0,0,0-.4-1,15.083,15.083,0,0,1-4.6,5.4c.2.4.3.9.5,1.3v.3a.52.52,0,0,1-.2.4c-.2.2-.2.5-.3.7.1,0,.2-.1.3-.2h0c.1,0,.2-.1.3-.2h0a1.438,1.438,0,0,0,.3-.2h0a1.438,1.438,0,0,0,.3-.2h0c.1,0,.2-.1.3-.2h0c.1,0,.2-.1.3-.2h0c.1,0,.2-.2.3-.2h0c.1,0,.2-.2.3-.2h0a2.382,2.382,0,0,1,.3-1.4,9.022,9.022,0,0,1,1.4-2,3.008,3.008,0,0,0,.8-2.2Z" transform="translate(-308.3 -9)" fill="#3a9f47"/>
        </g>
        <g id="Group_6" data-name="Group 6" transform="translate(0 1.3)">
          <path id="Path_37" data-name="Path 37" d="M286.9,13.3v.4a1.777,1.777,0,0,0,.4,1c.7.7,1.9.2,2.8.7.2.1.4.3.6.4a.806.806,0,0,0,.9-.3c.2-.2.2-.5.3-.8a3.6,3.6,0,0,1,.8-1.2l.5-.5c.7-.4,1.6.2,2.4,0,1-.1,1.5-1.2,1.7-2.1a28.251,28.251,0,0,1,.2-2.9,3.479,3.479,0,0,1,.7-1.5,1.012,1.012,0,0,0,.4-.7c0-.3-.1-.6-.4-.6a.758.758,0,0,0-.4.2c-.4.4-.8.7-1.2,1.1-.3.3-.7.5-1,.3s-.2-.7-.1-1.1a1.432,1.432,0,0,0-.3-1.1,14.885,14.885,0,0,0-8.4,8.8Z" transform="translate(-286 -4.6)" fill="#3fa348"/>
          <path id="Path_38" data-name="Path 38" d="M299.8,5.6a1.436,1.436,0,0,0-.5,1.8c0,.2.2.4,0,.6a.349.349,0,0,1-.2.1,1.24,1.24,0,0,0-.5,1.5,2.117,2.117,0,0,1,.3.7c0,.2-.2.4-.3.6-.1.4.3.7.7.7a1.823,1.823,0,0,0,1.1-.5c.2-.2.5-.3.7-.5a11.319,11.319,0,0,0,1.3-1,4.819,4.819,0,0,0,1.5-2.8h0a.909.909,0,0,0-.8-.4,3.751,3.751,0,0,0-1,.1h-.3c-.2,0-.3-.3-.3-.5a1.282,1.282,0,0,0-1.7-.5Z" transform="translate(-286 -4.6)" fill="#3fa348"/>
          <path id="Path_39" data-name="Path 39" d="M312.8,8.4a.758.758,0,0,1-.4.2,2.979,2.979,0,0,1-1.3-.1,3.887,3.887,0,0,0-1.5.2,2.567,2.567,0,0,0-1.2.5.925.925,0,0,0-.2,1.2c.3.4,1.1.4,1.3.9.2.4-.2.8-.5,1.2a8.064,8.064,0,0,1-1.4,1.2,2.994,2.994,0,0,0-.8.4,1.738,1.738,0,0,0-.6,1.1,3.743,3.743,0,0,0-1.8.5c-.1.1-.3.2-.3.4a.4.4,0,0,0,.2.4c.4.3,1,0,1.4,0a4.329,4.329,0,0,1,1.6-.1c.2,0,.4,0,.5.2a.759.759,0,0,1,.3.9.792.792,0,0,1-.8.5,7.232,7.232,0,0,0-6.5,3.2,2.618,2.618,0,0,0-.5,1.7c.2,1,1.5,1.4,2,2.3a.536.536,0,0,0,.3.4h.4c1.3,0,2.7,0,3.6.9a4.351,4.351,0,0,1,.8,1.5c.3.8.6,1.5.9,2.3v.3a.52.52,0,0,1-.2.4,2.01,2.01,0,0,0-.4,1.3,22.608,22.608,0,0,0,2.6-1.6,4.433,4.433,0,0,1,.3-2,9.022,9.022,0,0,1,1.4-2,3.008,3.008,0,0,0,.8-2.2,4.284,4.284,0,0,0-.5-1.3,1.22,1.22,0,0,1,0-1.3,2.181,2.181,0,0,1,.4-.5,1.8,1.8,0,0,0,.2-1.6,1.722,1.722,0,0,0-1.2-1h-1.4a2.326,2.326,0,0,1-1.2-.8c-.2-.2-.4-.4-.3-.6,0-.2.2-.3.4-.5a1.792,1.792,0,0,0,.4-1.4c.6.2,1.1.4,1.7.6.2,0,.4.2.6.4.2.3,0,.7.2,1,.1.3.5.4.8.4h1c.8,0,1.3.9,1.2,1.7,0,.7-.6,1.2-.7,1.9a2.1,2.1,0,0,0,.8,2.2c.1,0,.2.1.4.2a16.286,16.286,0,0,0,1-5.5,15.382,15.382,0,0,0-3.9-10.2Z" transform="translate(-286 -4.6)" fill="#73be44"/>
          <path id="Path_40" data-name="Path 40" d="M305.9,12.2c0,.1-.2.3-.1.4,0,.2.3.4.6.4a1.622,1.622,0,0,0,1.4-.7c.5-.8-.3-.7-.8-1h0a1.466,1.466,0,0,0-.4.2,1.794,1.794,0,0,0-.5.7Z" transform="translate(-286 -4.6)" fill="#3fa348"/>
          <path id="Path_41" data-name="Path 41" d="M291.2,19.4h.7c.3,0,.5.2.8.1h.1v-.3c-.2-.4-.7-.6-1.1-.9a6.47,6.47,0,0,1-.9-.8c-.2-.2-.3-.4-.5-.6a.908.908,0,0,0-.7-.3h-.2c-.1.1,0,.3,0,.4a8.65,8.65,0,0,0,.7,1c.3.3.5,1,.9,1.2Z" transform="translate(-286 -4.6)" fill="#3fa348"/>
          <path id="Path_42" data-name="Path 42" d="M292.8,25.6a7.255,7.255,0,0,0,.9-.5,1.649,1.649,0,0,0,0-2,3.825,3.825,0,0,0-1.8-1.2,2.01,2.01,0,0,1-.8-.4,5.5,5.5,0,0,1-.7-.9,2.814,2.814,0,0,0-2.1-1,1.8,1.8,0,0,1-1-.2c-.2-.2-.2-.5-.3-.8a.877.877,0,0,0-1-.5h0v.6a15.073,15.073,0,0,0,4.2,10.5c.1,0,.2-.2.3-.3a12.81,12.81,0,0,0,1.1-2,3.744,3.744,0,0,1,1.3-1.2Z" transform="translate(-286 -4.6)" fill="#3fa348"/>
          <path id="Path_43" data-name="Path 43" d="M304.4,28.6H304a4.053,4.053,0,0,1-.9.5h-.2c-.2.5.2,1,.2,1.5v.3c0,.2.3.3.5.3a.675.675,0,0,0,.6-.4.908.908,0,0,0,.3-.7.758.758,0,0,1,.2-.4,1.167,1.167,0,0,0,0-1h0a.2.2,0,0,0-.2-.2Z" transform="translate(-286 -4.6)" fill="#3fa348"/>
        </g>
        <path id="Path_44" data-name="Path 44" d="M302,3.3a1.258,1.258,0,0,1,1,.5c.3.5.6.6,1,.5a2.757,2.757,0,0,1,1.8,0A6.544,6.544,0,0,1,308,6c.7.9,1.5.4,1.8.4a.765.765,0,0,0,.5-.2A15.083,15.083,0,0,0,302,3.3Z" transform="translate(-286 -3.3)" fill="#3fa348"/>
        <path id="Path_45" data-name="Path 45" d="M292.8,31.5a2.548,2.548,0,0,1,1.4-.4c.7.1,1.6.5,2.3,0a2.431,2.431,0,0,1,2.1-.3c.2.2.7.2,1,.9s.4,1.2,1,1.5,1.2.4,1.3.6c0,0,.5.2-.9.1a14.928,14.928,0,0,1-8.3-2.5" transform="translate(-286 -3.3)" fill="#73be44"/>
      </g>
    </g>
    <text id="text-option-1" transform="translate(19 55)" fill="#3ea348" font-size="24" font-family="NeoSansW1G-Regular, Neo Sans W1G"><tspan x="0" y="0">Think green &amp;</tspan><tspan y="0" fill="#707070"> </tspan><tspan y="0" fill="#73be44">Save the Planet</tspan></text>
  </g>
</svg>
